<?xml version="1.0" encoding="UTF-8"?>
<svg version="1.1" xmlns="http://www.w3.org/2000/svg" width="1920" height="1080">
<path d="M0 0 C633.6 0 1267.2 0 1920 0 C1920 356.4 1920 712.8 1920 1080 C1286.4 1080 652.8 1080 0 1080 C0 723.6 0 367.2 0 0 Z " fill="#FEFEFE" transform="translate(0,0)"/>
<path d="M0 0 C1.07314453 0.62455078 1.07314453 0.62455078 2.16796875 1.26171875 C2.95558594 1.70902344 3.74320313 2.15632813 4.5546875 2.6171875 C13.678865 8.24250685 19.63706024 16.09454246 23.16796875 26.26171875 C23.66296875 31.70671875 23.66296875 31.70671875 24.16796875 37.26171875 C63.10796875 37.26171875 102.04796875 37.26171875 142.16796875 37.26171875 C142.16796875 34.29171875 142.16796875 31.32171875 142.16796875 28.26171875 C144.65756211 17.82007131 151.67975093 9.52038592 160.16796875 3.26171875 C162.76089814 1.72321536 165.3910157 0.43125387 168.16796875 -0.73828125 C168.895 -1.0940625 169.62203125 -1.44984375 170.37109375 -1.81640625 C179.85910436 -4.94373936 191.7551787 -3.63041362 200.55859375 0.72265625 C210.6682444 6.68553403 218.5569117 14.82670476 222.16796875 26.26171875 C222.49796875 29.89171875 222.82796875 33.52171875 223.16796875 37.26171875 C262.10796875 37.26171875 301.04796875 37.26171875 341.16796875 37.26171875 C341.16796875 34.29171875 341.16796875 31.32171875 341.16796875 28.26171875 C343.49353063 18.09280222 350.72618137 9.17277758 359.16796875 3.26171875 C361.76821292 1.75526754 364.40964105 0.4515856 367.16796875 -0.73828125 C367.89628906 -1.09535156 368.62460937 -1.45242188 369.375 -1.8203125 C378.93365279 -4.96196761 390.76440387 -3.59014501 399.625 0.78515625 C410.03932172 6.83218176 417.14117573 14.8008463 421.16796875 26.26171875 C421.49796875 29.89171875 421.82796875 33.52171875 422.16796875 37.26171875 C460.77796875 37.26171875 499.38796875 37.26171875 539.16796875 37.26171875 C539.49796875 34.62171875 539.82796875 31.98171875 540.16796875 29.26171875 C544.52853684 17.96691394 552.10188522 9.09065524 563.18359375 4.015625 C574.13974775 -0.14685083 585.15121305 0.12674342 596.16796875 4.26171875 C608.37060933 10.15039249 614.81206446 18.93736448 619.35546875 31.4765625 C620.16796875 34.26171875 620.16796875 34.26171875 620.16796875 37.26171875 C658.77796875 37.26171875 697.38796875 37.26171875 737.16796875 37.26171875 C737.16796875 34.29171875 737.16796875 31.32171875 737.16796875 28.26171875 C739.49353063 18.09280222 746.72618137 9.17277758 755.16796875 3.26171875 C757.76821292 1.75526754 760.40964105 0.4515856 763.16796875 -0.73828125 C763.89628906 -1.09535156 764.62460937 -1.45242188 765.375 -1.8203125 C774.86833078 -4.94049814 786.74219497 -3.62436419 795.5546875 0.71484375 C806.12110033 6.96940202 812.99546015 14.6714171 817.16796875 26.26171875 C817.49796875 29.89171875 817.82796875 33.52171875 818.16796875 37.26171875 C850.83796875 37.26171875 883.50796875 37.26171875 917.16796875 37.26171875 C917.16796875 34.29171875 917.16796875 31.32171875 917.16796875 28.26171875 C920.05231907 16.56488101 927.83707797 7.97877219 937.734375 1.515625 C944.18520347 -1.8081566 949.77340848 -3.27467094 957.04296875 -3.17578125 C958.22922852 -3.16333374 958.22922852 -3.16333374 959.43945312 -3.15063477 C965.69821081 -2.96999478 970.72318121 -1.96517457 976.16796875 1.26171875 C977.0290625 1.77089844 977.89015625 2.28007812 978.77734375 2.8046875 C988.20673634 8.90031555 994.44761884 17.53669062 997.41796875 28.38671875 C998.16796875 32.26171875 998.16796875 32.26171875 998.16796875 38.26171875 C1030.50796875 38.26171875 1062.84796875 38.26171875 1096.16796875 38.26171875 C1096.16796875 35.95171875 1096.16796875 33.64171875 1096.16796875 31.26171875 C1098.05162412 19.85214911 1104.51993055 10.71576006 1113.671875 3.91796875 C1121.05761415 -0.98274079 1127.15651748 -2.91763356 1135.98046875 -2.92578125 C1137.01010742 -2.94415039 1137.01010742 -2.94415039 1138.06054688 -2.96289062 C1148.62144106 -2.99286478 1158.26378844 1.18354233 1165.91796875 8.38671875 C1175.45887087 18.50278164 1177.69028995 28.50090651 1177.4375 41.96484375 C1176.98224013 52.23622407 1172.09080608 60.81880182 1165.16796875 68.26171875 C1156.63666792 75.0668903 1148.05839235 78.80397782 1137.16796875 78.63671875 C1136.41257812 78.64832031 1135.6571875 78.65992188 1134.87890625 78.671875 C1124.98099097 78.62085482 1116.90589209 74.23262378 1109.16796875 68.26171875 C1101.5918152 60.47589305 1098.37375645 53.11380809 1097.16796875 42.26171875 C1064.16796875 42.26171875 1031.16796875 42.26171875 997.16796875 42.26171875 C996.83796875 45.23171875 996.50796875 48.20171875 996.16796875 51.26171875 C992.10576928 63.23009983 984.08284814 69.88962105 973.375 75.6953125 C964.94019116 79.8151156 953.65381071 79.6134787 944.6328125 77.390625 C932.30053913 72.53727871 924.73041397 64.85746653 919.0703125 52.953125 C917.50140368 49.09287959 917.16796875 46.51414421 917.16796875 42.26171875 C884.16796875 42.26171875 851.16796875 42.26171875 817.16796875 42.26171875 C816.83796875 45.23171875 816.50796875 48.20171875 816.16796875 51.26171875 C813.00555465 60.81682401 805.99960799 69.38186032 797.1953125 74.265625 C796.52628906 74.59433594 795.85726562 74.92304688 795.16796875 75.26171875 C794.55050781 75.58011719 793.93304687 75.89851563 793.296875 76.2265625 C784.46576148 79.96214073 771.57602577 79.96123948 762.60546875 76.69921875 C750.45255965 70.75872618 742.69166412 61.42332671 737.91796875 49.01171875 C737.16796875 46.26171875 737.16796875 46.26171875 737.16796875 42.26171875 C698.55796875 42.26171875 659.94796875 42.26171875 620.16796875 42.26171875 C620.16796875 44.57171875 620.16796875 46.88171875 620.16796875 49.26171875 C617.13360672 61.93464254 609.60430998 72.06624403 598.5546875 78.87109375 C588.62936835 83.75824951 576.48438297 83.82463014 565.79296875 81.32421875 C555.03215301 77.32840634 547.18265699 69.39373506 542.16796875 59.26171875 C539.39116577 53.0788373 539.16796875 49.38713906 539.16796875 42.26171875 C500.22796875 42.26171875 461.28796875 42.26171875 421.16796875 42.26171875 C420.83796875 45.23171875 420.50796875 48.20171875 420.16796875 51.26171875 C416.2276975 62.28918931 409.49707968 69.92109889 399.16796875 75.26171875 C398.54921875 75.58269531 397.93046875 75.90367187 397.29296875 76.234375 C388.4467051 79.94911462 375.5854822 79.96467819 366.60546875 76.69921875 C355.91519415 71.47368005 347.73851294 63.19837806 343.16796875 52.26171875 C342.50796875 48.96171875 341.84796875 45.66171875 341.16796875 42.26171875 C301.89796875 42.26171875 262.62796875 42.26171875 222.16796875 42.26171875 C221.83796875 45.23171875 221.50796875 48.20171875 221.16796875 51.26171875 C218.00555465 60.81682401 210.99960799 69.38186032 202.1953125 74.265625 C201.52628906 74.59433594 200.85726563 74.92304688 200.16796875 75.26171875 C199.55050781 75.58011719 198.93304688 75.89851563 198.296875 76.2265625 C189.02454879 80.14877456 176.14976115 79.83936093 166.79296875 76.44921875 C156.4591652 71.36136554 148.19161039 63.11220261 144.16796875 52.26171875 C143.73484375 51.14796875 143.30171875 50.03421875 142.85546875 48.88671875 C142.16796875 46.26171875 142.16796875 46.26171875 142.16796875 42.26171875 C102.89796875 42.26171875 63.62796875 42.26171875 23.16796875 42.26171875 C23.16796875 44.57171875 23.16796875 46.88171875 23.16796875 49.26171875 C18.76263548 61.76770148 10.73852642 70.1587051 -0.7734375 76.296875 C-10.069979 80.20833571 -23.01134955 79.80892381 -32.33203125 76.32421875 C-42.9506097 71.10317256 -51.10963571 62.19271605 -55.70703125 51.32421875 C-58.49379127 41.84589724 -58.46299776 29.27388125 -54.08984375 20.359375 C-43.0563867 1.95885812 -21.01282947 -10.3074981 0 0 Z " fill="#258D25" transform="translate(216.83203125,411.73828125)"/>
<path d="M0 0 C1.18625977 0.01244751 1.18625977 0.01244751 2.39648438 0.02514648 C8.65524206 0.20578647 13.68021246 1.21060668 19.125 4.4375 C19.98609375 4.94667969 20.8471875 5.45585937 21.734375 5.98046875 C31.16376759 12.0760968 37.40465009 20.71247187 40.375 31.5625 C41.125 35.4375 41.125 35.4375 41.125 41.4375 C73.465 41.4375 105.805 41.4375 139.125 41.4375 C139.125 39.1275 139.125 36.8175 139.125 34.4375 C141.00865537 23.02793036 147.4769618 13.89154131 156.62890625 7.09375 C164.0146454 2.19304046 170.11354873 0.25814769 178.9375 0.25 C179.96713867 0.23163086 179.96713867 0.23163086 181.01757812 0.21289062 C191.57847231 0.18291647 201.22081969 4.35932358 208.875 11.5625 C218.41590212 21.67856289 220.6473212 31.67668776 220.39453125 45.140625 C219.93927138 55.41200532 215.04783733 63.99458307 208.125 71.4375 C199.59369917 78.24267155 191.0154236 81.97975907 180.125 81.8125 C179.36960937 81.82410156 178.61421875 81.83570313 177.8359375 81.84765625 C167.93802222 81.79663607 159.86292334 77.40840503 152.125 71.4375 C144.54884645 63.6516743 141.3307877 56.28958934 140.125 45.4375 C107.125 45.4375 74.125 45.4375 40.125 45.4375 C39.795 48.4075 39.465 51.3775 39.125 54.4375 C35.06280053 66.40588108 27.03987939 73.0654023 16.33203125 78.87109375 C7.89722241 82.99089685 -3.38915804 82.78925995 -12.41015625 80.56640625 C-24.44154798 75.83147144 -32.25037274 68.33784632 -37.71777344 56.63330078 C-41.72974812 47.03270737 -41.5728201 34.57337991 -37.9375 24.875 C-32.35005481 13.6214132 -22.80970567 5.2957199 -11.05395508 1.04614258 C-7.37280647 0.01789569 -3.80259008 -0.05172761 0 0 Z " fill="#258D25" transform="translate(1173.875,408.5625)"/>
<path d="M0 0 C0.75990234 -0.01611328 1.51980469 -0.03222656 2.30273438 -0.04882812 C12.45324997 -0.05749637 21.84254306 4.55714656 29.30078125 11.3515625 C39.20795634 21.9117529 41.63492696 32.18904354 41.40234375 46.203125 C40.9523577 56.39782974 36.19122589 65.12861956 29.0625 72.3125 C18.80905873 80.78273409 9.28918927 83.97383446 -3.9375 83.3125 C-15.22134196 82.2275152 -24.23172638 77.67608356 -31.9375 69.3125 C-38.25339668 60.88301585 -40.9375 54.91140998 -40.9375 44.3125 C-70.9675 44.3125 -100.9975 44.3125 -131.9375 44.3125 C-131.9375 42.9925 -131.9375 41.6725 -131.9375 40.3125 C-101.9075 40.3125 -71.8775 40.3125 -40.9375 40.3125 C-40.9375 37.3425 -40.9375 34.3725 -40.9375 31.3125 C-37.93149194 19.85430458 -29.30734511 10.05739433 -19.375 4 C-12.90996607 0.82625607 -7.080181 -0.02987418 0 0 Z " fill="#99E384" transform="translate(1526.9375,408.6875)"/>
<path d="M0 0 C0.75990234 -0.01611328 1.51980469 -0.03222656 2.30273438 -0.04882812 C12.45324997 -0.05749637 21.84254306 4.55714656 29.30078125 11.3515625 C39.20795634 21.9117529 41.63492696 32.18904354 41.40234375 46.203125 C40.9523577 56.39782974 36.19122589 65.12861956 29.0625 72.3125 C18.80905873 80.78273409 9.28918927 83.97383446 -3.9375 83.3125 C-15.22134196 82.2275152 -24.23172638 77.67608356 -31.9375 69.3125 C-38.25339668 60.88301585 -40.9375 54.91140998 -40.9375 44.3125 C-70.9675 44.3125 -100.9975 44.3125 -131.9375 44.3125 C-131.9375 42.9925 -131.9375 41.6725 -131.9375 40.3125 C-101.9075 40.3125 -71.8775 40.3125 -40.9375 40.3125 C-40.9375 37.3425 -40.9375 34.3725 -40.9375 31.3125 C-37.93149194 19.85430458 -29.30734511 10.05739433 -19.375 4 C-12.90996607 0.82625607 -7.080181 -0.02987418 0 0 Z M-24 22.8125 C-25.57266223 24.96101434 -25.57266223 24.96101434 -26.9375 27.3125 C-27.48535156 28.22257812 -28.03320312 29.13265625 -28.59765625 30.0703125 C-30.26270335 34.09943522 -30.39682807 37.37628709 -30.3125 41.6875 C-30.30017334 42.44554932 -30.28784668 43.20359863 -30.27514648 43.98461914 C-29.98372844 53.65990727 -27.28783332 58.95351639 -20.51171875 66.03515625 C-13.38941104 72.33607491 -5.84851826 74.24342135 3.56640625 73.8515625 C12.74502575 72.43631167 19.77110877 67.77689771 25.50390625 60.578125 C30.87007378 52.77768098 30.83831037 44.56177163 30.0625 35.3125 C27.68020539 26.49800995 23.07053362 20.37739094 15.40625 15.50390625 C1.97563101 8.67667493 -14.36051505 10.91910625 -24 22.8125 Z " fill="#2A8F28" transform="translate(1526.9375,408.6875)"/>
<path d="M0 0 C5.52147914 6.0098655 7.69762785 12.10353865 7.52734375 20.23046875 C7.51646729 20.93558594 7.50559082 21.64070313 7.49438477 22.3671875 C7.23602309 30.79075293 5.14008408 36.24533933 -0.64453125 42.39453125 C-7.35161756 48.17404179 -14.93301413 51.38404903 -23.828125 50.87109375 C-32.04710759 49.29747225 -39.28812817 45.17454513 -44.4453125 38.5546875 C-48.87527117 31.40999093 -51.13196654 23.67408642 -49.84765625 15.29296875 C-47.75158937 7.14435373 -43.52955542 0.57192949 -36.60546875 -4.27734375 C-24.20074666 -11.58652344 -10.52330995 -9.7223815 0 0 Z " fill="#9EE987" transform="translate(1374.84765625,428.70703125)"/>
<path d="M0 0 C7.97771552 4.91752753 12.81041085 11.12430182 15.76171875 20.0859375 C17.1611499 29.21453454 15.5005316 37.04529326 10.6640625 44.859375 C6.54418126 50.36186045 0.1801583 53.91148844 -6.23828125 56.0859375 C-15.83226693 57.42523215 -23.25785721 55.51022572 -31.23828125 50.0859375 C-33.730672 47.9796918 -35.51160221 45.84748047 -37.23828125 43.0859375 C-37.64820313 42.45300781 -38.058125 41.82007813 -38.48046875 41.16796875 C-42.24077225 34.25679024 -42.17064272 26.74929447 -41.23828125 19.0859375 C-38.73134967 10.73319643 -33.08787064 4.22399532 -25.73828125 -0.3515625 C-18.37794317 -3.68671569 -7.32656108 -3.46462107 0 0 Z " fill="#9EE988" transform="translate(809.23828125,426.9140625)"/>
<path d="M0 0 C7.44423777 3.29574613 13.62565554 9.54597661 16.9609375 16.9921875 C19.18953057 24.25682206 18.94002774 32.86474363 16.19140625 39.94921875 C11.72436669 48.04661427 5.64761194 53.2596426 -3.0390625 56.1796875 C-4.0290625 56.6746875 -4.0290625 56.6746875 -5.0390625 57.1796875 C-13.99927073 58.06046411 -21.30482449 56.33067008 -28.7265625 51.2421875 C-35.01846409 45.95478248 -38.41310405 39.54325292 -39.578125 31.421875 C-39.95247822 21.66898848 -37.93581031 14.94237927 -31.7890625 7.4296875 C-30.8815625 6.6871875 -29.9740625 5.9446875 -29.0390625 5.1796875 C-28.471875 4.64214844 -27.9046875 4.10460937 -27.3203125 3.55078125 C-19.64622095 -2.80986002 -9.27137975 -2.50255751 0 0 Z " fill="#9EE988" transform="translate(1005.0390625,421.8203125)"/>
<path d="M0 0 C7.42323185 3.2864463 13.59461958 9.52378807 16.9609375 16.9296875 C19.37176778 24.82397488 19.1238654 33.77164955 15.2890625 41.1171875 C11.18244844 47.49451757 6.7974856 51.88801619 -0.0390625 55.1796875 C-1.18375 55.7984375 -1.18375 55.7984375 -2.3515625 56.4296875 C-9.73523032 58.49024596 -17.18383955 57.45881039 -24.0390625 54.1796875 C-32.11900043 49.49799061 -36.52187105 43.10527464 -39.0390625 34.1796875 C-40.06406852 25.07331824 -39.29599483 17.79568641 -34.0390625 10.1796875 C-31.7890625 7.4296875 -31.7890625 7.4296875 -29.0390625 5.1796875 C-28.471875 4.64214844 -27.9046875 4.10460937 -27.3203125 3.55078125 C-19.64622095 -2.80986002 -9.27137975 -2.50255751 0 0 Z " fill="#9EE988" transform="translate(609.0390625,421.8203125)"/>
<path d="M0 0 C6.61620072 3.9968175 12.76672453 10.23587194 15.02734375 17.78125 C16.89707619 28.18052374 15.4572476 36.30883718 9.4375 45.0625 C4.3665356 50.95204775 -2.25049136 55.3251865 -10.0390625 56.40625 C-19.20974288 56.74695639 -26.48296069 53.9598845 -33.546875 48.16796875 C-40.38356458 41.026543 -41.973085 32.24104667 -41.9140625 22.71875 C-41.39784349 17.35007229 -39.4862844 13.5206319 -36.5625 9.0625 C-36.005625 8.155 -35.44875 7.2475 -34.875 6.3125 C-25.38172592 -2.9241991 -12.34303627 -5.45611804 0 0 Z " fill="#9FEA88" transform="translate(213.5625,422.9375)"/>
<path d="M0 0 C7.42323185 3.2864463 13.59461958 9.52378807 16.9609375 16.9296875 C19.36907373 24.8151532 19.14564875 33.80195448 15.26953125 41.125 C10.1090726 49.22769029 4.12748953 53.97959964 -5.0390625 57.1796875 C-13.69033644 58.70564107 -21.60189875 56.12699041 -28.7265625 51.2421875 C-35.01846409 45.95478248 -38.41310405 39.54325292 -39.578125 31.421875 C-39.95247822 21.66898848 -37.93581031 14.94237927 -31.7890625 7.4296875 C-30.8815625 6.6871875 -29.9740625 5.9446875 -29.0390625 5.1796875 C-28.471875 4.64214844 -27.9046875 4.10460937 -27.3203125 3.55078125 C-19.64622095 -2.80986002 -9.27137975 -2.50255751 0 0 Z " fill="#9EE887" transform="translate(410.0390625,421.8203125)"/>
<path d="M0 0 C8.0288 4.87462857 13.04256003 11.93246712 15.375 21 C16.65931029 29.38111767 14.40261492 37.11702218 9.97265625 44.26171875 C4.98006918 50.67029628 -2.28178797 55.0575384 -10.3046875 56.47265625 C-19.35270116 56.79680627 -26.69083338 53.73206727 -33.609375 48.03515625 C-39.63001204 41.95617971 -41.75612373 35.1109644 -41.875 26.75 C-41.77121347 17.46110512 -39.11438261 10.73897425 -32.625 4 C-23.9373332 -3.91318488 -10.58888046 -4.74394797 0 0 Z " fill="#3CEB3C" transform="translate(1187.625,423)"/>
<path d="M0 0 C10.31474217 6.08384493 17.58414837 14.13425371 21.609375 25.5390625 C24.25167636 36.88979368 22.61038317 48.5841088 16.984375 58.7890625 C11.99650004 66.46841455 5.14132144 72.20549735 -3.390625 75.5390625 C-4.28136719 75.89355469 -5.17210937 76.24804688 -6.08984375 76.61328125 C-15.76356321 79.32650197 -27.56109571 78.78136551 -36.57421875 74.34375 C-45.51220978 68.61649361 -52.69752409 61.70340781 -56.390625 51.5390625 C-56.7515625 50.63285156 -57.1125 49.72664063 -57.484375 48.79296875 C-59.99835571 39.76647765 -59.79619752 28.09176802 -55.6484375 19.63671875 C-49.92287547 10.08818828 -42.73795548 2.89692025 -32.390625 -1.4609375 C-31.66359375 -1.81671875 -30.9365625 -2.1725 -30.1875 -2.5390625 C-20.69948939 -5.66639561 -8.80341505 -4.35306987 0 0 Z M-41.953125 20.1640625 C-46.76782346 28.07902674 -47.37400547 35.46309229 -46.390625 44.5390625 C-43.65640331 54.15905882 -37.97797384 59.72913984 -29.390625 64.5390625 C-22.8765954 67.2818118 -16.08088803 67.79137112 -9.36328125 65.51171875 C-1.00317076 61.70591813 5.71905596 56.28681009 9.609375 47.7890625 C12.01831694 39.90095849 11.78629312 30.92859343 7.92578125 23.59765625 C3.3053053 16.37216418 -1.94125519 10.90703875 -10.390625 8.5390625 C-23.39227637 6.42518634 -34.05023376 8.8769188 -41.953125 20.1640625 Z " fill="#258D25" transform="translate(417.390625,412.4609375)"/>
<path d="M0 0 C10.10537099 5.90175936 16.40790091 14.07395148 20.23828125 25.09765625 C23.01801592 36.56246054 21.30034612 46.74137163 15.80078125 56.98828125 C10.48635692 65.67788315 3.15467568 72.1278774 -6.40234375 75.75 C-17.82322537 78.49406054 -30.79339039 77.87720735 -40.93359375 71.77734375 C-48.18932357 66.7761687 -52.96926186 61.46028227 -56.9140625 53.59375 C-57.27242187 52.90023437 -57.63078125 52.20671875 -58 51.4921875 C-61.5874316 42.96792342 -61.50854115 30.70147745 -58.2890625 22.09375 C-57.5482118 20.56801203 -56.75612415 19.06605034 -55.9140625 17.59375 C-55.26050781 16.42779297 -55.26050781 16.42779297 -54.59375 15.23828125 C-42.8417751 -3.93092371 -20.17541808 -9.73612669 0 0 Z M-43.25 19.359375 C-48.83355316 26.85654027 -49.04673929 34.40235641 -47.9140625 43.59375 C-45.49046801 51.13955127 -41.70311967 57.36633708 -34.9140625 61.59375 C-34.25792969 62.00367188 -33.60179687 62.41359375 -32.92578125 62.8359375 C-26.53410491 66.22457761 -20.01071393 66.6001842 -12.9140625 65.59375 C-9.26718754 64.3418377 -6.14450841 62.68475157 -2.9140625 60.59375 C-1.9859375 59.995625 -1.0578125 59.3975 -0.1015625 58.78125 C6.03735557 52.64233193 9.32453 45.16054933 9.5859375 36.46875 C9.43482102 28.19512269 6.5835243 21.64548121 1.1875 15.39453125 C-6.49903058 8.14853306 -13.85962807 6.93273972 -24.2890625 7.19140625 C-32.82984703 8.13935971 -37.93846253 12.88395482 -43.25 19.359375 Z " fill="#258D25" transform="translate(815.9140625,417.40625)"/>
<path d="M0 0 C1.18625977 0.01244751 1.18625977 0.01244751 2.39648438 0.02514648 C8.65524206 0.20578647 13.68021246 1.21060668 19.125 4.4375 C19.98609375 4.94667969 20.8471875 5.45585937 21.734375 5.98046875 C30.95875474 11.94356631 36.66658002 20.06224006 40.125 30.4375 C41.31225272 43.86573764 40.67202527 55.53065826 32.5625 66.6875 C26.1991356 74.14104973 16.85759122 80.29124249 6.9921875 81.75366211 C4.77645972 81.90989292 2.59606748 81.9564917 0.375 81.9375 C-0.4099585 81.93177979 -1.19491699 81.92605957 -2.00366211 81.92016602 C-12.78262178 81.59219234 -22.32001663 77.16649451 -29.875 69.4375 C-39.07339264 57.44193533 -41.48869923 46.28802432 -39.875 31.4375 C-37.20849415 19.72806127 -29.16136641 11.12547806 -19.30859375 4.69140625 C-12.85776528 1.36762465 -7.26956027 -0.09888969 0 0 Z M-22.875 22.875 C-28.24501762 30.49410735 -28.75210376 38.31995229 -27.875 47.4375 C-25.68658424 56.07287029 -21.43539507 62.00512298 -13.875 66.75 C-7.63754766 70.46323335 -1.04630582 71.46055332 6.125 70.4375 C15.23884486 67.29519471 22.07560882 62.50897437 26.43359375 53.83203125 C29.70238799 45.81274018 30.47545636 38.62096305 27.625 30.375 C24.55861794 23.54288559 19.81470588 17.53537534 13.1875 13.875 C-0.31820536 8.8338079 -13.68942543 11.9272948 -22.875 22.875 Z " fill="#248D24" transform="translate(1173.875,408.5625)"/>
<path d="M0 0 C38.94 0 77.88 0 118 0 C118 1.65 118 3.3 118 5 C79.06 5 40.12 5 0 5 C0 3.35 0 1.7 0 0 Z " fill="#59EE59" transform="translate(440,449)"/>
<path d="M0 0 C38.94 0 77.88 0 118 0 C118 1.65 118 3.3 118 5 C79.06 5 40.12 5 0 5 C0 3.35 0 1.7 0 0 Z " fill="#59EE59" transform="translate(241,449)"/>
<path d="M0 0 C38.61 0 77.22 0 117 0 C117 1.65 117 3.3 117 5 C78.39 5 39.78 5 0 5 C0 3.35 0 1.7 0 0 Z " fill="#59EE59" transform="translate(837,449)"/>
<path d="M0 0 C38.61 0 77.22 0 117 0 C117 1.65 117 3.3 117 5 C78.39 5 39.78 5 0 5 C0 3.35 0 1.7 0 0 Z " fill="#59EE59" transform="translate(639,449)"/>
<path d="M0 0 C3.5 1.5625 3.5 1.5625 6 4 C6.6875 7.5 6.6875 7.5 6 11 C3.5 13.3125 3.5 13.3125 1 15 C1 15.66 1 16.32 1 17 C1.66 16.67 2.32 16.34 3 16 C6.91739424 15.46580988 9.277942 15.82713963 12.4375 18.125 C15 21 15 21 14.9375 24.25 C14 27 14 27 13 28 C9.5987271 28.49759363 6.39154119 28.58275708 3 28 C0.62522602 26.20584257 -0.39249428 24.57200916 -2 22 C-2.53625 22.495 -3.0725 22.99 -3.625 23.5 C-6.66673285 25.42109443 -8.46049143 25.45185216 -12 25 C-13.9375 23.875 -13.9375 23.875 -15 22 C-14.75921963 18.14751405 -14.15973378 16.23960066 -12 13 C-12.66 12.34 -13.32 11.68 -14 11 C-14.375 8.125 -14.375 8.125 -14 5 C-10.01435593 0.08437232 -6.19162668 -0.80261827 0 0 Z " fill="#ABF6AB" transform="translate(1174,435)"/>
<path d="M0 0 C2.475 0.495 2.475 0.495 5 1 C5.09765625 7.15234375 5.09765625 7.15234375 5 9 C4.67 9.33 4.34 9.66 4 10 C3.79448735 13.23339903 3.68044632 16.46501564 3.57421875 19.703125 C2.90437738 23.54901695 1.69526838 25.22887979 -1 28 C-4.75961715 29.87980858 -8.90695649 29.52795152 -13 29 C-16.77666938 27.56496925 -21.09540912 25.90459088 -24 23 C-24.27686887 19.86257232 -24.23173629 16.71070723 -24.25 13.5625 C-24.270625 12.67755859 -24.29125 11.79261719 -24.3125 10.88085938 C-24.31765625 10.03458984 -24.3228125 9.18832031 -24.328125 8.31640625 C-24.3374707 7.53724854 -24.34681641 6.75809082 -24.35644531 5.95532227 C-24.23881836 5.31006592 -24.12119141 4.66480957 -24 4 C-20.76085771 1.84057181 -19.75140267 1.72767022 -16 1.75 C-15.13375 1.74484375 -14.2675 1.7396875 -13.375 1.734375 C-11 2 -11 2 -8 4 C-7.8125 7.625 -7.8125 7.625 -8 11 C-7.360625 11.226875 -6.72125 11.45375 -6.0625 11.6875 C-4 13 -4 13 -3.125 15.4375 C-3 18 -3 18 -5 21 C-5.99 21 -6.98 21 -8 21 C-8.66 22.32 -9.32 23.64 -10 25 C-11.32 25 -12.64 25 -14 25 C-14 25.66 -14 26.32 -14 27 C-12.22825181 26.91276622 -10.45752623 26.80458345 -8.6875 26.6875 C-7.70136719 26.62949219 -6.71523438 26.57148438 -5.69921875 26.51171875 C-3.0368053 26.17245604 -3.0368053 26.17245604 -1.16015625 24.87109375 C0.59003369 22.04839684 0.32277659 19.65722435 0.25 16.375 C0.23453125 15.20710938 0.2190625 14.03921875 0.203125 12.8359375 C0.31823553 10.09997467 0.31823553 10.09997467 -1 9 C-1.23728814 2.47457627 -1.23728814 2.47457627 0 0 Z " fill="#0D130B" transform="translate(608,435)"/>
<path d="M0 0 C32.67 0 65.34 0 99 0 C99 1.65 99 3.3 99 5 C66.33 5 33.66 5 0 5 C0 3.35 0 1.7 0 0 Z " fill="#58EE58" transform="translate(1035,449)"/>
<path d="M0 0 C0.33 0 0.66 0 1 0 C1 1.98 1 3.96 1 6 C33.34 6 65.68 6 99 6 C99 7.32 99 8.64 99 10 C66.33 10 33.66 10 0 10 C0 6.7 0 3.4 0 0 Z " fill="#48EB48" transform="translate(1214,444)"/>
<path d="M0 0 C2.5 0.125 2.5 0.125 3.5 1.125 C3.625 3.625 3.625 3.625 3.5 6.125 C3.17 6.455 2.84 6.785 2.5 7.125 C5.47 7.125 8.44 7.125 11.5 7.125 C11.17 8.775 10.84 10.425 10.5 12.125 C8.85 12.455 7.2 12.785 5.5 13.125 C5.5 19.065 5.5 25.005 5.5 31.125 C4.18 31.455 2.86 31.785 1.5 32.125 C0.84 31.465 0.18 30.805 -0.5 30.125 C-2.48 31.115 -2.48 31.115 -4.5 32.125 C-5.5 31.125 -5.5 31.125 -5.61352539 29.26733398 C-5.60567017 28.08119507 -5.60567017 28.08119507 -5.59765625 26.87109375 C-5.59443359 26.01708984 -5.59121094 25.16308594 -5.58789062 24.28320312 C-5.57951172 23.38537109 -5.57113281 22.48753906 -5.5625 21.5625 C-5.55798828 20.66080078 -5.55347656 19.75910156 -5.54882812 18.83007812 C-5.53700225 16.59498686 -5.5205222 14.36002563 -5.5 12.125 C-7.81 11.795 -10.12 11.465 -12.5 11.125 C-12.17 9.805 -11.84 8.485 -11.5 7.125 C-8.53 7.125 -5.56 7.125 -2.5 7.125 C-3.16 6.465 -3.82 5.805 -4.5 5.125 C-3.7519084 0.18759542 -3.7519084 0.18759542 0 0 Z " fill="#1A2616" transform="translate(994.5,435.875)"/>
<path d="M0 0 C30.03 0 60.06 0 91 0 C91 1.32 91 2.64 91 4 C60.97 4 30.94 4 0 4 C0 2.68 0 1.36 0 0 Z " fill="#49E949" transform="translate(1395,449)"/>
<path d="M0 0 C2.74609375 1.4921875 2.74609375 1.4921875 5 3 C7.69254991 3.70670728 7.69254991 3.70670728 10 4 C10 6.31 10 8.62 10 11 C5.25 10.125 5.25 10.125 3 9 C3 8.01 3 7.02 3 6 C-2.36688164 3.57374248 -7.18415809 3.3072306 -13 4 C-18.00230198 6.45567552 -21.49851535 9.9970307 -24 15 C-24.56088092 20.99711135 -24.45741843 25.87348302 -21 31 C-17.70950291 34.70180922 -15.61903002 36.74190496 -10.58203125 37.23828125 C-4.31807713 37.40614462 1.04781324 37.19121243 6 33 C8.98600846 28.8106747 10.53174525 23.89418249 12 19 C12.66 19 13.32 19 14 19 C13.80301392 26.73618062 11.91703942 32.10188347 6.3828125 37.609375 C1.16918991 41.59231414 -4.25431364 41.73658939 -10.65234375 41.4765625 C-16.43507014 40.65335058 -19.95552805 38.59411642 -23.5546875 34.02734375 C-27.30766339 28.3554734 -29.00009636 22.87125031 -28 16 C-25.92876466 9.45287561 -22.69462132 4.52985517 -16.73828125 0.99609375 C-11.33082699 -0.97095452 -5.63730126 -0.8782752 0 0 Z " fill="#131B10" transform="translate(1534,430)"/>
<path d="M0 0 C3.25 0.375 3.25 0.375 6.0625 2.3125 C8.48805225 5.70827316 9.44815664 8.01309657 9.7109375 12.1484375 C8.94518278 15.84742216 6.60742286 17.29581467 3.62109375 19.37890625 C0.55173624 20.6683398 -1.44662746 20.8225537 -4.75 20.375 C-7.3046875 18.6171875 -7.3046875 18.6171875 -9.625 16.25 C-10.40617188 15.48429687 -11.18734375 14.71859375 -11.9921875 13.9296875 C-14.14567471 10.79995275 -14.22096264 9.10174788 -13.75 5.375 C-12.125 3 -12.125 3 -9.75 1.375 C-6.5625 1.1875 -6.5625 1.1875 -3.75 1.375 C-2.75 0.375 -2.75 0.375 0 0 Z " fill="#182314" transform="translate(202.75,445.625)"/>
<path d="M0 0 C0 0.99 0 1.98 0 3 C-0.474375 3.391875 -0.94875 3.78375 -1.4375 4.1875 C-3.37941247 6.06639134 -3.37941247 6.06639134 -3.1953125 9.67578125 C-3.77021863 14.97052943 -6.64660042 17.52129215 -10.4375 21 C-11.3356543 21.87591797 -11.3356543 21.87591797 -12.25195312 22.76953125 C-16.67561658 27 -16.67561658 27 -19 27 C-18.34 28.32 -17.68 29.64 -17 31 C-19.49361571 29.79618552 -21.68143083 28.54571278 -24 27 C-24 27.99 -24 28.98 -24 30 C-24 30.66 -24 31.32 -24 32 C-26.46800047 30.84826645 -28.04783565 29.95216435 -30 28 C-29.505 26.515 -29.505 26.515 -29 25 C-28.34 25.33 -27.68 25.66 -27 26 C-27.61277612 23.03824877 -28.25372522 21.61941217 -30 19 C-28.68 19 -27.36 19 -26 19 C-24.30688997 17.74426776 -24.30688997 17.74426776 -22.828125 15.97265625 C-22.24546875 15.34552734 -21.6628125 14.71839844 -21.0625 14.07226562 C-19.86310255 12.74233031 -18.67026326 11.40644836 -17.484375 10.06445312 C-13.04258238 5.31582614 -10.46834816 4.3275113 -4 4 C-1.51565849 2.10473223 -1.51565849 2.10473223 0 0 Z " fill="#182415" transform="translate(809,440)"/>
<path d="M0 0 C3.69964251 0.50213557 7.33433059 1.28371977 11 2 C11 6.95 11 11.9 11 17 C9.02 17 7.04 17 5 17 C4.34 17.33 3.68 17.66 3 18 C-0.67015275 18.1377685 -4.32611348 18.04271961 -8 18 C-8 12.72 -8 7.44 -8 2 C-4.535 1.505 -4.535 1.505 -1 1 C-0.67 0.67 -0.34 0.34 0 0 Z " fill="#9FEA89" transform="translate(398,435)"/>
<path d="M0 0 C1.84241041 0.22738609 3.67562004 0.53175326 5.5 0.875 C7.00046875 1.14957031 7.00046875 1.14957031 8.53125 1.4296875 C11 2 11 2 12 3 C12.09946453 4.76859193 12.13080217 6.54111451 12.1328125 8.3125 C12.13474609 9.92511719 12.13474609 9.92511719 12.13671875 11.5703125 C12.13285156 12.70210938 12.12898438 13.83390625 12.125 15 C12.13080078 16.69769531 12.13080078 16.69769531 12.13671875 18.4296875 C12.13542969 19.50476563 12.13414062 20.57984375 12.1328125 21.6875 C12.13168457 22.68136719 12.13055664 23.67523438 12.12939453 24.69921875 C12 27 12 27 11 28 C9.33382885 28.04063832 7.66611905 28.042721 6 28 C6 28.66 6 29.32 6 30 C4.68 30 3.36 30 2 30 C1.67 30.99 1.34 31.98 1 33 C0.505 31.515 0.505 31.515 0 30 C-2.06497387 29.01296048 -2.06497387 29.01296048 -4.5 28.375 C-8.92825112 27.07174888 -8.92825112 27.07174888 -10 26 C-10.25156269 22.36100825 -10.18522226 18.70916327 -10.1875 15.0625 C-10.19974609 14.03447266 -10.21199219 13.00644531 -10.22460938 11.94726562 C-10.22654297 10.96564453 -10.22847656 9.98402344 -10.23046875 8.97265625 C-10.23457764 8.06781494 -10.23868652 7.16297363 -10.24291992 6.23071289 C-10 4 -10 4 -8 2 C-5.67182036 1.63239269 -3.3381615 1.29758419 -1 1 C-0.67 0.67 -0.34 0.34 0 0 Z M0 2 C-0.33 2.33 -0.66 2.66 -1 3 C-3.31 3.33 -5.62 3.66 -8 4 C-8 9.28 -8 14.56 -8 20 C0.54964684 20.12206631 0.54964684 20.12206631 9 19 C9.66 19 10.32 19 11 19 C11 14.05 11 9.1 11 4 C8.69 3.67 6.38 3.34 4 3 C3.21625 2.79375 2.4325 2.5875 1.625 2.375 C1.08875 2.25125 0.5525 2.1275 0 2 Z " fill="#151E12" transform="translate(398,433)"/>
<path d="M0 0 C2.4375 0.6875 2.4375 0.6875 4 2 C5 4.375 5 4.375 5 7 C3.00968394 9.86605513 1.4933221 10.8355593 -1.8125 11.9375 C-5.95833254 12.01879083 -8.43737759 11.09566024 -12 9 C-12.9375 6.3125 -12.9375 6.3125 -13 4 C-8.61083615 -0.38916385 -5.93131041 -0.56488671 0 0 Z " fill="#76F176" transform="translate(1174,437)"/>
<path d="M0 0 C1.73056641 -0.02513672 1.73056641 -0.02513672 3.49609375 -0.05078125 C6.5625 0.3125 6.5625 0.3125 8.48828125 1.66796875 C9.5625 3.3125 9.5625 3.3125 9.3125 5.9375 C8.5625 8.3125 8.5625 8.3125 7.5625 9.3125 C5.25256618 9.43807162 2.93831464 9.48825729 0.625 9.5 C-0.64214844 9.51417969 -1.90929688 9.52835937 -3.21484375 9.54296875 C-6.4375 9.3125 -6.4375 9.3125 -8.4375 7.3125 C-8.6875 4.8125 -8.6875 4.8125 -8.4375 2.3125 C-5.65940605 -0.46559395 -3.86994797 0.01294297 0 0 Z " fill="#20301C" transform="translate(1354.4375,437.6875)"/>
<path d="M0 0 C0.99 0.33 1.98 0.66 3 1 C2.49905462 5.10960745 0.48852762 6.73984198 -2.625 9.3125 C-7.41261795 12.99004437 -7.41261795 12.99004437 -11.6875 13.0625 C-13.3271875 12.5365625 -13.3271875 12.5365625 -15 12 C-19.98128788 11.24603735 -19.98128788 11.24603735 -25 11 C-23 9 -23 9 -19.625 8.8125 C-16.85272822 8.95589337 -14.61594556 9.16289742 -12 10 C-12 9.34 -12 8.68 -12 8 C-12.99 8 -13.98 8 -15 8 C-15 7.34 -15 6.68 -15 6 C-12.69 6.66 -10.38 7.32 -8 8 C-8 7.34 -8 6.68 -8 6 C-14.17841869 3.58890978 -19.57541517 3.44252489 -26 5 C-26 4.34 -26 3.68 -26 3 C-22.15663271 1.19135657 -19.24153732 0.56719007 -15 1 C-13 2 -11 3 -9 4 C-6.17870417 3.82901237 -4.8487517 2.90408644 -2.4375 1.375 C-1.633125 0.92125 -0.82875 0.4675 0 0 Z " fill="#3C5833" transform="translate(1365,448)"/>
<path d="M0 0 C1.04414062 0.17789062 1.04414062 0.17789062 2.109375 0.359375 C2.439375 2.009375 2.769375 3.659375 3.109375 5.359375 C1.459375 6.679375 -0.190625 7.999375 -1.890625 9.359375 C-3.210625 8.369375 -4.530625 7.379375 -5.890625 6.359375 C-4.900625 8.009375 -3.910625 9.659375 -2.890625 11.359375 C-5.890625 13.359375 -5.890625 13.359375 -6.890625 13.359375 C-7.138125 13.978125 -7.385625 14.596875 -7.640625 15.234375 C-9.09691139 17.71006187 -10.26875006 18.31062502 -12.890625 19.359375 C-14.453125 18.109375 -14.453125 18.109375 -15.890625 16.359375 C-15.29305977 11.7857921 -12.27546102 9.22928323 -9.140625 6.109375 C-8.6146875 5.55507813 -8.08875 5.00078125 -7.546875 4.4296875 C-5.06783411 1.93837413 -3.55217394 0.44162163 0 0 Z " fill="#99E083" transform="translate(800.890625,446.640625)"/>
<path d="M0 0 C6.6 0 13.2 0 20 0 C18 2 18 2 15 3 C14.67 8.94 14.34 14.88 14 21 C12.0044484 17.00889681 11.80453935 15.30013434 12 11 C11.01 11.33 10.02 11.66 9 12 C8.67 14.97 8.34 17.94 8 21 C7.34 21 6.68 21 6 21 C6 14.73 6 8.46 6 2 C3.03 1.505 3.03 1.505 0 1 C0 0.67 0 0.34 0 0 Z " fill="#97DE82" transform="translate(984,445)"/>
<path d="M0 0 C0.56203125 0.31710937 1.1240625 0.63421875 1.703125 0.9609375 C4.15196317 2.06874525 6.08387855 2.38975399 8.75 2.625 C9.54921875 2.69976562 10.3484375 2.77453125 11.171875 2.8515625 C11.77515625 2.90054687 12.3784375 2.94953125 13 3 C9.25 5 9.25 5 7 5 C7 9.95 7 14.9 7 20 C5.35 20 3.7 20 2 20 C0 18 0 18 -0.22705078 16.12060547 C-0.21657715 15.37697754 -0.20610352 14.63334961 -0.1953125 13.8671875 C-0.18886719 13.06152344 -0.18242188 12.25585938 -0.17578125 11.42578125 C-0.15064453 10.16314453 -0.15064453 10.16314453 -0.125 8.875 C-0.11597656 8.02550781 -0.10695313 7.17601562 -0.09765625 6.30078125 C-0.07405647 4.20040116 -0.03818483 2.10016556 0 0 Z " fill="#010201" transform="translate(584,440)"/>
<path d="M0 0 C2.5 2.25 2.5 2.25 5 5 C5 8.85294829 4.6948924 9.82207674 3 13 C3 13.66 3 14.32 3 15 C-2.02612567 14.14377948 -5.042581 11.00840261 -8 7 C-8.4375 3.5625 -8.4375 3.5625 -8 1 C-7.34 1.66 -6.68 2.32 -6 3 C-3.41645782 3.16687448 -3.41645782 3.16687448 -1 3 C-0.67 2.01 -0.34 1.02 0 0 Z " fill="#99E183" transform="translate(199,450)"/>
<path d="M0 0 C1.65 0.33 3.3 0.66 5 1 C5.09765625 7.15234375 5.09765625 7.15234375 5 9 C4.67 9.33 4.34 9.66 4 10 C3.79448735 13.23339903 3.68044632 16.46501564 3.57421875 19.703125 C2.90508282 23.54496665 1.68924087 25.2295745 -1 28 C-4.58643343 29.73138166 -8.19457002 28.65863211 -12 28 C-12 27.67 -12 27.34 -12 27 C-11.07767578 26.94392578 -11.07767578 26.94392578 -10.13671875 26.88671875 C-9.32847656 26.82097656 -8.52023437 26.75523437 -7.6875 26.6875 C-6.88699219 26.62949219 -6.08648438 26.57148438 -5.26171875 26.51171875 C-2.48080733 25.88253154 -1.56362223 25.39289153 0 23 C0.40144444 19.83399741 0.40144444 19.83399741 0.25 16.375 C0.23453125 15.20710938 0.2190625 14.03921875 0.203125 12.8359375 C0.31823553 10.09997467 0.31823553 10.09997467 -1 9 C-1.23728814 2.47457627 -1.23728814 2.47457627 0 0 Z " fill="#23331D" transform="translate(608,435)"/>
<path d="M0 0 C3.0625 0.3125 3.0625 0.3125 4.9375 1.5 C6.46909584 3.96757108 6.49072025 5.45769831 6.0625 8.3125 C4.9375 10.125 4.9375 10.125 3.0625 11.3125 C0 11.625 0 11.625 -2.9375 11.3125 C-4.9375 9.3125 -4.9375 9.3125 -5.1875 5.8125 C-4.87458101 1.43163414 -4.40975115 0.46912246 0 0 Z " fill="#669657" transform="translate(202.9375,432.6875)"/>
<path d="M0 0 C1 1 1 1 1 6 C-5.27 6 -11.54 6 -18 6 C-18 4.68 -18 3.36 -18 2 C-17.22914063 1.93941406 -16.45828125 1.87882812 -15.6640625 1.81640625 C-14.15972656 1.69072266 -14.15972656 1.69072266 -12.625 1.5625 C-11.62726563 1.48128906 -10.62953125 1.40007812 -9.6015625 1.31640625 C-6.10021653 0.89056688 -3.66317339 -0.18785505 0 0 Z " fill="#9AE284" transform="translate(408,453)"/>
<path d="M0 0 C3.46464111 0.27173656 4.68165104 0.93690865 7.1875 3.25 C6.3125 8.125 6.3125 8.125 5.1875 9.25 C1.71493085 9.55867281 -0.1997288 9.63701339 -3.1875 7.75 C-3.72375 7.255 -4.26 6.76 -4.8125 6.25 C-3.75054285 0.33338159 -3.75054285 0.33338159 0 0 Z " fill="#8EF48E" transform="translate(1179.8125,452.75)"/>
<path d="M0 0 C0.66 0.66 1.32 1.32 2 2 C1.896875 2.886875 1.79375 3.77375 1.6875 4.6875 C2.10692534 9.13340865 4.03145498 10.59591007 7.17578125 13.58203125 C9.05079899 15.20167769 9.05079899 15.20167769 12 16 C11.773125 15.401875 11.54625 14.80375 11.3125 14.1875 C11.1578125 13.1046875 11.1578125 13.1046875 11 12 C11.495 11.525625 11.99 11.05125 12.5 10.5625 C12.995 10.046875 13.49 9.53125 14 9 C13.76956136 6.34533951 13.76956136 6.34533951 13 4 C14.32 4.66 15.64 5.32 17 6 C16.40072174 9.35595828 15.15377564 11.37801226 13 14 C13.78375 13.505 14.5675 13.01 15.375 12.5 C18 11 18 11 20 11 C20 9.02 20 7.04 20 5 C20.66 5 21.32 5 22 5 C22.5 7.625 22.5 7.625 22 11 C18.84756524 14.48179362 15.72208292 16.75528295 11.03125 17.421875 C7.17017287 16.8845086 5.83189626 15.63658103 3.125 12.875 C2.34382812 12.10929687 1.56265625 11.34359375 0.7578125 10.5546875 C-1.38911322 7.43448879 -1.42186096 5.71443431 -1 2 C-0.67 1.34 -0.34 0.68 0 0 Z " fill="#283B22" transform="translate(190,449)"/>
<path d="M0 0 C1.65 0.99 3.3 1.98 5 3 C3.71480435 5.86697492 2.42870746 7.97607712 0 10 C-0.66 10 -1.32 10 -2 10 C-1.34 11.32 -0.68 12.64 0 14 C-2.49361571 12.79618552 -4.68143083 11.54571278 -7 10 C-7 10.99 -7 11.98 -7 13 C-7 13.66 -7 14.32 -7 15 C-9.46800047 13.84826645 -11.04783565 12.95216435 -13 11 C-12.67 10.01 -12.34 9.02 -12 8 C-11.34 8.33 -10.68 8.66 -10 9 C-10.61277612 6.03824877 -11.25372522 4.61941217 -13 2 C-9.06326356 3.31224548 -6.77280706 4.91910327 -4 8 C-2.68 7.34 -1.36 6.68 0 6 C0 4.68 0 3.36 0 2 C0 1.34 0 0.68 0 0 Z " fill="#050805" transform="translate(792,457)"/>
<path d="M0 0 C3 1.25 3 1.25 5 4.25 C5.47120816 6.96766568 5.47013225 9.53116291 5 12.25 C3.1875 14.25 3.1875 14.25 1 15.25 C0.01 15.25 -0.98 15.25 -2 15.25 C-1.690625 14.6725 -1.38125 14.095 -1.0625 13.5 C-0.711875 12.7575 -0.36125 12.015 0 11.25 C0.309375 10.610625 0.61875 9.97125 0.9375 9.3125 C1.24860266 6.91529887 1.24860266 6.91529887 -1.375 4.625 C-2.674375 3.449375 -2.674375 3.449375 -4 2.25 C-4.33 1.59 -4.66 0.93 -5 0.25 C-3 -0.75 -3 -0.75 0 0 Z " fill="#9AE284" transform="translate(205,447.75)"/>
<path d="M0 0 C0.33 0.99 0.66 1.98 1 3 C2.175625 3.12375 2.175625 3.12375 3.375 3.25 C6 4 6 4 7.3125 6.0625 C7.6528125 7.0215625 7.6528125 7.0215625 8 8 C4.11766673 10.74047054 1.70340751 11.20449598 -3 11 C-3.99 11.33 -4.98 11.66 -6 12 C-5.75 10.1875 -5.75 10.1875 -5 8 C-4.34 7.525625 -3.68 7.05125 -3 6.5625 C-0.74724544 5.12113694 -0.74724544 5.12113694 -0.25 2.3125 C-0.1675 1.549375 -0.085 0.78625 0 0 Z " fill="#4FED4F" transform="translate(1180,441)"/>
<path d="M0 0 C3.5 1.5625 3.5 1.5625 6 4 C6.5625 7.5625 6.5625 7.5625 6 11 C4.5 12.9375 4.5 12.9375 3 14 C2.01 13.67 1.02 13.34 0 13 C0.99 12.1646875 0.99 12.1646875 2 11.3125 C4.25492211 9.15937692 4.25492211 9.15937692 4.25 6.25 C4.12625 5.13625 4.12625 5.13625 4 4 C0.11249357 2.70416452 -3.95072162 2.5021379 -8 3 C-10.4595774 4.33830958 -10.4595774 4.33830958 -12 6 C-11.50168276 9.68754757 -10.89932357 11.60490662 -8 14 C-10.86724686 13.42655063 -11.8614515 13.1385485 -14 11 C-14.375 8.125 -14.375 8.125 -14 5 C-10.01435593 0.08437232 -6.19162668 -0.80261827 0 0 Z " fill="#E0FCE0" transform="translate(1174,435)"/>
<path d="M0 0 C0.5775 0.515625 1.155 1.03125 1.75 1.5625 C1.375 4.5 1.375 4.5 0.75 7.5625 C-1.25 8.5625 -1.25 8.5625 -4.3125 7.875 C-7.25 6.5625 -7.25 6.5625 -8.25 4.625 C-8.25 2.5625 -8.25 2.5625 -6.25 -0.4375 C-3.41722422 -1.75946203 -2.67594385 -1.70963079 0 0 Z " fill="#354D2D" transform="translate(603.25,447.4375)"/>
<path d="M0 0 C0 0.66 0 1.32 0 2 C-0.99 2.66 -1.98 3.32 -3 4 C-3.5 7 -3.5 7 -3 10 C-2.01 10.66 -1.02 11.32 0 12 C0 12.66 0 13.32 0 14 C-2.31 14.33 -4.62 14.66 -7 15 C-7 10.38 -7 5.76 -7 1 C-4.53721199 -0.231394 -2.7204945 -0.07159196 0 0 Z " fill="#89C975" transform="translate(598,444)"/>
<path d="M0 0 C2.375 0.8125 2.375 0.8125 3.375 2.8125 C0.405 2.3175 0.405 2.3175 -2.625 1.8125 C-2.295 3.7925 -1.965 5.7725 -1.625 7.8125 C-0.635 8.1425 0.355 8.4725 1.375 8.8125 C1.375 8.1525 1.375 7.4925 1.375 6.8125 C0.715 6.8125 0.055 6.8125 -0.625 6.8125 C-0.625 6.1525 -0.625 5.4925 -0.625 4.8125 C1.025 4.8125 2.675 4.8125 4.375 4.8125 C4.375 6.7925 4.375 8.7725 4.375 10.8125 C-2.375 10.9375 -2.375 10.9375 -4.625 9.8125 C-6.10482709 3.66552594 -6.10482709 3.66552594 -4.5 0.8125 C-2.625 -0.1875 -2.625 -0.1875 0 0 Z " fill="#273622" transform="translate(1528.625,444.1875)"/>
<path d="M0 0 C0.33 1.32 0.66 2.64 1 4 C6.94 4 12.88 4 19 4 C19.33 4.66 19.66 5.32 20 6 C18.35 6 16.7 6 15 6 C15 6.66 15 7.32 15 8 C13.68 8 12.36 8 11 8 C10.67 8.99 10.34 9.98 10 11 C9.67 10.01 9.34 9.02 9 8 C6.93241371 7.04998712 6.93241371 7.04998712 4.5 6.4375 C2.03125 5.74609375 2.03125 5.74609375 0 5 C-0.33 4.34 -0.66 3.68 -1 3 C-0.67 2.01 -0.34 1.02 0 0 Z " fill="#253720" transform="translate(389,455)"/>
<path d="M0 0 C2.70339395 1.39065942 3.89628412 2.63973341 6 5 C5.90196078 10.09803922 5.90196078 10.09803922 4 12 C1.8203125 12.203125 1.8203125 12.203125 -0.875 12.25 C-1.75929688 12.27578125 -2.64359375 12.3015625 -3.5546875 12.328125 C-6.40964372 11.94503183 -7.23995897 11.21462117 -9 9 C-8.67 8.01 -8.34 7.02 -8 6 C-7.46375 6.66 -6.9275 7.32 -6.375 8 C-4.10041408 10.31024799 -4.10041408 10.31024799 -0.75 10.25 C0.1575 10.1675 1.065 10.085 2 10 C2.33 8.35 2.66 6.7 3 5 C-0.46998729 2.68667514 -1.92509248 2.66042437 -6 3 C-6.99 3.66 -7.98 4.32 -9 5 C-8.625 3.0625 -8.625 3.0625 -8 1 C-5.09704195 -0.45147903 -3.22738221 -0.37239025 0 0 Z " fill="#E0FCE0" transform="translate(1183,451)"/>
<path d="M0 0 C1.91015625 0.23046875 1.91015625 0.23046875 3.91015625 2.23046875 C3.25015625 2.23046875 2.59015625 2.23046875 1.91015625 2.23046875 C2.24015625 3.55046875 2.57015625 4.87046875 2.91015625 6.23046875 C0.2013629 7.58486543 -2.09917643 7.29548326 -5.08984375 7.23046875 C-5.74984375 5.25046875 -6.40984375 3.27046875 -7.08984375 1.23046875 C-5.19495423 -0.66442077 -2.51845229 0.05027763 0 0 Z " fill="#45EC45" transform="translate(1172.08984375,436.76953125)"/>
<path d="M0 0 C-0.33 1.65 -0.66 3.3 -1 5 C-2.65 5.33 -4.3 5.66 -6 6 C-6 11.61 -6 17.22 -6 23 C-6.33 23 -6.66 23 -7 23 C-7.02888514 19.85418577 -7.04675923 16.70840531 -7.0625 13.5625 C-7.07087891 12.66466797 -7.07925781 11.76683594 -7.08789062 10.84179688 C-7.09111328 9.98779297 -7.09433594 9.13378906 -7.09765625 8.25390625 C-7.10289307 7.46314697 -7.10812988 6.6723877 -7.11352539 5.85766602 C-7 4 -7 4 -6 3 C-8.64 3 -11.28 3 -14 3 C-9.41201726 -0.05865516 -5.43293781 -0.12634739 0 0 Z " fill="#151F12" transform="translate(1006,443)"/>
<path d="M0 0 C1.65 0 3.3 0 5 0 C6.31626692 3.61973402 7 6.09567131 7 10 C6.34 10 5.68 10 5 10 C5 9.01 5 8.02 5 7 C3.35 7 1.7 7 0 7 C0 7.99 0 8.98 0 10 C-0.66 10 -1.32 10 -2 10 C-1.34 6.7 -0.68 3.4 0 0 Z " fill="#1F2C1B" transform="translate(1515,445)"/>
<path d="M0 0 C3 2 3 2 3.625 3.98828125 C3.810625 5.13876953 3.810625 5.13876953 4 6.3125 C4.72490771 10.10151338 5.76822506 12.79788813 8 16 C8.33 16.66 8.66 17.32 9 18 C8.34 18 7.68 18 7 18 C6.67 18.66 6.34 19.32 6 20 C5.18071114 18.75443908 4.36984814 17.50333365 3.5625 16.25 C3.11003906 15.55390625 2.65757813 14.8578125 2.19140625 14.140625 C-0.39335243 9.496534 -0.08650904 5.19054257 0 0 Z " fill="#1C2919" transform="translate(1506,446)"/>
<path d="M0 0 C0.68449219 0.29261719 1.36898437 0.58523438 2.07421875 0.88671875 C1.54054688 1.09296875 1.006875 1.29921875 0.45703125 1.51171875 C-2.9145503 3.45728712 -5.35475127 6.10541289 -8.05078125 8.88671875 C-8.85708984 9.7065625 -8.85708984 9.7065625 -9.6796875 10.54296875 C-11.09897922 11.98703613 -12.51270701 13.43656676 -13.92578125 14.88671875 C-14.58578125 15.54671875 -15.24578125 16.20671875 -15.92578125 16.88671875 C-15.92578125 11.93399477 -14.82057771 11.21924509 -11.54882812 7.86523438 C-10.95134766 7.27419922 -10.35386719 6.68316406 -9.73828125 6.07421875 C-8.87106445 5.15866211 -8.87106445 5.15866211 -7.98632812 4.22460938 C-3.63097616 -0.14058519 -3.63097616 -0.14058519 0 0 Z " fill="#1E2C1A" transform="translate(799.92578125,445.11328125)"/>
<path d="M0 0 C1.65 0.33 3.3 0.66 5 1 C5 3.64 5 6.28 5 9 C3.02 9 1.04 9 -1 9 C-1.125 2.25 -1.125 2.25 0 0 Z " fill="#47693D" transform="translate(608,435)"/>
<path d="M0 0 C2.5 0.125 2.5 0.125 3.5 1.125 C3.625 3.625 3.625 3.625 3.5 6.125 C2.5 7.125 2.5 7.125 0.0625 7.3125 C-2.5 7.125 -2.5 7.125 -4.5 5.125 C-3.7519084 0.18759542 -3.7519084 0.18759542 0 0 Z " fill="#11190E" transform="translate(994.5,435.875)"/>
<path d="M0 0 C2.31 0 4.62 0 7 0 C7 0.66 7 1.32 7 2 C5.35 2 3.7 2 2 2 C2 2.99 2 3.98 2 5 C3.32 5.33 4.64 5.66 6 6 C4.68 6 3.36 6 2 6 C2 6.99 2 7.98 2 9 C3.65 9 5.3 9 7 9 C7 9.66 7 10.32 7 11 C4.69 11 2.38 11 0 11 C0 7.37 0 3.74 0 0 Z " fill="#1F2C1B" transform="translate(1535,444)"/>
<path d="M0 0 C0.33 0.99 0.66 1.98 1 3 C-2.50147041 4.1671568 -5.32670036 4.13357453 -9 4 C-9.66 3.67 -10.32 3.34 -11 3 C-10.67 2.01 -10.34 1.02 -10 0 C-6.7169902 -1.6415049 -3.57454967 -0.51888624 0 0 Z " fill="#96DC81" transform="translate(597,439)"/>
<path d="M0 0 C0.87527344 -0.01417969 1.75054688 -0.02835937 2.65234375 -0.04296875 C5.0625 0.1875 5.0625 0.1875 8.0625 2.1875 C7.7325 4.4975 7.4025 6.8075 7.0625 9.1875 C5.7425 7.8675 4.4225 6.5475 3.0625 5.1875 C4.0525 5.1875 5.0425 5.1875 6.0625 5.1875 C5.7325 4.5275 5.4025 3.8675 5.0625 3.1875 C-0.27124501 2.05440148 -0.27124501 2.05440148 -5.4375 3.125 C-5.9325 3.475625 -6.4275 3.82625 -6.9375 4.1875 C-6.9375 3.1975 -6.9375 2.2075 -6.9375 1.1875 C-4.47380468 -0.04434766 -2.7480499 0.02017658 0 0 Z " fill="#263720" transform="translate(591.9375,436.8125)"/>
<path d="M0 0 C1.98 0 3.96 0 6 0 C6 1.98 6 3.96 6 6 C4.02 6 2.04 6 0 6 C-1.125 2.25 -1.125 2.25 0 0 Z " fill="#8ACB76" transform="translate(1348,440)"/>
<path d="M0 0 C0.99 0.33 1.98 0.66 3 1 C2.67 2.65 2.34 4.3 2 6 C-0.375 6.625 -0.375 6.625 -3 7 C-3.66 6.34 -4.32 5.68 -5 5 C-5 4.01 -5 3.02 -5 2 C-4.01 1.67 -3.02 1.34 -2 1 C-1.67 1.99 -1.34 2.98 -1 4 C-0.67 2.68 -0.34 1.36 0 0 Z " fill="#96DC80" transform="translate(600,448)"/>
<path d="M0 0 C1.98 0 3.96 0 6 0 C6.042721 1.66611905 6.04063832 3.33382885 6 5 C5 6 5 6 2.4375 6.0625 C1.2309375 6.0315625 1.2309375 6.0315625 0 6 C0 4.02 0 2.04 0 0 Z " fill="#9EE888" transform="translate(1356,440)"/>
<path d="M0 0 C1.98 0 3.96 0 6 0 C6 0.66 6 1.32 6 2 C6.66 2 7.32 2 8 2 C8 3.65 8 5.3 8 7 C7.01 7 6.02 7 5 7 C5 6.34 5 5.68 5 5 C3.35 5 1.7 5 0 5 C0 3.35 0 1.7 0 0 Z " fill="#7BB56A" transform="translate(1537,448)"/>
<path d="M0 0 C4.29 0 8.58 0 13 0 C12.67 0.66 12.34 1.32 12 2 C9.93359375 2.4140625 9.93359375 2.4140625 7.4375 2.625 C6.61121094 2.69976562 5.78492188 2.77453125 4.93359375 2.8515625 C3.97646484 2.92503906 3.97646484 2.92503906 3 3 C3 3.66 3 4.32 3 5 C1.68 4.67 0.36 4.34 -1 4 C-0.67 2.68 -0.34 1.36 0 0 Z " fill="#2C4126" transform="translate(983,443)"/>
<path d="M0 0 C2.3431213 0.25561323 4.67843403 0.59270772 7 1 C7.33 1.66 7.66 2.32 8 3 C7.34 3 6.68 3 6 3 C6 3.99 6 4.98 6 6 C4.35 5.67 2.7 5.34 1 5 C0.67 3.35 0.34 1.7 0 0 Z " fill="#49ED49" transform="translate(1178,453)"/>
<path d="M0 0 C1.98 0 3.96 0 6 0 C5.67 0.66 5.34 1.32 5 2 C4.34 1.67 3.68 1.34 3 1 C3.061875 1.78375 3.12375 2.5675 3.1875 3.375 C3.125625 4.24125 3.06375 5.1075 3 6 C0 8 0 8 -2.6875 7.625 C-3.450625 7.41875 -4.21375 7.2125 -5 7 C-4.67 6.01 -4.34 5.02 -4 4 C-2.02 4.495 -2.02 4.495 0 5 C0 3.68 0 2.36 0 1 C0 0.67 0 0.34 0 0 Z " fill="#E2FCE2" transform="translate(1167,449)"/>
<path d="M0 0 C2.31 0 4.62 0 7 0 C7 0.99 7 1.98 7 3 C5.35 3 3.7 3 2 3 C2 3.66 2 4.32 2 5 C2.66 5 3.32 5 4 5 C4 5.66 4 6.32 4 7 C2.68 6.67 1.36 6.34 0 6 C0 4.02 0 2.04 0 0 Z " fill="#8ACB76" transform="translate(1526,446)"/>
<path d="M0 0 C2.31 0.33 4.62 0.66 7 1 C7.33 2.32 7.66 3.64 8 5 C3.71 4.34 -0.58 3.68 -5 3 C-5 2.67 -5 2.34 -5 2 C-3.35 2 -1.7 2 0 2 C0 1.34 0 0.68 0 0 Z " fill="#212F1D" transform="translate(1529,430)"/>
<path d="M0 0 C1.67542976 0.28604898 3.34385343 0.61781233 5 1 C5 2.32 5 3.64 5 5 C3.35 5 1.7 5 0 5 C-0.5625 3.0625 -0.5625 3.0625 -1 1 C-0.67 0.67 -0.34 0.34 0 0 Z " fill="#C7F9C7" transform="translate(1182,445)"/>
<path d="M0 0 C3.3 0 6.6 0 10 0 C10 0.99 10 1.98 10 3 C8.68 3 7.36 3 6 3 C5.67 3.99 5.34 4.98 5 6 C4.67 5.01 4.34 4.02 4 3 C1.99983534 1.79117904 1.99983534 1.79117904 0 1 C0 0.67 0 0.34 0 0 Z " fill="#0E140C" transform="translate(394,460)"/>
<path d="M0 0 C0.66 0.33 1.32 0.66 2 1 C1.17812739 5.38332057 0.09845718 9.67940177 -1 14 C-1.33 14 -1.66 14 -2 14 C-2.05437607 12.41705218 -2.09296271 10.83355744 -2.125 9.25 C-2.14820313 8.36828125 -2.17140625 7.4865625 -2.1953125 6.578125 C-1.99139502 3.8864142 -1.36551721 2.30095026 0 0 Z " fill="#0C110B" transform="translate(1509,439)"/>
<path d="M0 0 C0.33 0.66 0.66 1.32 1 2 C-0.98 2.66 -2.96 3.32 -5 4 C-5 3.67 -5 3.34 -5 3 C-7.64 2.67 -10.28 2.34 -13 2 C-13 1.67 -13 1.34 -13 1 C-11.20994059 0.63779734 -9.41787943 0.28547531 -7.625 -0.0625 C-6.12839844 -0.35833984 -6.12839844 -0.35833984 -4.6015625 -0.66015625 C-2 -1 -2 -1 0 0 Z " fill="#2A3D25" transform="translate(1537,467)"/>
<path d="M0 0 C1.67542976 0.28604898 3.34385343 0.61781233 5 1 C4.34 2.32 3.68 3.64 3 5 C1.68 4.67 0.36 4.34 -1 4 C-1 1 -1 1 0 0 Z " fill="#44EC44" transform="translate(1164,450)"/>
<path d="M0 0 C1.65 0 3.3 0 5 0 C4.67 1.98 4.34 3.96 4 6 C3.01 6 2.02 6 1 6 C0.67 4.02 0.34 2.04 0 0 Z " fill="#3B5733" transform="translate(1515,445)"/>
<path d="M0 0 C1.2065625 0.0309375 1.2065625 0.0309375 2.4375 0.0625 C2.4375 2.0625 2.4375 2.0625 0.5625 4 C-0.13875 4.680625 -0.84 5.36125 -1.5625 6.0625 C-2.2225 7.0525 -2.8825 8.0425 -3.5625 9.0625 C-3.66015625 2.91015625 -3.66015625 2.91015625 -3.5625 1.0625 C-2.5625 0.0625 -2.5625 0.0625 0 0 Z " fill="#94D97F" transform="translate(595.5625,443.9375)"/>
<path d="M0 0 C0 0.99 0 1.98 0 3 C-0.7115625 3.6496875 -0.7115625 3.6496875 -1.4375 4.3125 C-3.62100982 6.6706906 -3.65266951 8.87402561 -4 12 C-4.37125 11.1028125 -4.37125 11.1028125 -4.75 10.1875 C-6.16370012 7.71352479 -7.65055383 6.56629745 -10 5 C-8.906875 4.731875 -7.81375 4.46375 -6.6875 4.1875 C-3.38307337 3.12336261 -2.05039578 2.65345336 0 0 Z " fill="#060905" transform="translate(809,440)"/>
<path d="M0 0 C2.15550181 3.23325272 2 4.31199218 2 8 C-0.46800047 6.84826645 -2.04783565 5.95216435 -4 4 C-3.67 3.01 -3.34 2.02 -3 1 C-2.34 1.33 -1.68 1.66 -1 2 C-0.67 1.34 -0.34 0.68 0 0 Z " fill="#1F2E1A" transform="translate(783,464)"/>
<path d="M0 0 C1.65 0.99 3.3 1.98 5 3 C3.60667426 6.36720387 2.0210714 7.9859524 -1 10 C-1 7 -1 7 0.0625 5 C1.34011157 2.87202708 1.34011157 2.87202708 0 0 Z " fill="#0E150C" transform="translate(792,457)"/>
<path d="M0 0 C1.32 0.33 2.64 0.66 4 1 C4.1953125 7.0546875 4.1953125 7.0546875 4 9 C3.34 9.66 2.68 10.32 2 11 C2 10.01 2 9.02 2 8 C1.34 8 0.68 8 0 8 C0.66 5.69 1.32 3.38 2 1 C1.34 0.67 0.68 0.34 0 0 Z " fill="#C6F9C6" transform="translate(1171,448)"/>
<path d="M0 0 C1.32 0.66 2.64 1.32 4 2 C3.40312566 5.34249629 2.26396123 7.46436342 0 10 C-0.66 10 -1.32 10 -2 10 C-1.67 9.4225 -1.34 8.845 -1 8.25 C0.27075898 5.80116138 0.27075898 5.80116138 0 2 C0 1.34 0 0.68 0 0 Z " fill="#304729" transform="translate(203,453)"/>
<path d="M0 0 C1.98 0.495 1.98 0.495 4 1 C3.67 2.32 3.34 3.64 3 5 C1.68 4.67 0.36 4.34 -1 4 C-0.67 2.68 -0.34 1.36 0 0 Z " fill="#86C573" transform="translate(993,437)"/>
<path d="M0 0 C0.99 0 1.98 0 3 0 C2.75 1.875 2.75 1.875 2 4 C-0.0625 5.25 -0.0625 5.25 -2 6 C-1.34 4.02 -0.68 2.04 0 0 Z " fill="#5B854E" transform="translate(1364,450)"/>
<path d="M0 0 C1.65 0 3.3 0 5 0 C5 1.98 5 3.96 5 6 C4.01 5.67 3.02 5.34 2 5 C2.66 5 3.32 5 4 5 C4 4.34 4 3.68 4 3 C2.68 2.67 1.36 2.34 0 2 C0 1.34 0 0.68 0 0 Z " fill="#476040" transform="translate(1528,449)"/>
<path d="M0 0 C0.90105469 0.02707031 1.80210937 0.05414063 2.73046875 0.08203125 C3.76107422 0.13423828 3.76107422 0.13423828 4.8125 0.1875 C4.8125 0.5175 4.8125 0.8475 4.8125 1.1875 C3.20908445 1.52442785 1.60473445 1.85691093 0 2.1875 C-0.89332031 2.373125 -1.78664063 2.55875 -2.70703125 2.75 C-5.1875 3.1875 -5.1875 3.1875 -8.1875 3.1875 C-5.67753317 0.01043235 -3.96125134 -0.15433447 0 0 Z " fill="#162013" transform="translate(592.1875,436.8125)"/>
<path d="M0 0 C2.475 0.495 2.475 0.495 5 1 C4.67 1.99 4.34 2.98 4 4 C2.68 3.67 1.36 3.34 0 3 C0 2.01 0 1.02 0 0 Z " fill="#92D67D" transform="translate(193,449)"/>
</svg>
