<?xml version="1.0" encoding="UTF-8"?>
<svg version="1.1" xmlns="http://www.w3.org/2000/svg" width="1920" height="1080">
<path d="M0 0 C633.6 0 1267.2 0 1920 0 C1920 356.4 1920 712.8 1920 1080 C1286.4 1080 652.8 1080 0 1080 C0 723.6 0 367.2 0 0 Z " fill="#FEFEFE" transform="translate(0,0)"/>
<path d="M0 0 C1.99409937 1.43441721 3.83422077 2.93721748 5.6640625 4.57421875 C6.5303125 5.33734375 7.3965625 6.10046875 8.2890625 6.88671875 C16.62924001 16.32428804 19.6640625 23.94863018 19.6640625 36.57421875 C60.2540625 36.57421875 100.8440625 36.57421875 142.6640625 36.57421875 C142.6640625 34.26421875 142.6640625 31.95421875 142.6640625 29.57421875 C144.84675741 17.22476071 151.82320474 8.02341294 161.6640625 0.57421875 C164.2519695 -1.03979392 166.8151983 -2.34343717 169.6640625 -3.42578125 C170.55351562 -3.77898437 171.44296875 -4.1321875 172.359375 -4.49609375 C182.37059231 -7.31248822 193.83032227 -6.48115402 203.12109375 -1.90625 C213.70062789 4.25295651 220.97614148 12.18373298 225.6640625 23.57421875 C226.6640625 27.57421875 226.6640625 27.57421875 226.6640625 36.57421875 C267.2540625 36.57421875 307.8440625 36.57421875 349.6640625 36.57421875 C349.6640625 33.27421875 349.6640625 29.97421875 349.6640625 26.57421875 C352.35657036 15.31710045 360.19049237 6.27450413 369.609375 -0.17578125 C379.64468844 -6.2809149 391.23404213 -7.52900741 402.73291016 -4.96435547 C414.4960039 -1.44829463 423.64457135 6.41779868 429.48046875 17.09765625 C432.84843711 24.14482436 433.6640625 28.49597238 433.6640625 36.57421875 C473.5940625 36.57421875 513.5240625 36.57421875 554.6640625 36.57421875 C555.3240625 33.27421875 555.9840625 29.97421875 556.6640625 26.57421875 C561.1631746 14.63973191 569.74789014 6.04636829 581.140625 0.33203125 C592.38181028 -3.61554218 604.99397888 -2.36107929 615.6640625 2.57421875 C625.70921827 7.82002232 634.06732008 16.70680818 637.6640625 27.57421875 C637.9940625 30.54421875 638.3240625 33.51421875 638.6640625 36.57421875 C678.9240625 36.57421875 719.1840625 36.57421875 760.6640625 36.57421875 C760.6640625 33.27421875 760.6640625 29.97421875 760.6640625 26.57421875 C763.07635366 15.72557233 770.62845462 7.03607214 779.390625 0.55859375 C789.83566492 -5.94194469 801.68063883 -7.59162111 813.75048828 -4.97314453 C825.13328832 -1.56149298 833.56744111 5.68423494 839.6640625 15.69921875 C843.74203756 23.27945474 844.6640625 27.66599223 844.6640625 36.57421875 C878.3240625 36.57421875 911.9840625 36.57421875 946.6640625 36.57421875 C946.9940625 32.94421875 947.3240625 29.31421875 947.6640625 25.57421875 C951.41450979 13.42276953 958.69532529 4.93608633 969.6640625 -1.42578125 C970.39882812 -1.86019531 971.13359375 -2.29460937 971.890625 -2.7421875 C980.779945 -7.12575252 991.931161 -6.78104876 1001.3984375 -4.54296875 C1013.89160809 -0.11463833 1021.86385339 7.44246 1027.984375 19.0859375 C1030.91342039 25.60972041 1030.6640625 28.55018132 1030.6640625 36.57421875 C1064.6540625 36.57421875 1098.6440625 36.57421875 1133.6640625 36.57421875 C1133.6640625 33.60421875 1133.6640625 30.63421875 1133.6640625 27.57421875 C1136.87784171 15.84250262 1144.28895542 5.62761983 1154.7421875 -0.6796875 C1165.12121642 -6.04746772 1177.22825266 -7.84143793 1188.6015625 -4.3984375 C1199.89926471 0.07356963 1209.80057699 7.98019487 1214.84765625 19.20703125 C1217.09081214 24.90418151 1217.6640625 28.16764353 1217.6640625 34.57421875 C1247.6940625 34.57421875 1277.7240625 34.57421875 1308.6640625 34.57421875 C1308.6640625 31.60421875 1308.6640625 28.63421875 1308.6640625 25.57421875 C1311.67007056 14.11602333 1320.29421739 4.31911308 1330.2265625 -1.73828125 C1336.69159643 -4.91202518 1342.5213815 -5.76815543 1349.6015625 -5.73828125 C1350.36146484 -5.75439453 1351.12136719 -5.77050781 1351.90429688 -5.78710938 C1362.05481247 -5.79577762 1371.44410556 -1.18113469 1378.90234375 5.61328125 C1388.80951884 16.17347165 1391.23648946 26.45076229 1391.00390625 40.46484375 C1390.5539202 50.65954849 1385.79278839 59.39033831 1378.6640625 66.57421875 C1368.41062123 75.04445284 1358.89075177 78.23555321 1345.6640625 77.57421875 C1334.38022054 76.48923395 1325.36983612 71.93780231 1317.6640625 63.57421875 C1311.34816582 55.1447346 1308.6640625 49.17312873 1308.6640625 38.57421875 C1278.6340625 38.57421875 1248.6040625 38.57421875 1217.6640625 38.57421875 C1217.3340625 41.54421875 1217.0040625 44.51421875 1216.6640625 47.57421875 C1213.69993493 58.25301762 1206.97462957 67.55206604 1197.56640625 73.546875 C1186.81533205 79.35289659 1175.30608787 80.31084454 1163.37890625 77.9140625 C1153.77438538 74.79360635 1145.3267225 67.89917412 1139.6640625 59.57421875 C1136.62657685 53.60154619 1134.76906194 48.20421537 1133.6640625 41.57421875 C1099.6740625 41.57421875 1065.6840625 41.57421875 1030.6640625 41.57421875 C1030.3340625 44.21421875 1030.0040625 46.85421875 1029.6640625 49.57421875 C1024.87719739 61.96553413 1017.84007098 69.60752209 1006.203125 75.90625 C996.17144964 80.27388712 983.3752012 80.46103929 973.1640625 76.57421875 C962.11795257 71.1199155 953.40259557 62.8911629 948.7890625 51.32421875 C947.6640625 47.57421875 947.6640625 47.57421875 946.6640625 41.57421875 C913.0040625 41.57421875 879.3440625 41.57421875 844.6640625 41.57421875 C843.1790625 47.51421875 843.1790625 47.51421875 841.6640625 53.57421875 C835.97295766 65.09523586 827.68821263 72.83326101 815.64453125 77.53515625 C805.16751719 80.66254361 793.00779231 79.99122401 783.23828125 75.11328125 C771.56826372 68.13606288 764.094191 58.91124014 760.6640625 45.57421875 C760.6640625 44.25421875 760.6640625 42.93421875 760.6640625 41.57421875 C720.4040625 41.57421875 680.1440625 41.57421875 638.6640625 41.57421875 C638.6640625 44.54421875 638.6640625 47.51421875 638.6640625 50.57421875 C635.07598662 63.67228336 626.89759981 73.19428539 615.27734375 79.96484375 C605.57548238 84.2903204 591.13255312 84.67508718 581.1015625 81.07421875 C578.89453125 79.9609375 578.89453125 79.9609375 576.6640625 78.57421875 C575.26607422 77.71763672 575.26607422 77.71763672 573.83984375 76.84375 C563.48411748 69.91688903 558.852009 61.3437322 555.05859375 49.71875 C554.50656046 46.71809378 554.6640625 43.62523145 554.6640625 40.57421875 C494.7690625 41.06921875 494.7690625 41.06921875 433.6640625 41.57421875 C432.1790625 47.51421875 432.1790625 47.51421875 430.6640625 53.57421875 C424.97295766 65.09523586 416.68821263 72.83326101 404.64453125 77.53515625 C394.23950079 80.64105652 382.01388837 80.03038168 372.3046875 75.17578125 C361.21244369 68.44823693 353.97707543 60.05003862 350.07421875 47.546875 C349.6640625 45.57421875 349.6640625 45.57421875 349.6640625 41.57421875 C309.0740625 41.57421875 268.4840625 41.57421875 226.6640625 41.57421875 C226.0040625 44.87421875 225.3440625 48.17421875 224.6640625 51.57421875 C220.9448808 62.46290733 212.91152822 69.65526174 203.21875 75.3828125 C193.77153918 79.78862183 182.21097597 80.20005979 172.140625 77.69921875 C161.93021565 73.70954723 152.18026001 66.64472973 147.22265625 56.67578125 C144.98387306 51.5093585 143.60025075 47.19134823 142.6640625 41.57421875 C102.4040625 41.57421875 62.1440625 41.57421875 20.6640625 41.57421875 C19.3440625 45.86421875 18.0240625 50.15421875 16.6640625 54.57421875 C10.49499244 66.63194659 2.19333178 73.36768738 -10.6328125 77.68359375 C-21.89193491 80.39148395 -33.30813042 79.5187605 -43.3359375 73.57421875 C-50.26987341 69.03707719 -55.46383103 63.92674463 -59.3359375 56.57421875 C-59.6772168 55.94555908 -60.01849609 55.31689941 -60.37011719 54.66918945 C-63.41198792 48.5874759 -63.94819289 43.37671926 -63.8359375 36.63671875 C-63.85140625 35.71181641 -63.866875 34.78691406 -63.8828125 33.83398438 C-63.81857159 22.37501253 -59.25502931 13.69811465 -51.3359375 5.57421875 C-48.17919138 2.87654192 -44.92694112 0.65380149 -41.3359375 -1.42578125 C-40.58957031 -1.86019531 -39.84320313 -2.29460937 -39.07421875 -2.7421875 C-27.21846923 -8.51909771 -11.0350131 -6.7354177 0 0 Z " fill="#258D25" transform="translate(177.3359375,414.42578125)"/>
<path d="M0 0 C0.78238037 0.00572021 1.56476074 0.01144043 2.37084961 0.01733398 C13.51267995 0.355794 23.4239953 4.56518314 31.3125 12.5 C39.45516234 22.11578813 42.3125 29.87128885 42.3125 42.5 C76.3025 42.5 110.2925 42.5 145.3125 42.5 C145.3125 39.53 145.3125 36.56 145.3125 33.5 C148.52627921 21.76828387 155.93739292 11.55340108 166.390625 5.24609375 C176.76965392 -0.12168647 188.87669016 -1.91565668 200.25 1.52734375 C211.54770221 5.99935088 221.44901449 13.90597612 226.49609375 25.1328125 C228.73924964 30.82996276 229.3125 34.09342478 229.3125 40.5 C259.3425 40.5 289.3725 40.5 320.3125 40.5 C320.3125 37.53 320.3125 34.56 320.3125 31.5 C323.31850806 20.04180458 331.94265489 10.24489433 341.875 4.1875 C348.34003393 1.01375607 354.169819 0.15762582 361.25 0.1875 C362.00990234 0.17138672 362.76980469 0.15527344 363.55273438 0.13867188 C373.70324997 0.13000363 383.09254306 4.74464656 390.55078125 11.5390625 C400.45795634 22.0992529 402.88492696 32.37654354 402.65234375 46.390625 C402.2023577 56.58532974 397.44122589 65.31611956 390.3125 72.5 C380.05905873 80.97023409 370.53918927 84.16133446 357.3125 83.5 C346.02865804 82.4150152 337.01827362 77.86358356 329.3125 69.5 C322.99660332 61.07051585 320.3125 55.09890998 320.3125 44.5 C290.2825 44.5 260.2525 44.5 229.3125 44.5 C228.9825 47.47 228.6525 50.44 228.3125 53.5 C225.34837243 64.17879887 218.62306707 73.47784729 209.21484375 79.47265625 C198.46376955 85.27867784 186.95452537 86.23662579 175.02734375 83.83984375 C165.42282288 80.7193876 156.97516 73.82495537 151.3125 65.5 C148.27501435 59.52732744 146.41749944 54.12999662 145.3125 47.5 C111.3225 47.5 77.3325 47.5 42.3125 47.5 C41.9825 50.14 41.6525 52.78 41.3125 55.5 C36.52563489 67.89131538 29.48850848 75.53330334 17.8515625 81.83203125 C7.81988714 86.19966837 -4.9763613 86.38682054 -15.1875 82.5 C-26.14894629 77.08750162 -34.54631998 68.9824031 -39.5625 57.75 C-43.21319838 46.52580311 -42.40884381 33.95642867 -37.5 23.3125 C-31.55574917 12.42332167 -22.48476188 5.27060545 -10.8137207 1.09106445 C-7.21093007 0.08953085 -3.72284462 -0.03199921 0 0 Z " fill="#258D25" transform="translate(1165.6875,408.5)"/>
<path d="M0 0 C10.26862391 6.27815867 17.70157491 15.09205797 21.5234375 26.63671875 C22.0859375 29.88671875 22.0859375 29.88671875 22.0859375 37.88671875 C55.7459375 37.88671875 89.4059375 37.88671875 124.0859375 37.88671875 C124.4159375 39.53671875 124.7459375 41.18671875 125.0859375 42.88671875 C91.0959375 42.88671875 57.1059375 42.88671875 22.0859375 42.88671875 C20.6009375 48.82671875 20.6009375 48.82671875 19.0859375 54.88671875 C13.39483266 66.40773586 5.11008763 74.14576101 -6.93359375 78.84765625 C-17.41060781 81.97504361 -29.57033269 81.30372401 -39.33984375 76.42578125 C-51.00986128 69.44856288 -58.483934 60.22374014 -61.9140625 46.88671875 C-61.9140625 45.56671875 -61.9140625 44.24671875 -61.9140625 42.88671875 C-102.1740625 42.88671875 -142.4340625 42.88671875 -183.9140625 42.88671875 C-183.9140625 45.85671875 -183.9140625 48.82671875 -183.9140625 51.88671875 C-187.50213838 64.98478336 -195.68052519 74.50678539 -207.30078125 81.27734375 C-217.00264262 85.6028204 -231.44557188 85.98758718 -241.4765625 82.38671875 C-243.68359375 81.2734375 -243.68359375 81.2734375 -245.9140625 79.88671875 C-246.84605469 79.31566406 -247.77804687 78.74460937 -248.73828125 78.15625 C-259.23486163 71.13517287 -265.34361685 61.26934637 -267.9140625 48.88671875 C-269.00655815 36.28490845 -265.85298982 25.2202775 -258.8515625 14.82421875 C-251.01547272 6.19959163 -241.95856257 0.58005688 -230.37890625 -0.41796875 C-218.10216074 -0.84259677 -207.42935508 1.91588598 -197.9140625 9.88671875 C-189.05925194 18.24424828 -185.26033698 25.77024843 -183.9140625 37.88671875 C-143.6540625 37.88671875 -103.3940625 37.88671875 -61.9140625 37.88671875 C-61.9140625 34.58671875 -61.9140625 31.28671875 -61.9140625 27.88671875 C-59.50177134 17.03807233 -51.94967038 8.34857214 -43.1875 1.87109375 C-29.98382065 -6.34630185 -13.92406188 -6.96203094 0 0 Z " fill="#258D25" transform="translate(999.9140625,413.11328125)"/>
<path d="M0 0 C6.65030071 3.80732847 12.61630901 9.95307707 14.72265625 17.515625 C16.1441558 28.31902161 15.76132106 37.13726255 9.671875 46.296875 C4.36482077 53.1999382 -2.8137262 57.33453027 -11.390625 58.765625 C-21.20086484 59.24258694 -28.95007344 56.552297 -36.34375 50.06640625 C-43.8945672 42.13048362 -45.44507667 35.2813338 -45.4206543 24.4831543 C-45.2069427 18.3207974 -43.76696396 14.08017965 -39.92578125 9.1875 C-39.24515625 8.135625 -38.56453125 7.08375 -37.86328125 6 C-28.33485147 -4.53142239 -12.37319431 -5.89004952 0 0 Z " fill="#99E384" transform="translate(1541.92578125,423.8125)"/>
<path d="M0 0 C7.38963493 4.2015634 12.73309819 9.94302535 15.90234375 17.88671875 C18.20229822 26.99127223 17.32916865 36.39102226 12.5625 44.5 C8.08195621 51.08152417 2.28783007 55.67724186 -5.3515625 58.109375 C-13.61007103 59.65591218 -21.29713945 59.03419543 -28.4375 54.5 C-34.93438183 49.71709056 -39.87653777 44.2805505 -42.4375 36.5 C-43.38165618 26.2789604 -43.22755004 16.73589464 -36.7421875 8.29296875 C-26.81440184 -2.53916986 -13.72977952 -6.27205197 0 0 Z " fill="#9EE888" transform="translate(787.4375,427.5)"/>
<path d="M0 0 C0.75990234 -0.01611328 1.51980469 -0.03222656 2.30273438 -0.04882812 C12.45324997 -0.05749637 21.84254306 4.55714656 29.30078125 11.3515625 C39.20795634 21.9117529 41.63492696 32.18904354 41.40234375 46.203125 C40.9523577 56.39782974 36.19122589 65.12861956 29.0625 72.3125 C18.80905873 80.78273409 9.28918927 83.97383446 -3.9375 83.3125 C-15.22134196 82.2275152 -24.23172638 77.67608356 -31.9375 69.3125 C-38.25339668 60.88301585 -40.9375 54.91140998 -40.9375 44.3125 C-70.9675 44.3125 -100.9975 44.3125 -131.9375 44.3125 C-131.9375 42.9925 -131.9375 41.6725 -131.9375 40.3125 C-101.9075 40.3125 -71.8775 40.3125 -40.9375 40.3125 C-40.9375 37.3425 -40.9375 34.3725 -40.9375 31.3125 C-37.93149194 19.85430458 -29.30734511 10.05739433 -19.375 4 C-12.90996607 0.82625607 -7.080181 -0.02987418 0 0 Z M-24 22.8125 C-25.57266223 24.96101434 -25.57266223 24.96101434 -26.9375 27.3125 C-27.48535156 28.22257812 -28.03320312 29.13265625 -28.59765625 30.0703125 C-30.26270335 34.09943522 -30.39682807 37.37628709 -30.3125 41.6875 C-30.30017334 42.44554932 -30.28784668 43.20359863 -30.27514648 43.98461914 C-29.98372844 53.65990727 -27.28783332 58.95351639 -20.51171875 66.03515625 C-13.38941104 72.33607491 -5.84851826 74.24342135 3.56640625 73.8515625 C12.74502575 72.43631167 19.77110877 67.77689771 25.50390625 60.578125 C30.87007378 52.77768098 30.83831037 44.56177163 30.0625 35.3125 C27.68020539 26.49800995 23.07053362 20.37739094 15.40625 15.50390625 C1.97563101 8.67667493 -14.36051505 10.91910625 -24 22.8125 Z " fill="#2A8F28" transform="translate(1526.9375,408.6875)"/>
<path d="M0 0 C7.99076179 6.05793142 12.29681419 13.38985504 13.78515625 23.36328125 C14.19817584 31.75690512 11.50009451 39.63556561 6.28125 46.19921875 C0.31309864 52.49032202 -7.95403507 55.91863015 -16.53125 56.26171875 C-24.71479695 56.18865137 -31.32939527 53.50512052 -37.53515625 48.1484375 C-43.78791381 41.33152137 -46.97865429 33.30013633 -46.8046875 24.0625 C-45.95949387 15.09405649 -42.27558415 8.10638414 -35.671875 2.06640625 C-25.35085611 -6.21441123 -11.22928835 -7.08435986 0 0 Z " fill="#9CE485" transform="translate(1369.59375,425.17578125)"/>
<path d="M0 0 C8.4872358 3.96429115 14.08436691 9.18628499 18.0234375 17.69140625 C20.97853623 26.0322044 20.66561128 34.51856676 16.96875 42.55859375 C12.46263996 50.32335964 6.36415222 56.44540289 -2.4140625 58.94140625 C-13.3756327 60.21284964 -21.84910642 58.61739257 -30.51953125 51.828125 C-37.02071074 45.35375449 -39.61962861 38.22756335 -39.7265625 29.31640625 C-39.75556641 28.53394531 -39.78457031 27.75148438 -39.81445312 26.9453125 C-39.89731397 19.2583754 -37.11397714 13.19287598 -32.04296875 7.390625 C-22.86006942 -0.77929263 -11.78380059 -3.65378714 0 0 Z " fill="#9EE988" transform="translate(372.4140625,422.05859375)"/>
<path d="M0 0 C0.58265625 0.37253906 1.1653125 0.74507813 1.765625 1.12890625 C7.07387315 4.97604569 10.84698668 11.56430319 12 18 C12.81399528 28.59528284 11.91159558 37.24654306 5.3125 45.8125 C0.13468522 51.38556781 -6.58546082 54.61080889 -14.1015625 55.2734375 C-24.37283938 55.56950535 -31.21913527 53.69369127 -38.875 46.75 C-45.44996164 39.64780087 -47.52596899 30.5018989 -47.3984375 21.0390625 C-46.22739497 12.10699297 -41.11513338 5.05703166 -34.19921875 -0.44140625 C-23.78248622 -7.82377975 -10.46926899 -7.10414681 0 0 Z " fill="#3CEB3C" transform="translate(997,426)"/>
<path d="M0 0 C1.36125 0.8353125 1.36125 0.8353125 2.75 1.6875 C10.533293 9.68699558 12.37841333 17.5722741 12.27734375 28.38671875 C11.65247494 36.52761516 8.20647891 43.6392391 2 49 C-6.75630309 54.86291598 -14.48875466 55.98862524 -25 55 C-33.03523441 52.58183904 -39.35540785 47.57098288 -43.5390625 40.33984375 C-47.50612495 31.92922812 -48.86827437 23.76636562 -45.9609375 14.79296875 C-42.12640699 6.27774037 -36.64614498 0.97353278 -28.875 -4 C-19.04413395 -7.48319729 -8.46098778 -5.64614554 0 0 Z " fill="#9EE888" transform="translate(586,426)"/>
<path d="M0 0 C7.88352337 5.17973308 13.38130307 11.12694907 16.02734375 20.33203125 C17.0538653 29.73783333 15.97960823 37.81034455 10.4140625 45.5859375 C5.13469682 51.94224696 -0.98129232 56.79011174 -9.390625 57.703125 C-19.29217736 57.87755649 -26.2075647 56.47558912 -33.84765625 49.83203125 C-34.54890625 49.00703125 -35.25015625 48.18203125 -35.97265625 47.33203125 C-36.67390625 46.58953125 -37.37515625 45.84703125 -38.09765625 45.08203125 C-43.40945742 37.29138954 -44.07409108 28.56310407 -42.97265625 19.33203125 C-40.25133283 10.43027997 -34.33226654 4.0439009 -26.41015625 -0.60546875 C-18.12865253 -4.41799028 -8.08865368 -4.26273555 0 0 Z " fill="#9EE888" transform="translate(1179.97265625,423.66796875)"/>
<path d="M0 0 C7.87013146 5.17093416 13.41047432 11.12863453 16.02734375 20.33203125 C16.8863251 28.85192769 16.42981876 35.92298794 12.02734375 43.33203125 C11.47046875 44.38390625 10.91359375 45.43578125 10.33984375 46.51953125 C5.09667729 52.89635532 -2.06446266 56.7795687 -10.26953125 57.703125 C-19.94712266 57.88923253 -26.35878432 56.22818976 -33.78515625 49.95703125 C-41.37274807 40.85192107 -43.91970147 33.39107374 -42.97265625 21.33203125 C-41.64210638 12.36528214 -35.72975997 5.90386333 -28.65234375 0.58984375 C-20.02259978 -4.45129382 -8.86274017 -4.67068057 0 0 Z " fill="#9FE888" transform="translate(168.97265625,423.66796875)"/>
<path d="M0 0 C11.02754917 6.42003246 18.9405084 15.06069421 23.16015625 27.265625 C24.73462032 36.37502425 24.65855922 47.09993171 20.54296875 55.48046875 C20.20265625 56.22425781 19.86234375 56.96804688 19.51171875 57.734375 C14.27799575 68.1841395 5.30103878 75.77999222 -5.72265625 79.6171875 C-17.23220015 82.27786658 -29.19272148 81.57154645 -39.45703125 75.48046875 C-49.75668184 68.75775108 -55.58664212 61.1841554 -59.45703125 49.48046875 C-62.11731685 36.58059331 -60.38234809 25.06502506 -53.3203125 13.9375 C-48.1308174 7.09432932 -41.51799857 1.54300161 -33.45703125 -1.51953125 C-32.56757813 -1.87273437 -31.678125 -2.2259375 -30.76171875 -2.58984375 C-20.75050144 -5.40623822 -9.29077148 -4.57490402 0 0 Z M-35.45703125 13.48046875 C-36.52953125 14.24359375 -37.60203125 15.00671875 -38.70703125 15.79296875 C-45.38725706 22.32137125 -47.72733392 28.71943677 -47.89453125 37.98046875 C-47.96104707 47.11773718 -46.0369805 53.52141856 -39.7109375 60.37109375 C-32.01385382 67.43389659 -24.23666188 68.92855063 -14.06640625 68.8125 C-6.4360106 68.11056966 -1.32309997 64.72672382 3.91796875 59.29296875 C9.86638397 51.99592498 12.29646035 44.85864452 11.921875 35.43359375 C10.83983831 27.00040061 7.02771106 19.97840245 0.54296875 14.48046875 C-10.55552177 6.65803868 -24.30896342 4.98446758 -35.45703125 13.48046875 Z " fill="#258D25" transform="translate(380.45703125,412.51953125)"/>
<path d="M0 0 C10.07273682 6.13669859 17.63356115 14.40374494 21.39453125 25.625 C24.22277198 38.2618203 22.38274798 50.07091617 15.7421875 61.23828125 C10.14370641 69.26021443 3.21279587 74.46513562 -5.87109375 77.90625 C-6.97517578 78.44185547 -6.97517578 78.44185547 -8.1015625 78.98828125 C-16.96883333 81.92736255 -29.03978362 80.91608673 -37.484375 77.23046875 C-50.09929736 70.23135471 -57.10320951 60.59635237 -61.48046875 47.015625 C-63.66936511 35.19558463 -61.73949609 24.87397327 -55.484375 14.63671875 C-42.73964808 -3.62490366 -20.03249792 -9.84215425 0 0 Z M-43.87109375 18.90625 C-48.81516201 26.65195694 -51.33427538 34.92513766 -49.41015625 44.10546875 C-46.72327445 53.16184092 -42.13369849 59.69916575 -34.1171875 64.71484375 C-26.71734501 68.63997759 -19.27343962 69.16982389 -11.08203125 67.25390625 C-3.76778535 64.61579589 2.41529152 60.09534395 6.50390625 53.40625 C10.57794581 44.63139557 11.55809145 36.61086247 8.62890625 27.34375 C5.20642745 18.88328667 -0.65095886 12.44659127 -9.03125 8.71484375 C-22.46003316 4.89124249 -34.85722796 8.52982311 -43.87109375 18.90625 Z " fill="#258C25" transform="translate(1372.87109375,413.09375)"/>
<path d="M0 0 C8.06352779 6.75470891 15.24822584 15.95189268 16.28662109 26.76171875 C16.79640396 40.15819449 15.69075036 51.0841099 6.875 61.87890625 C-1.88410909 71.09902108 -10.59146916 75.76531132 -23.30541992 76.22265625 C-31.46342121 76.3183776 -38.80147132 76.17106287 -45.90625 71.75390625 C-46.83824219 71.18285156 -47.77023437 70.61179687 -48.73046875 70.0234375 C-59.22704913 63.00236037 -65.33580435 53.13653387 -67.90625 40.75390625 C-68.99874565 28.15209595 -65.84517732 17.087465 -58.84375 6.69140625 C-43.12096726 -10.6135433 -19.27378337 -13.93159341 0 0 Z M-49.2109375 14.546875 C-55.65124147 22.93114168 -56.0825785 32.59001528 -54.90625 42.75390625 C-52.64490886 50.44846968 -47.65688013 56.88428068 -40.78515625 61.03515625 C-33.13570717 64.96514844 -25.63179974 66.16911982 -17.140625 64.0703125 C-8.21387849 60.77070221 -2.10360888 55.30582847 2.09375 46.75390625 C5.0434598 39.18680619 5.51315454 31.20520064 3.03125 23.421875 C-1.07330917 14.55468874 -7.11983806 8.06187213 -16.29296875 4.41796875 C-29.35468602 1.09884777 -40.25784952 4.77822232 -49.2109375 14.546875 Z " fill="#258C25" transform="translate(799.90625,421.24609375)"/>
<path d="M0 0 C2.76762152 1.38098088 3.90087977 2.5779382 6 5 C6.375 7.8125 6.375 7.8125 6 10 C7.98 10 9.96 10 12 10 C12.33 11.65 12.66 13.3 13 15 C12.01 15.66 11.02 16.32 10 17 C10.845625 17.721875 11.69125 18.44375 12.5625 19.1875 C15 22 15 22 14.9375 24.6875 C14 27 14 27 12 29 C8.94518411 29.57015228 6.05704376 29.54476731 3 29 C0.0625 26.5 0.0625 26.5 -2 24 C-4.0745356 23.8509288 -4.0745356 23.8509288 -6 25 C-7.875 25.16796875 -7.875 25.16796875 -10 25.1875 C-11.051875 25.20876953 -11.051875 25.20876953 -12.125 25.23046875 C-14 25 -14 25 -16 23 C-16.38286803 19.26703674 -16.14915785 18.22373677 -14 15 C-13.34 15 -12.68 15 -12 15 C-12.495 14.484375 -12.99 13.96875 -13.5 13.4375 C-15.60020266 10.02467068 -15.63210717 7.93311127 -15 4 C-10.66784867 -0.33215133 -5.86021995 -1.21173888 0 0 Z " fill="#11190E" transform="translate(1167,436)"/>
<path d="M0 0 C40.59 0 81.18 0 123 0 C123 1.65 123 3.3 123 5 C82.41 5 41.82 5 0 5 C0 3.35 0 1.7 0 0 Z " fill="#4FED4F" transform="translate(404,451)"/>
<path d="M0 0 C40.26 0 80.52 0 122 0 C122 1.65 122 3.3 122 5 C81.74 5 41.48 5 0 5 C0 3.35 0 1.7 0 0 Z " fill="#4FED4F" transform="translate(816,451)"/>
<path d="M0 0 C1.32 0 2.64 0 4 0 C5.49106457 2.98212913 5.11941467 5.71609658 5 9 C4.67 9.33 4.34 9.66 4 10 C3.8409994 11.89328493 3.72302167 13.79008049 3.625 15.6875 C3.26361626 20.4363082 2.74921313 23.98191928 0 28 C-3.32216238 30.21477492 -4.55033323 30.29667707 -8.4375 30.3125 C-9.38496094 30.32925781 -10.33242188 30.34601563 -11.30859375 30.36328125 C-14.41766889 29.94362379 -15.63070693 28.9844079 -18 27 C-19.98799818 26.29835358 -21.98698517 25.62627128 -24 25 C-26.30009773 22.69990227 -25.18537365 17.15209334 -25.1875 14.0625 C-25.19974609 13.12986328 -25.21199219 12.19722656 -25.22460938 11.23632812 C-25.22654297 10.34494141 -25.22847656 9.45355469 -25.23046875 8.53515625 C-25.23663208 7.30357788 -25.23663208 7.30357788 -25.24291992 6.04711914 C-25 4 -25 4 -23 2 C-20.5390625 1.69921875 -20.5390625 1.69921875 -17.625 1.6875 C-16.66851563 1.67074219 -15.71203125 1.65398437 -14.7265625 1.63671875 C-11.58766716 2.05493833 -10.23361881 2.78192842 -8 5 C-7.63371323 6.99422795 -7.29868656 8.99453311 -7 11 C-6.01 11.66 -5.02 12.32 -4 13 C-3.6875 16.5 -3.6875 16.5 -4 20 C-4.66 20.66 -5.32 21.32 -6 22 C-6.99 22 -7.98 22 -9 22 C-9.66 23.32 -10.32 24.64 -11 26 C-11.99 26 -12.98 26 -14 26 C-14 26.66 -14 27.32 -14 28 C-12.2282281 27.93983797 -10.45741321 27.85100672 -8.6875 27.75 C-7.70136719 27.70359375 -6.71523438 27.6571875 -5.69921875 27.609375 C-2.94763377 27.21852055 -2.94763377 27.21852055 -1.1875 25.375 C0.36129239 22.27741522 0.51503547 19.69929054 0.6875 16.25 C0.75324219 15.07953125 0.81898438 13.9090625 0.88671875 12.703125 C0.92410156 11.81109375 0.96148438 10.9190625 1 10 C0.34 10 -0.32 10 -1 10 C-1.02689216 8.52093108 -1.04634621 7.04172517 -1.0625 5.5625 C-1.07410156 4.73878906 -1.08570313 3.91507812 -1.09765625 3.06640625 C-1 1 -1 1 0 0 Z " fill="#162013" transform="translate(579,436)"/>
<path d="M0 0 C33.66 0 67.32 0 102 0 C102 1.65 102 3.3 102 5 C68.01 5 34.02 5 -1 5 C-0.67 3.35 -0.34 1.7 0 0 Z " fill="#4FED4F" transform="translate(1209,451)"/>
<path d="M0 0 C0.33 0 0.66 0 1 0 C1 2.64 1 5.28 1 8 C40.93 8 80.86 8 122 8 C122.33 7.34 122.66 6.68 123 6 C122.67 7.98 122.34 9.96 122 12 C81.74 12.33 41.48 12.66 0 13 C0 8.71 0 4.42 0 0 Z " fill="#3CE93C" transform="translate(610,443)"/>
<path d="M0 0 C40.26 0 80.52 0 122 0 C122 1.32 122 2.64 122 4 C61.115 4.495 61.115 4.495 -1 5 C-0.67 3.35 -0.34 1.7 0 0 Z " fill="#3CEB3C" transform="translate(198,451)"/>
<path d="M0 0 C33.66 0 67.32 0 102 0 C102.495 2.475 102.495 2.475 103 5 C69.01 4.67 35.02 4.34 0 4 C0 2.68 0 1.36 0 0 Z " fill="#3BEB3B" transform="translate(1022,451)"/>
<path d="M0 0 C2.5625 0.1875 2.5625 0.1875 4.5625 2.1875 C4.1875 4.8125 4.1875 4.8125 3.5625 7.1875 C6.2025 7.1875 8.8425 7.1875 11.5625 7.1875 C11.8925 8.5075 12.2225 9.8275 12.5625 11.1875 C10.5825 11.8475 8.6025 12.5075 6.5625 13.1875 C6.5625 19.4575 6.5625 25.7275 6.5625 32.1875 C4.5825 32.6825 4.5825 32.6825 2.5625 33.1875 C1.9025 32.5275 1.2425 31.8675 0.5625 31.1875 C-0.0975 31.8475 -0.7575 32.5075 -1.4375 33.1875 C-2.7575 32.8575 -4.0775 32.5275 -5.4375 32.1875 C-5.4375 25.9175 -5.4375 19.6475 -5.4375 13.1875 C-7.7475 12.5275 -10.0575 11.8675 -12.4375 11.1875 C-12.1075 9.8675 -11.7775 8.5475 -11.4375 7.1875 C-8.4675 7.1875 -5.4975 7.1875 -2.4375 7.1875 C-2.7675 6.8575 -3.0975 6.5275 -3.4375 6.1875 C-3.5625 3.6875 -3.5625 3.6875 -3.4375 1.1875 C-2.4375 0.1875 -2.4375 0.1875 0 0 Z " fill="#DEFBDE" transform="translate(979.4375,436.8125)"/>
<path d="M0 0 C3.99709639 0.15083383 6.30851272 0.43262582 9.4375 3 C11.57498587 7.10397287 12.31372642 10.4890117 11 15 C7.94254263 18.69003475 4.79382032 20.75452985 0.03125 21.40625 C-4.82700034 20.75514428 -6.95589496 17.9249169 -10.1875 14.453125 C-12 12 -12 12 -12.875 8.1875 C-12 5 -12 5 -9.875 2.5625 C-6.60522637 0.78544911 -4.6616367 0.75034295 -1 1 C-0.67 0.67 -0.34 0.34 0 0 Z " fill="#1A2616" transform="translate(156,447)"/>
<path d="M0 0 C0.66 0 1.32 0 2 0 C0.98130536 2.19411153 0.02435794 3.97174479 -1.5625 5.8125 C-3.26818935 8.01139592 -3.26818935 8.01139592 -3.1875 11.203125 C-4.27759826 16.29723803 -6.71597469 18.47071011 -10.4375 21.9375 C-11.03626953 22.52595703 -11.63503906 23.11441406 -12.25195312 23.72070312 C-16.69029472 28 -16.69029472 28 -19 28 C-18.67 29.65 -18.34 31.3 -18 33 C-20.31 31.35 -22.62 29.7 -25 28 C-25 29.65 -25 31.3 -25 33 C-27.99324263 31.9024777 -28.84610901 31.32317108 -30.25 28.375 C-30.62125 27.199375 -30.62125 27.199375 -31 26 C-29.68 26.33 -28.36 26.66 -27 27 C-28.20381448 24.50638429 -29.45428722 22.31856917 -31 20 C-29.95585938 20.21269531 -29.95585938 20.21269531 -28.890625 20.4296875 C-23.78260856 19.67038776 -21.26780127 15.01756702 -18.16796875 11.15234375 C-14.43372381 6.78822617 -11.70635855 5.13789064 -5.96948242 4.39453125 C-3.11722135 3.82315975 -1.81420916 2.177051 0 0 Z " fill="#10170D" transform="translate(787,441)"/>
<path d="M0 0 C30.03 0 60.06 0 91 0 C91 1.32 91 2.64 91 4 C60.97 4 30.94 4 0 4 C0 2.68 0 1.36 0 0 Z " fill="#49E949" transform="translate(1395,449)"/>
<path d="M0 0 C2.74609375 1.4921875 2.74609375 1.4921875 5 3 C7.69254991 3.70670728 7.69254991 3.70670728 10 4 C10 6.31 10 8.62 10 11 C5.25 10.125 5.25 10.125 3 9 C3 8.01 3 7.02 3 6 C-2.36688164 3.57374248 -7.18415809 3.3072306 -13 4 C-18.00230198 6.45567552 -21.49851535 9.9970307 -24 15 C-24.56088092 20.99711135 -24.45741843 25.87348302 -21 31 C-17.70950291 34.70180922 -15.61903002 36.74190496 -10.58203125 37.23828125 C-4.31807713 37.40614462 1.04781324 37.19121243 6 33 C8.98600846 28.8106747 10.53174525 23.89418249 12 19 C12.66 19 13.32 19 14 19 C13.80301392 26.73618062 11.91703942 32.10188347 6.3828125 37.609375 C1.16918991 41.59231414 -4.25431364 41.73658939 -10.65234375 41.4765625 C-16.43507014 40.65335058 -19.95552805 38.59411642 -23.5546875 34.02734375 C-27.30766339 28.3554734 -29.00009636 22.87125031 -28 16 C-25.92876466 9.45287561 -22.69462132 4.52985517 -16.73828125 0.99609375 C-11.33082699 -0.97095452 -5.63730126 -0.8782752 0 0 Z " fill="#131B10" transform="translate(1534,430)"/>
<path d="M0 0 C3.69964251 0.50213557 7.33433059 1.28371977 11 2 C11 6.95 11 11.9 11 17 C4.1235419 18.80366114 -1.88839906 19.18004053 -9 19 C-9 13.39 -9 7.78 -9 2 C-6.36 1.67 -3.72 1.34 -1 1 C-0.67 0.67 -0.34 0.34 0 0 Z " fill="#9FE888" transform="translate(361,436)"/>
<path d="M0 0 C1.67381019 0.29537827 3.33911955 0.63893903 5 1 C6.216875 1.144375 7.43375 1.28875 8.6875 1.4375 C12 2 12 2 14 4 C14.24291992 6.32250977 14.24291992 6.32250977 14.23046875 9.19140625 C14.22853516 10.21814453 14.22660156 11.24488281 14.22460938 12.30273438 C14.20624023 13.91631836 14.20624023 13.91631836 14.1875 15.5625 C14.18685547 16.64208984 14.18621094 17.72167969 14.18554688 18.83398438 C14.14014598 26.85985402 14.14014598 26.85985402 13 28 C11.00041636 28.04080783 8.99954746 28.04254356 7 28 C7 28.66 7 29.32 7 30 C5.68 30 4.36 30 3 30 C3 31.32 3 32.64 3 34 C2.34 34 1.68 34 1 34 C1 32.68 1 31.36 1 30 C-0.32 30 -1.64 30 -3 30 C-3 29.34 -3 28.68 -3 28 C-4.98 28 -6.96 28 -9 28 C-10.94345974 24.11308052 -10.18480803 19.27485419 -10.1875 15 C-10.19974609 13.97648437 -10.21199219 12.95296875 -10.22460938 11.8984375 C-10.22654297 10.92132813 -10.22847656 9.94421875 -10.23046875 8.9375 C-10.23457764 8.03902344 -10.23868652 7.14054687 -10.24291992 6.21484375 C-10 4 -10 4 -8 2 C-5.67182036 1.63239269 -3.3381615 1.29758419 -1 1 C-0.67 0.67 -0.34 0.34 0 0 Z M1 2 C0.67 2.33 0.34 2.66 0 3 C-2.64 3.33 -5.28 3.66 -8 4 C-8 9.61 -8 15.22 -8 21 C-0.88839906 21.18004053 5.1235419 20.80366114 12 19 C12 14.05 12 9.1 12 4 C9.69 3.67 7.38 3.34 5 3 C4.21625 2.79375 3.4325 2.5875 2.625 2.375 C2.08875 2.25125 1.5525 2.1275 1 2 Z " fill="#121B10" transform="translate(360,434)"/>
<path d="M0 0 C2.5625 1.5 2.5625 1.5 4 3 C3.51669316 9.52464229 3.51669316 9.52464229 1.4375 11.4375 C-2.09077283 12.25171681 -5.43105604 12.60778056 -9 12 C-12 10 -12 10 -14 8 C-13.69209738 5.15190074 -13.34521809 3.41713852 -11.5 1.1875 C-7.71725942 -0.60930177 -4.1143196 -0.5888384 0 0 Z " fill="#95D97F" transform="translate(1167,438)"/>
<path d="M0 0 C1.8871875 0.00773437 1.8871875 0.00773437 3.8125 0.015625 C5.070625 0.01046875 6.32875 0.0053125 7.625 0 C10.8125 0.265625 10.8125 0.265625 12.8125 2.265625 C13.125 5.265625 13.125 5.265625 12.8125 8.265625 C9.22967765 10.65417324 7.49856967 10.53461302 3.25 10.515625 C1.51556641 10.52335937 1.51556641 10.52335937 -0.25390625 10.53125 C-3.1875 10.265625 -3.1875 10.265625 -5.1875 8.265625 C-5.4375 5.265625 -5.4375 5.265625 -5.1875 2.265625 C-3.1875 0.265625 -3.1875 0.265625 0 0 Z " fill="#263821" transform="translate(1350.1875,438.734375)"/>
<path d="M0 0 C2.17578125 0.421875 2.17578125 0.421875 3.17578125 1.421875 C3.55078125 3.734375 3.55078125 3.734375 3.17578125 6.421875 C0.67578125 8.734375 0.67578125 8.734375 -1.82421875 10.421875 C-2.48421875 10.091875 -3.14421875 9.761875 -3.82421875 9.421875 C-3.82421875 10.741875 -3.82421875 12.061875 -3.82421875 13.421875 C-4.81421875 13.421875 -5.80421875 13.421875 -6.82421875 13.421875 C-6.82421875 13.751875 -6.82421875 14.081875 -6.82421875 14.421875 C-7.8504726 17.07303077 -8.46132877 18.20841031 -10.94921875 19.671875 C-11.56796875 19.919375 -12.18671875 20.166875 -12.82421875 20.421875 C-14.14421875 19.101875 -15.46421875 17.781875 -16.82421875 16.421875 C-15.15151406 12.19393431 -12.15246636 9.34680245 -9.01171875 6.171875 C-8.49029297 5.61757813 -7.96886719 5.06328125 -7.43164062 4.4921875 C-5.01007414 2.03736605 -3.46990912 0.51832667 0 0 Z " fill="#92D57D" transform="translate(778.82421875,447.578125)"/>
<path d="M0 0 C6.93 0 13.86 0 21 0 C21 0.66 21 1.32 21 2 C19.35 2.33 17.7 2.66 16 3 C15.67 9.27 15.34 15.54 15 22 C14.34 22 13.68 22 13 22 C12.67 18.7 12.34 15.4 12 12 C11.34 12 10.68 12 10 12 C9.95101562 12.63808594 9.90203125 13.27617187 9.8515625 13.93359375 C9.77679687 14.75988281 9.70203125 15.58617187 9.625 16.4375 C9.55539062 17.26121094 9.48578125 18.08492188 9.4140625 18.93359375 C9.27742187 19.61550781 9.14078125 20.29742187 9 21 C8.34 21.33 7.68 21.66 7 22 C7 15.73 7 9.46 7 3 C4.69 2.34 2.38 1.68 0 1 C0 0.67 0 0.34 0 0 Z " fill="#47ED47" transform="translate(969,446)"/>
<path d="M0 0 C0.90492188 0.02320313 1.80984375 0.04640625 2.7421875 0.0703125 C4.10730469 0.09738281 4.10730469 0.09738281 5.5 0.125 C6.19867187 0.14820313 6.89734375 0.17140625 7.6171875 0.1953125 C7.6171875 0.5253125 7.6171875 0.8553125 7.6171875 1.1953125 C4.6471875 1.8553125 1.6771875 2.5153125 -1.3828125 3.1953125 C-1.3828125 3.8553125 -1.3828125 4.5153125 -1.3828125 5.1953125 C0.5971875 5.8553125 2.5771875 6.5153125 4.6171875 7.1953125 C3.6271875 7.6903125 3.6271875 7.6903125 2.6171875 8.1953125 C2.9471875 13.8053125 3.2771875 19.4153125 3.6171875 25.1953125 C-3.3828125 23.1953125 -3.3828125 23.1953125 -4.3828125 22.1953125 C-4.63317224 18.89014316 -4.56803202 15.57135209 -4.5703125 12.2578125 C-4.58255859 11.32517578 -4.59480469 10.39253906 -4.60742188 9.43164062 C-4.60935547 8.54025391 -4.61128906 7.64886719 -4.61328125 6.73046875 C-4.61944458 5.49889038 -4.61944458 5.49889038 -4.62573242 4.24243164 C-4.24931211 1.07028661 -3.11903205 0.25565836 0 0 Z " fill="#030503" transform="translate(558.3828125,437.8046875)"/>
<path d="M0 0 C0.66 0.99 1.32 1.98 2 3 C4.5 3.5 4.5 3.5 7 3 C7.66 2.01 8.32 1.02 9 0 C10.98 2.31 12.96 4.62 15 7 C14.01 7.99 13.02 8.98 12 10 C11.74930087 12.62570704 11.74930087 12.62570704 12 15 C7.73975935 14.49265085 5.70291439 13.27109314 2.6875 10.25 C1.99011719 9.57453125 1.29273438 8.8990625 0.57421875 8.203125 C-1.31123449 5.56442617 -1.40509446 4.17594055 -1 1 C-0.67 0.67 -0.34 0.34 0 0 Z " fill="#9AE184" transform="translate(146,452)"/>
<path d="M0 0 C1.38125018 2.76250036 1.19079306 4.94731099 1 8 C-1 10 -1 10 -4.5 10.25 C-8 10 -8 10 -10 8 C-10.32954432 4.90228335 -10.45334601 2.82668977 -8.9375 0.0625 C-5.81857551 -1.64787795 -3.34442199 -0.80513863 0 0 Z " fill="#92D57D" transform="translate(163,435)"/>
<path d="M0 0 C0.38218767 1.65614657 0.71395102 3.32457024 1 5 C0 6 0 6 -1.76586914 6.11352539 C-2.51473389 6.10828857 -3.26359863 6.10305176 -4.03515625 6.09765625 C-4.84404297 6.09443359 -5.65292969 6.09121094 -6.48632812 6.08789062 C-7.33646484 6.07951172 -8.18660156 6.07113281 -9.0625 6.0625 C-9.91650391 6.05798828 -10.77050781 6.05347656 -11.65039062 6.04882812 C-13.76695663 6.03700373 -15.88348685 6.01906769 -18 6 C-18.33 4.68 -18.66 3.36 -19 2 C-18.08476562 1.86722656 -17.16953125 1.73445313 -16.2265625 1.59765625 C-15.03804688 1.42105469 -13.84953125 1.24445313 -12.625 1.0625 C-11.44164062 0.88847656 -10.25828125 0.71445312 -9.0390625 0.53515625 C-2.21922246 -0.66576674 -2.21922246 -0.66576674 0 0 Z " fill="#9DE687" transform="translate(371,455)"/>
<path d="M0 0 C2.60880189 0.07589242 3.83497043 0.18149813 6.125 1.5 C7.44385516 4.04978665 6.8600116 5.62996098 6.0625 8.3125 C2.53328888 9.21532145 0.65539113 9.56283181 -2.75 8.125 C-4.9375 6.3125 -4.9375 6.3125 -5.875 4.25 C-5.895625 3.610625 -5.91625 2.97125 -5.9375 2.3125 C-3.9375 0.3125 -3.9375 0.3125 0 0 Z " fill="#89C875" transform="translate(1172.9375,454.6875)"/>
<path d="M0 0 C3.25 -0.3125 3.25 -0.3125 7 0 C10.21279089 2.71851537 10.90640581 4.40723678 11.5625 8.5625 C11 12 11 12 8.6875 14.4375 C6 16 6 16 3 16 C4.20381448 13.50638429 5.45428722 11.31856917 7 9 C6.4946875 8.51789063 5.989375 8.03578125 5.46875 7.5390625 C4.49421875 6.59160156 4.49421875 6.59160156 3.5 5.625 C2.8503125 4.99851562 2.200625 4.37203125 1.53125 3.7265625 C0 2 0 2 0 0 Z " fill="#95DA80" transform="translate(155,449)"/>
<path d="M0 0 C1.32 0 2.64 0 4 0 C5.49106457 2.98212913 5.11941467 5.71609658 5 9 C4.67 9.33 4.34 9.66 4 10 C3.71525984 13.06886617 3.55128201 16.13775297 3.37890625 19.21484375 C3 22 3 22 1 24 C1 19.38 1 14.76 1 10 C0.34 10 -0.32 10 -1 10 C-1.02689216 8.52093108 -1.04634621 7.04172517 -1.0625 5.5625 C-1.07410156 4.73878906 -1.08570313 3.91507812 -1.09765625 3.06640625 C-1 1 -1 1 0 0 Z " fill="#131C10" transform="translate(579,436)"/>
<path d="M0 0 C0.66 0 1.32 0 2 0 C0.98130536 2.19411153 0.02435794 3.97174479 -1.5625 5.8125 C-3.27534795 8.06692268 -3.27534795 8.06692268 -3.4375 11.5625 C-4 15 -4 15 -6.0625 16.9375 C-6.701875 17.288125 -7.34125 17.63875 -8 18 C-8 15 -8 15 -6 13 C-5.83312552 10.41645782 -5.83312552 10.41645782 -6 8 C-8.24425432 7.49450706 -8.24425432 7.49450706 -11 8 C-13.23913252 9.79340357 -15.12454539 11.83452663 -17 14 C-17.99 13.67 -18.98 13.34 -20 13 C-15.73151775 7.86684128 -12.64726967 5.4686131 -6.015625 4.46484375 C-3.16687687 3.80786501 -1.83058983 2.1967078 0 0 Z " fill="#111A0F" transform="translate(787,441)"/>
<path d="M0 0 C3.0625 2.1875 3.0625 2.1875 5 5 C4.91985673 8.44616056 4.4443896 9.5556104 2 12 C-1.05657695 12.57048096 -3.93921194 12.52863352 -7 12 C-10.28175318 9.47031526 -11.69243777 7.92268669 -13 4 C-9.12906957 -0.04688181 -5.5974574 -0.95071318 0 0 Z M-10 4 C-10.05901922 6.02077346 -10.05901922 6.02077346 -9 8 C-6.85688329 9.9529689 -6.85688329 9.9529689 -4 11 C-0.76443801 10.78150791 -0.76443801 10.78150791 2 10 C3.08943338 6.52737381 3.08943338 6.52737381 2.0625 3.1875 C-1.79299269 0.96767087 -6.75504589 0.75504589 -10 4 Z " fill="#121A0F" transform="translate(1177,453)"/>
<path d="M0 0 C2.31 0 4.62 0 7 0 C7.33 1.65 7.66 3.3 8 5 C4.9530371 6.69433918 2.17178534 7.49467112 -1.25 8.125 C-2.58804687 8.37636719 -2.58804687 8.37636719 -3.953125 8.6328125 C-4.62859375 8.75398438 -5.3040625 8.87515625 -6 9 C-6 7.68 -6 6.36 -6 5 C-3.5625 3.375 -3.5625 3.375 -1 2 C-0.67 1.34 -0.34 0.68 0 0 Z " fill="#91D57D" transform="translate(1172,446)"/>
<path d="M0 0 C0.33 0.99 0.66 1.98 1 3 C-0.32 3.33 -1.64 3.66 -3 4 C-3.061875 5.27875 -3.12375 6.5575 -3.1875 7.875 C-3.22230469 8.59429687 -3.25710938 9.31359375 -3.29296875 10.0546875 C-3.19628906 10.69664062 -3.09960938 11.33859375 -3 12 C-2.01 12.66 -1.02 13.32 0 14 C0 14.66 0 15.32 0 16 C-2.31 16.33 -4.62 16.66 -7 17 C-7 12.05 -7 7.1 -7 2 C-4.69 1.34 -2.38 0.68 0 0 Z " fill="#87C473" transform="translate(568,444)"/>
<path d="M0 0 C0.7734375 -0.01675781 1.546875 -0.03351563 2.34375 -0.05078125 C4.97015897 0.39171157 5.83557103 1.29064557 7.5 3.3125 C6.51 3.6425 5.52 3.9725 4.5 4.3125 C4.5 4.9725 4.5 5.6325 4.5 6.3125 C1.79120665 7.66689668 -0.50933268 7.37751451 -3.5 7.3125 C-3.83 5.9925 -4.16 4.6725 -4.5 3.3125 C-5.82 4.3025 -7.14 5.2925 -8.5 6.3125 C-8.1875 4.4375 -8.1875 4.4375 -7.5 2.3125 C-4.40219052 0.24729368 -3.5459519 0.01772976 0 0 Z " fill="#9AE284" transform="translate(1162.5,437.6875)"/>
<path d="M0 0 C0.33 0 0.66 0 1 0 C1 7.59 1 15.18 1 23 C0.01 23 -0.98 23 -2 23 C-2 21.35 -2 19.7 -2 18 C-4.52749667 17.06389012 -5.61301641 16.82927195 -8.125 17.9375 C-12.37535911 19.50828489 -16.51545848 19.15674126 -21 19 C-14.83204838 14.88803225 -7.23434167 14.73206142 0 15 C0 10.05 0 5.1 0 0 Z " fill="#1E2C1A" transform="translate(373,438)"/>
<path d="M0 0 C4.86945088 1.53297528 7.60092339 4.8439338 10.375 9.0625 C10.375 12.0625 10.375 12.0625 8.875 13.75 C8.38 14.183125 7.885 14.61625 7.375 15.0625 C6.715 14.7325 6.055 14.4025 5.375 14.0625 C6.365 12.7425 7.355 11.4225 8.375 10.0625 C6.725 8.4125 5.075 6.7625 3.375 5.0625 C2.385 6.0525 1.395 7.0425 0.375 8.0625 C-0.945 7.4025 -2.265 6.7425 -3.625 6.0625 C-3.667721 4.39638095 -3.66563832 2.72867115 -3.625 1.0625 C-2.625 0.0625 -2.625 0.0625 0 0 Z " fill="#172213" transform="translate(151.625,447.9375)"/>
<path d="M0 0 C2.375 0.8125 2.375 0.8125 3.375 2.8125 C0.405 2.3175 0.405 2.3175 -2.625 1.8125 C-2.295 3.7925 -1.965 5.7725 -1.625 7.8125 C-0.635 8.1425 0.355 8.4725 1.375 8.8125 C1.375 8.1525 1.375 7.4925 1.375 6.8125 C0.715 6.8125 0.055 6.8125 -0.625 6.8125 C-0.625 6.1525 -0.625 5.4925 -0.625 4.8125 C1.025 4.8125 2.675 4.8125 4.375 4.8125 C4.375 6.7925 4.375 8.7725 4.375 10.8125 C-2.375 10.9375 -2.375 10.9375 -4.625 9.8125 C-6.10482709 3.66552594 -6.10482709 3.66552594 -4.5 0.8125 C-2.625 -0.1875 -2.625 -0.1875 0 0 Z " fill="#273622" transform="translate(1528.625,444.1875)"/>
<path d="M0 0 C2.5625 0.1875 2.5625 0.1875 4.5625 2.1875 C4.1875 5.8125 4.1875 5.8125 3.5625 9.1875 C0.9225 9.1875 -1.7175 9.1875 -4.4375 9.1875 C-3.7775 8.5275 -3.1175 7.8675 -2.4375 7.1875 C-2.7675 6.8575 -3.0975 6.5275 -3.4375 6.1875 C-3.5625 3.6875 -3.5625 3.6875 -3.4375 1.1875 C-2.4375 0.1875 -2.4375 0.1875 0 0 Z " fill="#D3FAD3" transform="translate(979.4375,436.8125)"/>
<path d="M0 0 C2.95840402 1.33394971 3.86337712 2.35733486 6 5 C6.1875 8.625 6.1875 8.625 5 12 C2.4375 13.9375 2.4375 13.9375 0 15 C-0.33 14.34 -0.66 13.68 -1 13 C0.32 12.67 1.64 12.34 3 12 C3.25015873 8.58357241 3.25015873 8.58357241 3 5 C-1.02743661 2.31504226 -4.26867516 2.42826372 -9 3 C-11.97984167 4.33170309 -11.97984167 4.33170309 -14 6 C-14 5.01 -14 4.02 -14 3 C-9.86299146 -0.60320099 -5.22779526 -0.96132838 0 0 Z " fill="#1A2616" transform="translate(1167,436)"/>
<path d="M0 0 C0.8971875 0.495 0.8971875 0.495 1.8125 1 C5.66340034 1.39496414 8.3148486 0.59892636 11.8125 -1 C10.52284824 0.37562854 9.18560707 1.70766393 7.8125 3 C7.1525 3 6.4925 3 5.8125 3 C5.4825 4.32 5.1525 5.64 4.8125 7 C2.4693787 6.74438677 0.13406597 6.40729228 -2.1875 6 C-2.5175 5.34 -2.8475 4.68 -3.1875 4 C-1.2075 4 0.7725 4 2.8125 4 C-3.21479015 0.5558342 -7.53140765 0.43386062 -14.1875 2 C-11.87908087 -2.61683826 -4.17644321 -1.90923118 0 0 Z " fill="#1B2817" transform="translate(1352.1875,452)"/>
<path d="M0 0 C0.598125 0.226875 1.19625 0.45375 1.8125 0.6875 C1.8125 2.0075 1.8125 3.3275 1.8125 4.6875 C0.4925 5.0175 -0.8275 5.3475 -2.1875 5.6875 C-2.1875 5.0275 -2.1875 4.3675 -2.1875 3.6875 C-2.8475 3.6875 -3.5075 3.6875 -4.1875 3.6875 C-4.1875 4.6775 -4.1875 5.6675 -4.1875 6.6875 C0.83492381 5.64258546 0.83492381 5.64258546 4.75 2.5625 C5.100625 1.94375 5.45125 1.325 5.8125 0.6875 C5.48622714 3.70552393 5.20168764 5.28441281 3.0625 7.5 C0.41904901 8.89515469 -1.23812755 9.00635108 -4.1875 8.6875 C-5.1875 7.6875 -5.1875 7.6875 -5.4375 5.3125 C-5.1875 2.6875 -5.1875 2.6875 -3.9375 0.8125 C-2.1875 -0.3125 -2.1875 -0.3125 0 0 Z " fill="#8ECF79" transform="translate(1158.1875,451.3125)"/>
<path d="M0 0 C1.65 0 3.3 0 5 0 C6.31626692 3.61973402 7 6.09567131 7 10 C6.34 10 5.68 10 5 10 C5 9.01 5 8.02 5 7 C3.35 7 1.7 7 0 7 C0 7.99 0 8.98 0 10 C-0.66 10 -1.32 10 -2 10 C-1.34 6.7 -0.68 3.4 0 0 Z " fill="#1F2C1B" transform="translate(1515,445)"/>
<path d="M0 0 C3 2 3 2 3.625 3.98828125 C3.810625 5.13876953 3.810625 5.13876953 4 6.3125 C4.72490771 10.10151338 5.76822506 12.79788813 8 16 C8.33 16.66 8.66 17.32 9 18 C8.34 18 7.68 18 7 18 C6.67 18.66 6.34 19.32 6 20 C5.18071114 18.75443908 4.36984814 17.50333365 3.5625 16.25 C3.11003906 15.55390625 2.65757813 14.8578125 2.19140625 14.140625 C-0.39335243 9.496534 -0.08650904 5.19054257 0 0 Z " fill="#1C2919" transform="translate(1506,446)"/>
<path d="M0 0 C1.32 1.32 2.64 2.64 4 4 C2.95125002 6.62187494 2.35068687 7.79371361 -0.125 9.25 C-0.74375 9.4975 -1.3625 9.745 -2 10 C-2.99 9.01 -3.98 8.02 -5 7 C-3.70700306 4.11562221 -2.34058637 2.12780579 0 0 Z " fill="#98DF83" transform="translate(768,458)"/>
<path d="M0 0 C0.33 0.99 0.66 1.98 1 3 C-1.40545638 4.20272819 -2.94996953 4.10071472 -5.625 4.0625 C-6.85089844 4.04896484 -6.85089844 4.04896484 -8.1015625 4.03515625 C-9.04128906 4.01775391 -9.04128906 4.01775391 -10 4 C-10 2.68 -10 1.36 -10 0 C-6.7169902 -1.6415049 -3.57454967 -0.51888624 0 0 Z " fill="#97DD81" transform="translate(567,440)"/>
<path d="M0 0 C2.5625 0.1875 2.5625 0.1875 4.5625 2.1875 C4.1875 4.8125 4.1875 4.8125 3.5625 7.1875 C1.1875 7.8125 1.1875 7.8125 -1.4375 8.1875 C-3.4375 6.1875 -3.4375 6.1875 -3.625 3.625 C-3.37291261 0.34786389 -3.27713611 0.25208739 0 0 Z " fill="#8BCC77" transform="translate(569.4375,448.8125)"/>
<path d="M0 0 C2.31 0 4.62 0 7 0 C7 0.66 7 1.32 7 2 C5.35 2 3.7 2 2 2 C2 2.99 2 3.98 2 5 C3.32 5.33 4.64 5.66 6 6 C4.68 6 3.36 6 2 6 C2 6.99 2 7.98 2 9 C3.65 9 5.3 9 7 9 C7 9.66 7 10.32 7 11 C4.69 11 2.38 11 0 11 C0 7.37 0 3.74 0 0 Z " fill="#1F2C1B" transform="translate(1535,444)"/>
<path d="M0 0 C1.65 0.33 3.3 0.66 5 1 C4.67 2.32 4.34 3.64 4 5 C2.35 5.33 0.7 5.66 -1 6 C-1 12.27 -1 18.54 -1 25 C-1.33 25 -1.66 25 -2 25 C-2.19592461 21.68794116 -2.38032746 18.37534146 -2.5625 15.0625 C-2.61857422 14.11697266 -2.67464844 13.17144531 -2.73242188 12.19726562 C-2.78076172 11.29814453 -2.82910156 10.39902344 -2.87890625 9.47265625 C-2.9260376 8.64000244 -2.97316895 7.80734863 -3.02172852 6.94946289 C-3 5 -3 5 -2 4 C-0.33382885 3.95936168 1.33388095 3.957279 3 4 C2.01 2.68 1.02 1.36 0 0 Z " fill="#C0F9C0" transform="translate(987,444)"/>
<path d="M0 0 C-1.2065625 0.86625 -1.2065625 0.86625 -2.4375 1.75 C-4.95212402 3.95796255 -5.77496814 4.73703803 -6 8 C-4.93354885 9.29633621 -4.93354885 9.29633621 -2.4375 9.0625 C-1.633125 9.041875 -0.82875 9.02125 0 9 C0.66 7.02 1.32 5.04 2 3 C2.33 3 2.66 3 3 3 C3.125 5.875 3.125 5.875 3 9 C1 11 1 11 -2.5 11.25 C-6 11 -6 11 -8 9 C-8.333728 5.86295684 -8.52849028 3.83445834 -6.8125 1.125 C-4.43963721 -0.34781139 -2.74086056 -0.22223194 0 0 Z " fill="#22331D" transform="translate(161,434)"/>
<path d="M0 0 C1.98 0 3.96 0 6 0 C6.38218767 1.65614657 6.71395102 3.32457024 7 5 C6 6 6 6 2.9375 6.0625 C1.4834375 6.0315625 1.4834375 6.0315625 0 6 C0 4.02 0 2.04 0 0 Z " fill="#9BE385" transform="translate(1355,441)"/>
<path d="M0 0 C2.0625 0.4375 2.0625 0.4375 4 1 C3.67 3.64 3.34 6.28 3 9 C1.68 9.33 0.36 9.66 -1 10 C-1.02689216 8.52093108 -1.04634621 7.04172517 -1.0625 5.5625 C-1.07410156 4.73878906 -1.08570313 3.91507812 -1.09765625 3.06640625 C-1 1 -1 1 0 0 Z " fill="#517745" transform="translate(579,436)"/>
<path d="M0 0 C0.66 0.33 1.32 0.66 2 1 C1.6875 2.875 1.6875 2.875 1 5 C-2.46998729 7.31332486 -3.92509248 7.33957563 -8 7 C-8.99 6.34 -9.98 5.68 -11 5 C-11 3.68 -11 2.36 -11 1 C-10.34 1 -9.68 1 -9 1 C-8.67 1.99 -8.34 2.98 -8 4 C-5.36 4 -2.72 4 0 4 C-0.33 3.01 -0.66 2.02 -1 1 C-0.67 0.67 -0.34 0.34 0 0 Z " fill="#1F2E1B" transform="translate(1167,440)"/>
<path d="M0 0 C1.98 0 3.96 0 6 0 C6 1.98 6 3.96 6 6 C4.02 6 2.04 6 0 6 C-1.125 2.25 -1.125 2.25 0 0 Z " fill="#8CCC78" transform="translate(1347,441)"/>
<path d="M0 0 C0.66 0.66 1.32 1.32 2 2 C0.34116421 4.28804937 -0.62283307 5.56463437 -3 7 C-6.70298665 7.44207004 -10.28831877 7.29251428 -14 7 C-13.67 6.34 -13.34 5.68 -13 5 C-10.47855264 4.6836894 -7.98448848 4.6204938 -5.4453125 4.5390625 C-2.83304962 4.21325634 -2.83304962 4.21325634 -1.1796875 1.9609375 C-0.79039062 1.31382812 -0.40109375 0.66671875 0 0 Z " fill="#22321D" transform="translate(579,459)"/>
<path d="M0 0 C1.27875 -0.061875 2.5575 -0.12375 3.875 -0.1875 C4.95394531 -0.23970703 4.95394531 -0.23970703 6.0546875 -0.29296875 C6.69664063 -0.19628906 7.33859375 -0.09960938 8 0 C8.66 0.99 9.32 1.98 10 3 C9.34 3 8.68 3 8 3 C8 3.66 8 4.32 8 5 C6.35 5 4.7 5 3 5 C2.87625 4.360625 2.7525 3.72125 2.625 3.0625 C2.315625 2.0415625 2.315625 2.0415625 2 1 C1.34 0.67 0.68 0.34 0 0 Z " fill="#99DF83" transform="translate(1169,455)"/>
<path d="M0 0 C1.98 0 3.96 0 6 0 C6 0.66 6 1.32 6 2 C6.66 2 7.32 2 8 2 C8 3.65 8 5.3 8 7 C7.01 7 6.02 7 5 7 C5 6.34 5 5.68 5 5 C3.35 5 1.7 5 0 5 C0 3.35 0 1.7 0 0 Z " fill="#7BB56A" transform="translate(1537,448)"/>
<path d="M0 0 C3.125 0.375 3.125 0.375 6 1 C5.01 1.66 4.02 2.32 3 3 C2.01 2.67 1.02 2.34 0 2 C0 3.98 0 5.96 0 8 C0.61875 7.814375 1.2375 7.62875 1.875 7.4375 C4 7 4 7 6 8 C6 8.66 6 9.32 6 10 C3.125 10.125 3.125 10.125 0 10 C-2 8 -2 8 -2.25 5 C-2 2 -2 2 0 0 Z " fill="#31492A" transform="translate(1347,439)"/>
<path d="M0 0 C2.625 1.0625 2.625 1.0625 5 3 C5.3125 6.1875 5.3125 6.1875 5 9 C4.34 8.01 3.68 7.02 3 6 C2.071875 6.37125 1.14375 6.7425 0.1875 7.125 C-0.864375 7.41375 -1.91625 7.7025 -3 8 C-3.99 7.34 -4.98 6.68 -6 6 C-3.36 5.67 -0.72 5.34 2 5 C1.04134491 2.66924071 1.04134491 2.66924071 -2 1 C-1.34 0.67 -0.68 0.34 0 0 Z " fill="#273A22" transform="translate(566,438)"/>
<path d="M0 0 C1.65 0.33 3.3 0.66 5 1 C4.67 2.65 4.34 4.3 4 6 C2.35 5.67 0.7 5.34 -1 5 C-0.67 3.35 -0.34 1.7 0 0 Z " fill="#2F4528" transform="translate(1175,446)"/>
<path d="M0 0 C0.99 1.485 0.99 1.485 2 3 C2.70125 3.680625 3.4025 4.36125 4.125 5.0625 C6 7 6 7 6 9 C4.02 9.33 2.04 9.66 0 10 C0 6.7 0 3.4 0 0 Z " fill="#9BE284" transform="translate(562,451)"/>
<path d="M0 0 C2.31 0 4.62 0 7 0 C7 0.99 7 1.98 7 3 C5.35 3 3.7 3 2 3 C2 3.66 2 4.32 2 5 C2.66 5 3.32 5 4 5 C4 5.66 4 6.32 4 7 C2.68 6.67 1.36 6.34 0 6 C0 4.02 0 2.04 0 0 Z " fill="#8ACB76" transform="translate(1526,446)"/>
<path d="M0 0 C2.31 0.33 4.62 0.66 7 1 C7.33 2.32 7.66 3.64 8 5 C3.71 4.34 -0.58 3.68 -5 3 C-5 2.67 -5 2.34 -5 2 C-3.35 2 -1.7 2 0 2 C0 1.34 0 0.68 0 0 Z " fill="#212F1D" transform="translate(1529,430)"/>
<path d="M0 0 C1.65 0 3.3 0 5 0 C4.01 0.495 4.01 0.495 3 1 C1.86649466 3.01669827 1.86649466 3.01669827 1 5 C0.01 5 -0.98 5 -2 5 C-1.67 5.99 -1.34 6.98 -1 8 C-2.32 7.67 -3.64 7.34 -5 7 C-5 6.01 -5 5.02 -5 4 C-3.02 3.67 -1.04 3.34 1 3 C0.67 2.01 0.34 1.02 0 0 Z " fill="#10180E" transform="translate(567,457)"/>
<path d="M0 0 C0 0.99 0 1.98 0 3 C-1.96875 4.60546875 -1.96875 4.60546875 -4.5 6.1875 C-5.3353125 6.71730469 -6.170625 7.24710937 -7.03125 7.79296875 C-7.6809375 8.19128906 -8.330625 8.58960938 -9 9 C-8.46833235 5.04202974 -8.36357747 4.28622056 -5.0625 1.6875 C-2 0 -2 0 0 0 Z " fill="#8FD07A" transform="translate(1366,451)"/>
<path d="M0 0 C0.66 0.33 1.32 0.66 2 1 C1.17812739 5.38332057 0.09845718 9.67940177 -1 14 C-1.33 14 -1.66 14 -2 14 C-2.05437607 12.41705218 -2.09296271 10.83355744 -2.125 9.25 C-2.14820313 8.36828125 -2.17140625 7.4865625 -2.1953125 6.578125 C-1.99139502 3.8864142 -1.36551721 2.30095026 0 0 Z " fill="#0C110B" transform="translate(1509,439)"/>
<path d="M0 0 C0.33 0.66 0.66 1.32 1 2 C-0.98 2.66 -2.96 3.32 -5 4 C-5 3.67 -5 3.34 -5 3 C-7.64 2.67 -10.28 2.34 -13 2 C-13 1.67 -13 1.34 -13 1 C-11.20994059 0.63779734 -9.41787943 0.28547531 -7.625 -0.0625 C-6.12839844 -0.35833984 -6.12839844 -0.35833984 -4.6015625 -0.66015625 C-2 -1 -2 -1 0 0 Z " fill="#2A3D25" transform="translate(1537,467)"/>
<path d="M0 0 C1.65 0 3.3 0 5 0 C4.67 1.98 4.34 3.96 4 6 C3.01 6 2.02 6 1 6 C0.67 4.02 0.34 2.04 0 0 Z " fill="#3B5733" transform="translate(1515,445)"/>
<path d="M0 0 C0.66 0 1.32 0 2 0 C2.33 0.99 2.66 1.98 3 3 C4.65 3.33 6.3 3.66 8 4 C8.33 3.34 8.66 2.68 9 2 C8.67 3.32 8.34 4.64 8 6 C5.69 5.67 3.38 5.34 1 5 C0.67 3.35 0.34 1.7 0 0 Z " fill="#1A2516" transform="translate(1169,456)"/>
<path d="M0 0 C0.66 0 1.32 0 2 0 C0.6104538 3.35806998 -0.72945019 5.32052848 -4 7 C-7.75 6.6875 -7.75 6.6875 -11 6 C-11 5.67 -11 5.34 -11 5 C-9.39125 4.87625 -9.39125 4.87625 -7.75 4.75 C-3.66499825 3.93299965 -2.65108323 3.0438363 0 0 Z " fill="#22321D" transform="translate(787,441)"/>
<path d="M0 0 C2.0625 0.4375 2.0625 0.4375 4 1 C1.28817788 3.60334924 0.10866187 3.99456691 -3.75 4.1875 C-4.8225 4.125625 -5.895 4.06375 -7 4 C-7.33 3.34 -7.66 2.68 -8 2 C-6.865625 1.855625 -5.73125 1.71125 -4.5625 1.5625 C-1.19222799 1.38828522 -1.19222799 1.38828522 0 0 Z " fill="#1F2E1B" transform="translate(360,434)"/>
<path d="M0 0 C-1.44253657 3.36591866 -3.33264727 5.51047079 -6 8 C-6.99 7.67 -7.98 7.34 -9 7 C-7.88121617 5.82737096 -6.75476949 4.66204862 -5.625 3.5 C-4.68527344 2.52546875 -4.68527344 2.52546875 -3.7265625 1.53125 C-2 0 -2 0 0 0 Z " fill="#182314" transform="translate(776,447)"/>
<path d="M0 0 C2 2 2 2 2 5 C2.99 5.66 3.98 6.32 5 7 C2.5625 6.625 2.5625 6.625 0 6 C-0.33 5.34 -0.66 4.68 -1 4 C-1.33 5.65 -1.66 7.3 -2 9 C-2.33 9 -2.66 9 -3 9 C-3.36923077 3.46153846 -3.36923077 3.46153846 -1.5 1.125 C-1.005 0.75375 -0.51 0.3825 0 0 Z " fill="#0E150C" transform="translate(147,449)"/>
<path d="M0 0 C0.66 0 1.32 0 2 0 C2 3.33333333 2 6.66666667 2 10 C1.01 9.34 0.02 8.68 -1 8 C-1.25660094 4.92078868 -1.39431504 2.78863007 0 0 Z " fill="#1E2B19" transform="translate(565,448)"/>
<path d="M0 0 C1.98 0.495 1.98 0.495 4 1 C3.67 2.32 3.34 3.64 3 5 C1.68 4.67 0.36 4.34 -1 4 C-0.67 2.68 -0.34 1.36 0 0 Z " fill="#8CCC78" transform="translate(149,450)"/>
<path d="M0 0 C0 0.33 0 0.66 0 1 C-2.01822917 1.42317708 -4.03645833 1.84635417 -6.0546875 2.26953125 C-8.37046549 2.92308838 -8.37046549 2.92308838 -10 6 C-10.33 5.01 -10.66 4.02 -11 3 C-7.16077997 -1.01373003 -5.47880919 -1.07194093 0 0 Z " fill="#395331" transform="translate(1175,454)"/>
<path d="M0 0 C1.98 0.495 1.98 0.495 4 1 C3.67 2.32 3.34 3.64 3 5 C2.01 5 1.02 5 0 5 C-0.33 4.01 -0.66 3.02 -1 2 C-0.67 1.34 -0.34 0.68 0 0 Z " fill="#4EED4E" transform="translate(978,438)"/>
<path d="M0 0 C0.226875 0.5775 0.45375 1.155 0.6875 1.75 C2.33038023 4.5663661 4.39533227 6.08077114 7 8 C4 9 4 9 1.8125 7.9375 C0 6 0 6 -0.25 2.8125 C-0.1675 1.884375 -0.085 0.95625 0 0 Z " fill="#1E2C19" transform="translate(1166,456)"/>
<path d="M0 0 C1.65 0 3.3 0 5 0 C5 1.98 5 3.96 5 6 C4.01 5.67 3.02 5.34 2 5 C2.66 5 3.32 5 4 5 C4 4.34 4 3.68 4 3 C2.68 2.67 1.36 2.34 0 2 C0 1.34 0 0.68 0 0 Z " fill="#476040" transform="translate(1528,449)"/>
<path d="M0 0 C2.64 0 5.28 0 8 0 C8 0.99 8 1.98 8 3 C5.6568787 2.74438677 3.32156597 2.40729228 1 2 C0.67 1.34 0.34 0.68 0 0 Z " fill="#2F4528" transform="translate(1349,456)"/>
</svg>
