<?xml version="1.0" encoding="UTF-8"?>
<svg version="1.1" xmlns="http://www.w3.org/2000/svg" width="1920" height="1080">
<path d="M0 0 C633.6 0 1267.2 0 1920 0 C1920 356.4 1920 712.8 1920 1080 C1286.4 1080 652.8 1080 0 1080 C0 723.6 0 367.2 0 0 Z " fill="#FEFEFE" transform="translate(0,0)"/>
<path d="M0 0 C7.76639922 6.56947605 14.09170357 14.80690442 16 25 C16 27.97 16 30.94 16 34 C58.24 34 100.48 34 144 34 C144 30.7 144 27.4 144 24 C147.35863808 10.98334274 155.69041198 1.80726561 167 -5 C176.96796823 -10.26581655 189.06865615 -10.70313895 199.8984375 -7.7421875 C211.56567616 -3.62178723 220.83358519 3.57470548 226.81640625 14.5234375 C230.18437461 21.57060561 231 25.92175363 231 34 C272.91 34 314.82 34 358 34 C358.33 30.37 358.66 26.74 359 23 C362.60929112 11.61685107 369.4573043 2.22787943 379.96875 -3.6640625 C391.59739641 -9.61951005 403.06413687 -10.96987821 415.8125 -7.5 C427.80462307 -3.2648636 436.3672035 4.974739 442.3125 16.0625 C445.07825479 22.03320668 446 27.35259315 446 34 C487.58 34 529.16 34 572 34 C572.33 31.69 572.66 29.38 573 27 C576.27894974 15.47078964 583.82156965 6.24277062 594 0 C606.67559282 -5.73883983 618.7863283 -6.95512689 632 -2 C643.7495837 3.20720187 652.02191358 11.73190504 657.1015625 23.56640625 C658.42481562 27.3197457 659 29.95754367 659 34 C700.58 34 742.16 34 785 34 C785 31.69 785 29.38 785 27 C787.51843849 15.15864634 794.00856279 4.90807632 804 -2 C815.73843781 -8.67746398 826.25455793 -10.76033012 839.58984375 -8.3515625 C851.43559123 -5.05559947 861.17118635 1.83211308 867.46875 12.484375 C871.28132272 19.79919475 873 25.62819189 873 34 C907.98 34 942.96 34 979 34 C979.33 30.37 979.66 26.74 980 23 C983.60929112 11.61685107 990.4573043 2.22787943 1000.96875 -3.6640625 C1012.59739641 -9.61951005 1024.06413687 -10.96987821 1036.8125 -7.5 C1048.24145977 -3.46375027 1056.93518383 4.17734596 1062.5 14.88671875 C1065.58159548 21.72400872 1066.20569926 26.05699258 1067 34 C1101.98 34 1136.96 34 1173 34 C1173 31.36 1173 28.72 1173 26 C1176.05478007 14.07650358 1182.89321118 4.05369637 1193 -3 C1204.35237365 -9.08613365 1216.80529522 -11.33360275 1229.4375 -7.8125 C1241.21838263 -3.58245154 1249.79662235 3.13068124 1256 14 C1256.41636719 14.680625 1256.83273437 15.36125 1257.26171875 16.0625 C1261.98141473 25.33628858 1261.40831731 38.31444872 1259.3046875 48.30078125 C1254.84964417 60.33688571 1244.73951879 69.92490157 1233.27734375 75.26953125 C1222.35919038 79.42812802 1210.78712772 79.5828821 1199.84765625 75.38671875 C1188.30789328 69.76721826 1179.7660238 60.9150595 1175 49 C1174.67 45.7 1174.34 42.4 1174 39 C1138.36 39 1102.72 39 1066 39 C1065.67 41.97 1065.34 44.94 1065 48 C1060.75872641 59.31453682 1054.41967198 66.92799879 1044 73 C1032.44371537 78.1361265 1020.22629844 80.0612574 1008 76 C996.36612495 71.44601088 988.6535694 64.05345299 983 53 C982.48953125 52.03707031 982.48953125 52.03707031 981.96875 51.0546875 C979.79507347 46.56644799 980 44.40717494 980 39 C944.36 39 908.72 39 872 39 C871.67 41.97 871.34 44.94 871 48 C866.46413606 60.32218412 859.4698075 67.85943731 848 74 C836.13438205 79.00952129 824.12176338 79.49620303 812 75 C799.45615118 69.3492566 792.44222577 60.59691809 786.6640625 48.3359375 C786 46 786 46 786 39 C744.09 39 702.18 39 659 39 C659 41.64 659 44.28 659 47 C657.27010682 57.89008948 650.81689752 67.29840362 642.4765625 74.27734375 C634.2222187 80.01892989 626.2279466 82.19279857 616.375 82.25 C615.51003906 82.270625 614.64507813 82.29125 613.75390625 82.3125 C601.54035879 82.38574466 592.02101736 77.42017182 583.14453125 69.26953125 C574.7464425 60.38193642 572 50.95084587 572 39 C530.09 39 488.18 39 445 39 C444.67 41.97 444.34 44.94 444 48 C439.46413606 60.32218412 432.4698075 67.85943731 421 74 C410.3146498 78.51122643 398.10015446 79.91219609 387 76 C375.4364175 70.8071717 367.83407175 64.25012589 362 53 C361.48759766 52.03513672 361.48759766 52.03513672 360.96484375 51.05078125 C358.79620094 46.56219497 359 44.40646883 359 39 C316.43 39 273.86 39 230 39 C229.67 42.3 229.34 45.6 229 49 C224.97776366 59.71696528 216.94485491 69.25529132 206.546875 74.15625 C194.68257978 79.12930787 182.09702688 79.73977077 170 75 C164.21867165 72.12585391 159.27783847 68.88895825 155 64 C154.154375 63.071875 153.30875 62.14375 152.4375 61.1875 C149.6367324 57.77021123 147.80878968 54.00934486 146 50 C145.38125 48.700625 145.38125 48.700625 144.75 47.375 C144 45 144 45 144 39 C101.76 39 59.52 39 16 39 C15.67 41.31 15.34 43.62 15 46 C11.60141314 57.48540291 4.68744359 66.51147644 -5.57421875 72.75 C-16.9416006 78.60758807 -28.9386943 80.10675432 -41.3125 76.4375 C-51.86336778 72.38709975 -61.44663302 65.09789474 -66.5703125 54.86328125 C-71.3255389 43.60018787 -73.43393258 31.00293853 -69.5 19.0625 C-64.148062 6.88029149 -55.31618658 -1.91287946 -43 -7 C-28.00525478 -12.18000289 -12.61553856 -9.14678164 0 0 Z " fill="#258D25" transform="translate(134,418)"/>
<path d="M0 0 C7.76639922 6.56947605 14.09170357 14.80690442 16 25 C16 27.97 16 30.94 16 34 C58.24 34 100.48 34 144 34 C144 30.7 144 27.4 144 24 C147.35863808 10.98334274 155.69041198 1.80726561 167 -5 C176.96796823 -10.26581655 189.06865615 -10.70313895 199.8984375 -7.7421875 C211.56567616 -3.62178723 220.83358519 3.57470548 226.81640625 14.5234375 C230.18437461 21.57060561 231 25.92175363 231 34 C272.91 34 314.82 34 358 34 C358.33 30.37 358.66 26.74 359 23 C362.60929112 11.61685107 369.4573043 2.22787943 379.96875 -3.6640625 C391.59739641 -9.61951005 403.06413687 -10.96987821 415.8125 -7.5 C426.24368147 -3.8161255 434.00077624 2.8044685 440 12 C440.61488281 12.88365234 440.61488281 12.88365234 441.2421875 13.78515625 C446.49441377 22.50691884 446.95792589 35.38092609 444.890625 45.12109375 C440.67928066 58.73407962 433.44265629 67.33860565 421 74 C410.3146498 78.51122643 398.10015446 79.91219609 387 76 C375.4364175 70.8071717 367.83407175 64.25012589 362 53 C361.48759766 52.03513672 361.48759766 52.03513672 360.96484375 51.05078125 C358.79620094 46.56219497 359 44.40646883 359 39 C316.43 39 273.86 39 230 39 C229.67 42.3 229.34 45.6 229 49 C224.97776366 59.71696528 216.94485491 69.25529132 206.546875 74.15625 C194.68257978 79.12930787 182.09702688 79.73977077 170 75 C164.21867165 72.12585391 159.27783847 68.88895825 155 64 C154.154375 63.071875 153.30875 62.14375 152.4375 61.1875 C149.6367324 57.77021123 147.80878968 54.00934486 146 50 C145.38125 48.700625 145.38125 48.700625 144.75 47.375 C144 45 144 45 144 39 C101.76 39 59.52 39 16 39 C15.67 41.31 15.34 43.62 15 46 C11.60141314 57.48540291 4.68744359 66.51147644 -5.57421875 72.75 C-16.9416006 78.60758807 -28.9386943 80.10675432 -41.3125 76.4375 C-51.86336778 72.38709975 -61.44663302 65.09789474 -66.5703125 54.86328125 C-71.3255389 43.60018787 -73.43393258 31.00293853 -69.5 19.0625 C-64.148062 6.88029149 -55.31618658 -1.91287946 -43 -7 C-28.00525478 -12.18000289 -12.61553856 -9.14678164 0 0 Z " fill="#248D24" transform="translate(134,418)"/>
<path d="M0 0 C7.76639922 6.56947605 14.09170357 14.80690442 16 25 C16 27.97 16 30.94 16 34 C57.91 34 99.82 34 143 34 C143 35.65 143 37.3 143 39 C101.09 39 59.18 39 16 39 C15.67 41.31 15.34 43.62 15 46 C11.60141314 57.48540291 4.68744359 66.51147644 -5.57421875 72.75 C-16.9416006 78.60758807 -28.9386943 80.10675432 -41.3125 76.4375 C-51.86336778 72.38709975 -61.44663302 65.09789474 -66.5703125 54.86328125 C-71.3255389 43.60018787 -73.43393258 31.00293853 -69.5 19.0625 C-64.148062 6.88029149 -55.31618658 -1.91287946 -43 -7 C-28.00525478 -12.18000289 -12.61553856 -9.14678164 0 0 Z " fill="#258D25" transform="translate(134,418)"/>
<path d="M0 0 C0.75990234 -0.01611328 1.51980469 -0.03222656 2.30273438 -0.04882812 C12.45324997 -0.05749637 21.84254306 4.55714656 29.30078125 11.3515625 C39.20795634 21.9117529 41.63492696 32.18904354 41.40234375 46.203125 C40.9523577 56.39782974 36.19122589 65.12861956 29.0625 72.3125 C18.80905873 80.78273409 9.28918927 83.97383446 -3.9375 83.3125 C-15.22134196 82.2275152 -24.23172638 77.67608356 -31.9375 69.3125 C-38.25339668 60.88301585 -40.9375 54.91140998 -40.9375 44.3125 C-70.9675 44.3125 -100.9975 44.3125 -131.9375 44.3125 C-131.9375 42.9925 -131.9375 41.6725 -131.9375 40.3125 C-101.9075 40.3125 -71.8775 40.3125 -40.9375 40.3125 C-40.9375 37.3425 -40.9375 34.3725 -40.9375 31.3125 C-37.93149194 19.85430458 -29.30734511 10.05739433 -19.375 4 C-12.90996607 0.82625607 -7.080181 -0.02987418 0 0 Z " fill="#99E384" transform="translate(1526.9375,408.6875)"/>
<path d="M0 0 C6.17487395 5.05322081 11.09975716 11.54508784 12.7734375 19.45703125 C13.7969212 30.29021257 11.43425157 39.09641821 4.60546875 47.63671875 C-1.6461506 53.84834907 -9.79207484 57.34268928 -18.5390625 57.83203125 C-27.10796621 57.5988638 -35.14542948 53.35546929 -41.2265625 47.45703125 C-47.99352764 39.21637148 -50.19350163 31.03385778 -49.2265625 20.45703125 C-47.15933549 10.81500163 -41.95236508 4.35972375 -34.2265625 -1.54296875 C-23.33743063 -7.94834044 -10.31373876 -7.14724001 0 0 Z " fill="#9EE987" transform="translate(1175.2265625,426.54296875)"/>
<path d="M0 0 C6.17487395 5.05322081 11.09975716 11.54508784 12.7734375 19.45703125 C13.7969212 30.29021257 11.43425157 39.09641821 4.60546875 47.63671875 C-1.6461506 53.84834907 -9.79207484 57.34268928 -18.5390625 57.83203125 C-27.10796621 57.5988638 -35.14542948 53.35546929 -41.2265625 47.45703125 C-47.99352764 39.21637148 -50.19350163 31.03385778 -49.2265625 20.45703125 C-47.15933549 10.81500163 -41.95236508 4.35972375 -34.2265625 -1.54296875 C-23.33743063 -7.94834044 -10.31373876 -7.14724001 0 0 Z " fill="#9DE887" transform="translate(554.2265625,426.54296875)"/>
<path d="M0 0 C7.43712517 5.16285491 12.89329812 11.95065997 14.71875 20.9375 C16.11365518 31.16680468 13.75238139 39.49431596 7.79296875 47.92578125 C2.80882108 53.69175601 -4.4724725 57.770777 -12 59 C-21.73823707 59.40422871 -29.85518094 57.52066423 -37.25390625 51.01953125 C-44.14108495 43.853314 -47.15847217 36.86315255 -47.5 26.9375 C-47.18851334 17.66323581 -44.19998528 11.53349595 -37.92578125 4.7890625 C-27.26105294 -5.118535 -12.80579819 -7.32068396 0 0 Z " fill="#9EE988" transform="translate(1367,425)"/>
<path d="M0 0 C7.2922682 5.06229515 13.13341654 12.17615092 15 21 C16.14814703 31.3953853 13.72249129 40.47933565 7.375 48.875 C1.23940309 55.37713906 -7.34470657 58.99727847 -16.1875 59.3125 C-24.73384211 59.18473077 -33.0164287 55.00925187 -39 49 C-45.41270894 40.50672327 -48.24262996 31.61883782 -47 21 C-44.94609456 12.15028662 -39.33379535 4.5527389 -31.77734375 -0.48046875 C-21.59173095 -5.75414117 -9.98217786 -5.7065064 0 0 Z " fill="#9EE988" transform="translate(979,425)"/>
<path d="M0 0 C7.37904084 6.06721136 13.08605468 12.92427462 14.19140625 22.64453125 C14.53286793 32.81127754 12.62220011 40.16956332 6.25 48.125 C0.23841651 54.49750408 -8.4236343 58.25594601 -17.1875 58.6875 C-24.4591531 58.60336517 -31.85920349 55.36892829 -37.625 51 C-44.33894154 43.95854912 -48.17470907 35.483436 -48.5625 25.6875 C-48.16312149 16.20226028 -42.9311347 8.1412173 -36.4375 1.5 C-24.57386953 -6.48513589 -12.58036558 -6.66019354 0 0 Z " fill="#3CEA3C" transform="translate(338.1875,425.6875)"/>
<path d="M0 0 C5.61858266 4.3755334 9.59593694 11.05343583 11.828125 17.75 C12.54606001 29.26457311 12.28403257 37.99583723 4.640625 47.0625 C-1.83399783 53.83094688 -9.0197276 57.02621795 -18.359375 58.125 C-29.10249662 57.06829951 -37.18466049 53.02735832 -44.171875 44.75 C-49.9299569 36.53530979 -50.40621766 27.40749697 -49.171875 17.75 C-46.18811819 8.17762102 -39.34258718 2.12675096 -31.171875 -3.25 C-21.39979228 -7.92360478 -9.06388572 -5.21662488 0 0 Z " fill="#9EE988" transform="translate(125.171875,426.25)"/>
<path d="M0 0 C7.14968413 4.59988639 11.46689419 10.91425283 14 19 C15.53747842 29.39875604 14.25332233 38.2480211 8 47 C2.42101397 53.56842159 -4.62244462 57.35839745 -13.17578125 58.37890625 C-22.57948121 58.72146171 -29.90074372 56.72420318 -37.3125 50.875 C-44.04681047 44.57692016 -47.12945472 36.10782946 -47.4375 27.0625 C-47.50517075 18.33297304 -44.90675129 11.52102036 -39.13671875 4.84375 C-28.2938412 -5.41243879 -13.12521698 -7.66018761 0 0 Z " fill="#9FE988" transform="translate(766,430)"/>
<path d="M0 0 C5.75697015 4.046395 9.52762676 8.9158417 13 15 C13.41636719 15.680625 13.83273437 16.36125 14.26171875 17.0625 C18.98141473 26.33628858 18.40831731 39.31444872 16.3046875 49.30078125 C11.84964417 61.33688571 1.73951879 70.92490157 -9.72265625 76.26953125 C-20.64080962 80.42812802 -32.21287228 80.5828821 -43.15234375 76.38671875 C-54.48341461 70.86884474 -63.54399842 61.91252683 -68 50 C-71.77043771 37.50369216 -70.9746419 25.61735925 -65 14 C-58.23939016 3.20271535 -49.18707738 -3.60430754 -37.1484375 -7.6171875 C-23.80838444 -9.99414241 -11.27722396 -7.38489852 0 0 Z M-51.53515625 16.796875 C-57.39700305 24.52152443 -57.81520652 32.54151415 -57 42 C-55.10316484 50.65581106 -49.86435049 57.51596093 -42.71484375 62.63671875 C-35.56859251 66.69207108 -27.60126109 67.91466938 -19.48828125 66.58984375 C-10.81268173 64.06135314 -3.88280154 59.09002089 0.78125 51.35546875 C5.15138839 42.9093359 6.24134886 35.25832429 3.9375 26 C0.83338097 16.70208066 -5.54262741 10.62023132 -14 6 C-27.78654984 -0.74009103 -42.35010107 6.04591983 -51.53515625 16.796875 Z " fill="#258C25" transform="translate(1377,417)"/>
<path d="M0 0 C4.93201924 3.86951728 8.70650264 8.07267208 12.125 13.3125 C12.53492188 13.90160156 12.94484375 14.49070312 13.3671875 15.09765625 C18.61941377 23.81941884 19.08292589 36.69342609 17.015625 46.43359375 C12.80428066 60.04657962 5.56765629 68.65110565 -6.875 75.3125 C-17.5603502 79.82372643 -29.77484554 81.22469609 -40.875 77.3125 C-53.97402803 71.43015312 -61.6465467 63.54915491 -67.6875 50.625 C-71.7850969 39.19486128 -70.52084159 27.34466071 -65.875 16.3125 C-59.42629523 4.6068764 -49.61794603 -3.03268331 -36.98046875 -7.33203125 C-23.94200218 -9.5333308 -10.99161716 -7.49224517 0 0 Z M-49.5625 15.1875 C-55.58929021 22.35844906 -57.27245318 29.12547846 -57.1484375 38.33984375 C-56.3426978 47.0993853 -52.62246363 54.65253967 -45.875 60.3125 C-37.39769752 65.81193985 -29.73989589 68.90984546 -19.60546875 66.8515625 C-10.70996283 64.20316319 -3.88986333 59.59668851 0.90625 51.58984375 C5.26182836 43.4510547 6.58021903 35.8706871 4.5390625 26.671875 C1.68857739 18.35578083 -4.3283575 10.81912612 -12.1875 6.75 C-25.89979564 1.40452882 -39.58182007 4.24834141 -49.5625 15.1875 Z " fill="#258C24" transform="translate(561.875,416.6875)"/>
<path d="M0 0 C0.75990234 -0.01611328 1.51980469 -0.03222656 2.30273438 -0.04882812 C12.45324997 -0.05749637 21.84254306 4.55714656 29.30078125 11.3515625 C39.20795634 21.9117529 41.63492696 32.18904354 41.40234375 46.203125 C40.9523577 56.39782974 36.19122589 65.12861956 29.0625 72.3125 C18.80905873 80.78273409 9.28918927 83.97383446 -3.9375 83.3125 C-15.22134196 82.2275152 -24.23172638 77.67608356 -31.9375 69.3125 C-38.25339668 60.88301585 -40.9375 54.91140998 -40.9375 44.3125 C-70.9675 44.3125 -100.9975 44.3125 -131.9375 44.3125 C-131.9375 42.9925 -131.9375 41.6725 -131.9375 40.3125 C-101.9075 40.3125 -71.8775 40.3125 -40.9375 40.3125 C-40.9375 37.3425 -40.9375 34.3725 -40.9375 31.3125 C-37.93149194 19.85430458 -29.30734511 10.05739433 -19.375 4 C-12.90996607 0.82625607 -7.080181 -0.02987418 0 0 Z M-24 22.8125 C-25.57266223 24.96101434 -25.57266223 24.96101434 -26.9375 27.3125 C-27.48535156 28.22257812 -28.03320312 29.13265625 -28.59765625 30.0703125 C-30.26270335 34.09943522 -30.39682807 37.37628709 -30.3125 41.6875 C-30.30017334 42.44554932 -30.28784668 43.20359863 -30.27514648 43.98461914 C-29.98372844 53.65990727 -27.28783332 58.95351639 -20.51171875 66.03515625 C-13.38941104 72.33607491 -5.84851826 74.24342135 3.56640625 73.8515625 C12.74502575 72.43631167 19.77110877 67.77689771 25.50390625 60.578125 C30.87007378 52.77768098 30.83831037 44.56177163 30.0625 35.3125 C27.68020539 26.49800995 23.07053362 20.37739094 15.40625 15.50390625 C1.97563101 8.67667493 -14.36051505 10.91910625 -24 22.8125 Z " fill="#2A8F28" transform="translate(1526.9375,408.6875)"/>
<path d="M0 0 C1.67225729 0.30404678 3.33753959 0.64628502 5 1 C6.41554447 1.17594338 7.83231864 1.34219705 9.25 1.5 C13 2 13 2 14 3 C14.08737645 4.85369611 14.10698153 6.71067541 14.09765625 8.56640625 C14.09443359 9.69111328 14.09121094 10.81582031 14.08789062 11.97460938 C14.07951172 13.15861328 14.07113281 14.34261719 14.0625 15.5625 C14.05798828 16.75037109 14.05347656 17.93824219 14.04882812 19.16210938 C14.03699675 22.10812226 14.02051287 25.05403681 14 28 C7.5 31 7.5 31 3 31 C3 32.32 3 33.64 3 35 C2.34 35 1.68 35 1 35 C1 33.68 1 32.36 1 31 C-0.32 31 -1.64 31 -3 31 C-3 30.34 -3 29.68 -3 29 C-3.969375 29.020625 -4.93875 29.04125 -5.9375 29.0625 C-9 29 -9 29 -10 28 C-10.25256877 24.02724185 -10.18522451 20.04233825 -10.1875 16.0625 C-10.19974609 14.93908203 -10.21199219 13.81566406 -10.22460938 12.65820312 C-10.22654297 11.58634766 -10.22847656 10.51449219 -10.23046875 9.41015625 C-10.23457764 8.42152588 -10.23868652 7.43289551 -10.24291992 6.41430664 C-10 4 -10 4 -8 2 C-5.67182036 1.63239269 -3.3381615 1.29758419 -1 1 C-0.67 0.67 -0.34 0.34 0 0 Z " fill="#3EEC3E" transform="translate(319,435)"/>
<path d="M0 0 C0.33 0 0.66 0 1 0 C1 1.98 1 3.96 1 6 C42.58 6 84.16 6 127 6 C127 7.65 127 9.3 127 11 C85.42 11 43.84 11 1 11 C-0.28317892 7.15046324 -0.06643637 4.05261865 0 0 Z " fill="#46EC46" transform="translate(579,446)"/>
<path d="M0 0 C41.91 0 83.82 0 127 0 C127 1.65 127 3.3 127 5 C85.09 5 43.18 5 0 5 C0 3.35 0 1.7 0 0 Z " fill="#45EC45" transform="translate(365,452)"/>
<path d="M0 0 C41.91 0 83.82 0 127 0 C127 1.65 127 3.3 127 5 C85.09 5 43.18 5 0 5 C0 3.35 0 1.7 0 0 Z " fill="#45EC45" transform="translate(150,452)"/>
<path d="M0 0 C41.58 0 83.16 0 126 0 C126 1.65 126 3.3 126 5 C84.42 5 42.84 5 0 5 C0 3.35 0 1.7 0 0 Z " fill="#45EC45" transform="translate(793,452)"/>
<path d="M0 0 C3.96123241 1.83914362 5.54605437 2.87708186 7.1875 6.9375 C7 10 7 10 4.6875 12.75 C3.3571875 13.86375 3.3571875 13.86375 2 15 C1.34 15.66 0.68 16.32 0 17 C2.97256189 17.0442699 2.97256189 17.0442699 5.8125 16.75 C9.96710466 17.07585135 11.89218398 18.25355794 15 21 C16.0625 24.0625 16.0625 24.0625 16 27 C14.43577528 29.10053034 13.48592182 29.89080408 10.9140625 30.46875 C6.4670107 30.5294606 4.61013062 30.48302008 1 27.625 C-1 25 -1 25 -2 23 C-2.495 23.495 -2.99 23.99 -3.5 24.5 C-7.18629954 26.71177972 -9.73176192 26.34421275 -14 26 C-14.66 25.34 -15.32 24.68 -16 24 C-15.69903201 19.86169011 -15.32101984 17.48152976 -13 14 C-13.515625 13.46375 -14.03125 12.9275 -14.5625 12.375 C-16 10 -16 10 -16.0625 7 C-15 4 -15 4 -12.5 1.625 C-8.10998199 -0.41322265 -4.75774549 -0.83260546 0 0 Z " fill="#2D4226" transform="translate(1157,437)"/>
<path d="M0 0 C2.125 0.375 2.125 0.375 4 1 C4.02689216 2.47906892 4.04634621 3.95827483 4.0625 5.4375 C4.07410156 6.26121094 4.08570313 7.08492188 4.09765625 7.93359375 C4 10 4 10 3 11 C2.79420839 14.49388418 2.68033761 17.98611188 2.57421875 21.484375 C1.91879207 25.49719143 0.87348268 27.17362359 -2 30 C-4.88920694 30.96306898 -6.92247881 31.1955936 -9.9375 31.25 C-10.79214844 31.27578125 -11.64679687 31.3015625 -12.52734375 31.328125 C-15.49529336 30.93427387 -16.72103062 29.88097888 -19 28 C-20.9959722 27.32136945 -22.99568551 26.65358081 -25 26 C-27.8199387 23.1800613 -27.28962838 21.07095841 -27.32226562 17.21679688 C-27.31743164 15.90291992 -27.31743164 15.90291992 -27.3125 14.5625 C-27.32861328 13.69044922 -27.34472656 12.81839844 -27.36132812 11.91992188 C-27.36197266 11.08138672 -27.36261719 10.24285156 -27.36328125 9.37890625 C-27.36626221 8.6113501 -27.36924316 7.84379395 -27.37231445 7.05297852 C-26.90248357 4.46228483 -26.07063013 3.58246039 -24 2 C-21.44140625 1.6015625 -21.44140625 1.6015625 -18.5625 1.625 C-17.61503906 1.61726563 -16.66757812 1.60953125 -15.69140625 1.6015625 C-12.59719083 2.05963213 -11.21484339 2.81598969 -9 5 C-8.65977214 6.99883869 -8.32670903 8.99890722 -8 11 C-7.29875 11.66 -6.5975 12.32 -5.875 13 C-4 15 -4 15 -3.9375 18.125 C-5 21 -5 21 -7.4375 22.125 C-8.283125 22.41375 -9.12875 22.7025 -10 23 C-11.13350534 25.01669827 -11.13350534 25.01669827 -12 27 C-12.99 27.33 -13.98 27.66 -15 28 C-13.22950311 28.05410687 -11.45853151 28.09284119 -9.6875 28.125 C-8.20830078 28.15980469 -8.20830078 28.15980469 -6.69921875 28.1953125 C-3.77593473 28.20682639 -3.77593473 28.20682639 -1 26 C0.19604442 22.86124758 0.16504732 19.70697726 0.1875 16.375 C0.20876953 14.93253906 0.20876953 14.93253906 0.23046875 13.4609375 C0.24733824 10.82194251 0.24733824 10.82194251 -2 9 C-2.25 5.5 -2.25 5.5 -2 2 C-1.34 1.34 -0.68 0.68 0 0 Z " fill="#151F12" transform="translate(547,437)"/>
<path d="M0 0 C0.33 0 0.66 0 1 0 C1 2.31 1 4.62 1 7 C35.98 7 70.96 7 107 7 C107 8.65 107 10.3 107 12 C71.69 12 36.38 12 0 12 C0 8.04 0 4.08 0 0 Z " fill="#46EB46" transform="translate(1006,445)"/>
<path d="M0 0 C34.98 0 69.96 0 106 0 C106 1.65 106 3.3 106 5 C71.02 5 36.04 5 0 5 C0 3.35 0 1.7 0 0 Z " fill="#45EC45" transform="translate(1201,452)"/>
<path d="M0 0 C3.59425365 -0.24857455 5.42597896 -0.0985007 8.27734375 2.16796875 C10.34717866 6.22484518 11.82206805 9.65455078 10.83984375 14.23046875 C7.579423 18.22923591 4.01029624 20.88776573 -1.12890625 21.69921875 C-5.16332532 21.07533951 -6.72717336 19.52992123 -9.59765625 16.66796875 C-10.48324219 15.82105469 -11.36882812 14.97414063 -12.28125 14.1015625 C-14.16015625 11.23046875 -14.16015625 11.23046875 -14.01171875 7.5078125 C-13.16015625 4.23046875 -13.16015625 4.23046875 -12.09765625 2.35546875 C-8.37974735 0.19668294 -4.16635034 0.44451116 0 0 Z " fill="#172113" transform="translate(108.16015625,448.76953125)"/>
<path d="M0 0 C0.495 1.485 0.495 1.485 1 3 C0.0409375 3.4640625 0.0409375 3.4640625 -0.9375 3.9375 C-3.39705892 6.39705892 -3.16729175 6.84261649 -3.1953125 10.15625 C-3.72770888 16.01143622 -6.73832261 18.73787758 -10.9375 22.5625 C-11.58396484 23.18962891 -12.23042969 23.81675781 -12.89648438 24.46289062 C-17.66119138 29 -17.66119138 29 -20 29 C-19.67 30.65 -19.34 32.3 -19 34 C-19.763125 33.319375 -20.52625 32.63875 -21.3125 31.9375 C-22.199375 31.298125 -23.08625 30.65875 -24 30 C-24.99 30.33 -25.98 30.66 -27 31 C-26.67 31.99 -26.34 32.98 -26 34 C-28.86697492 32.71480435 -30.97607712 31.42870746 -33 29 C-33 28.34 -33 27.68 -33 27 C-31.68 27.33 -30.36 27.66 -29 28 C-29.62759865 25.07120629 -30.58622659 22.63904371 -32 20 C-31.34 20 -30.68 20 -30 20 C-29.67 20.66 -29.34 21.32 -29 22 C-28.52167725 21.48501953 -28.04335449 20.97003906 -27.55053711 20.43945312 C-25.36487331 18.10793774 -23.15193887 15.80418867 -20.9375 13.5 C-20.18533203 12.68917969 -19.43316406 11.87835938 -18.65820312 11.04296875 C-12.87517179 5.08469404 -12.87517179 5.08469404 -8.125 4.625 C-6.578125 4.810625 -6.578125 4.810625 -5 5 C-2.06026719 2.64581624 -2.06026719 2.64581624 0 0 Z " fill="#121B0F" transform="translate(763,442)"/>
<path d="M0 0 C30.03 0 60.06 0 91 0 C91 1.32 91 2.64 91 4 C60.97 4 30.94 4 0 4 C0 2.68 0 1.36 0 0 Z " fill="#49E949" transform="translate(1395,449)"/>
<path d="M0 0 C0.94875 0.165 1.8975 0.33 2.875 0.5 C9.96145543 1.5041536 16.9669008 1.22314769 24 0 C24.33 1.32 24.66 2.64 25 4 C22 6 22 6 18 6 C18 12.6 18 19.2 18 26 C16.68 26.33 15.36 26.66 14 27 C13.34 25.68 12.68 24.36 12 23 C11.34 24.32 10.68 25.64 10 27 C8.68 26.67 7.36 26.34 6 26 C6 19.4 6 12.8 6 6 C4.35 6 2.7 6 1 6 C0.34 5.34 -0.32 4.68 -1 4 C-0.625 1.875 -0.625 1.875 0 0 Z " fill="#131C10" transform="translate(951,445)"/>
<path d="M0 0 C2.74609375 1.4921875 2.74609375 1.4921875 5 3 C7.69254991 3.70670728 7.69254991 3.70670728 10 4 C10 6.31 10 8.62 10 11 C5.25 10.125 5.25 10.125 3 9 C3 8.01 3 7.02 3 6 C-2.36688164 3.57374248 -7.18415809 3.3072306 -13 4 C-18.00230198 6.45567552 -21.49851535 9.9970307 -24 15 C-24.56088092 20.99711135 -24.45741843 25.87348302 -21 31 C-17.70950291 34.70180922 -15.61903002 36.74190496 -10.58203125 37.23828125 C-4.31807713 37.40614462 1.04781324 37.19121243 6 33 C8.98600846 28.8106747 10.53174525 23.89418249 12 19 C12.66 19 13.32 19 14 19 C13.80301392 26.73618062 11.91703942 32.10188347 6.3828125 37.609375 C1.16918991 41.59231414 -4.25431364 41.73658939 -10.65234375 41.4765625 C-16.43507014 40.65335058 -19.95552805 38.59411642 -23.5546875 34.02734375 C-27.30766339 28.3554734 -29.00009636 22.87125031 -28 16 C-25.92876466 9.45287561 -22.69462132 4.52985517 -16.73828125 0.99609375 C-11.33082699 -0.97095452 -5.63730126 -0.8782752 0 0 Z " fill="#131B10" transform="translate(1534,430)"/>
<path d="M0 0 C1.67225729 0.30404678 3.33753959 0.64628502 5 1 C6.41554447 1.17594338 7.83231864 1.34219705 9.25 1.5 C13 2 13 2 14 3 C14.08737645 4.85369611 14.10698153 6.71067541 14.09765625 8.56640625 C14.09443359 9.69111328 14.09121094 10.81582031 14.08789062 11.97460938 C14.07951172 13.15861328 14.07113281 14.34261719 14.0625 15.5625 C14.05798828 16.75037109 14.05347656 17.93824219 14.04882812 19.16210938 C14.03699675 22.10812226 14.02051287 25.05403681 14 28 C7.5 31 7.5 31 3 31 C3 32.32 3 33.64 3 35 C2.34 35 1.68 35 1 35 C1 33.68 1 32.36 1 31 C-0.32 31 -1.64 31 -3 31 C-3 30.34 -3 29.68 -3 29 C-3.969375 29.020625 -4.93875 29.04125 -5.9375 29.0625 C-9 29 -9 29 -10 28 C-10.25256877 24.02724185 -10.18522451 20.04233825 -10.1875 16.0625 C-10.19974609 14.93908203 -10.21199219 13.81566406 -10.22460938 12.65820312 C-10.22654297 11.58634766 -10.22847656 10.51449219 -10.23046875 9.41015625 C-10.23457764 8.42152588 -10.23868652 7.43289551 -10.24291992 6.41430664 C-10 4 -10 4 -8 2 C-5.67182036 1.63239269 -3.3381615 1.29758419 -1 1 C-0.67 0.67 -0.34 0.34 0 0 Z M1 2 C0.67 2.33 0.34 2.66 0 3 C-2.64 3.33 -5.28 3.66 -8 4 C-8 9.94 -8 15.88 -8 22 C-6.4325 22.04125 -4.865 22.0825 -3.25 22.125 C-2.36828125 22.14820313 -1.4865625 22.17140625 -0.578125 22.1953125 C1.98231212 22.16992795 1.98231212 22.16992795 3.953125 20.9921875 C6 20 6 20 12 20 C12 14.72 12 9.44 12 4 C9.69 3.67 7.38 3.34 5 3 C4.21625 2.79375 3.4325 2.5875 2.625 2.375 C2.08875 2.25125 1.5525 2.1275 1 2 Z " fill="#F2FDF2" transform="translate(319,435)"/>
<path d="M0 0 C0.99386719 0.02707031 1.98773437 0.05414063 3.01171875 0.08203125 C4.15060547 0.13423828 4.15060547 0.13423828 5.3125 0.1875 C5.6425 0.8475 5.9725 1.5075 6.3125 2.1875 C5.28189453 2.13529297 5.28189453 2.13529297 4.23046875 2.08203125 C3.32941406 2.05496094 2.42835938 2.02789062 1.5 2 C0.16001953 1.94779297 0.16001953 1.94779297 -1.20703125 1.89453125 C-4.09536775 1.97608208 -4.09536775 1.97608208 -6.6875 5.1875 C-2.3975 5.5175 1.8925 5.8475 6.3125 6.1875 C5.9825 6.8475 5.6525 7.5075 5.3125 8.1875 C3.3325 8.1875 1.3525 8.1875 -0.6875 8.1875 C-0.3575 14.1275 -0.0275 20.0675 0.3125 26.1875 C-6.6875 24.1875 -6.6875 24.1875 -8.6875 22.1875 C-9.13376783 19.06203844 -9.01160302 15.9037016 -9 12.75 C-9.01611328 11.87794922 -9.03222656 11.00589844 -9.04882812 10.10742188 C-9.04947266 9.26888672 -9.05011719 8.43035156 -9.05078125 7.56640625 C-9.05376221 6.7988501 -9.05674316 6.03129395 -9.05981445 5.24047852 C-8.12016568 0.05916276 -4.62336052 -0.16317743 0 0 Z " fill="#090D07" transform="translate(528.6875,438.8125)"/>
<path d="M0 0 C3.0625 2 3.0625 2 5 4 C4.75 6.875 4.75 6.875 4 10 C-0.02832797 12.66776687 -4.33149235 12.71439797 -9 12 C-12.0625 10 -12.0625 10 -14 8 C-13.69209738 5.15190074 -13.34521809 3.41713852 -11.5 1.1875 C-7.7001543 -0.61742671 -4.12763609 -0.69773208 0 0 Z " fill="#96DC81" transform="translate(1157,439)"/>
<path d="M0 0 C1.1446875 0.00386719 2.289375 0.00773437 3.46875 0.01171875 C6.5 0.3125 6.5 0.3125 9.5 2.3125 C9.8125 5.3125 9.8125 5.3125 9.5 8.3125 C7.00789561 10.80460439 5.49639212 10.57265661 2.08984375 10.5859375 C1.05537109 10.57433594 1.05537109 10.57433594 0 10.5625 C-0.68964844 10.57023437 -1.37929687 10.57796875 -2.08984375 10.5859375 C-7.24666707 10.56583293 -7.24666707 10.56583293 -9.5 8.3125 C-9.85043376 5.5791167 -9.95743031 3.98660782 -8.38671875 1.671875 C-5.6103892 -0.32846182 -3.3796556 -0.04947694 0 0 Z " fill="#1E2D1A" transform="translate(1351.5,439.6875)"/>
<path d="M0 0 C7.26 0 14.52 0 22 0 C22 0.66 22 1.32 22 2 C20.02 2.66 18.04 3.32 16 4 C15.67 10.27 15.34 16.54 15 23 C11.99382731 19.99382731 12.40414684 17.17618402 12 13 C11.34 13 10.68 13 10 13 C9.34 16.3 8.68 19.6 8 23 C7.67 23 7.34 23 7 23 C6.67 16.73 6.34 10.46 6 4 C4.02 3.34 2.04 2.68 0 2 C0 1.34 0 0.68 0 0 Z " fill="#96DD81" transform="translate(952,447)"/>
<path d="M0 0 C0.36923077 5.53846154 0.36923077 5.53846154 -1.5 7.875 C-1.995 8.24625 -2.49 8.6175 -3 9 C-5 8 -7 7 -9 6 C-8.484375 6.598125 -7.96875 7.19625 -7.4375 7.8125 C-6.963125 8.534375 -6.48875 9.25625 -6 10 C-6.33 10.99 -6.66 11.98 -7 13 C-9 12 -11 11 -13 10 C-12.01 11.32 -11.02 12.64 -10 14 C-11.04874998 16.62187494 -11.64931313 17.79371361 -14.125 19.25 C-14.74375 19.4975 -15.3625 19.745 -16 20 C-17.32 18.68 -18.64 17.36 -20 16 C-18.34038315 11.83071864 -15.33861473 8.89888038 -12.25 5.75 C-11.48042969 4.91855469 -11.48042969 4.91855469 -10.6953125 4.0703125 C-7.21327676 0.51828609 -5.20366941 -0.71667303 0 0 Z " fill="#9DE686" transform="translate(757,450)"/>
<path d="M0 0 C0.5775 0.226875 1.155 0.45375 1.75 0.6875 C1.25036061 4.79564611 -0.74745044 6.38632664 -3.875 8.9375 C-7.1138125 11.41369849 -8.74673708 12.60803743 -12.8125 13.25 C-13.946875 13.064375 -15.08125 12.87875 -16.25 12.6875 C-17.81131023 12.49033796 -19.37391872 12.30325845 -20.9375 12.125 C-21.66324219 12.02058594 -22.38898438 11.91617187 -23.13671875 11.80859375 C-25.39085043 11.67942909 -27.10079742 12.03255113 -29.25 12.6875 C-26.97097997 9.88255227 -25.90494791 8.76936849 -22.25 8.3125 C-19.34623384 8.67547077 -17.79752634 9.3726477 -15.25 10.6875 C-12.58290931 10.85500414 -12.58290931 10.85500414 -10.25 10.6875 C-12.56 9.6975 -14.87 8.7075 -17.25 7.6875 C-14.23968256 6.75326355 -13.38349732 6.64300089 -10.25 7.6875 C-10.25 7.0275 -10.25 6.3675 -10.25 5.6875 C-16.79547997 3.55020042 -22.45304851 3.03975418 -29.25 4.6875 C-29.25 4.0275 -29.25 3.3675 -29.25 2.6875 C-24.57474688 0.12365152 -20.29956868 0.56738101 -15.25 1.6875 C-13.91617575 2.35318393 -12.5827787 3.01972522 -11.25 3.6875 C-8.17347637 3.45676073 -6.62185355 2.98047552 -4.1875 1.0625 C-2.25 -0.3125 -2.25 -0.3125 0 0 Z " fill="#23341E" transform="translate(1364.25,451.3125)"/>
<path d="M0 0 C2.31 1.98 4.62 3.96 7 6 C6.34 7.32 5.68 8.64 5 10 C4.62331656 11.65740715 4.27942455 13.32345271 4 15 C2.296875 15.75390625 2.296875 15.75390625 0 16 C-2.359375 14.33984375 -2.359375 14.33984375 -4.75 11.9375 C-5.54921875 11.16277344 -6.3484375 10.38804687 -7.171875 9.58984375 C-9.37047176 6.475165 -9.3682916 4.73166047 -9 1 C-8.34 1 -7.68 1 -7 1 C-6.67 1.99 -6.34 2.98 -6 4 C-4.35 3.67 -2.7 3.34 -1 3 C-0.67 2.01 -0.34 1.02 0 0 Z " fill="#9AE184" transform="translate(105,453)"/>
<path d="M0 0 C5.94232331 -0.64825345 5.94232331 -0.64825345 8.9375 1.1875 C10.41359492 3.70554428 10.49089348 5.12476676 10 8 C7.97580677 10.77389443 6.84814923 11.85519403 3.4375 12.4375 C1 12 1 12 -0.8125 10.875 C-2.53501881 8.15523346 -2.32855599 6.15413751 -2 3 C-1.34 2.01 -0.68 1.02 0 0 Z " fill="#679758" transform="translate(106,435)"/>
<path d="M0 0 C1 1 1 1 1 7 C-5.27 7 -11.54 7 -18 7 C-18.33 5.35 -18.66 3.7 -19 2 C-18.15695312 1.93941406 -17.31390625 1.87882812 -16.4453125 1.81640625 C-15.34960938 1.73261719 -14.25390625 1.64882813 -13.125 1.5625 C-12.03445313 1.48128906 -10.94390625 1.40007812 -9.8203125 1.31640625 C-6.24132411 0.91488539 -3.72337904 -0.19094251 0 0 Z " fill="#4DED4D" transform="translate(330,456)"/>
<path d="M0 0 C3.85055455 0.45300642 5.40551758 1.7566636 8.1875 4.375 C7.8575 6.025 7.5275 7.675 7.1875 9.375 C0.99410377 10.56603774 0.99410377 10.56603774 -2.1875 9.8125 C-3.8125 8.375 -3.8125 8.375 -4.6875 5.375 C-4.72875 4.385 -4.77 3.395 -4.8125 2.375 C-2.8125 0.375 -2.8125 0.375 0 0 Z " fill="#5B864E" transform="translate(1162.8125,455.625)"/>
<path d="M0 0 C2.34576488 1.11291913 3.97143135 2.33553342 6 4 C5.34 4.66 4.68 5.32 4 6 C3.525625 5.505 3.05125 5.01 2.5625 4.5 C-1.20352844 2.29549555 -4.73131125 2.3890684 -9 3 C-11.5189267 4.31763329 -11.5189267 4.31763329 -13 6 C-12.84518205 8.70931419 -12.51827919 10.46584039 -10.59765625 12.4453125 C-9.10228292 13.67679642 -7.5537076 14.8429837 -6 16 C-6.33 17.65 -6.66 19.3 -7 21 C-8.65 20.67 -10.3 20.34 -12 20 C-12.103125 19.278125 -12.20625 18.55625 -12.3125 17.8125 C-12.8482655 14.92721983 -12.8482655 14.92721983 -14.625 12.5625 C-16 10 -16 10 -16.0625 6.9375 C-15 4 -15 4 -12.5 1.625 C-8.13780412 -0.40030523 -4.73164241 -0.87716722 0 0 Z " fill="#21301C" transform="translate(1157,437)"/>
<path d="M0 0 C2.125 0.375 2.125 0.375 4 1 C4.02689216 2.47906892 4.04634621 3.95827483 4.0625 5.4375 C4.07410156 6.26121094 4.08570313 7.08492188 4.09765625 7.93359375 C4 10 4 10 3 11 C2.79420839 14.49388418 2.68033761 17.98611188 2.57421875 21.484375 C1.91334984 25.53051121 0.98551382 27.22145421 -2 30 C-4.359375 30.70703125 -4.359375 30.70703125 -6.75 30.8125 C-7.54921875 30.86019531 -8.3484375 30.90789062 -9.171875 30.95703125 C-9.77515625 30.97121094 -10.3784375 30.98539062 -11 31 C-8.62513681 29.79453799 -6.26093289 28.68118674 -3.8125 27.625 C-0.92195088 26.35008367 -0.92195088 26.35008367 -0.3359375 24.25 C0.0593355 21.60259014 0.16946009 19.05212314 0.1875 16.375 C0.20876953 14.93253906 0.20876953 14.93253906 0.23046875 13.4609375 C0.24733824 10.82194251 0.24733824 10.82194251 -2 9 C-2.25 5.5 -2.25 5.5 -2 2 C-1.34 1.34 -0.68 0.68 0 0 Z " fill="#080D07" transform="translate(547,437)"/>
<path d="M0 0 C6.35470441 0.47960033 6.35470441 0.47960033 8.9375 2.5625 C10.47130372 6.08122619 10.84146919 9.2326884 10 13 C7.6875 15.5 7.6875 15.5 5 17 C4.01 17 3.02 17 2 17 C3.33333333 14.33333333 4.66666667 11.66666667 6 9 C3.69 6.69 1.38 4.38 -1 2 C-0.67 1.34 -0.34 0.68 0 0 Z " fill="#9BE384" transform="translate(107,450)"/>
<path d="M0 0 C1.67225729 0.30404678 3.33753959 0.64628502 5 1 C6.41601808 1.15200194 7.83273954 1.29755507 9.25 1.4375 C11.10625 1.7159375 11.10625 1.7159375 13 2 C14.60670684 5.21341369 13.82510855 8.62958968 13.5625 12.125 C13.51029297 12.87910156 13.45808594 13.63320313 13.40429688 14.41015625 C13.27454996 16.2737937 13.13792512 18.13694996 13 20 C12.67 20 12.34 20 12 20 C12 14.72 12 9.44 12 4 C9.69 4 7.38 4 5 4 C3.66262906 3.68325425 2.32711192 3.35729936 1 3 C0.67 3.33 0.34 3.66 0 4 C-2.64 4 -5.28 4 -8 4 C-8 9.94 -8 15.88 -8 22 C-8.33 22 -8.66 22 -9 22 C-9.2210949 19.04210873 -9.42740245 16.08447236 -9.625 13.125 C-9.68945312 12.28324219 -9.75390625 11.44148438 -9.8203125 10.57421875 C-9.871875 9.76855469 -9.9234375 8.96289062 -9.9765625 8.1328125 C-10.02893066 7.38918457 -10.08129883 6.64555664 -10.13525391 5.87939453 C-10 4 -10 4 -8 2 C-5.67182036 1.63239269 -3.3381615 1.29758419 -1 1 C-0.67 0.67 -0.34 0.34 0 0 Z " fill="#D2FAD2" transform="translate(319,435)"/>
<path d="M0 0 C5.53846154 -0.36923077 5.53846154 -0.36923077 7.875 1.5 C8.24625 1.995 8.6175 2.49 9 3 C8 6 8 6 5.8125 7.1875 C2.73839621 8.07557443 0.18445132 8.0692272 -3 8 C-3.99 8.33 -4.98 8.66 -6 9 C-6.33 8.01 -6.66 7.02 -7 6 C-6.030625 5.38125 -5.06125 4.7625 -4.0625 4.125 C-0.97164638 2.34321154 -0.97164638 2.34321154 0 0 Z " fill="#96DC81" transform="translate(1163,447)"/>
<path d="M0 0 C0.99 0.495 0.99 0.495 2 1 C2.66 0.67 3.32 0.34 4 0 C7.8486629 -0.43734806 9.79987686 -0.09817362 13.3125 1.625 C16 4 16 4 17.0625 7.0625 C17 10 17 10 15.76953125 11.65234375 C12.99195895 13.76771338 10.6203279 13.53896879 7.23046875 13.40625 C5 13 5 13 1.9375 11 C-0.66445438 6.97116741 -0.39999378 4.71992657 0 0 Z M2 4 C2.0065611 7.03996532 2.0065611 7.03996532 3 10 C4.57781883 11.62368888 4.57781883 11.62368888 7 12 C10.68203915 11.68873287 10.68203915 11.68873287 14 11 C14.33 9.35 14.66 7.7 15 6 C12.21801758 3.3816636 10.66305455 2.07800642 6.8125 1.625 C3.86712029 1.72791297 3.86712029 1.72791297 2 4 Z " fill="#1A2716" transform="translate(1156,454)"/>
<path d="M0 0 C0 0.66 0 1.32 0 2 C-0.66 2.4125 -1.32 2.825 -2 3.25 C-4.29942617 4.89038716 -4.29942617 4.89038716 -4.5 7.9375 C-3.90531749 11.57993036 -2.81638438 12.71168769 0 15 C-5.75 17 -5.75 17 -8 17 C-8 11.72 -8 6.44 -8 1 C-2 0 -2 0 0 0 Z " fill="#8ACA76" transform="translate(536,446)"/>
<path d="M0 0 C1.17755859 -0.00773437 1.17755859 -0.00773437 2.37890625 -0.015625 C4.4375 0.25 4.4375 0.25 6.4375 2.25 C5.7775 2.25 5.1175 2.25 4.4375 2.25 C4.1075 3.9 3.7775 5.55 3.4375 7.25 C1.1275 7.25 -1.1825 7.25 -3.5625 7.25 C-3.8925 5.93 -4.2225 4.61 -4.5625 3.25 C-5.8825 4.24 -7.2025 5.23 -8.5625 6.25 C-8.25 4.375 -8.25 4.375 -7.5625 2.25 C-4.42838698 0.16059132 -3.58799528 -0.02364412 0 0 Z " fill="#9DE787" transform="translate(1152.5625,438.75)"/>
<path d="M0 0 C0.33 0.99 0.66 1.98 1 3 C0.360625 3.309375 -0.27875 3.61875 -0.9375 3.9375 C-3.39548117 6.39548117 -3.21147814 6.97877862 -3.3125 10.3125 C-3.48761842 13.28951306 -3.67291592 14.60940445 -5.609375 16.921875 C-7.35353586 18.38697012 -9.10459505 19.73804631 -11 21 C-15 16.25 -15 16.25 -15 14 C-13.02 14.66 -11.04 15.32 -9 16 C-6.65026182 14.10244856 -6.65026182 14.10244856 -6.875 10.875 C-6.91625 9.92625 -6.9575 8.9775 -7 8 C-8.32 7.34 -9.64 6.68 -11 6 C-9.9275 5.7525 -8.855 5.505 -7.75 5.25 C-4.00350563 4.00116854 -2.47926118 2.97511342 0 0 Z " fill="#1C2A18" transform="translate(763,442)"/>
<path d="M0 0 C2.375 0.8125 2.375 0.8125 3.375 2.8125 C0.405 2.3175 0.405 2.3175 -2.625 1.8125 C-2.295 3.7925 -1.965 5.7725 -1.625 7.8125 C-0.635 8.1425 0.355 8.4725 1.375 8.8125 C1.375 8.1525 1.375 7.4925 1.375 6.8125 C0.715 6.8125 0.055 6.8125 -0.625 6.8125 C-0.625 6.1525 -0.625 5.4925 -0.625 4.8125 C1.025 4.8125 2.675 4.8125 4.375 4.8125 C4.375 6.7925 4.375 8.7725 4.375 10.8125 C-2.375 10.9375 -2.375 10.9375 -4.625 9.8125 C-6.10482709 3.66552594 -6.10482709 3.66552594 -4.5 0.8125 C-2.625 -0.1875 -2.625 -0.1875 0 0 Z " fill="#273622" transform="translate(1528.625,444.1875)"/>
<path d="M0 0 C-0.33 1.32 -0.66 2.64 -1 4 C-2.98 4.33 -4.96 4.66 -7 5 C-7 11.27 -7 17.54 -7 24 C-7.33 24 -7.66 24 -8 24 C-8 17.4 -8 10.8 -8 4 C-6.02 3.67 -4.04 3.34 -2 3 C-2 2.34 -2 1.68 -2 1 C-2.99 1.33 -3.98 1.66 -5 2 C-7.39490986 2.06970052 -9.79167691 2.08448003 -12.1875 2.0625 C-13.45980469 2.05347656 -14.73210938 2.04445313 -16.04296875 2.03515625 C-17.50669922 2.01775391 -17.50669922 2.01775391 -19 2 C-19 1.67 -19 1.34 -19 1 C-18.24074219 0.93941406 -17.48148438 0.87882812 -16.69921875 0.81640625 C-15.70535156 0.73261719 -14.71148438 0.64882813 -13.6875 0.5625 C-12.70136719 0.48128906 -11.71523438 0.40007812 -10.69921875 0.31640625 C-2.6015625 -0.6328125 -2.6015625 -0.6328125 0 0 Z " fill="#0B110A" transform="translate(976,446)"/>
<path d="M0 0 C2.6875 0.875 2.6875 0.875 5 2 C5.125 4.375 5.125 4.375 5 7 C4.34 7.66 3.68 8.32 3 9 C-1.55555556 8.44444444 -1.55555556 8.44444444 -3 7 C-3.25 4.5625 -3.25 4.5625 -3 2 C-2.01 1.34 -1.02 0.68 0 0 Z " fill="#1B2817" transform="translate(962,437)"/>
<path d="M0 0 C2.4375 1 2.4375 1 4 2 C4 2.66 4 3.32 4 4 C1.51245214 5.24377393 -0.22655301 5.13306235 -3 5.125 C-3.886875 5.12757813 -4.77375 5.13015625 -5.6875 5.1328125 C-8 5 -8 5 -10 4 C-9.67 3.01 -9.34 2.02 -9 1 C-5.97562661 -0.5121867 -3.33758466 -0.17263369 0 0 Z " fill="#91D57C" transform="translate(532,440)"/>
<path d="M0 0 C1.65 0 3.3 0 5 0 C6.31626692 3.61973402 7 6.09567131 7 10 C6.34 10 5.68 10 5 10 C5 9.01 5 8.02 5 7 C3.35 7 1.7 7 0 7 C0 7.99 0 8.98 0 10 C-0.66 10 -1.32 10 -2 10 C-1.34 6.7 -0.68 3.4 0 0 Z " fill="#1F2C1B" transform="translate(1515,445)"/>
<path d="M0 0 C0 0.99 0 1.98 0 3 C-1.28777344 3.30550781 -1.28777344 3.30550781 -2.6015625 3.6171875 C-6.88186185 5.35882655 -9.25397641 7.8036144 -12.375 11.125 C-12.92027344 11.68832031 -13.46554687 12.25164062 -14.02734375 12.83203125 C-15.3609075 14.21238671 -16.68177679 15.60498709 -18 17 C-18.66 16.34 -19.32 15.68 -20 15 C-17.62485658 12.47962204 -15.22178471 9.98772654 -12.8125 7.5 C-12.13896484 6.78457031 -11.46542969 6.06914062 -10.77148438 5.33203125 C-9.78051758 4.31689453 -9.78051758 4.31689453 -8.76953125 3.28125 C-8.16729736 2.65283203 -7.56506348 2.02441406 -6.94458008 1.37695312 C-4.4903637 -0.36087241 -2.94246185 -0.26648711 0 0 Z " fill="#21301C" transform="translate(756,447)"/>
<path d="M0 0 C2.625 0.375 2.625 0.375 5 1 C5.625 3.375 5.625 3.375 6 6 C4 8 4 8 1.4375 8.1875 C-1 8 -1 8 -2 7 C-2.1875 4.5625 -2.1875 4.5625 -2 2 C-1.34 1.34 -0.68 0.68 0 0 Z " fill="#85C472" transform="translate(535,450)"/>
<path d="M0 0 C1.98 0.66 3.96 1.32 6 2 C5.67 3.98 5.34 5.96 5 8 C3.35 7.67 1.7 7.34 0 7 C0 6.01 0 5.02 0 4 C-0.66 4 -1.32 4 -2 4 C-2.33 5.98 -2.66 7.96 -3 10 C-3.33 10 -3.66 10 -4 10 C-3.38461538 3.47692308 -3.38461538 3.47692308 -1.4375 1.0625 C-0.7259375 0.5365625 -0.7259375 0.5365625 0 0 Z " fill="#263820" transform="translate(98,450)"/>
<path d="M0 0 C3 2 3 2 3.625 3.98828125 C3.810625 5.13876953 3.810625 5.13876953 4 6.3125 C4.72490771 10.10151338 5.76822506 12.79788813 8 16 C8.33 16.66 8.66 17.32 9 18 C8.34 18 7.68 18 7 18 C6.67 18.66 6.34 19.32 6 20 C5.18071114 18.75443908 4.36984814 17.50333365 3.5625 16.25 C3.11003906 15.55390625 2.65757813 14.8578125 2.19140625 14.140625 C-0.39335243 9.496534 -0.08650904 5.19054257 0 0 Z " fill="#1C2919" transform="translate(1506,446)"/>
<path d="M0 0 C2.31 0 4.62 0 7 0 C7.625 2.375 7.625 2.375 8 5 C6 7 6 7 2.875 7.125 C1.451875 7.063125 1.451875 7.063125 0 7 C0 4.69 0 2.38 0 0 Z " fill="#8FD27A" transform="translate(1352,442)"/>
<path d="M0 0 C0.33 0 0.66 0 1 0 C1.33 6.6 1.66 13.2 2 20 C0.68 20.33 -0.64 20.66 -2 21 C-4.40814077 17.48812804 -5.36629408 15.27343092 -5 11 C-4.34 11 -3.68 11 -3 11 C-2.67 10.34 -2.34 9.68 -2 9 C-1.67 11.64 -1.34 14.28 -1 17 C-0.67 11.39 -0.34 5.78 0 0 Z " fill="#253620" transform="translate(967,451)"/>
<path d="M0 0 C1.99954746 -0.04254356 4.00041636 -0.04080783 6 0 C7 1 7 1 7.0625 4.0625 C7.041875 5.031875 7.02125 6.00125 7 7 C4.69 6.67 2.38 6.34 0 6 C-1.125 2.25 -1.125 2.25 0 0 Z " fill="#85C372" transform="translate(1344,442)"/>
<path d="M0 0 C2.31 0 4.62 0 7 0 C7 0.66 7 1.32 7 2 C5.35 2 3.7 2 2 2 C2 2.99 2 3.98 2 5 C3.32 5.33 4.64 5.66 6 6 C4.68 6 3.36 6 2 6 C2 6.99 2 7.98 2 9 C3.65 9 5.3 9 7 9 C7 9.66 7 10.32 7 11 C4.69 11 2.38 11 0 11 C0 7.37 0 3.74 0 0 Z " fill="#1F2C1B" transform="translate(1535,444)"/>
<path d="M0 0 C2.125 0.375 2.125 0.375 4 1 C3.67 3.64 3.34 6.28 3 9 C1.0625 9.5625 1.0625 9.5625 -1 10 C-2 9 -2 9 -2.1875 5.5625 C-2 2 -2 2 0 0 Z " fill="#1D2A19" transform="translate(547,437)"/>
<path d="M0 0 C2.3431213 0.25561323 4.67843403 0.59270772 7 1 C7.33 1.66 7.66 2.32 8 3 C7.67 3.99 7.34 4.98 7 6 C5.02 6 3.04 6 1 6 C0 1.125 0 1.125 0 0 Z " fill="#95DB80" transform="translate(1161,456)"/>
<path d="M0 0 C2.5625 2.3125 2.5625 2.3125 4 5 C3.67 5.99 3.34 6.98 3 8 C2.649375 7.195625 2.29875 6.39125 1.9375 5.5625 C0.14332716 2.6132233 0.14332716 2.6132233 -3.6875 2.1875 C-5.3271875 2.0946875 -5.3271875 2.0946875 -7 2 C-7.99 3.98 -8.98 5.96 -10 8 C-10.66 7.67 -11.32 7.34 -12 7 C-11.67 5.68 -11.34 4.36 -11 3 C-11.99 2.34 -12.98 1.68 -14 1 C-9.18934481 0.03786896 -4.87677413 -0.47194588 0 0 Z " fill="#11190E" transform="translate(114,449)"/>
<path d="M0 0 C0.5625 1.9375 0.5625 1.9375 1 4 C0 5 0 5 -2.4375 5.1875 C-5 5 -5 5 -7 3 C-7 2.01 -7 1.02 -7 0 C-4.3333581 -1.33332095 -2.83319697 -0.67102033 0 0 Z " fill="#31482A" transform="translate(1171,448)"/>
<path d="M0 0 C1.423125 0.495 1.423125 0.495 2.875 1 C5.77062452 2.10159191 5.77062452 2.10159191 8 2 C6.4169423 6.2742558 3.49431596 8.26531794 0 11 C0 8 0 8 1.125 6.0625 C2.29248036 3.97761146 2.29248036 3.97761146 1.125 1.75 C0.75375 1.1725 0.3825 0.595 0 0 Z " fill="#1A2616" transform="translate(744,460)"/>
<path d="M0 0 C0.66 0 1.32 0 2 0 C2.33 0.99 2.66 1.98 3 3 C5.31 3 7.62 3 10 3 C10.33 2.01 10.66 1.02 11 0 C11.66 0 12.32 0 13 0 C12.625 2.4375 12.625 2.4375 12 5 C8.98131566 6.50934217 6.32702771 6.17510672 3 6 C2.01 5.34 1.02 4.68 0 4 C0 2.68 0 1.36 0 0 Z " fill="#182314" transform="translate(1146,442)"/>
<path d="M0 0 C1.98 0 3.96 0 6 0 C6 0.66 6 1.32 6 2 C6.66 2 7.32 2 8 2 C8 3.65 8 5.3 8 7 C7.01 7 6.02 7 5 7 C5 6.34 5 5.68 5 5 C3.35 5 1.7 5 0 5 C0 3.35 0 1.7 0 0 Z " fill="#7BB56A" transform="translate(1537,448)"/>
<path d="M0 0 C2.31 0 4.62 0 7 0 C7 0.99 7 1.98 7 3 C5.35 3 3.7 3 2 3 C2 3.66 2 4.32 2 5 C2.66 5 3.32 5 4 5 C4 5.66 4 6.32 4 7 C2.68 6.67 1.36 6.34 0 6 C0 4.02 0 2.04 0 0 Z " fill="#8ACB76" transform="translate(1526,446)"/>
<path d="M0 0 C0 0.66 0 1.32 0 2 C-0.9590625 2.6496875 -0.9590625 2.6496875 -1.9375 3.3125 C-4.49927596 5.40849852 -4.65221564 6.78299472 -5 10 C-5.66 10 -6.32 10 -7 10 C-7 7.36 -7 4.72 -7 2 C-2.25 0 -2.25 0 0 0 Z " fill="#9AE284" transform="translate(536,446)"/>
<path d="M0 0 C2.31 0.33 4.62 0.66 7 1 C7.33 2.32 7.66 3.64 8 5 C3.71 4.34 -0.58 3.68 -5 3 C-5 2.67 -5 2.34 -5 2 C-3.35 2 -1.7 2 0 2 C0 1.34 0 0.68 0 0 Z " fill="#212F1D" transform="translate(1529,430)"/>
<path d="M0 0 C1.67542976 0.28604898 3.34385343 0.61781233 5 1 C4.01 1.66 3.02 2.32 2 3 C4.64 3.33 7.28 3.66 10 4 C7.24075815 5.80411967 6.11027897 6.0127245 2.75 5.625 C1.8425 5.41875 0.935 5.2125 0 5 C-0.5625 3.0625 -0.5625 3.0625 -1 1 C-0.67 0.67 -0.34 0.34 0 0 Z " fill="#202F1B" transform="translate(530,462)"/>
<path d="M0 0 C-0.33 1.65 -0.66 3.3 -1 5 C-2.65 4.67 -4.3 4.34 -6 4 C-6.33 3.01 -6.66 2.02 -7 1 C-4.53721199 -0.231394 -2.7204945 -0.07159196 0 0 Z " fill="#95DA7F" transform="translate(1151,453)"/>
<path d="M0 0 C0.33 0.99 0.66 1.98 1 3 C0.360625 3.33 -0.27875 3.66 -0.9375 4 C-4.0552764 7.02329832 -3.72043064 9.73656724 -4 14 C-4.33 14 -4.66 14 -5 14 C-5.2475 13.05125 -5.495 12.1025 -5.75 11.125 C-6.6857077 7.91306809 -6.6857077 7.91306809 -9.125 6.625 C-9.74375 6.41875 -10.3625 6.2125 -11 6 C-9.9275 5.7525 -8.855 5.505 -7.75 5.25 C-4.00350563 4.00116854 -2.47926118 2.97511342 0 0 Z " fill="#040603" transform="translate(763,442)"/>
<path d="M0 0 C-3.96 3.465 -3.96 3.465 -8 7 C-8.66 6.67 -9.32 6.34 -10 6 C-8.20404732 1.26521567 -5.07984355 -1.69328118 0 0 Z " fill="#93D77E" transform="translate(1365,454)"/>
<path d="M0 0 C0.33 0 0.66 0 1 0 C1.2475 0.9075 1.495 1.815 1.75 2.75 C3.03981342 6.10351489 4.31971042 7.67708236 7 10 C5.02 10.99 5.02 10.99 3 12 C-1.06153846 5.72307692 -1.06153846 5.72307692 -0.75 2.0625 C-0.5025 1.381875 -0.255 0.70125 0 0 Z " fill="#23331E" transform="translate(1142,442)"/>
<path d="M0 0 C2.33944736 0.28730055 4.6739143 0.61936779 7 1 C6.34 1.66 5.68 2.32 5 3 C2.875 2.625 2.875 2.625 1 2 C1 2.66 1 3.32 1 4 C2.65 4 4.3 4 6 4 C5.34 4.66 4.68 5.32 4 6 C1.875 5.625 1.875 5.625 0 5 C-0.5625 3.0625 -0.5625 3.0625 -1 1 C-0.67 0.67 -0.34 0.34 0 0 Z " fill="#1E2C1A" transform="translate(951,445)"/>
<path d="M0 0 C0.66 0.33 1.32 0.66 2 1 C1.17812739 5.38332057 0.09845718 9.67940177 -1 14 C-1.33 14 -1.66 14 -2 14 C-2.05437607 12.41705218 -2.09296271 10.83355744 -2.125 9.25 C-2.14820313 8.36828125 -2.17140625 7.4865625 -2.1953125 6.578125 C-1.99139502 3.8864142 -1.36551721 2.30095026 0 0 Z " fill="#0C110B" transform="translate(1509,439)"/>
<path d="M0 0 C0.33 0.66 0.66 1.32 1 2 C-0.98 2.66 -2.96 3.32 -5 4 C-5 3.67 -5 3.34 -5 3 C-7.64 2.67 -10.28 2.34 -13 2 C-13 1.67 -13 1.34 -13 1 C-11.20994059 0.63779734 -9.41787943 0.28547531 -7.625 -0.0625 C-6.12839844 -0.35833984 -6.12839844 -0.35833984 -4.6015625 -0.66015625 C-2 -1 -2 -1 0 0 Z " fill="#2A3D25" transform="translate(1537,467)"/>
<path d="M0 0 C1.65 0 3.3 0 5 0 C4.67 1.98 4.34 3.96 4 6 C3.01 6 2.02 6 1 6 C0.67 4.02 0.34 2.04 0 0 Z " fill="#3B5733" transform="translate(1515,445)"/>
<path d="M0 0 C0.99 0.33 1.98 0.66 3 1 C2.67 1.33 2.34 1.66 2 2 C1.95936168 3.66617115 1.957279 5.33388095 2 7 C3.32 7.66 4.64 8.32 6 9 C4.1875 9.6875 4.1875 9.6875 2 10 C0.25 8.9375 0.25 8.9375 -1 7 C-1.25 3.875 -1.25 3.875 -1 1 C-0.67 0.67 -0.34 0.34 0 0 Z " fill="#1C2918" transform="translate(532,450)"/>
<path d="M0 0 C1.98 0.495 1.98 0.495 4 1 C3.67 2.32 3.34 3.64 3 5 C1.68 5 0.36 5 -1 5 C-0.67 3.35 -0.34 1.7 0 0 Z " fill="#8DCF79" transform="translate(100,451)"/>
<path d="M0 0 C0 0.33 0 0.66 0 1 C-0.61488281 1.19335938 -1.22976563 1.38671875 -1.86328125 1.5859375 C-3.07564453 1.97652344 -3.07564453 1.97652344 -4.3125 2.375 C-5.51326172 2.75785156 -5.51326172 2.75785156 -6.73828125 3.1484375 C-9.22724528 3.98831811 -9.22724528 3.98831811 -12 6 C-12 5.01 -12 4.02 -12 3 C-8.09251769 -0.19703098 -4.92991345 -0.28999491 0 0 Z " fill="#162013" transform="translate(1155,437)"/>
<path d="M0 0 C0.99 0 1.98 0 3 0 C3 2.31 3 4.62 3 7 C2.01 7 1.02 7 0 7 C0 4.69 0 2.38 0 0 Z " fill="#83C170" transform="translate(547,439)"/>
<path d="M0 0 C1.65 0 3.3 0 5 0 C5 1.98 5 3.96 5 6 C4.01 5.67 3.02 5.34 2 5 C2.66 5 3.32 5 4 5 C4 4.34 4 3.68 4 3 C2.68 2.67 1.36 2.34 0 2 C0 1.34 0 0.68 0 0 Z " fill="#476040" transform="translate(1528,449)"/>
<path d="M0 0 C0.99 0.33 1.98 0.66 3 1 C3 2.32 3 3.64 3 5 C1.68 5 0.36 5 -1 5 C-0.67 3.35 -0.34 1.7 0 0 Z " fill="#98DF82" transform="translate(962,439)"/>
</svg>
