<?xml version="1.0" encoding="UTF-8"?>
<svg version="1.1" xmlns="http://www.w3.org/2000/svg" width="1920" height="1080">
<path d="M0 0 C633.6 0 1267.2 0 1920 0 C1920 356.4 1920 712.8 1920 1080 C1286.4 1080 652.8 1080 0 1080 C0 723.6 0 367.2 0 0 Z " fill="#FEFEFE" transform="translate(0,0)"/>
<path d="M0 0 C1.16402344 0.65355469 1.16402344 0.65355469 2.3515625 1.3203125 C12.84518771 7.74283228 18.16182214 16.48546641 22 28 C22 30.97 22 33.94 22 37 C61.27 37 100.54 37 141 37 C141.33 33.37 141.66 29.74 142 26 C146.10812269 14.04242859 153.53102121 4.87353123 164.76171875 -1.02734375 C174.88551094 -5.426688 187.18445685 -5.99789269 197.5625 -1.9375 C209.53203876 3.96460682 217.74443974 12.48701653 222.37109375 25.03125 C223 28 223 28 223 37 C262.6 37 302.2 37 343 37 C343 33.7 343 30.4 343 27 C345.42553301 16.01730707 353.60480759 6.9031582 362.78515625 0.81640625 C372.35733114 -4.92689868 383.4477922 -5.60336378 394.23828125 -3.3125 C406.13447111 0.72581056 415.16840445 8.11126817 420.875 19.3125 C424.02864982 25.96440376 424 28.73051301 424 37 C463.27 37 502.54 37 543 37 C543.33 34.03 543.66 31.06 544 28 C548.47185866 16.46020366 556.12938856 8.56533696 567 3 C567.61230469 2.65839844 568.22460938 2.31679688 568.85546875 1.96484375 C577.54988221 -2.16164387 589.13213203 -1.06898649 597.9375 2.0625 C610.15799807 7.45522906 618.45830181 16.14793302 623.37109375 28.54296875 C624 31 624 31 624 37 C663.27 37 702.54 37 743 37 C743 33.7 743 30.4 743 27 C745.24285118 16.8444813 752.59512231 7.88521414 761 2 C763.60024417 0.49354879 766.2416723 -0.81013315 769 -2 C769.73863281 -2.35835938 770.47726562 -2.71671875 771.23828125 -3.0859375 C781.16560481 -6.37164289 793.80575753 -4.47853085 803 0 C813.30163908 5.93562042 821.08422067 15.69783763 824.25 27.125 C825 31 825 31 825 37 C857.67 37 890.34 37 924 37 C924 34.69 924 32.38 924 30 C926.70028128 18.72235467 933.47103483 7.9622725 943.234375 1.52734375 C953.90144932 -4.61159331 965.52497353 -6.10233215 977.52734375 -3.125 C990.06663953 1.7809793 998.3898916 10.1970782 1004.23828125 22.140625 C1006.40625515 27.43270488 1006 30.90806277 1006 37 C1039 37 1072 37 1106 37 C1106 34.36 1106 31.72 1106 29 C1108.65520541 17.02683773 1115.80924992 7.58371483 1126 1 C1136.06686332 -4.83380065 1147.64768567 -5.69639502 1159.01953125 -3.38671875 C1169.72098515 0.53772396 1178.58284062 8.01947266 1184 18 C1186.98265833 24.44467247 1188 28.74294306 1188 36 C1218.03 36 1248.06 36 1279 36 C1279 33.03 1279 30.06 1279 27 C1282.00600806 15.54180458 1290.63015489 5.74489433 1300.5625 -0.3125 C1307.02753393 -3.48624393 1312.857319 -4.34237418 1319.9375 -4.3125 C1320.69740234 -4.32861328 1321.45730469 -4.34472656 1322.24023438 -4.36132812 C1332.39074997 -4.36999637 1341.78004306 0.24464656 1349.23828125 7.0390625 C1359.14545634 17.5992529 1361.57242696 27.87654354 1361.33984375 41.890625 C1360.8898577 52.08532974 1356.12872589 60.81611956 1349 68 C1338.74655873 76.47023409 1329.22668927 79.66133446 1316 79 C1304.71615804 77.9150152 1295.70577362 73.36358356 1288 65 C1281.68410332 56.57051585 1279 50.59890998 1279 40 C1248.97 40 1218.94 40 1188 40 C1187.67 42.97 1187.34 45.94 1187 49 C1182.66600237 60.99848338 1175.43624849 69.43775002 1164 75 C1158.31593281 77.6035141 1153.36264348 78.52169315 1147.125 78.4375 C1146.33488525 78.42992676 1145.54477051 78.42235352 1144.73071289 78.41455078 C1138.4719684 78.23828436 1133.46877412 77.16457092 1128 74 C1127.23558594 73.5875 1126.47117187 73.175 1125.68359375 72.75 C1115.08688114 66.4385908 1109.29582899 56.6938548 1106 45 C1106 43.68 1106 42.36 1106 41 C1073 41 1040 41 1006 41 C1005.67 43.64 1005.34 46.28 1005 49 C1002.16384065 58.19206519 996.00364475 66.64406382 988 72 C976.58396128 77.92417157 965.19043422 80.10037794 952.49609375 77.19921875 C940.24927944 72.55277421 931.73798356 62.9630951 926.125 51.375 C925 48 925 48 925 41 C891.67 41 858.34 41 824 41 C823.67 43.97 823.34 46.94 823 50 C819.39050351 60.51910406 812.71315701 68.81595712 802.8125 73.9375 C793.17534334 78.39648293 782.12320047 80.42289174 771.71630859 77.31884766 C758.66086917 72.21522626 750.73089778 64.58277134 745.02734375 51.82421875 C743.43242856 47.88514913 743 45.3417346 743 41 C703.73 41 664.46 41 624 41 C624 43.97 624 46.94 624 50 C621.95516578 59.9820197 615.97036933 69.55881506 607.625 75.4375 C606.10158278 76.32380513 604.55970818 77.17923986 603 78 C602.31035156 78.41121094 601.62070312 78.82242188 600.91015625 79.24609375 C592.27128553 83.63385058 580.16126687 83.8792791 570.86767578 81.44042969 C559.79100713 77.48941044 551.78078811 69.94993712 546.5 59.625 C543.19463621 52.51846786 543 49.66762189 543 41 C503.73 41 464.46 41 424 41 C423.67 43.97 423.34 46.94 423 50 C419.98144791 59.36559689 412.97858682 67.98671679 404.5 72.9375 C403.01411587 73.65499885 401.51413987 74.34422816 400 75 C399.3503125 75.31710937 398.700625 75.63421875 398.03125 75.9609375 C389.34501181 79.60247582 377.23703922 79.63055708 368.4375 76.375 C356.76187834 70.70511266 348.68349531 61.86372039 343.8125 49.89453125 C343 47 343 47 343 41 C303.4 41 263.8 41 223 41 C222.67 43.64 222.34 46.28 222 49 C219.16384065 58.19206519 213.00364475 66.64406382 205 72 C193.58396128 77.92417157 182.19043422 80.10037794 169.49609375 77.19921875 C157.24927944 72.55277421 148.73798356 62.9630951 143.125 51.375 C142 48 142 48 142 41 C102.4 41 62.8 41 22 41 C21.67 43.31 21.34 45.62 21 48 C17.57437229 60.04494905 10.1019461 68.2956442 -0.54296875 74.4765625 C-10.21450154 79.25229869 -21.10844523 79.74401665 -31.50390625 77.11328125 C-42.57553176 72.85713913 -51.44012147 65.62831113 -56.4765625 54.8359375 C-61.10509087 43.17411463 -61.7876736 31.75481056 -57 20 C-51.3926484 9.65540308 -42.25801282 0.80558367 -31.1015625 -3.3046875 C-20.79322058 -5.61562561 -9.25767173 -5.38081281 0 0 Z " fill="#268D25" transform="translate(207,413)"/>
<path d="M0 0 C10.10117624 5.97917158 17.14117647 13.63035256 21.61328125 24.546875 C22.61328125 28.546875 22.61328125 28.546875 22.61328125 37.546875 C55.61328125 37.546875 88.61328125 37.546875 122.61328125 37.546875 C122.61328125 34.906875 122.61328125 32.266875 122.61328125 29.546875 C125.26848666 17.57371273 132.42253117 8.13058983 142.61328125 1.546875 C152.68014457 -4.28692565 164.26096692 -5.14952002 175.6328125 -2.83984375 C186.3342664 1.08459896 195.19612187 8.56634766 200.61328125 18.546875 C203.59593958 24.99154747 204.61328125 29.28981806 204.61328125 36.546875 C234.64328125 36.546875 264.67328125 36.546875 295.61328125 36.546875 C295.61328125 33.576875 295.61328125 30.606875 295.61328125 27.546875 C298.61928931 16.08867958 307.24343614 6.29176933 317.17578125 0.234375 C323.64081518 -2.93936893 329.47060025 -3.79549918 336.55078125 -3.765625 C337.31068359 -3.78173828 338.07058594 -3.79785156 338.85351562 -3.81445312 C349.00403122 -3.82312137 358.39332431 0.79152156 365.8515625 7.5859375 C375.75873759 18.1461279 378.18570821 28.42341854 377.953125 42.4375 C377.50313895 52.63220474 372.74200714 61.36299456 365.61328125 68.546875 C355.35983998 77.01710909 345.83997052 80.20820946 332.61328125 79.546875 C321.32943929 78.4618902 312.31905487 73.91045856 304.61328125 65.546875 C298.29738457 57.11739085 295.61328125 51.14578498 295.61328125 40.546875 C265.58328125 40.546875 235.55328125 40.546875 204.61328125 40.546875 C204.28328125 43.516875 203.95328125 46.486875 203.61328125 49.546875 C199.27928362 61.54535838 192.04952974 69.98462502 180.61328125 75.546875 C174.92921406 78.1503891 169.97592473 79.06856815 163.73828125 78.984375 C162.9481665 78.97680176 162.15805176 78.96922852 161.34399414 78.96142578 C155.08524965 78.78515936 150.08205537 77.71144592 144.61328125 74.546875 C143.84886719 74.134375 143.08445312 73.721875 142.296875 73.296875 C131.70016239 66.9854658 125.90911024 57.2407298 122.61328125 45.546875 C122.61328125 44.226875 122.61328125 42.906875 122.61328125 41.546875 C89.61328125 41.546875 56.61328125 41.546875 22.61328125 41.546875 C22.28328125 44.186875 21.95328125 46.826875 21.61328125 49.546875 C18.7771219 58.73894019 12.616926 67.19093882 4.61328125 72.546875 C-6.80275747 78.47104657 -18.19628453 80.64725294 -30.890625 77.74609375 C-43.13666088 73.09994454 -51.1032785 63.77314458 -57.0078125 52.43359375 C-60.55322324 43.8861927 -60.16316936 30.96098177 -57.1328125 22.3125 C-51.48916924 10.31812128 -42.84352276 2.36206632 -30.65625 -2.5546875 C-20.70156057 -5.29014577 -9.23737692 -4.54841796 0 0 Z " fill="#268D26" transform="translate(1190.38671875,412.453125)"/>
<path d="M0 0 C10.30163908 5.93562042 18.08422067 15.69783763 21.25 27.125 C22 31 22 31 22 37 C54.67 37 87.34 37 121 37 C121 34.69 121 32.38 121 30 C121.33 30 121.66 30 122 30 C122 33.63 122 37.26 122 41 C88.67 41 55.34 41 21 41 C20.67 43.97 20.34 46.94 20 50 C16.39050351 60.51910406 9.71315701 68.81595712 -0.1875 73.9375 C-9.82465666 78.39648293 -20.87679953 80.42289174 -31.28369141 77.31884766 C-44.33913083 72.21522626 -52.26910222 64.58277134 -57.97265625 51.82421875 C-59.56757144 47.88514913 -60 45.3417346 -60 41 C-99.27 41 -138.54 41 -179 41 C-179 43.97 -179 46.94 -179 50 C-181.04483422 59.9820197 -187.02963067 69.55881506 -195.375 75.4375 C-196.89841722 76.32380513 -198.44029182 77.17923986 -200 78 C-200.68964844 78.41121094 -201.37929688 78.82242188 -202.08984375 79.24609375 C-210.72871447 83.63385058 -222.83873313 83.8792791 -232.13232422 81.44042969 C-243.20899287 77.48941044 -251.21921189 69.94993712 -256.5 59.625 C-259.48303226 53.21148063 -260.23646322 48.36024533 -260.3125 41.375 C-260.34150391 40.51003906 -260.37050781 39.64507812 -260.40039062 38.75390625 C-260.50426008 28.09530226 -255.39704057 18.67697006 -248.1171875 11.01953125 C-238.84338258 2.49126751 -228.72390694 -0.7192055 -216.1796875 -0.375 C-204.97915365 0.34397054 -195.56138551 6.06269579 -188.03515625 14.09765625 C-182.16925196 21.12930051 -179 27.79829586 -179 37 C-139.73 37 -100.46 37 -60 37 C-60 33.7 -60 30.4 -60 27 C-57.75714882 16.8444813 -50.40487769 7.88521414 -42 2 C-39.39975583 0.49354879 -36.7583277 -0.81013315 -34 -2 C-33.26136719 -2.35835938 -32.52273438 -2.71671875 -31.76171875 -3.0859375 C-21.83439519 -6.37164289 -9.19424247 -4.47853085 0 0 Z " fill="#268D25" transform="translate(1010,413)"/>
<path d="M0 0 C6.65030071 3.80732847 12.61630901 9.95307707 14.72265625 17.515625 C16.1441558 28.31902161 15.76132106 37.13726255 9.671875 46.296875 C4.36482077 53.1999382 -2.8137262 57.33453027 -11.390625 58.765625 C-21.20086484 59.24258694 -28.95007344 56.552297 -36.34375 50.06640625 C-43.8945672 42.13048362 -45.44507667 35.2813338 -45.4206543 24.4831543 C-45.2069427 18.3207974 -43.76696396 14.08017965 -39.92578125 9.1875 C-39.24515625 8.135625 -38.56453125 7.08375 -37.86328125 6 C-28.33485147 -4.53142239 -12.37319431 -5.89004952 0 0 Z " fill="#99E384" transform="translate(1541.92578125,423.8125)"/>
<path d="M0 0 C0.75990234 -0.01611328 1.51980469 -0.03222656 2.30273438 -0.04882812 C12.45324997 -0.05749637 21.84254306 4.55714656 29.30078125 11.3515625 C39.20795634 21.9117529 41.63492696 32.18904354 41.40234375 46.203125 C40.9523577 56.39782974 36.19122589 65.12861956 29.0625 72.3125 C18.80905873 80.78273409 9.28918927 83.97383446 -3.9375 83.3125 C-15.22134196 82.2275152 -24.23172638 77.67608356 -31.9375 69.3125 C-38.25339668 60.88301585 -40.9375 54.91140998 -40.9375 44.3125 C-70.9675 44.3125 -100.9975 44.3125 -131.9375 44.3125 C-131.9375 42.9925 -131.9375 41.6725 -131.9375 40.3125 C-101.9075 40.3125 -71.8775 40.3125 -40.9375 40.3125 C-40.9375 37.3425 -40.9375 34.3725 -40.9375 31.3125 C-37.93149194 19.85430458 -29.30734511 10.05739433 -19.375 4 C-12.90996607 0.82625607 -7.080181 -0.02987418 0 0 Z M-24 22.8125 C-25.57266223 24.96101434 -25.57266223 24.96101434 -26.9375 27.3125 C-27.48535156 28.22257812 -28.03320312 29.13265625 -28.59765625 30.0703125 C-30.26270335 34.09943522 -30.39682807 37.37628709 -30.3125 41.6875 C-30.30017334 42.44554932 -30.28784668 43.20359863 -30.27514648 43.98461914 C-29.98372844 53.65990727 -27.28783332 58.95351639 -20.51171875 66.03515625 C-13.38941104 72.33607491 -5.84851826 74.24342135 3.56640625 73.8515625 C12.74502575 72.43631167 19.77110877 67.77689771 25.50390625 60.578125 C30.87007378 52.77768098 30.83831037 44.56177163 30.0625 35.3125 C27.68020539 26.49800995 23.07053362 20.37739094 15.40625 15.50390625 C1.97563101 8.67667493 -14.36051505 10.91910625 -24 22.8125 Z " fill="#2A8F28" transform="translate(1526.9375,408.6875)"/>
<path d="M0 0 C7.00031184 4.84636974 12.39806967 11.46171132 14 20 C14.91792634 30.26271747 13.28360226 38.32300129 6.6875 46.375 C1.64974118 51.72626741 -3.78543512 54.73010176 -11.171875 55.203125 C-21.70642693 55.34113223 -28.32449073 54.35039636 -36.171875 47.10546875 C-42.20180889 40.1607372 -44.38196266 32.19595481 -44.2734375 23.19921875 C-43.53348825 14.54181247 -39.36638115 7.76703564 -33 2 C-24.00503222 -4.49218386 -9.68652075 -5.90436515 0 0 Z " fill="#9DE786" transform="translate(1369,424)"/>
<path d="M0 0 C6.62793987 4.00390907 12.73694712 10.23290821 15.03515625 17.7734375 C16.80456749 27.84018496 15.77149388 36.87261271 9.859375 45.31640625 C5.4359629 50.72611969 0.46358794 54.7428174 -6.5625 56.0625 C-14.91670295 56.64960412 -22.52459915 57.14261548 -29.5625 52.0625 C-30.59375 51.4025 -31.625 50.7425 -32.6875 50.0625 C-38.35927359 45.10552527 -42.00777257 36.24601864 -42.80078125 28.8359375 C-43.06633436 20.25437895 -40.78433346 13.45505752 -35.375 6.75 C-26.04952813 -2.88827596 -12.51555608 -5.56031671 0 0 Z " fill="#9FE988" transform="translate(201.5625,422.9375)"/>
<path d="M0 0 C6.81076972 3.76176235 12.47932926 9.59467696 15.31640625 16.8828125 C17.26224088 25.08224143 17.20362812 35.0342758 12.9375 42.5 C8.55475108 48.49510167 3.47841059 54.86766874 -4.0625 56.5 C-12.99310102 57.49796217 -21.46484213 57.75991698 -29.0625 52.5 C-29.92875 51.96375 -30.795 51.4275 -31.6875 50.875 C-39.45481301 43.10768699 -41.34950749 35.15497503 -41.3815918 24.57666016 C-41.28160942 18.90411156 -40.42685088 15.03021504 -37.0625 10.5 C-36.36125 9.46875 -35.66 8.4375 -34.9375 7.375 C-25.92169229 -2.45061079 -12.41974381 -4.78677626 0 0 Z " fill="#9FEA88" transform="translate(402.0625,422.5)"/>
<path d="M0 0 C6.60423217 4.05158513 11.25007057 9.07568773 13.83984375 16.44140625 C15.94716673 25.60639081 15.51336596 35.20098653 10.5 43.3125 C8.10004734 46.37084675 5.52509817 48.87670667 2.5 51.3125 C1.93925781 51.76882813 1.37851562 52.22515625 0.80078125 52.6953125 C-5.78205675 56.92608029 -14.98707615 56.3309439 -22.5 55.3125 C-30.52615669 53.00025541 -36.29673612 46.35387838 -40.6640625 39.48046875 C-43.98508693 32.35733691 -43.82530631 22.75374871 -41.62109375 15.3671875 C-37.6771651 6.85454942 -31.59606764 1.10479417 -23.1171875 -2.8125 C-15.12039383 -5.4860549 -7.40249953 -3.56906227 0 0 Z " fill="#9EE988" transform="translate(604.5,423.6875)"/>
<path d="M0 0 C6.80651866 3.75941437 12.49138012 9.59462762 15.3125 16.88671875 C17.50147204 26.03935811 16.72497182 35.35563225 11.9375 43.5 C7.90942129 49.41689283 2.91279095 54.4293596 -4.0625 56.5 C-12.91641839 57.71760927 -21.54754479 57.7026613 -29.0625 52.5 C-29.92875 51.96375 -30.795 51.4275 -31.6875 50.875 C-39.45481301 43.10768699 -41.34950749 35.15497503 -41.3815918 24.57666016 C-41.28160942 18.90411156 -40.42685088 15.03021504 -37.0625 10.5 C-36.36125 9.46875 -35.66 8.4375 -34.9375 7.375 C-25.92169229 -2.45061079 -12.41974381 -4.78677626 0 0 Z " fill="#9FE988" transform="translate(1185.0625,422.5)"/>
<path d="M0 0 C1.75 1.12109375 1.75 1.12109375 3.3125 2.3125 C4.364375 3.055 5.41625 3.7975 6.5 4.5625 C12.13919343 10.07637802 15.39094117 15.78823852 15.60449219 23.75854492 C15.69191322 32.78060319 14.32980359 39.20629392 9.6875 47.0625 C1.56035205 54.76190332 -6.80806021 56.88781328 -17.6640625 56.64453125 C-25.32644553 56.21372165 -29.86705292 52.41737415 -35.0625 47.0625 C-41.25616684 39.54866911 -42.33659344 32.39059624 -42.09765625 22.75 C-41.07275539 14.16035471 -36.34393257 7.61794414 -29.6875 2.3125 C-28.88119141 1.66087891 -28.88119141 1.66087891 -28.05859375 0.99609375 C-20.81255885 -3.65628213 -7.69893977 -3.64843374 0 0 Z " fill="#9EE988" transform="translate(1003.6875,422.6875)"/>
<path d="M0 0 C7.65144174 4.04657254 13.99506235 9.83181501 16.703125 18.23046875 C18.62119753 28.26482966 17.39581788 37.55251602 12.02734375 46.20703125 C7.69443456 52.00872322 1.21938695 55.73772587 -5.8125 57.15234375 C-15.73167127 58.52374432 -23.31872762 55.9428098 -31.30859375 49.91796875 C-36.47028607 45.03946155 -39.55380425 38.28712556 -40.140625 31.25390625 C-40.09176327 21.07845174 -38.90417747 14.05372966 -31.875 6.4375 C-22.84840543 -1.56454959 -11.69832528 -4.74862333 0 0 Z " fill="#3CEB3C" transform="translate(801.875,426.5625)"/>
<path d="M0 0 C9.85243223 6.06187815 16.82407497 14.84974148 20 26 C22.96307989 39.37743421 18.97610933 51.58369615 11.8125 62.87109375 C8.44992473 67.36620305 3.79081702 70.24024133 -1 73 C-1.69351563 73.41765625 -2.38703125 73.8353125 -3.1015625 74.265625 C-11.7662989 78.61330192 -23.82702711 78.88235103 -33.13232422 76.44042969 C-44.20899287 72.48941044 -52.21921189 64.94993712 -57.5 54.625 C-60.48303226 48.21148063 -61.23646322 43.36024533 -61.3125 36.375 C-61.34150391 35.51003906 -61.37050781 34.64507812 -61.40039062 33.75390625 C-61.50426008 23.09530226 -56.39704057 13.67697006 -49.1171875 6.01953125 C-35.24596363 -6.73655501 -16.5794662 -8.81411729 0 0 Z M-41.9375 16 C-48.7869415 24.59000546 -49.92536224 32.08579609 -49 43 C-46.61548668 52.15504857 -42.13786456 57.69482196 -34.2265625 62.70703125 C-27.04703038 66.87619815 -19.90643688 66.9263863 -12 64.9375 C-3.54042699 62.10887139 2.09328204 56.9947299 6.125 49.11328125 C9.13855821 41.83500003 9.36452197 32.19031011 7 24.6875 C3.31916423 16.65187261 -2.96538981 11.26831601 -11 8 C-22.53457792 4.15514069 -33.89211355 7.15007491 -41.9375 16 Z " fill="#248D24" transform="translate(811,418)"/>
<path d="M0 0 C10.1127513 5.97984545 18.25889481 13.84985182 21.9453125 25.26171875 C24.54992282 38.13155798 23.14726864 49.59714057 16.1875 60.83984375 C9.66725112 70.16450075 1.30500138 74.97775996 -9.390625 78.54296875 C-23.15671581 79.53130347 -33.83231657 78.55546002 -44.765625 69.29296875 C-54.17265791 60.20302684 -59.21284973 50.31787835 -59.578125 37.16796875 C-59.36381913 25.63441641 -55.03869057 16.0460465 -47.078125 7.66796875 C-34.39795133 -4.26505664 -15.86489643 -7.82288401 0 0 Z M-43.015625 21.296875 C-46.03191483 26.22405298 -46.77917272 30.49910631 -46.765625 36.23046875 C-46.76401367 36.93727783 -46.76240234 37.64408691 -46.76074219 38.37231445 C-46.57365807 46.40867784 -44.27256429 53.82000079 -38.390625 59.54296875 C-29.06303484 66.46234472 -20.82888317 67.75649602 -9.390625 66.54296875 C-2.00846634 64.46134217 3.3030091 58.67903472 7.609375 52.54296875 C11.49899467 45.55992672 11.53679047 37.31559366 10.609375 29.54296875 C8.03411603 21.11901052 2.42676769 14.3674701 -5.265625 10.10546875 C-20.06610717 4.29190028 -33.78634891 8.85066374 -43.015625 21.296875 Z " fill="#268D25" transform="translate(407.390625,412.45703125)"/>
<path d="M0 0 C10.23497518 6.05837096 18.81411523 14.66928408 22.14379883 26.41894531 C24.83316234 38.60848893 22.68409787 50.35555584 16.19140625 60.84375 C9.67115737 70.168407 1.30890763 74.98166621 -9.38671875 78.546875 C-23.15280956 79.53520972 -33.82841032 78.55936627 -44.76171875 69.296875 C-53.01180804 61.32487861 -58.657158 52.43623172 -59.00805664 40.8190918 C-59.02582073 27.06850151 -56.67539593 17.87834765 -47.01171875 7.484375 C-34.22382241 -4.23604788 -15.82984615 -7.79450239 0 0 Z M-43.01171875 21.30078125 C-46.02800858 26.22795923 -46.77526647 30.50301256 -46.76171875 36.234375 C-46.76010742 36.94118408 -46.75849609 37.64799316 -46.75683594 38.3762207 C-46.56975182 46.41258409 -44.26865804 53.82390704 -38.38671875 59.546875 C-29.15399158 66.39587989 -20.75327329 68.00771266 -9.38671875 66.546875 C-1.56651282 63.87439605 4.79757637 57.74587294 8.70703125 50.52734375 C11.65791354 43.16379952 12.04700731 34.23675226 9.734375 26.671875 C6.15450722 18.92140219 0.53257895 12.38535128 -7.5390625 9.21484375 C-22.39393496 5.7303675 -33.7749821 8.84450899 -43.01171875 21.30078125 Z " fill="#258D25" transform="translate(1190.38671875,412.453125)"/>
<path d="M0 0 C2 2 2 2 2.24291992 4.21484375 C2.23675659 5.56255859 2.23675659 5.56255859 2.23046875 6.9375 C2.22853516 7.91460937 2.22660156 8.89171875 2.22460938 9.8984375 C2.20624023 11.43371094 2.20624023 11.43371094 2.1875 13 C2.18685547 14.02351563 2.18621094 15.04703125 2.18554688 16.1015625 C2.14032251 23.71935497 2.14032251 23.71935497 1 26 C-0.98 26 -2.96 26 -5 26 C-5 26.66 -5 27.32 -5 28 C-6.32 28 -7.64 28 -9 28 C-9.33 28.99 -9.66 29.98 -10 31 C-10 30.01 -10 29.02 -10 28 C-11.98567708 27.8046875 -13.97135417 27.609375 -15.95703125 27.4140625 C-18 27 -18 27 -21 25 C-21.37231445 22.69335938 -21.37231445 22.69335938 -21.36328125 19.84375 C-21.36263672 18.82152344 -21.36199219 17.79929687 -21.36132812 16.74609375 C-21.34521484 15.67488281 -21.32910156 14.60367187 -21.3125 13.5 C-21.31572266 12.42878906 -21.31894531 11.35757812 -21.32226562 10.25390625 C-21.26687004 2.26687004 -21.26687004 2.26687004 -19 0 C-12.75730882 -1.49281746 -6.29940223 -1.0992887 0 0 Z " fill="#9FE988" transform="translate(399,435)"/>
<path d="M0 0 C3.0625 2.3125 3.0625 2.3125 5 5 C5 6.32 5 7.64 5 9 C5.78375 8.95875 6.5675 8.9175 7.375 8.875 C10 9 10 9 12 11 C11.8125 13.0625 11.8125 13.0625 11 15 C10.01 15.33 9.02 15.66 8 16 C8.845625 16.515625 9.69125 17.03125 10.5625 17.5625 C11.366875 18.366875 12.17125 19.17125 13 20 C12.9375 23.6875 12.9375 23.6875 12 27 C8.78839348 28.60580326 5.47305634 28.62661669 2 28 C-0.875 25.5 -0.875 25.5 -3 23 C-5.0745356 22.8509288 -5.0745356 22.8509288 -7 24 C-8.875 24.16796875 -8.875 24.16796875 -11 24.1875 C-12.051875 24.20876953 -12.051875 24.20876953 -13.125 24.23046875 C-15 24 -15 24 -17 22 C-16.67342446 18.24438133 -15.8830622 15.26397448 -14 12 C-14.66 11.34 -15.32 10.68 -16 10 C-16.4375 7.125 -16.4375 7.125 -16 4 C-10.8002209 -1.06294281 -6.901591 -1.74919634 0 0 Z " fill="#192516" transform="translate(1174,436)"/>
<path d="M0 0 C39.27 0 78.54 0 119 0 C119 1.32 119 2.64 119 4 C79.73 4 40.46 4 0 4 C0 2.68 0 1.36 0 0 Z " fill="#3BEB3B" transform="translate(430,450)"/>
<path d="M0 0 C39.27 0 78.54 0 119 0 C119 1.32 119 2.64 119 4 C79.73 4 40.46 4 0 4 C0 2.68 0 1.36 0 0 Z " fill="#3BEB3B" transform="translate(229,450)"/>
<path d="M0 0 C38.94 0 77.88 0 118 0 C118 1.32 118 2.64 118 4 C79.06 4 40.12 4 0 4 C0 2.68 0 1.36 0 0 Z " fill="#3BEB3B" transform="translate(832,450)"/>
<path d="M0 0 C38.94 0 77.88 0 118 0 C118 1.32 118 2.64 118 4 C79.06 4 40.12 4 0 4 C0 2.68 0 1.36 0 0 Z " fill="#3BEB3B" transform="translate(632,450)"/>
<path d="M0 0 C0.33 0 0.66 0 1 0 C1 3.63 1 7.26 1 11 C-32 11 -65 11 -99 11 C-99 9.68 -99 8.36 -99 7 C-66.33 7 -33.66 7 0 7 C0 4.69 0 2.38 0 0 Z " fill="#3DEA3D" transform="translate(1131,443)"/>
<path d="M0 0 C33 0 66 0 100 0 C100 1.32 100 2.64 100 4 C67 4 34 4 0 4 C0 2.68 0 1.36 0 0 Z " fill="#3BEB3B" transform="translate(1213,450)"/>
<path d="M0 0 C30.03 0 60.06 0 91 0 C91 1.32 91 2.64 91 4 C60.97 4 30.94 4 0 4 C0 2.68 0 1.36 0 0 Z " fill="#49E949" transform="translate(1395,449)"/>
<path d="M0 0 C2.74609375 1.4921875 2.74609375 1.4921875 5 3 C7.69254991 3.70670728 7.69254991 3.70670728 10 4 C10 6.31 10 8.62 10 11 C5.25 10.125 5.25 10.125 3 9 C3 8.01 3 7.02 3 6 C-2.36688164 3.57374248 -7.18415809 3.3072306 -13 4 C-18.00230198 6.45567552 -21.49851535 9.9970307 -24 15 C-24.56088092 20.99711135 -24.45741843 25.87348302 -21 31 C-17.70950291 34.70180922 -15.61903002 36.74190496 -10.58203125 37.23828125 C-4.31807713 37.40614462 1.04781324 37.19121243 6 33 C8.98600846 28.8106747 10.53174525 23.89418249 12 19 C12.66 19 13.32 19 14 19 C13.80301392 26.73618062 11.91703942 32.10188347 6.3828125 37.609375 C1.16918991 41.59231414 -4.25431364 41.73658939 -10.65234375 41.4765625 C-16.43507014 40.65335058 -19.95552805 38.59411642 -23.5546875 34.02734375 C-27.30766339 28.3554734 -29.00009636 22.87125031 -28 16 C-25.92876466 9.45287561 -22.69462132 4.52985517 -16.73828125 0.99609375 C-11.33082699 -0.97095452 -5.63730126 -0.8782752 0 0 Z " fill="#131B10" transform="translate(1534,430)"/>
<path d="M0 0 C0.66 0 1.32 0 2 0 C0.84826645 2.46800047 -0.04783565 4.04783565 -2 6 C-2.27692985 7.37492313 -2.49625693 8.76185572 -2.6796875 10.15234375 C-3.84599243 15.84806575 -6.93174663 18.74705461 -11.125 22.5625 C-11.78371094 23.18962891 -12.44242188 23.81675781 -13.12109375 24.46289062 C-14.73252822 25.99258567 -16.35787845 27.50341123 -18 29 C-17.67 29.99 -17.34 30.98 -17 32 C-19.49361571 30.79618552 -21.68143083 29.54571278 -24 28 C-24 29.32 -24 30.64 -24 32 C-26.62187494 30.95125002 -27.79371361 30.35068687 -29.25 27.875 C-29.4975 27.25625 -29.745 26.6375 -30 26 C-28.68 25.67 -27.36 25.34 -26 25 C-26.66 24.38125 -27.32 23.7625 -28 23.125 C-30 21 -30 21 -30 19 C-29.41065674 19.22993652 -28.82131348 19.45987305 -28.21411133 19.69677734 C-25.9506461 20.26674001 -25.9506461 20.26674001 -24.2800293 18.75244141 C-23.71711182 18.12515137 -23.15419434 17.49786133 -22.57421875 16.8515625 C-21.94193359 16.17609375 -21.30964844 15.500625 -20.65820312 14.8046875 C-19.35355627 13.3616886 -18.05143252 11.91640414 -16.75195312 10.46875 C-12.61571357 6.06011372 -10.28471763 4.30259752 -4 4 C-1.70710528 2.04190477 -1.70710528 2.04190477 0 0 Z " fill="#E4FCE4" transform="translate(803,440)"/>
<path d="M0 0 C1.11503906 -0.0103125 2.23007813 -0.020625 3.37890625 -0.03125 C7.07411015 0.61057341 8.20829964 1.52946092 10.4375 4.5 C11.79052617 7.58855341 12.14240265 10.19195291 11.4375 13.5 C8.34183222 17.22840867 4.77544346 20.09149818 -0.06640625 20.9375 C-5.22003681 20.03420325 -8.54010423 15.51282145 -11.5625 11.5 C-12.4375 7.6875 -12.4375 7.6875 -11.5625 4.5 C-7.83681662 0.73359877 -5.24402128 -0.04861202 0 0 Z " fill="#1E2C1A" transform="translate(188.5625,446.5)"/>
<path d="M0 0 C0.825 0.144375 1.65 0.28875 2.5 0.4375 C9.10166331 1.4984816 15.43413314 1.11759436 22 0 C22.33 1.32 22.66 2.64 23 4 C20.35261084 5.4606285 19.10551666 6 16 6 C16 12.27 16 18.54 16 25 C14.02 24.67 12.04 24.34 10 24 C8.65667272 24.29044914 7.31774196 24.60955794 6 25 C5 24 5 24 4.88647461 22.23413086 C4.89432983 21.11083374 4.89432983 21.11083374 4.90234375 19.96484375 C4.90556641 19.15595703 4.90878906 18.34707031 4.91210938 17.51367188 C4.92048828 16.66353516 4.92886719 15.81339844 4.9375 14.9375 C4.94201172 14.08349609 4.94652344 13.22949219 4.95117188 12.34960938 C4.96299627 10.23304337 4.98093231 8.11651315 5 6 C2.03 5.505 2.03 5.505 -1 5 C-1 1 -1 1 0 0 Z " fill="#10180E" transform="translate(980,443)"/>
<path d="M0 0 C2 2 2 2 2.24291992 4.21484375 C2.23675659 5.56255859 2.23675659 5.56255859 2.23046875 6.9375 C2.22853516 7.91460937 2.22660156 8.89171875 2.22460938 9.8984375 C2.20624023 11.43371094 2.20624023 11.43371094 2.1875 13 C2.18685547 14.02351563 2.18621094 15.04703125 2.18554688 16.1015625 C2.14032251 23.71935497 2.14032251 23.71935497 1 26 C-0.98 26 -2.96 26 -5 26 C-5 26.66 -5 27.32 -5 28 C-6.32 28 -7.64 28 -9 28 C-9.33 28.99 -9.66 29.98 -10 31 C-10 30.01 -10 29.02 -10 28 C-11.98567708 27.8046875 -13.97135417 27.609375 -15.95703125 27.4140625 C-18 27 -18 27 -21 25 C-21.37231445 22.69335938 -21.37231445 22.69335938 -21.36328125 19.84375 C-21.36263672 18.82152344 -21.36199219 17.79929687 -21.36132812 16.74609375 C-21.34521484 15.67488281 -21.32910156 14.60367187 -21.3125 13.5 C-21.31572266 12.42878906 -21.31894531 11.35757812 -21.32226562 10.25390625 C-21.26687004 2.26687004 -21.26687004 2.26687004 -19 0 C-12.75730882 -1.49281746 -6.29940223 -1.0992887 0 0 Z M-11 0 C-11.33 0.33 -11.66 0.66 -12 1 C-14.31 1.33 -16.62 1.66 -19 2 C-19 7.61 -19 13.22 -19 19 C-12.29267094 19.18893885 -6.47652761 18.75210409 0 17 C0.02685412 14.68756208 0.04632841 12.3750373 0.0625 10.0625 C0.07410156 8.77472656 0.08570313 7.48695313 0.09765625 6.16015625 C0.36532549 3.13701597 0.36532549 3.13701597 -1 2 C-3.33157492 1.65458149 -5.66508361 1.32205743 -8 1 C-8.99 0.67 -9.98 0.34 -11 0 Z " fill="#182415" transform="translate(399,435)"/>
<path d="M0 0 C1.65 0 3.3 0 5 0 C5.02689216 1.47906892 5.04634621 2.95827483 5.0625 4.4375 C5.07410156 5.26121094 5.08570313 6.08492188 5.09765625 6.93359375 C5 9 5 9 4 10 C3.75385312 12.97199571 3.61596425 15.9430797 3.4765625 18.921875 C2.94603579 22.34855574 2.1013823 24.25572905 0 27 C-4.00408635 29.71588644 -8.32683139 29.5808948 -13 29 C-15.1875 27.625 -15.1875 27.625 -17 26 C-18.98799818 25.29835358 -20.98698517 24.62627128 -23 24 C-25.2397148 21.7602852 -24.18531833 16.57102512 -24.1875 13.5625 C-24.19974609 12.67755859 -24.21199219 11.79261719 -24.22460938 10.88085938 C-24.22654297 10.03458984 -24.22847656 9.18832031 -24.23046875 8.31640625 C-24.23457764 7.53724854 -24.23868652 6.75809082 -24.24291992 5.95532227 C-24 4 -24 4 -22 2 C-21.01 2.33 -20.02 2.66 -19 3 C-19.99 3.495 -19.99 3.495 -21 4 C-21 4.66 -21 5.32 -21 6 C-18.69 6.66 -16.38 7.32 -14 8 C-14.99 8.33 -15.98 8.66 -17 9 C-17 13.95 -17 18.9 -17 24 C-13.535 23.505 -13.535 23.505 -10 23 C-10 22.34 -10 21.68 -10 21 C-11.32 20.34 -12.64 19.68 -14 19 C-14 17.02 -14 15.04 -14 13 C-13.34 12.67 -12.68 12.34 -12 12 C-12.04125 12.78375 -12.0825 13.5675 -12.125 14.375 C-12.28728734 17.16116119 -12.28728734 17.16116119 -10 19 C-7.89179203 18.6814823 -7.89179203 18.6814823 -6 18 C-5.84850702 14.37114676 -5.84850702 14.37114676 -7 11 C-5.68 11.66 -4.36 12.32 -3 13 C-2.63374029 17.51720311 -2.63374029 17.51720311 -4.375 19.8125 C-6 21 -6 21 -8 21 C-8.33 21.99 -8.66 22.98 -9 24 C-11.0625 25.1875 -11.0625 25.1875 -13 26 C-11.39667209 26.08121924 -9.79215974 26.13929134 -8.1875 26.1875 C-7.29417969 26.22230469 -6.40085937 26.25710938 -5.48046875 26.29296875 C-3.00262853 26.20469225 -3.00262853 26.20469225 -1.36328125 24.81445312 C0.4927991 22.34411122 0.34381129 20.74328099 0.29296875 17.67578125 C0.28330078 16.64775391 0.27363281 15.61972656 0.26367188 14.56054688 C0.23853516 13.48869141 0.21339844 12.41683594 0.1875 11.3125 C0.17396484 10.22904297 0.16042969 9.14558594 0.14648438 8.02929688 C0.11110643 5.35236595 0.06174189 2.67643162 0 0 Z " fill="#141D11" transform="translate(600,436)"/>
<path d="M0 0 C1.60379341 -0.05416188 3.20811406 -0.09286638 4.8125 -0.125 C5.70582031 -0.14820313 6.59914063 -0.17140625 7.51953125 -0.1953125 C10 0 10 0 13 2 C13.1875 5.625 13.1875 5.625 13 9 C13.66 9.33 14.32 9.66 15 10 C15.75 13.4375 15.75 13.4375 16 17 C15.34 17.66 14.68 18.32 14 19 C11.06546739 18.63318342 10.13562754 18.13562754 8 16 C8 16.66 8 17.32 8 18 C8.99 18.66 9.98 19.32 11 20 C11 20.66 11 21.32 11 22 C8.69 22.33 6.38 22.66 4 23 C4.05800781 21.95199219 4.11601563 20.90398437 4.17578125 19.82421875 C4.22268131 18.445357 4.26818122 17.06644713 4.3125 15.6875 C4.35439453 14.99720703 4.39628906 14.30691406 4.43945312 13.59570312 C4.54841587 11.30706875 4.54841587 11.30706875 4 8 C1.6230839 5.94636481 1.6230839 5.94636481 -1 5 C-0.67 3.35 -0.34 1.7 0 0 Z " fill="#20301C" transform="translate(579,437)"/>
<path d="M0 0 C1.77734375 1.36328125 1.77734375 1.36328125 3 3 C2.9375 6.0625 2.9375 6.0625 2 9 C-0.85266088 11.51034157 -4.44554519 11.36180174 -8.09375 11.24609375 C-10.9020692 10.88354434 -12.22692993 10.21633759 -14 8 C-14.5625 5 -14.5625 5 -14 2 C-10.07287803 -1.92712197 -5.0424721 -1.4919674 0 0 Z " fill="#96DB80" transform="translate(1174,438)"/>
<path d="M0 0 C0.94746094 -0.01675781 1.89492187 -0.03351563 2.87109375 -0.05078125 C5.93375309 0.36261109 7.28868559 1.27520529 9.5625 3.3125 C9.1875 6.25 9.1875 6.25 8.5625 9.3125 C5.71411879 10.7366906 3.23462092 10.48245508 0.0625 10.5 C-1.1028125 10.51417969 -2.268125 10.52835937 -3.46875 10.54296875 C-6.4375 10.3125 -6.4375 10.3125 -8.4375 8.3125 C-8.75 5.3125 -8.75 5.3125 -8.4375 2.3125 C-5.11533762 0.09772508 -3.88716677 0.01582293 0 0 Z " fill="#2A3E24" transform="translate(1354.4375,437.6875)"/>
<path d="M0 0 C6.93 0 13.86 0 21 0 C21 0.66 21 1.32 21 2 C19.35 2.33 17.7 2.66 16 3 C15.67 9.27 15.34 15.54 15 22 C14.34 22 13.68 22 13 22 C12.34 18.7 11.68 15.4 11 12 C10.67 12 10.34 12 10 12 C9.34 15.3 8.68 18.6 8 22 C7.67 22 7.34 22 7 22 C7 15.73 7 9.46 7 3 C4.69 2.34 2.38 1.68 0 1 C0 0.67 0 0.34 0 0 Z " fill="#92D67D" transform="translate(980,445)"/>
<path d="M0 0 C0.67417969 0.30808594 1.34835937 0.61617188 2.04296875 0.93359375 C2.41219952 5.4874399 2.41219952 5.4874399 0.54296875 7.74609375 C-0.19953125 8.33390625 -0.19953125 8.33390625 -0.95703125 8.93359375 C-3.43203125 7.94359375 -3.43203125 7.94359375 -5.95703125 6.93359375 C-5.29703125 8.58359375 -4.63703125 10.23359375 -3.95703125 11.93359375 C-7.95703125 11.93359375 -7.95703125 11.93359375 -9.95703125 10.93359375 C-9.29703125 12.58359375 -8.63703125 14.23359375 -7.95703125 15.93359375 C-9.20703125 17.49609375 -9.20703125 17.49609375 -10.95703125 18.93359375 C-13.01953125 18.87109375 -13.01953125 18.87109375 -14.95703125 17.93359375 C-16.078125 15.875 -16.078125 15.875 -16.95703125 13.93359375 C-14.75263692 11.55513305 -12.51499221 9.21076986 -10.26953125 6.87109375 C-9.64369141 6.19498047 -9.01785156 5.51886719 -8.37304688 4.82226562 C-3.61885853 -0.08126895 -3.61885853 -0.08126895 0 0 Z " fill="#48ED48" transform="translate(795.95703125,447.06640625)"/>
<path d="M0 0 C0.99 0.33 1.98 0.66 3 1 C2.01 1.495 2.01 1.495 1 2 C1 2.66 1 3.32 1 4 C3.31 4.66 5.62 5.32 8 6 C7.01 6.33 6.02 6.66 5 7 C5.33 12.61 5.66 18.22 6 24 C-1 22 -1 22 -2 21 C-2.24966567 17.8617655 -2.18521791 14.70950387 -2.1875 11.5625 C-2.19974609 10.67755859 -2.21199219 9.79261719 -2.22460938 8.88085938 C-2.22654297 8.03458984 -2.22847656 7.18832031 -2.23046875 6.31640625 C-2.23457764 5.53724854 -2.23868652 4.75809082 -2.24291992 3.95532227 C-2 2 -2 2 0 0 Z " fill="#020402" transform="translate(578,438)"/>
<path d="M0 0 C3.125 2.1875 3.125 2.1875 5 5 C5.0625 8.125 5.0625 8.125 4 11 C0.9 14 0.9 14 -2 14 C-2.33 15.98 -2.66 17.96 -3 20 C-3.66 19.67 -4.32 19.34 -5 19 C-5.99 19.66 -6.98 20.32 -8 21 C-10.6875 21.125 -10.6875 21.125 -13 21 C-13.33 20.01 -13.66 19.02 -14 18 C-12.02 18 -10.04 18 -8 18 C-8 16.68 -8 15.36 -8 14 C-8.763125 13.896875 -9.52625 13.79375 -10.3125 13.6875 C-13.26644989 12.9318384 -14.33726664 12.53785617 -16 10 C-16.5 7.0625 -16.5 7.0625 -16 4 C-10.78605915 -1.07673188 -6.91440594 -1.72562627 0 0 Z M-14 4 C-14.75 7 -14.75 7 -14 10 C-12.22692993 12.21633759 -10.9020692 12.88354434 -8.09375 13.24609375 C-2.64910303 13.43607166 -2.64910303 13.43607166 2 11 C3.08223366 8.08995097 3.08223366 8.08995097 3 5 C1.4534173 2.92965447 0.40146343 2.11878506 -2.0859375 1.3828125 C-8.60520209 0.61127156 -8.60520209 0.61127156 -14 4 Z " fill="#202F1B" transform="translate(1174,436)"/>
<path d="M0 0 C0.66 0.99 1.32 1.98 2 3 C4.5 3.5 4.5 3.5 7 3 C7.66 2.01 8.32 1.02 9 0 C10.65 1.65 12.3 3.3 14 5 C13.690625 5.53625 13.38125 6.0725 13.0625 6.625 C11.82172561 9.3984957 11.4090325 12.00042837 11 15 C6.11418372 13.81555969 3.54347868 10.7217123 0.2578125 7.16796875 C-1 5 -1 5 -0.6953125 2.23828125 C-0.46585938 1.49964844 -0.23640625 0.76101563 0 0 Z " fill="#9BE485" transform="translate(179,451)"/>
<path d="M0 0 C2.9375 0.8125 2.9375 0.8125 4.9375 2.8125 C4.75 6.3125 4.75 6.3125 3.9375 9.8125 C0.9375 11.8125 0.9375 11.8125 -1.5625 11.6875 C-4.61457917 10.61927229 -5.59064153 9.67444702 -7.0625 6.8125 C-6.91220215 4.33258556 -6.22923308 3.06698734 -4.875 1 C-3.0625 -0.1875 -3.0625 -0.1875 0 0 Z " fill="#689959" transform="translate(192.0625,433.1875)"/>
<path d="M0 0 C0.5775 0.20625 1.155 0.4125 1.75 0.625 C2.13218767 2.28114657 2.46395102 3.94957024 2.75 5.625 C1.75 6.625 1.75 6.625 -0.01586914 6.73852539 C-0.76473389 6.73328857 -1.51359863 6.72805176 -2.28515625 6.72265625 C-3.09404297 6.71943359 -3.90292969 6.71621094 -4.73632812 6.71289062 C-5.58646484 6.70451172 -6.43660156 6.69613281 -7.3125 6.6875 C-8.16650391 6.68298828 -9.02050781 6.67847656 -9.90039062 6.67382812 C-12.01695663 6.66200373 -14.13348685 6.64406769 -16.25 6.625 C-16.25 5.305 -16.25 3.985 -16.25 2.625 C-15.57453125 2.57601563 -14.8990625 2.52703125 -14.203125 2.4765625 C-13.31109375 2.40179688 -12.4190625 2.32703125 -11.5 2.25 C-10.61828125 2.18039062 -9.7365625 2.11078125 -8.828125 2.0390625 C-5.51446794 1.50686909 -3.30051374 -0.55008562 0 0 Z " fill="#96DD81" transform="translate(396.25,453.375)"/>
<path d="M0 0 C0.99 0.66 1.98 1.32 3 2 C3.1875 4.625 3.1875 4.625 3 7 C0.00170048 8.54198261 -1.37642895 9.17401983 -4.6875 8.25 C-7 7 -7 7 -9 5 C-8.75 2.4375 -8.75 2.4375 -8 0 C-5.08931154 -1.45534423 -3.1172005 -0.69977971 0 0 Z " fill="#88C774" transform="translate(1182,454)"/>
<path d="M0 0 C-0.15481795 2.70931419 -0.48172081 4.46584039 -2.40234375 6.4453125 C-3.89771708 7.67679642 -5.4462924 8.8429837 -7 10 C-7.66 9.67 -8.32 9.34 -9 9 C-6.69 7.02 -4.38 5.04 -2 3 C-4.31 3.66 -6.62 4.32 -9 5 C-9.33 6.32 -9.66 7.64 -10 9 C-12.3431213 8.74438677 -14.67843403 8.40729228 -17 8 C-17.33 7.34 -17.66 6.68 -18 6 C-16.02 6 -14.04 6 -12 6 C-17.68854922 2.15638566 -22.54425869 3.04657201 -29 4 C-25.61913358 1.14621743 -23.44470192 0.60809327 -18.953125 0.7578125 C-16.43778102 1.06971515 -14.33902218 2.05174777 -12 3 C-7.32135856 2.5544151 -4.72829943 0 0 0 Z " fill="#202F1B" transform="translate(1368,449)"/>
<path d="M0 0 C0.66 0 1.32 0 2 0 C0.84826645 2.46800047 -0.04783565 4.04783565 -2 6 C-2.40047444 8.32275177 -2.7397104 10.65739357 -3 13 C-3.66 13 -4.32 13 -5 13 C-5.33 11.35 -5.66 9.7 -6 8 C-10.92784505 8.417313 -12.9777145 10.54985927 -16.3125 14.0625 C-17.19550781 14.98160156 -18.07851563 15.90070313 -18.98828125 16.84765625 C-19.98408203 17.91306641 -19.98408203 17.91306641 -21 19 C-21.66 18.34 -22.32 17.68 -23 17 C-21.16387413 15.00106494 -19.30908538 13.02777619 -17.4375 11.0625 C-16.66696289 10.21655273 -16.66696289 10.21655273 -15.88085938 9.35351562 C-12.0822328 5.41332533 -9.60674357 4.43232722 -4 4 C-1.70710528 2.04190477 -1.70710528 2.04190477 0 0 Z " fill="#EAFDEA" transform="translate(803,440)"/>
<path d="M0 0 C3.45669582 -0.31424507 5.39901677 -0.37956836 8.375 1.5 C10.34803929 4.53544506 10.63140334 6.52271233 10.46484375 10.09375 C10 12 10 12 7.625 14.5 C5 16 5 16 3 16 C3.62759865 13.07120629 4.58622659 10.63904371 6 8 C5.566875 7.59007812 5.13375 7.18015625 4.6875 6.7578125 C4.130625 6.21898437 3.57375 5.68015625 3 5.125 C2.443125 4.59132813 1.88625 4.05765625 1.3125 3.5078125 C0 2 0 2 0 0 Z " fill="#9AE284" transform="translate(188,448)"/>
<path d="M0 0 C0.33 0 0.66 0 1 0 C1 5.28 1 10.56 1 16 C2.32 16.33 3.64 16.66 5 17 C4.01 17 3.02 17 2 17 C2 18.65 2 20.3 2 22 C8.27 22 14.54 22 21 22 C21 22.33 21 22.66 21 23 C19.35 23 17.7 23 16 23 C16 23.66 16 24.32 16 25 C14.68 25 13.36 25 12 25 C11.67 25.99 11.34 26.98 11 28 C11 27.01 11 26.02 11 25 C9.01432292 24.8046875 7.02864583 24.609375 5.04296875 24.4140625 C3 24 3 24 0 22 C-0.34057617 19.75341797 -0.34057617 19.75341797 -0.29296875 16.9921875 C-0.28330078 16.00605469 -0.27363281 15.01992188 -0.26367188 14.00390625 C-0.23853516 12.97136719 -0.21339844 11.93882812 -0.1875 10.875 C-0.17396484 9.83472656 -0.16042969 8.79445313 -0.14648438 7.72265625 C-0.11105228 5.14792373 -0.06165221 2.5742167 0 0 Z " fill="#10170D" transform="translate(378,438)"/>
<path d="M0 0 C2.875 -0.125 2.875 -0.125 6 0 C6.66 0.66 7.32 1.32 8 2 C7.67 3.32 7.34 4.64 7 6 C2.71 6.99 -1.58 7.98 -6 9 C-6 7.68 -6 6.36 -6 5 C-3.5625 3.375 -3.5625 3.375 -1 2 C-0.67 1.34 -0.34 0.68 0 0 Z " fill="#97DE81" transform="translate(1178,445)"/>
<path d="M0 0 C-0.33 0.99 -0.66 1.98 -1 3 C-1.66 3 -2.32 3 -3 3 C-3.061875 4.27875 -3.12375 5.5575 -3.1875 6.875 C-3.22230469 7.59429687 -3.25710938 8.31359375 -3.29296875 9.0546875 C-3.19628906 9.69664062 -3.09960938 10.33859375 -3 11 C-2.01 11.66 -1.02 12.32 0 13 C0 13.66 0 14.32 0 15 C-2.31 15.33 -4.62 15.66 -7 16 C-7 11.05 -7 6.1 -7 1 C-2 0 -2 0 0 0 Z " fill="#85C271" transform="translate(590,444)"/>
<path d="M0 0 C2.375 0.8125 2.375 0.8125 3.375 2.8125 C0.405 2.3175 0.405 2.3175 -2.625 1.8125 C-2.295 3.7925 -1.965 5.7725 -1.625 7.8125 C-0.635 8.1425 0.355 8.4725 1.375 8.8125 C1.375 8.1525 1.375 7.4925 1.375 6.8125 C0.715 6.8125 0.055 6.8125 -0.625 6.8125 C-0.625 6.1525 -0.625 5.4925 -0.625 4.8125 C1.025 4.8125 2.675 4.8125 4.375 4.8125 C4.375 6.7925 4.375 8.7725 4.375 10.8125 C-2.375 10.9375 -2.375 10.9375 -4.625 9.8125 C-6.10482709 3.66552594 -6.10482709 3.66552594 -4.5 0.8125 C-2.625 -0.1875 -2.625 -0.1875 0 0 Z " fill="#273622" transform="translate(1528.625,444.1875)"/>
<path d="M0 0 C0.2475 0.598125 0.495 1.19625 0.75 1.8125 C2.28822241 4.50438922 3.25167822 5.52013443 6 7 C8.99016821 7.53709412 11.96939277 7.81220596 15 8 C14.34 10.31 13.68 12.62 13 15 C12.34 14.67 11.68 14.34 11 14 C10.01 14.66 9.02 15.32 8 16 C5.3125 16.125 5.3125 16.125 3 16 C2.67 15.01 2.34 14.02 2 13 C3.98 13 5.96 13 8 13 C8 11.68 8 10.36 8 9 C7.236875 8.896875 6.47375 8.79375 5.6875 8.6875 C2.76057838 7.93875261 1.68494084 7.48307071 0 5 C-0.1875 2.3125 -0.1875 2.3125 0 0 Z " fill="#131C10" transform="translate(1158,441)"/>
<path d="M0 0 C0.33 0 0.66 0 1 0 C1.33 4.62 1.66 9.24 2 14 C2.66 12.02 3.32 10.04 4 8 C5.5 9.125 5.5 9.125 7 11 C7.3125 14.0625 7.3125 14.0625 7 17 C5 19 5 19 0 20 C0 13.4 0 6.8 0 0 Z " fill="#2B4025" transform="translate(986,448)"/>
<path d="M0 0 C0.103125 0.639375 0.20625 1.27875 0.3125 1.9375 C0.539375 2.618125 0.76625 3.29875 1 4 C1.99 4.33 2.98 4.66 4 5 C3.02617818 7.51570636 2.53848865 8.73944098 0.0625 9.9375 C-2 10 -2 10 -3.75 8.5625 C-4.1625 8.046875 -4.575 7.53125 -5 7 C-3.70700306 4.11562221 -2.34058637 2.12780579 0 0 Z " fill="#3DEC3D" transform="translate(784,456)"/>
<path d="M0 0 C0.5775 0.7425 1.155 1.485 1.75 2.25 C3.72253526 4.66087643 5.76044282 6.84042701 8 9 C6.66666667 11.66666667 5.33333333 14.33333333 4 17 C3.34 17 2.68 17 2 17 C2.33 16.2575 2.66 15.515 3 14.75 C4.22782871 11.86116688 4.22782871 11.86116688 4 8 C2.5833253 6.2488427 2.5833253 6.2488427 1 5 C0.34 5.66 -0.32 6.32 -1 7 C-3.625 6.625 -3.625 6.625 -6 6 C-5.8125 4.125 -5.8125 4.125 -5 2 C-2.4375 0.75 -2.4375 0.75 0 0 Z " fill="#21311C" transform="translate(187,447)"/>
<path d="M0 0 C3.0625 0.125 3.0625 0.125 5.0625 1.125 C5.105221 2.79111905 5.10313832 4.45882885 5.0625 6.125 C4.0625 7.125 4.0625 7.125 0.5625 7.25 C-2.9375 7.125 -2.9375 7.125 -3.9375 6.125 C-4.0625 3.625 -4.0625 3.625 -3.9375 1.125 C-2.9375 0.125 -2.9375 0.125 0 0 Z " fill="#9CE586" transform="translate(1167.9375,436.875)"/>
<path d="M0 0 C1.65 0 3.3 0 5 0 C5 2.97 5 5.94 5 9 C4.01 9.495 4.01 9.495 3 10 C2.53348793 12.12576782 2.53348793 12.12576782 2.375 14.5625 C2.30023437 15.38878906 2.22546875 16.21507812 2.1484375 17.06640625 C2.09945312 17.70449219 2.05046875 18.34257812 2 19 C1.67 19 1.34 19 1 19 C0.25492456 12.62694402 -0.10349817 6.41688675 0 0 Z " fill="#416038" transform="translate(600,436)"/>
<path d="M0 0 C1.65 0 3.3 0 5 0 C6.31626692 3.61973402 7 6.09567131 7 10 C6.34 10 5.68 10 5 10 C5 9.01 5 8.02 5 7 C3.35 7 1.7 7 0 7 C0 7.99 0 8.98 0 10 C-0.66 10 -1.32 10 -2 10 C-1.34 6.7 -0.68 3.4 0 0 Z " fill="#1F2C1B" transform="translate(1515,445)"/>
<path d="M0 0 C3 2 3 2 3.625 3.98828125 C3.810625 5.13876953 3.810625 5.13876953 4 6.3125 C4.72490771 10.10151338 5.76822506 12.79788813 8 16 C8.33 16.66 8.66 17.32 9 18 C8.34 18 7.68 18 7 18 C6.67 18.66 6.34 19.32 6 20 C5.18071114 18.75443908 4.36984814 17.50333365 3.5625 16.25 C3.11003906 15.55390625 2.65757813 14.8578125 2.19140625 14.140625 C-0.39335243 9.496534 -0.08650904 5.19054257 0 0 Z " fill="#1C2919" transform="translate(1506,446)"/>
<path d="M0 0 C0.33 1.65 0.66 3.3 1 5 C-2 7 -2 7 -4.125 6.6875 C-6 6 -6 6 -7 5 C-7.04063832 3.33382885 -7.042721 1.66611905 -7 0 C-4.3333581 -1.33332095 -2.83319697 -0.67102033 0 0 Z " fill="#45653B" transform="translate(994,437)"/>
<path d="M0 0 C0.33 1.32 0.66 2.64 1 4 C-3.75 5.125 -3.75 5.125 -6 4 C-5.67 4.66 -5.34 5.32 -5 6 C-2.66928121 6.41870553 -2.66928121 6.41870553 0 6 C2.33630748 3.60140956 2.33630748 3.60140956 4 1 C3.67226629 4.03153686 3.35865103 5.61573103 1.25 7.875 C-1.59474935 9.29737468 -3.01616624 8.91172698 -6 8 C-6.33 6.35 -6.66 4.7 -7 3 C-3.375 0 -3.375 0 0 0 Z " fill="#87C674" transform="translate(1166,450)"/>
<path d="M0 0 C2.5 0.125 2.5 0.125 3.5 1.125 C3.6875 3.5625 3.6875 3.5625 3.5 6.125 C2.84 6.785 2.18 7.445 1.5 8.125 C-1.43453261 7.75818342 -2.36437246 7.26062754 -4.5 5.125 C-3.7519084 0.18759542 -3.7519084 0.18759542 0 0 Z " fill="#80BB6D" transform="translate(591.5,447.875)"/>
<path d="M0 0 C0 0.33 0 0.66 0 1 C-6.43891219 1.85852163 -12.46399978 2 -19 2 C-19 7.61 -19 13.22 -19 19 C-19.33 19 -19.66 19 -20 19 C-20.22114415 16.20880221 -20.42743301 13.4178788 -20.625 10.625 C-20.68945312 9.8309375 -20.75390625 9.036875 -20.8203125 8.21875 C-20.96058587 6.14971776 -20.98758237 4.07374464 -21 2 C-15.88502449 -3.11497551 -6.52802256 -0.69675118 0 0 Z " fill="#354D2D" transform="translate(399,435)"/>
<path d="M0 0 C2.31 0 4.62 0 7 0 C7 0.66 7 1.32 7 2 C5.35 2 3.7 2 2 2 C2 2.99 2 3.98 2 5 C3.32 5.33 4.64 5.66 6 6 C4.68 6 3.36 6 2 6 C2 6.99 2 7.98 2 9 C3.65 9 5.3 9 7 9 C7 9.66 7 10.32 7 11 C4.69 11 2.38 11 0 11 C0 7.37 0 3.74 0 0 Z " fill="#1F2C1B" transform="translate(1535,444)"/>
<path d="M0 0 C0.66 0.66 1.32 1.32 2 2 C1.01 2.66 0.02 3.32 -1 4 C-0.67 5.65 -0.34 7.3 0 9 C5.06287816 8.27137506 5.06287816 8.27137506 10 7 C10.33 6.34 10.66 5.68 11 5 C11 6.65 11 8.3 11 10 C10.01 10 9.02 10 8 10 C7.01 10.495 7.01 10.495 6 11 C4.125 11.16796875 4.125 11.16796875 2 11.1875 C0.948125 11.20876953 0.948125 11.20876953 -0.125 11.23046875 C-2 11 -2 11 -4 9 C-3.79107816 5.72689117 -3.56305786 3.67566943 -1.4375 1.125 C-0.963125 0.75375 -0.48875 0.3825 0 0 Z " fill="#22331D" transform="translate(1161,449)"/>
<path d="M0 0 C3.3 0 6.6 0 10 0 C10 1.32 10 2.64 10 4 C6.7 4 3.4 4 0 4 C0 2.68 0 1.36 0 0 Z " fill="#9AE284" transform="translate(579,439)"/>
<path d="M0 0 C1.98 0 3.96 0 6 0 C6 1.98 6 3.96 6 6 C4.02 6 2.04 6 0 6 C0 4.02 0 2.04 0 0 Z " fill="#9DE686" transform="translate(1356,440)"/>
<path d="M0 0 C4.62 0 9.24 0 14 0 C14 0.33 14 0.66 14 1 C12.35 1 10.7 1 9 1 C9 1.66 9 2.32 9 3 C7.68 3 6.36 3 5 3 C4.67 3.99 4.34 4.98 4 6 C4 5.01 4 4.02 4 3 C2.68 3 1.36 3 0 3 C0 2.01 0 1.02 0 0 Z " fill="#000000" transform="translate(385,460)"/>
<path d="M0 0 C1.98 0 3.96 0 6 0 C6 1.65 6 3.3 6 5 C3 6 3 6 0 6 C-1.125 2.25 -1.125 2.25 0 0 Z " fill="#8BCC77" transform="translate(1348,440)"/>
<path d="M0 0 C1.98 0 3.96 0 6 0 C6 0.66 6 1.32 6 2 C6.66 2 7.32 2 8 2 C8 3.65 8 5.3 8 7 C7.01 7 6.02 7 5 7 C5 6.34 5 5.68 5 5 C3.35 5 1.7 5 0 5 C0 3.35 0 1.7 0 0 Z " fill="#7BB56A" transform="translate(1537,448)"/>
<path d="M0 0 C1.65 0.33 3.3 0.66 5 1 C5.33 2.32 5.66 3.64 6 5 C3.625 5.625 3.625 5.625 1 6 C0.34 5.34 -0.32 4.68 -1 4 C-0.625 1.875 -0.625 1.875 0 0 Z " fill="#324A2B" transform="translate(1180,445)"/>
<path d="M0 0 C0.8353125 0.37125 0.8353125 0.37125 1.6875 0.75 C-0.2925 1.74 -0.2925 1.74 -2.3125 2.75 C-2.3125 3.74 -2.3125 4.73 -2.3125 5.75 C-0.9925 5.75 0.3275 5.75 1.6875 5.75 C1.6875 6.41 1.6875 7.07 1.6875 7.75 C-0.6875 7.9375 -0.6875 7.9375 -3.3125 7.75 C-3.9725 6.76 -4.6325 5.77 -5.3125 4.75 C-5.6425 6.4 -5.9725 8.05 -6.3125 9.75 C-6.6425 9.75 -6.9725 9.75 -7.3125 9.75 C-7.625 7 -7.625 7 -7.3125 3.75 C-3.50153592 -0.37854442 -3.50153592 -0.37854442 0 0 Z " fill="#131D11" transform="translate(184.3125,447.25)"/>
<path d="M0 0 C0.66 0 1.32 0 2 0 C2.33 0.99 2.66 1.98 3 3 C5.31 3 7.62 3 10 3 C10 2.01 10 1.02 10 0 C10.99 0.33 11.98 0.66 13 1 C11.25 4.875 11.25 4.875 9 6 C4.94857881 6.25860135 3.45662331 6.30441554 0 4 C0 2.68 0 1.36 0 0 Z " fill="#1C2918" transform="translate(1162,440)"/>
<path d="M0 0 C2.31 0 4.62 0 7 0 C7 0.99 7 1.98 7 3 C5.35 3 3.7 3 2 3 C2 3.66 2 4.32 2 5 C2.66 5 3.32 5 4 5 C4 5.66 4 6.32 4 7 C2.68 6.67 1.36 6.34 0 6 C0 4.02 0 2.04 0 0 Z " fill="#8ACB76" transform="translate(1526,446)"/>
<path d="M0 0 C0.66 0 1.32 0 2 0 C0.84826645 2.46800047 -0.04783565 4.04783565 -2 6 C-2.40047444 8.32275177 -2.7397104 10.65739357 -3 13 C-3.33 13 -3.66 13 -4 13 C-4 10.69 -4 8.38 -4 6 C-6.31 6 -8.62 6 -11 6 C-11 5.67 -11 5.34 -11 5 C-9.39125 4.87625 -9.39125 4.87625 -7.75 4.75 C-3.66499825 3.93299965 -2.65108323 3.0438363 0 0 Z " fill="#C5F9C5" transform="translate(803,440)"/>
<path d="M0 0 C2.31 0.33 4.62 0.66 7 1 C7.33 2.32 7.66 3.64 8 5 C3.71 4.34 -0.58 3.68 -5 3 C-5 2.67 -5 2.34 -5 2 C-3.35 2 -1.7 2 0 2 C0 1.34 0 0.68 0 0 Z " fill="#212F1D" transform="translate(1529,430)"/>
<path d="M0 0 C1.65 0 3.3 0 5 0 C5.33 0.99 5.66 1.98 6 3 C5.67 3.66 5.34 4.32 5 5 C3.35 5 1.7 5 0 5 C0 3.35 0 1.7 0 0 Z " fill="#9DE686" transform="translate(1177,454)"/>
<path d="M0 0 C0.66 0 1.32 0 2 0 C2 1.32 2 2.64 2 4 C3.65 4 5.3 4 7 4 C7 3.34 7 2.68 7 2 C7.66 2 8.32 2 9 2 C8.67 3.32 8.34 4.64 8 6 C5.125 6.125 5.125 6.125 2 6 C1.34 5.34 0.68 4.68 0 4 C0 2.68 0 1.36 0 0 Z " fill="#1F2E1B" transform="translate(1175,455)"/>
<path d="M0 0 C0.99 1.485 0.99 1.485 2 3 C2.70125 3.680625 3.4025 4.36125 4.125 5.0625 C6 7 6 7 6 9 C4.02 9 2.04 9 0 9 C0 6.03 0 3.06 0 0 Z " fill="#9CE586" transform="translate(584,450)"/>
<path d="M0 0 C0.66 0.33 1.32 0.66 2 1 C1.17812739 5.38332057 0.09845718 9.67940177 -1 14 C-1.33 14 -1.66 14 -2 14 C-2.05437607 12.41705218 -2.09296271 10.83355744 -2.125 9.25 C-2.14820313 8.36828125 -2.17140625 7.4865625 -2.1953125 6.578125 C-1.99139502 3.8864142 -1.36551721 2.30095026 0 0 Z " fill="#0C110B" transform="translate(1509,439)"/>
<path d="M0 0 C0.33 0.66 0.66 1.32 1 2 C-0.98 2.66 -2.96 3.32 -5 4 C-5 3.67 -5 3.34 -5 3 C-7.64 2.67 -10.28 2.34 -13 2 C-13 1.67 -13 1.34 -13 1 C-11.20994059 0.63779734 -9.41787943 0.28547531 -7.625 -0.0625 C-6.12839844 -0.35833984 -6.12839844 -0.35833984 -4.6015625 -0.66015625 C-2 -1 -2 -1 0 0 Z " fill="#2A3D25" transform="translate(1537,467)"/>
<path d="M0 0 C1.65 0 3.3 0 5 0 C4.67 1.98 4.34 3.96 4 6 C3.01 6 2.02 6 1 6 C0.67 4.02 0.34 2.04 0 0 Z " fill="#3B5733" transform="translate(1515,445)"/>
<path d="M0 0 C-3.96 3.465 -3.96 3.465 -8 7 C-8.33 6.34 -8.66 5.68 -9 5 C-8 2 -8 2 -5.625 0.25 C-3 -1 -3 -1 0 0 Z " fill="#90D47B" transform="translate(1367,452)"/>
<path d="M0 0 C1.32 0.33 2.64 0.66 4 1 C3.67 1.99 3.34 2.98 3 4 C1.35 3.67 -0.3 3.34 -2 3 C-1.34 2.01 -0.68 1.02 0 0 Z " fill="#9DE787" transform="translate(1163,451)"/>
<path d="M0 0 C1.65 0 3.3 0 5 0 C5 1.98 5 3.96 5 6 C4.01 5.67 3.02 5.34 2 5 C2.66 5 3.32 5 4 5 C4 4.34 4 3.68 4 3 C2.68 2.67 1.36 2.34 0 2 C0 1.34 0 0.68 0 0 Z " fill="#476040" transform="translate(1528,449)"/>
<path d="M0 0 C0.33 0.66 0.66 1.32 1 2 C2.98 1.67 4.96 1.34 7 1 C7 1.99 7 2.98 7 4 C4.125 4.1875 4.125 4.1875 1 4 C0.34 3.01 -0.32 2.02 -1 1 C-0.67 0.67 -0.34 0.34 0 0 Z " fill="#3D5934" transform="translate(1347,444)"/>
<path d="M0 0 C2.97 0 5.94 0 9 0 C8.67 0.99 8.34 1.98 8 3 C5.6568787 2.74438677 3.32156597 2.40729228 1 2 C0.67 1.34 0.34 0.68 0 0 Z " fill="#2E4428" transform="translate(1350,455)"/>
<path d="M0 0 C0.99 0 1.98 0 3 0 C2.67 1.65 2.34 3.3 2 5 C1.01 4.67 0.02 4.34 -1 4 C-0.67 2.68 -0.34 1.36 0 0 Z " fill="#95DB80" transform="translate(182,449)"/>
</svg>
