<?xml version="1.0" encoding="UTF-8"?>
<svg version="1.1" xmlns="http://www.w3.org/2000/svg" width="1920" height="1080">
<path d="M0 0 C633.6 0 1267.2 0 1920 0 C1920 356.4 1920 712.8 1920 1080 C1286.4 1080 652.8 1080 0 1080 C0 723.6 0 367.2 0 0 Z " fill="#FEFEFE" transform="translate(0,0)"/>
<path d="M0 0 C0.76570313 0.50917969 1.53140625 1.01835937 2.3203125 1.54296875 C3.12726563 2.06246094 3.93421875 2.58195312 4.765625 3.1171875 C10.35921193 7.07700399 14.01115057 11.57843069 17.3203125 17.54296875 C17.94099609 18.64318359 17.94099609 18.64318359 18.57421875 19.765625 C21.74011773 26.02020592 21.3203125 28.86580068 21.3203125 36.54296875 C60.2603125 36.54296875 99.2003125 36.54296875 139.3203125 36.54296875 C139.3203125 33.90296875 139.3203125 31.26296875 139.3203125 28.54296875 C142.6455746 16.77212944 149.92300555 6.58135292 160.46875 0.25390625 C170.22389686 -4.78685737 182.36707781 -5.1897385 192.95703125 -2.55078125 C206.44228809 2.83641482 213.71179475 11.23041401 219.4375 24.3203125 C220.3203125 27.54296875 220.3203125 27.54296875 220.3203125 36.54296875 C259.2603125 36.54296875 298.2003125 36.54296875 338.3203125 36.54296875 C338.3203125 33.57296875 338.3203125 30.60296875 338.3203125 27.54296875 C341.83571914 14.71017901 349.38498266 6.1837077 360.41796875 -0.78125 C369.45197554 -5.32215288 381.80288484 -4.80189728 391.51953125 -2.796875 C401.68350874 0.88896299 410.61471327 9.05731786 415.5703125 18.60546875 C418.55911804 25.09366743 419.3203125 29.06150732 419.3203125 36.54296875 C457.9303125 36.54296875 496.5403125 36.54296875 536.3203125 36.54296875 C536.6503125 33.57296875 536.9803125 30.60296875 537.3203125 27.54296875 C542.01584776 15.84870847 549.79877587 8.01732721 561.14648438 2.68481445 C566.20683253 0.57946436 570.74212214 0.03071151 576.1953125 0.10546875 C577.38265991 0.11900391 577.38265991 0.11900391 578.59399414 0.1328125 C589.74965429 0.46257029 598.03118008 5.15510494 606.3203125 12.54296875 C612.65424952 19.81142107 616.3203125 26.80009726 616.3203125 36.54296875 C654.9303125 36.54296875 693.5403125 36.54296875 733.3203125 36.54296875 C733.6503125 32.91296875 733.9803125 29.28296875 734.3203125 25.54296875 C739.24388642 11.69020145 747.30061375 4.04363639 760.3203125 -2.45703125 C770.54104854 -5.49524112 783.35959951 -4.64222935 792.80859375 0.0625 C802.53315528 5.79439552 809.00837078 13.01740844 813.3203125 23.54296875 C814.3203125 27.54296875 814.3203125 27.54296875 814.3203125 36.54296875 C846.9903125 36.54296875 879.6603125 36.54296875 913.3203125 36.54296875 C913.3203125 33.57296875 913.3203125 30.60296875 913.3203125 27.54296875 C916.39129794 14.82547609 924.76336858 6.02620899 935.484375 -0.84375 C944.45099777 -5.35874556 956.87992293 -4.78600053 966.51953125 -2.796875 C976.95618276 0.98784478 985.4716037 9.25498825 990.60546875 18.9765625 C993.5041367 25.30376244 994.3203125 29.37652859 994.3203125 36.54296875 C1026.6603125 36.54296875 1059.0003125 36.54296875 1092.3203125 36.54296875 C1092.6503125 32.91296875 1092.9803125 29.28296875 1093.3203125 25.54296875 C1098.24388642 11.69020145 1106.30061375 4.04363639 1119.3203125 -2.45703125 C1129.54104854 -5.49524112 1142.35959951 -4.64222935 1151.80859375 0.0625 C1161.53315528 5.79439552 1168.00837078 13.01740844 1172.3203125 23.54296875 C1173.3203125 27.54296875 1173.3203125 27.54296875 1173.3203125 36.54296875 C1203.3503125 36.54296875 1233.3803125 36.54296875 1264.3203125 36.54296875 C1264.3203125 33.57296875 1264.3203125 30.60296875 1264.3203125 27.54296875 C1267.32632056 16.08477333 1275.95046739 6.28786308 1285.8828125 0.23046875 C1292.34784643 -2.94327518 1298.1776315 -3.79940543 1305.2578125 -3.76953125 C1306.01771484 -3.78564453 1306.77761719 -3.80175781 1307.56054688 -3.81835938 C1317.71106247 -3.82702762 1327.10035556 0.78761531 1334.55859375 7.58203125 C1344.46576884 18.14222165 1346.89273946 28.41951229 1346.66015625 42.43359375 C1346.2101702 52.62829849 1341.44903839 61.35908831 1334.3203125 68.54296875 C1324.06687123 77.01320284 1314.54700177 80.20430321 1301.3203125 79.54296875 C1290.03647054 78.45798395 1281.02608612 73.90655231 1273.3203125 65.54296875 C1267.00441582 57.1134846 1264.3203125 51.14187873 1264.3203125 40.54296875 C1234.2903125 40.54296875 1204.2603125 40.54296875 1173.3203125 40.54296875 C1172.9903125 42.85296875 1172.6603125 45.16296875 1172.3203125 47.54296875 C1169.49811912 58.37817548 1162.0113462 66.62637802 1152.54296875 72.359375 C1142.62354452 77.64159915 1130.83274288 78.24962561 1119.9453125 75.48046875 C1110.21348875 71.9802834 1101.50220518 64.81584289 1096.81640625 55.578125 C1094.58723901 50.44024381 1093.25127657 46.12875316 1092.3203125 40.54296875 C1059.6503125 40.54296875 1026.9803125 40.54296875 993.3203125 40.54296875 C993.3203125 42.85296875 993.3203125 45.16296875 993.3203125 47.54296875 C989.64302651 58.21266977 982.84717988 67.25017223 972.7890625 72.47265625 C971.974375 72.82585937 971.1596875 73.1790625 970.3203125 73.54296875 C969.45164551 73.9292041 969.45164551 73.9292041 968.56542969 74.32324219 C963.50228706 76.42393432 959.03279866 77.08909063 953.5703125 77.04296875 C952.7860791 77.03797363 952.0018457 77.03297852 951.19384766 77.02783203 C941.01246333 76.7251253 931.60992021 72.7381107 924.3203125 65.54296875 C918.17481156 58.26174895 913.3203125 50.2204294 913.3203125 40.54296875 C880.6503125 40.54296875 847.9803125 40.54296875 814.3203125 40.54296875 C813.9903125 42.85296875 813.6603125 45.16296875 813.3203125 47.54296875 C810.49811912 58.37817548 803.0113462 66.62637802 793.54296875 72.359375 C783.62354452 77.64159915 771.83274288 78.24962561 760.9453125 75.48046875 C751.21348875 71.9802834 742.50220518 64.81584289 737.81640625 55.578125 C735.58723901 50.44024381 734.25127657 46.12875316 733.3203125 40.54296875 C694.7103125 40.54296875 656.1003125 40.54296875 616.3203125 40.54296875 C616.3203125 43.51296875 616.3203125 46.48296875 616.3203125 49.54296875 C614.03068995 60.3511249 607.52713294 68.6832891 598.6640625 75.03515625 C588.04378793 81.86753289 575.37737472 82.41188635 563.12109375 79.8828125 C552.67190435 76.09354601 543.84662061 67.7625108 539 57.83984375 C536.43732709 51.42420108 536.3203125 47.98753084 536.3203125 40.54296875 C497.7103125 40.54296875 459.1003125 40.54296875 419.3203125 40.54296875 C417.8353125 46.48296875 417.8353125 46.48296875 416.3203125 52.54296875 C411.22131944 62.74095487 404.07685652 70.34021848 393.3203125 74.54296875 C392.42957031 74.89746094 391.53882813 75.25195312 390.62109375 75.6171875 C380.80618538 78.37000795 369.13217476 77.70894673 360 73.21875 C349.36440023 66.56762419 342.10388761 57.79384416 338.765625 45.70703125 C338.3203125 43.54296875 338.3203125 43.54296875 338.3203125 40.54296875 C299.3803125 40.54296875 260.4403125 40.54296875 220.3203125 40.54296875 C219.9903125 42.85296875 219.6603125 45.16296875 219.3203125 47.54296875 C216.49811912 58.37817548 209.0113462 66.62637802 199.54296875 72.359375 C189.62354452 77.64159915 177.83274288 78.24962561 166.9453125 75.48046875 C157.21444362 71.98062683 148.46072461 64.80747913 143.81640625 55.54296875 C141.79319833 50.83944264 140.32871646 46.58498854 139.3203125 41.54296875 C100.3803125 41.21296875 61.4403125 40.88296875 21.3203125 40.54296875 C20.9903125 43.18296875 20.6603125 45.82296875 20.3203125 48.54296875 C15.81654182 60.41121135 9.58223269 67.84291712 -1.6796875 73.54296875 C-2.35515625 73.88585937 -3.030625 74.22875 -3.7265625 74.58203125 C-11.75153483 77.91021745 -23.93549829 78.22311934 -32.1171875 75.41796875 C-33.3259956 74.83524736 -34.51318044 74.20632577 -35.6796875 73.54296875 C-36.89011719 72.92228516 -36.89011719 72.92228516 -38.125 72.2890625 C-47.8537983 66.96000433 -53.482049 59.74218958 -57.6796875 49.54296875 C-60.63930729 39.22479676 -59.87814239 25.94017567 -54.6796875 16.54296875 C-49.33510165 7.97224688 -41.4854607 0.67161739 -31.875 -2.79296875 C-21.52316509 -4.94432808 -9.40587724 -5.26316329 0 0 Z " fill="#258D25" transform="translate(221.6796875,412.45703125)"/>
<path d="M0 0 C8.43736884 5.77793551 14.2417894 14.75231383 16.70703125 24.61328125 C16.70703125 27.58328125 16.70703125 30.55328125 16.70703125 33.61328125 C49.37703125 33.61328125 82.04703125 33.61328125 115.70703125 33.61328125 C115.70703125 30.64328125 115.70703125 27.67328125 115.70703125 24.61328125 C118.77801669 11.89578859 127.15008733 3.09652149 137.87109375 -3.7734375 C146.83771652 -8.28843306 159.26664168 -7.71568803 168.90625 -5.7265625 C179.34290151 -1.94184272 187.85832245 6.32530075 192.9921875 16.046875 C195.89085545 22.37407494 196.70703125 26.44684109 196.70703125 33.61328125 C229.04703125 33.61328125 261.38703125 33.61328125 294.70703125 33.61328125 C295.03703125 29.98328125 295.36703125 26.35328125 295.70703125 22.61328125 C300.63060517 8.76051395 308.6873325 1.11394889 321.70703125 -5.38671875 C331.92776729 -8.42492862 344.74631826 -7.57191685 354.1953125 -2.8671875 C363.91987403 2.86470802 370.39508953 10.08772094 374.70703125 20.61328125 C375.70703125 24.61328125 375.70703125 24.61328125 375.70703125 33.61328125 C405.73703125 33.61328125 435.76703125 33.61328125 466.70703125 33.61328125 C466.70703125 30.64328125 466.70703125 27.67328125 466.70703125 24.61328125 C469.71303931 13.15508583 478.33718614 3.35817558 488.26953125 -2.69921875 C494.73456518 -5.87296268 500.56435025 -6.72909293 507.64453125 -6.69921875 C508.40443359 -6.71533203 509.16433594 -6.73144531 509.94726562 -6.74804688 C520.09778122 -6.75671512 529.48707431 -2.14207219 536.9453125 4.65234375 C546.85248759 15.21253415 549.27945821 25.48982479 549.046875 39.50390625 C548.59688895 49.69861099 543.83575714 58.42940081 536.70703125 65.61328125 C526.45358998 74.08351534 516.93372052 77.27461571 503.70703125 76.61328125 C492.42318929 75.52829645 483.41280487 70.97686481 475.70703125 62.61328125 C469.39113457 54.1837971 466.70703125 48.21219123 466.70703125 37.61328125 C436.67703125 37.61328125 406.64703125 37.61328125 375.70703125 37.61328125 C375.37703125 39.92328125 375.04703125 42.23328125 374.70703125 44.61328125 C371.88483787 55.44848798 364.39806495 63.69669052 354.9296875 69.4296875 C345.01026327 74.71191165 333.21946163 75.31993811 322.33203125 72.55078125 C312.6002075 69.0505959 303.88892393 61.88615539 299.203125 52.6484375 C296.97395776 47.51055631 295.63799532 43.19906566 294.70703125 37.61328125 C262.03703125 37.61328125 229.36703125 37.61328125 195.70703125 37.61328125 C195.70703125 39.92328125 195.70703125 42.23328125 195.70703125 44.61328125 C192.02974526 55.28298227 185.23389863 64.32048473 175.17578125 69.54296875 C174.36109375 69.89617187 173.54640625 70.249375 172.70703125 70.61328125 C172.12791992 70.87077148 171.54880859 71.12826172 170.95214844 71.39355469 C165.88900581 73.49424682 161.41951741 74.15940313 155.95703125 74.11328125 C155.17279785 74.10828613 154.38856445 74.10329102 153.58056641 74.09814453 C143.39918208 73.7954378 133.99663896 69.8084232 126.70703125 62.61328125 C120.56153031 55.33206145 115.70703125 47.2907419 115.70703125 37.61328125 C83.03703125 37.61328125 50.36703125 37.61328125 16.70703125 37.61328125 C16.37703125 39.92328125 16.04703125 42.23328125 15.70703125 44.61328125 C12.88483787 55.44848798 5.39806495 63.69669052 -4.0703125 69.4296875 C-13.98973673 74.71191165 -25.78053837 75.31993811 -36.66796875 72.55078125 C-47.46693927 68.66678177 -56.07517023 60.56357499 -61.23046875 50.42578125 C-65.13659279 40.1183168 -65.6068201 26.71550659 -61.13500977 16.50952148 C-55.63422742 5.73808398 -47.98372223 -0.04888133 -37.29296875 -5.38671875 C-24.59291247 -9.16192987 -11.07968747 -6.70066278 0 0 Z " fill="#258D25" transform="translate(1019.29296875,415.38671875)"/>
<path d="M0 0 C6.65030071 3.80732847 12.61630901 9.95307707 14.72265625 17.515625 C16.1441558 28.31902161 15.76132106 37.13726255 9.671875 46.296875 C4.36482077 53.1999382 -2.8137262 57.33453027 -11.390625 58.765625 C-21.20086484 59.24258694 -28.95007344 56.552297 -36.34375 50.06640625 C-43.8945672 42.13048362 -45.44507667 35.2813338 -45.4206543 24.4831543 C-45.2069427 18.3207974 -43.76696396 14.08017965 -39.92578125 9.1875 C-39.24515625 8.135625 -38.56453125 7.08375 -37.86328125 6 C-28.33485147 -4.53142239 -12.37319431 -5.89004952 0 0 Z " fill="#99E384" transform="translate(1541.92578125,423.8125)"/>
<path d="M0 0 C0.75990234 -0.01611328 1.51980469 -0.03222656 2.30273438 -0.04882812 C12.45324997 -0.05749637 21.84254306 4.55714656 29.30078125 11.3515625 C39.20795634 21.9117529 41.63492696 32.18904354 41.40234375 46.203125 C40.9523577 56.39782974 36.19122589 65.12861956 29.0625 72.3125 C18.80905873 80.78273409 9.28918927 83.97383446 -3.9375 83.3125 C-15.22134196 82.2275152 -24.23172638 77.67608356 -31.9375 69.3125 C-38.25339668 60.88301585 -40.9375 54.91140998 -40.9375 44.3125 C-70.9675 44.3125 -100.9975 44.3125 -131.9375 44.3125 C-131.9375 42.9925 -131.9375 41.6725 -131.9375 40.3125 C-101.9075 40.3125 -71.8775 40.3125 -40.9375 40.3125 C-40.9375 37.3425 -40.9375 34.3725 -40.9375 31.3125 C-37.93149194 19.85430458 -29.30734511 10.05739433 -19.375 4 C-12.90996607 0.82625607 -7.080181 -0.02987418 0 0 Z M-24 22.8125 C-25.57266223 24.96101434 -25.57266223 24.96101434 -26.9375 27.3125 C-27.48535156 28.22257812 -28.03320312 29.13265625 -28.59765625 30.0703125 C-30.26270335 34.09943522 -30.39682807 37.37628709 -30.3125 41.6875 C-30.30017334 42.44554932 -30.28784668 43.20359863 -30.27514648 43.98461914 C-29.98372844 53.65990727 -27.28783332 58.95351639 -20.51171875 66.03515625 C-13.38941104 72.33607491 -5.84851826 74.24342135 3.56640625 73.8515625 C12.74502575 72.43631167 19.77110877 67.77689771 25.50390625 60.578125 C30.87007378 52.77768098 30.83831037 44.56177163 30.0625 35.3125 C27.68020539 26.49800995 23.07053362 20.37739094 15.40625 15.50390625 C1.97563101 8.67667493 -14.36051505 10.91910625 -24 22.8125 Z " fill="#2A8F28" transform="translate(1526.9375,408.6875)"/>
<path d="M0 0 C6.09956172 4.35810559 10.62477729 10.69498604 12.66796875 17.90625 C13.70141826 27.73693848 12.12393375 35.27430704 6.98046875 43.65625 C0.67417875 49.79209973 -6.26044333 53.87705431 -15.14453125 54.21875 C-23.86241253 53.99655512 -31.06222385 51.01178297 -37.33203125 44.90625 C-43.8104662 36.52045857 -45.58361789 28.43951455 -44.33203125 17.90625 C-41.8798376 10.37513571 -38.11901668 4.13237288 -31.33203125 -0.09375 C-30.67589844 -0.50367188 -30.01976562 -0.91359375 -29.34375 -1.3359375 C-19.610598 -6.49610949 -9.38417087 -5.25612741 0 0 Z " fill="#9EE987" transform="translate(616.33203125,424.09375)"/>
<path d="M0 0 C3.66637403 2.49754502 6.19352901 5.05985147 8.59765625 8.76953125 C9.00757813 9.32898438 9.4175 9.8884375 9.83984375 10.46484375 C13.88530502 16.90968204 13.57484527 24.45180281 12.59765625 31.76953125 C9.60807505 41.03406381 4.75016885 46.78107394 -3.52734375 51.58203125 C-11.33286286 54.80605001 -19.40060113 54.70551499 -27.2734375 51.734375 C-35.3398663 48.07858066 -40.31166791 42.10757988 -43.5390625 33.8671875 C-46.11073597 24.63941799 -44.83260133 16.63928126 -40.16796875 8.3671875 C-37.66873139 4.69021218 -35.17203078 2.11684152 -31.40234375 -0.23046875 C-30.74621094 -0.64039063 -30.09007812 -1.0503125 -29.4140625 -1.47265625 C-19.56915851 -6.69207518 -9.4538408 -5.31856393 0 0 Z " fill="#9EE987" transform="translate(417.40234375,424.23046875)"/>
<path d="M0 0 C4.95871871 2.7896876 8.47658065 5.66556511 11.5625 10.4375 C11.97242188 11.00855469 12.38234375 11.57960938 12.8046875 12.16796875 C16.66325131 18.4081978 16.34467721 25.34203533 15.5625 32.4375 C13.71508015 40.08664848 9.90341175 46.48475967 3.3515625 50.94140625 C-4.06929885 55.26818753 -11.17681364 56.43526262 -19.66796875 55.08203125 C-27.32338636 53.06316891 -33.91438919 47.72014862 -37.921875 40.91796875 C-38.87556623 38.7790743 -39.69186709 36.65564066 -40.4375 34.4375 C-40.7675 33.7775 -41.0975 33.1175 -41.4375 32.4375 C-42.19296074 24.49896994 -41.47005371 18.3314367 -37.4375 11.4375 C-37.09847656 10.81101562 -36.75945313 10.18453125 -36.41015625 9.5390625 C-28.81803528 -2.83528413 -12.59488914 -5.9195979 0 0 Z " fill="#9EE987" transform="translate(1008.4375,422.5625)"/>
<path d="M0 0 C5.62540521 3.87106947 10.14603568 8.83635897 12.23046875 15.44140625 C13.85844905 24.35169131 13.70820264 33.11947323 8.66796875 40.8359375 C3.98285823 47.46625847 -1.0000685 51.15215979 -8.70703125 53.5859375 C-19.22938682 54.5880666 -26.18556126 53.69363903 -34.51953125 46.8984375 C-40.72152889 41.0213519 -44.44048272 33.77756463 -44.83203125 25.1484375 C-44.22843686 15.89332359 -40.28027942 8.40017181 -33.51953125 2.1484375 C-23.19455297 -6.39898041 -11.5234349 -6.48478635 0 0 Z " fill="#9EE988" transform="translate(218.33203125,424.1640625)"/>
<path d="M0 0 C6.75827844 3.81213328 11.65467029 8.40458706 14.5625 15.6875 C17.22920277 25.51041779 16.39513105 34.04130661 11.38671875 42.90234375 C6.74253346 49.75020011 0.61123964 53.42474357 -7.375 55.5 C-15.95928337 56.68654411 -22.48996302 54.90980881 -29.53515625 49.9921875 C-35.46927399 45.22270969 -39.93165556 39.09199173 -41.375 31.5 C-42.11033377 23.84529597 -41.13914864 18.18890524 -37.375 11.5 C-36.818125 10.448125 -36.26125 9.39625 -35.6875 8.3125 C-26.74938228 -2.55818371 -12.79593118 -5.92314802 0 0 Z " fill="#3CEA3C" transform="translate(1367.375,422.5)"/>
<path d="M0 0 C6.10238063 5.67300203 10.01134893 12.92871502 10.33203125 21.328125 C10.2332324 29.61625083 7.32460556 37.2936645 1.64453125 43.390625 C-4.7328184 49.11209842 -11.86477325 51.72497377 -20.35546875 51.6015625 C-29.4201282 50.89009214 -36.20821696 46.43266067 -42.35546875 39.953125 C-47.72973873 31.79219652 -48.01149741 23.89725094 -47.04296875 14.390625 C-44.90315058 6.50327588 -39.64520733 1.00314784 -33.04296875 -3.609375 C-21.42743052 -8.85286161 -10.01160147 -7.88676827 0 0 Z " fill="#9EE988" transform="translate(1194.04296875,426.609375)"/>
<path d="M0 0 C1.12607666 0.00966797 1.12607666 0.00966797 2.27490234 0.01953125 C9.80193215 0.26626589 15.22442428 2.22960881 20.80078125 7.40234375 C27.11504858 14.21338574 30.12300627 20.97896266 29.96484375 30.328125 C29.20034486 38.05651383 25.64881416 46.24978708 19.63671875 51.26171875 C11.39283489 56.98394402 3.73565063 58.62779113 -6.25 57.5 C-14.03105736 55.08593234 -20.30981889 50.28979059 -24.56640625 43.35546875 C-28.35366943 35.39825725 -28.83889979 26.00623336 -26.40234375 17.5625 C-21.50462957 6.67131185 -11.97796241 -0.10706559 0 0 Z " fill="#9EE988" transform="translate(797.25,424.5)"/>
<path d="M0 0 C10.65054803 7.06538818 17.46922868 15.6801842 21 28 C22.17197445 40.84605764 19.78936158 51.63676241 12 62 C7.07716881 67.28748535 1.74436209 71.36487206 -5 74 C-5.89074219 74.35449219 -6.78148437 74.70898438 -7.69921875 75.07421875 C-17.51412712 77.8270392 -29.18813774 77.16597798 -38.3203125 72.67578125 C-48.31141827 66.42769907 -56.52958311 57.52245819 -59.5234375 45.92578125 C-61.65975573 32.81018817 -59.85311419 21.7948428 -52.25 10.6875 C-40.30260966 -3.9724356 -16.8857981 -10.69119433 0 0 Z M-42.8203125 18.109375 C-43.20960938 18.73328125 -43.59890625 19.3571875 -44 20 C-44.40992188 20.64453125 -44.81984375 21.2890625 -45.2421875 21.953125 C-48.81933273 28.61401612 -49.05748044 35.61378165 -48 43 C-44.95106559 52.25453942 -40.16824094 58.00242025 -31.875 62.8125 C-24.37526139 65.91021812 -16.37068738 66.16307386 -8.75 63.3125 C-0.31418139 59.5236425 4.76742836 53.74201759 8.11328125 45.13671875 C10.164459 37.88079041 10.10574174 30.40788614 6.8125 23.5625 C5.91059458 22.02029156 4.97586369 20.49650604 4 19 C2.9790625 17.39125 2.9790625 17.39125 1.9375 15.75 C-3.53506379 9.78303014 -11.55253099 6.65119435 -19.5 6.25 C-28.56932248 6.71816431 -37.35936133 10.67731128 -42.8203125 18.109375 Z " fill="#258C25" transform="translate(620,413)"/>
<path d="M0 0 C8.26933043 5.6628623 14.54086799 14.79514346 16.70703125 24.61328125 C17.67130271 38.3885878 16.73274152 49.03936931 7.45703125 59.98828125 C-0.71305057 68.41536896 -9.25612467 73.55785254 -21.12231445 73.96508789 C-34.38749865 74.11102796 -43.41391966 70.72588588 -53.30078125 61.80078125 C-61.95873079 52.805509 -64.10282678 42.60689395 -64.02539062 30.48706055 C-63.57820423 20.28699551 -59.94566924 12.34152317 -53.10546875 4.67578125 C-37.73869462 -9.04954201 -17.47924791 -10.57092506 0 0 Z M-47.98046875 18.05078125 C-52.40236313 24.54456954 -53.12272637 30.89338437 -52.29296875 38.61328125 C-50.1482857 47.33328 -45.23984087 53.55244164 -38.23046875 58.98828125 C-30.99768023 62.9893983 -23.67290105 63.989543 -15.60546875 61.92578125 C-7.30777118 58.89003824 -2.21010344 54.75513493 2.14453125 47.05078125 C5.81862061 39.13282396 5.91101174 31.2559222 3.70703125 22.86328125 C0.80232094 15.54771455 -4.5477606 10.1436446 -11.48046875 6.55078125 C-26.27508906 0.66981722 -38.74109604 5.9007391 -47.98046875 18.05078125 Z " fill="#248C24" transform="translate(1378.29296875,415.38671875)"/>
<path d="M0 0 C8.26933043 5.6628623 14.54086799 14.79514346 16.70703125 24.61328125 C17.67130271 38.3885878 16.73274152 49.03936931 7.45703125 59.98828125 C-0.71305057 68.41536896 -9.25612467 73.55785254 -21.12231445 73.96508789 C-34.38749865 74.11102796 -43.41391966 70.72588588 -53.30078125 61.80078125 C-61.95873079 52.805509 -64.10282678 42.60689395 -64.02539062 30.48706055 C-63.57820423 20.28699551 -59.94566924 12.34152317 -53.10546875 4.67578125 C-37.73869462 -9.04954201 -17.47924791 -10.57092506 0 0 Z M-47.98046875 18.05078125 C-52.59194028 24.8374752 -53.11419046 31.55699234 -52.29296875 39.61328125 C-50.0900291 48.04249345 -44.36006815 54.81485164 -37.16796875 59.55078125 C-34.187574 61.24897941 -31.75794357 62.35974651 -28.29296875 62.61328125 C-27.63683594 62.66355469 -26.98070312 62.71382812 -26.3046875 62.765625 C-17.73717159 63.13555228 -10.76683157 60.71804563 -4.08203125 55.3515625 C2.21256473 49.2356341 4.97749863 41.54897738 5.14453125 32.86328125 C5.00339931 24.98479842 3.14718316 19.49467003 -2.08984375 13.5859375 C-8.47892357 7.54186799 -14.91387772 4.44400949 -23.73046875 4.05078125 C-34.57096418 4.40579163 -41.58496779 9.64051265 -47.98046875 18.05078125 Z " fill="#258C25" transform="translate(1019.29296875,415.38671875)"/>
<path d="M0 0 C1.67381019 0.29537827 3.33911955 0.63893903 5 1 C6.85625 1.2475 6.85625 1.2475 8.75 1.5 C12 2 12 2 13 3 C13.25156269 6.63899175 13.18522226 10.29083673 13.1875 13.9375 C13.19974609 14.96552734 13.21199219 15.99355469 13.22460938 17.05273438 C13.22750977 18.52516602 13.22750977 18.52516602 13.23046875 20.02734375 C13.23457764 20.93218506 13.23868652 21.83702637 13.24291992 22.76928711 C13 25 13 25 11 27 C9.68 27 8.36 27 7 27 C7 27.66 7 28.32 7 29 C5.35 29 3.7 29 2 29 C1.67 29.99 1.34 30.98 1 32 C1 31.01 1 30.02 1 29 C-0.32 29 -1.64 29 -3 29 C-3 28.34 -3 27.68 -3 27 C-3.78375 27.04125 -4.5675 27.0825 -5.375 27.125 C-8 27 -8 27 -10 25 C-10.25878906 22.87695312 -10.25878906 22.87695312 -10.265625 20.28125 C-10.26820313 19.34925781 -10.27078125 18.41726563 -10.2734375 17.45703125 C-10.26570313 16.48121094 -10.25796875 15.50539063 -10.25 14.5 C-10.25773437 13.52417969 -10.26546875 12.54835938 -10.2734375 11.54296875 C-10.27085937 10.61097656 -10.26828125 9.67898438 -10.265625 8.71875 C-10.26336914 7.86216797 -10.26111328 7.00558594 -10.25878906 6.12304688 C-10 4 -10 4 -8 2 C-5.67182036 1.63239269 -3.3381615 1.29758419 -1 1 C-0.67 0.67 -0.34 0.34 0 0 Z " fill="#9DE787" transform="translate(400,433)"/>
<path d="M0 0 C2.76733167 1.38093671 3.91528342 2.58611764 6 5 C6 6.32 6 7.64 6 9 C6.78375 8.95875 7.5675 8.9175 8.375 8.875 C11 9 11 9 13 11 C12.8125 13.0625 12.8125 13.0625 12 15 C11.01 15.33 10.02 15.66 9 16 C9.825 16.556875 10.65 17.11375 11.5 17.6875 C14 20 14 20 14.5625 22.5625 C14 25 14 25 12.375 26.8125 C9.22570479 28.38714761 7.48944807 28.55831169 4 28 C1.0771666 26.16899068 -1.43323854 24.13352292 -3 21 C-3.53625 21.495 -4.0725 21.99 -4.625 22.5 C-7.66673285 24.42109443 -9.46049143 24.45185216 -13 24 C-14.9375 22.8125 -14.9375 22.8125 -16 21 C-15.73865785 17.602552 -14.64391844 14.95905318 -13 12 C-13.66 11.34 -14.32 10.68 -15 10 C-15.4375 7.125 -15.4375 7.125 -15 4 C-11.09715018 -0.94360977 -5.8429515 -1.09031152 0 0 Z " fill="#172214" transform="translate(1176,435)"/>
<path d="M0 0 C0.33 0 0.66 0 1 0 C1 3.96 1 7.92 1 12 C0.505 11.01 0.505 11.01 0 10 C-38.28 10 -76.56 10 -116 10 C-116 8.68 -116 7.36 -116 6 C-77.72 6 -39.44 6 0 6 C0 4.02 0 2.04 0 0 Z " fill="#3CEA3C" transform="translate(955,443)"/>
<path d="M0 0 C38.94 0 77.88 0 118 0 C118 1.32 118 2.64 118 4 C79.06 4 40.12 4 0 4 C0 2.68 0 1.36 0 0 Z " fill="#3BEB3B" transform="translate(442,449)"/>
<path d="M0 0 C38.94 0 77.88 0 118 0 C118 1.32 118 2.64 118 4 C79.06 4 40.12 4 0 4 C0 2.68 0 1.36 0 0 Z " fill="#3BEB3B" transform="translate(243,449)"/>
<path d="M0 0 C38.61 0 77.22 0 117 0 C117 1.32 117 2.64 117 4 C78.39 4 39.78 4 0 4 C0 2.68 0 1.36 0 0 Z " fill="#3BEB3B" transform="translate(641,449)"/>
<path d="M0 0 C0.33 0 0.66 0 1 0 C1 2.31 1 4.62 1 7 C33.34 7 65.68 7 99 7 C99 5.02 99 3.04 99 1 C99.33 1 99.66 1 100 1 C100 4.96 100 8.92 100 13 C99.505 12.01 99.505 12.01 99 11 C66.33 11 33.66 11 0 11 C0 7.37 0 3.74 0 0 Z " fill="#3DE83D" transform="translate(1215,442)"/>
<path d="M0 0 C32.67 0 65.34 0 99 0 C99 1.32 99 2.64 99 4 C66.33 4 33.66 4 0 4 C0 2.68 0 1.36 0 0 Z " fill="#3BEB3B" transform="translate(1036,449)"/>
<path d="M0 0 C30.03 0 60.06 0 91 0 C91 1.32 91 2.64 91 4 C60.97 4 30.94 4 0 4 C0 2.68 0 1.36 0 0 Z " fill="#49E949" transform="translate(1395,449)"/>
<path d="M0 0 C2.74609375 1.4921875 2.74609375 1.4921875 5 3 C7.69254991 3.70670728 7.69254991 3.70670728 10 4 C10 6.31 10 8.62 10 11 C5.25 10.125 5.25 10.125 3 9 C3 8.01 3 7.02 3 6 C-2.36688164 3.57374248 -7.18415809 3.3072306 -13 4 C-18.00230198 6.45567552 -21.49851535 9.9970307 -24 15 C-24.56088092 20.99711135 -24.45741843 25.87348302 -21 31 C-17.70950291 34.70180922 -15.61903002 36.74190496 -10.58203125 37.23828125 C-4.31807713 37.40614462 1.04781324 37.19121243 6 33 C8.98600846 28.8106747 10.53174525 23.89418249 12 19 C12.66 19 13.32 19 14 19 C13.80301392 26.73618062 11.91703942 32.10188347 6.3828125 37.609375 C1.16918991 41.59231414 -4.25431364 41.73658939 -10.65234375 41.4765625 C-16.43507014 40.65335058 -19.95552805 38.59411642 -23.5546875 34.02734375 C-27.30766339 28.3554734 -29.00009636 22.87125031 -28 16 C-25.92876466 9.45287561 -22.69462132 4.52985517 -16.73828125 0.99609375 C-11.33082699 -0.97095452 -5.63730126 -0.8782752 0 0 Z " fill="#131B10" transform="translate(1534,430)"/>
<path d="M0 0 C3.99709639 0.15083383 6.30851272 0.43262582 9.4375 3 C11.23312417 6.4475984 11.87440624 8.89758221 11.71875 12.76953125 C10.49518971 16.56655803 7.72328342 18.05406114 4.45703125 20.1015625 C1.43307985 21.2072999 0.02026682 21.07139481 -3 20 C-4.984375 18.44140625 -4.984375 18.44140625 -6.75 16.5625 C-7.34296875 15.94503906 -7.9359375 15.32757813 -8.546875 14.69140625 C-10.51850486 12.3964715 -10.97838829 11.16568977 -11.375 8.125 C-11 5 -11 5 -8.8125 2.625 C-5.80858719 0.88940593 -4.38481707 0.71793191 -1 1 C-0.67 0.67 -0.34 0.34 0 0 Z " fill="#21311D" transform="translate(203,445)"/>
<path d="M0 0 C0.66 0.33 1.32 0.66 2 1 C1.360625 1.495 0.72125 1.99 0.0625 2.5 C-2.36551321 4.93672063 -2.36551321 4.93672063 -2.1875 8.69921875 C-2.75093545 14.18881466 -6.10878316 16.79164366 -10.0625 20.3125 C-11.37213176 21.51013216 -12.67584978 22.71427346 -13.97265625 23.92578125 C-14.55281494 24.44567627 -15.13297363 24.96557129 -15.73071289 25.5012207 C-17.32313269 27.05421739 -17.32313269 27.05421739 -17 30 C-17.598125 29.67 -18.19625 29.34 -18.8125 29 C-21.05386471 27.79212012 -21.05386471 27.79212012 -24 28 C-24.33 28.99 -24.66 29.98 -25 31 C-26.65 29.02 -28.3 27.04 -30 25 C-28.68 25 -27.36 25 -26 25 C-26.309375 24.401875 -26.61875 23.80375 -26.9375 23.1875 C-28 21 -28 21 -29 18 C-27.68 18 -26.36 18 -25 18 C-23.4049383 16.84179678 -23.4049383 16.84179678 -22.046875 15.19140625 C-21.24056641 14.31838867 -21.24056641 14.31838867 -20.41796875 13.42773438 C-19.31485693 12.19416086 -18.21835992 10.95463682 -17.12890625 9.70898438 C-12.84959778 5.10949012 -10.23535967 4.36525119 -4 4 C-1.51565849 2.10473223 -1.51565849 2.10473223 0 0 Z " fill="#131D11" transform="translate(810,440)"/>
<path d="M0 0 C1.67542976 0.28604898 3.34385343 0.61781233 5 1 C5.09765625 7.15234375 5.09765625 7.15234375 5 9 C4.67 9.33 4.34 9.66 4 10 C3.71372691 13.0035954 3.55134245 16.00740107 3.37890625 19.01953125 C3.01130249 21.91109488 2.65960795 23.62531982 1 26 C-2.13798267 28.19105839 -4.86478426 28.24324444 -8.625 28.1875 C-9.58664062 28.18105469 -10.54828125 28.17460937 -11.5390625 28.16796875 C-14 28 -14 28 -16 27 C-16 26.34 -16 25.68 -16 25 C-17.134375 24.87625 -18.26875 24.7525 -19.4375 24.625 C-20.613125 24.41875 -21.78875 24.2125 -23 24 C-24.70913373 20.58173253 -24.18458479 16.76645237 -24.1875 13 C-24.19974609 12.16726563 -24.21199219 11.33453125 -24.22460938 10.4765625 C-24.22654297 9.67992187 -24.22847656 8.88328125 -24.23046875 8.0625 C-24.23457764 7.33160156 -24.23868652 6.60070312 -24.24291992 5.84765625 C-24 4 -24 4 -22 2 C-19.875 2.375 -19.875 2.375 -18 3 C-19.32 3.33 -20.64 3.66 -22 4 C-21.20700294 6.17038477 -21.20700294 6.17038477 -19.15234375 6.6328125 C-18.42144531 6.79523438 -17.69054687 6.95765625 -16.9375 7.125 C-16.20402344 7.29257812 -15.47054687 7.46015625 -14.71484375 7.6328125 C-14.14894531 7.75398438 -13.58304688 7.87515625 -13 8 C-14.32 8.33 -15.64 8.66 -17 9 C-17 13.62 -17 18.24 -17 23 C-15.02 22.67 -13.04 22.34 -11 22 C-11.495 21.649375 -11.99 21.29875 -12.5 20.9375 C-14.73063966 18.05625711 -14.19980621 15.52990974 -14 12 C-12.68 11.34 -11.36 10.68 -10 10 C-10.350625 10.5775 -10.70125 11.155 -11.0625 11.75 C-12.14917407 14.35801776 -11.93065133 15.39417629 -11 18 C-9.35 18 -7.7 18 -6 18 C-5.84850702 14.37114676 -5.84850702 14.37114676 -7 11 C-5.68 11.66 -4.36 12.32 -3 13 C-3.25 15.875 -3.25 15.875 -4 19 C-6 20.1875 -6 20.1875 -8 21 C-8.33 21.99 -8.66 22.98 -9 24 C-11.0625 25.1875 -11.0625 25.1875 -13 26 C-11.58506449 26.10884119 -10.16767057 26.18597617 -8.75 26.25 C-7.96109375 26.29640625 -7.1721875 26.3428125 -6.359375 26.390625 C-3.04553977 25.84197678 -1.96003106 24.69337602 0 22 C0.51931082 19.02553277 0.51931082 19.02553277 0.3125 15.875 C0.28800781 14.82054687 0.26351562 13.76609375 0.23828125 12.6796875 C0.16751144 10.0298271 0.16751144 10.0298271 -1 8 C-1.125 4.4375 -1.125 4.4375 -1 1 C-0.67 0.67 -0.34 0.34 0 0 Z " fill="#151F12" transform="translate(610,435)"/>
<path d="M0 0 C0.804375 0.144375 1.60875 0.28875 2.4375 0.4375 C8.5678163 1.40544468 14.95900832 1.61093111 21 0 C21.66 1.32 22.32 2.64 23 4 C20 6 20 6 16 6 C16 11.94 16 17.88 16 24 C11.45700947 25.13574763 9.54299053 25.13574763 5 24 C5 18.06 5 12.12 5 6 C3.35 5.67 1.7 5.34 0 5 C-0.5625 3.0625 -0.5625 3.0625 -1 1 C-0.67 0.67 -0.34 0.34 0 0 Z " fill="#162113" transform="translate(985,442)"/>
<path d="M0 0 C1.67381019 0.29537827 3.33911955 0.63893903 5 1 C6.85625 1.2475 6.85625 1.2475 8.75 1.5 C12 2 12 2 13 3 C13.25156269 6.63899175 13.18522226 10.29083673 13.1875 13.9375 C13.19974609 14.96552734 13.21199219 15.99355469 13.22460938 17.05273438 C13.22750977 18.52516602 13.22750977 18.52516602 13.23046875 20.02734375 C13.23457764 20.93218506 13.23868652 21.83702637 13.24291992 22.76928711 C13 25 13 25 11 27 C9.68 27 8.36 27 7 27 C7 27.66 7 28.32 7 29 C5.35 29 3.7 29 2 29 C1.67 29.99 1.34 30.98 1 32 C1 31.01 1 30.02 1 29 C-0.32 29 -1.64 29 -3 29 C-3 28.34 -3 27.68 -3 27 C-3.78375 27.04125 -4.5675 27.0825 -5.375 27.125 C-8 27 -8 27 -10 25 C-10.25878906 22.87695312 -10.25878906 22.87695312 -10.265625 20.28125 C-10.26820313 19.34925781 -10.27078125 18.41726563 -10.2734375 17.45703125 C-10.26570313 16.48121094 -10.25796875 15.50539063 -10.25 14.5 C-10.25773437 13.52417969 -10.26546875 12.54835938 -10.2734375 11.54296875 C-10.27085937 10.61097656 -10.26828125 9.67898438 -10.265625 8.71875 C-10.26336914 7.86216797 -10.26111328 7.00558594 -10.25878906 6.12304688 C-10 4 -10 4 -8 2 C-5.67182036 1.63239269 -3.3381615 1.29758419 -1 1 C-0.67 0.67 -0.34 0.34 0 0 Z M-7 3 C-8.41774838 4.18852855 -8.41774838 4.18852855 -8.09765625 7.59765625 C-8.0909822 9.08596867 -8.07902183 10.57426432 -8.0625 12.0625 C-8.05798828 12.82111328 -8.05347656 13.57972656 -8.04882812 14.36132812 C-8.0370068 16.24091871 -8.01907078 18.12046899 -8 20 C-1.30045728 20.25175735 4.50346094 19.67652621 11 18 C11 13.05 11 8.1 11 3 C1.95640489 1.98149745 1.95640489 1.98149745 -7 3 Z " fill="#23341E" transform="translate(400,433)"/>
<path d="M0 0 C3.69628969 -0.21742881 6.45781172 -0.20764658 9.9375 1.125 C12 3 12 3 12.3125 6.1875 C12.1578125 7.5796875 12.1578125 7.5796875 12 9 C12.66 9.33 13.32 9.66 14 10 C14.6875 13.5 14.6875 13.5 15 17 C14 18 14 18 11.5625 18.1875 C9 18 9 18 7 16 C7.35355436 13.73725212 7.97544426 12.04911148 9 10 C8.01 10.495 8.01 10.495 7 11 C6.53477707 15.79308342 6.53477707 15.79308342 8.5 19.9375 C8.995 20.288125 9.49 20.63875 10 21 C9 22 9 22 5.9375 22.0625 C4.968125 22.041875 3.99875 22.02125 3 22 C3.05800781 21.02417969 3.11601563 20.04835938 3.17578125 19.04296875 C3.22089844 17.77066406 3.26601563 16.49835938 3.3125 15.1875 C3.37050781 13.92292969 3.42851563 12.65835937 3.48828125 11.35546875 C3.24658203 9.69451172 3.24658203 9.69451172 3 8 C0.57836465 6.12953696 0.57836465 6.12953696 -2 5 C-2 3 -2 3 0 1 C0 0.67 0 0.34 0 0 Z " fill="#23331E" transform="translate(590,436)"/>
<path d="M0 0 C2.9375 2 2.9375 2 5 4 C4.68762196 6.88949684 4.35661121 8.58633099 2.4375 10.8125 C-1.07450036 12.52347453 -4.16394322 12.56597559 -8 12 C-10.5 10.875 -10.5 10.875 -12 9 C-12.5625 6 -12.5625 6 -12 3 C-8.31334931 -0.35150063 -4.83456313 -0.60432039 0 0 Z " fill="#71A560" transform="translate(1175,436)"/>
<path d="M0 0 C0.69416016 -0.020625 1.38832031 -0.04125 2.10351562 -0.0625 C4.12109375 -0.078125 4.12109375 -0.078125 7.5625 0.25 C9.5625 3.25 9.5625 3.25 9.3125 5.3125 C8.5625 7.25 8.5625 7.25 6.5625 9.25 C3.59375 9.515625 3.59375 9.515625 0.0625 9.5 C-1.1028125 9.50515625 -2.268125 9.5103125 -3.46875 9.515625 C-6.4375 9.25 -6.4375 9.25 -8.4375 7.25 C-8.625 4.1875 -8.625 4.1875 -8.4375 1.25 C-6.44965101 -0.73784899 -2.71049593 0.02002213 0 0 Z " fill="#CCFACC" transform="translate(1355.4375,437.75)"/>
<path d="M0 0 C6.93 0 13.86 0 21 0 C20.67 0.66 20.34 1.32 20 2 C18.68 2.33 17.36 2.66 16 3 C15.67 8.94 15.34 14.88 15 21 C14.34 21 13.68 21 13 21 C12.67 18.03 12.34 15.06 12 12 C11.34 12 10.68 12 10 12 C9.34 14.97 8.68 17.94 8 21 C7.67 21 7.34 21 7 21 C6.67 15.06 6.34 9.12 6 3 C4.02 2.34 2.04 1.68 0 1 C0 0.67 0 0.34 0 0 Z " fill="#93D87E" transform="translate(985,444)"/>
<path d="M0 0 C2.125 0.375 2.125 0.375 4 1 C2.68 1.33 1.36 1.66 0 2 C0.79299706 4.17038477 0.79299706 4.17038477 2.84765625 4.6328125 C3.57855469 4.79523438 4.30945313 4.95765625 5.0625 5.125 C5.79597656 5.29257812 6.52945313 5.46015625 7.28515625 5.6328125 C7.85105469 5.75398438 8.41695312 5.87515625 9 6 C7.68 6.33 6.36 6.66 5 7 C5.33 12.28 5.66 17.56 6 23 C3.69 22.67 1.38 22.34 -1 22 C-2.70913373 18.58173253 -2.18458479 14.76645237 -2.1875 11 C-2.19974609 10.16726563 -2.21199219 9.33453125 -2.22460938 8.4765625 C-2.22654297 7.67992187 -2.22847656 6.88328125 -2.23046875 6.0625 C-2.23457764 5.33160156 -2.23868652 4.60070312 -2.24291992 3.84765625 C-2 2 -2 2 0 0 Z " fill="#040603" transform="translate(588,437)"/>
<path d="M0 0 C0.68320312 0.29261719 1.36640625 0.58523438 2.0703125 0.88671875 C2.43489583 5.38324653 2.43489583 5.38324653 0.7578125 7.69921875 C-0.9296875 8.88671875 -0.9296875 8.88671875 -3.9296875 8.88671875 C-3.9296875 9.87671875 -3.9296875 10.86671875 -3.9296875 11.88671875 C-6.9296875 11.88671875 -6.9296875 11.88671875 -9.9296875 9.88671875 C-8.9396875 11.53671875 -7.9496875 13.18671875 -6.9296875 14.88671875 C-8.2496875 16.20671875 -9.5696875 17.52671875 -10.9296875 18.88671875 C-12.8671875 18.13671875 -12.8671875 18.13671875 -14.9296875 16.88671875 C-15.71923828 15.01293945 -15.71923828 15.01293945 -15.9296875 12.88671875 C-14.33888592 10.24198201 -12.00695514 8.22260112 -9.8046875 6.07421875 C-8.93070313 5.15866211 -8.93070313 5.15866211 -8.0390625 4.22460938 C-3.64875847 -0.14108533 -3.64875847 -0.14108533 0 0 Z " fill="#99E083" transform="translate(802.9296875,446.11328125)"/>
<path d="M0 0 C3.125 1.625 3.125 1.625 5 4 C5.3125 7.25 5.3125 7.25 5 10 C4.34 9.67 3.68 9.34 3 9 C2.855625 8.195625 2.71125 7.39125 2.5625 6.5625 C2.23497283 3.65559342 2.23497283 3.65559342 -1 2 C-5.2475253 1.69108907 -8.3586453 1.66953299 -12 4 C-12.2502157 6.91634129 -12.2502157 6.91634129 -12 10 C-8.81237635 12.12508244 -6.73487777 12.5020163 -3 13 C-3.99 13.495 -3.99 13.495 -5 14 C-4.938125 14.78375 -4.87625 15.5675 -4.8125 16.375 C-4.874375 17.24125 -4.93625 18.1075 -5 19 C-8 21 -8 21 -10.6875 20.625 C-11.8321875 20.315625 -11.8321875 20.315625 -13 20 C-13 19.34 -13 18.68 -13 18 C-11.02 18 -9.04 18 -7 18 C-7 16.68 -7 15.36 -7 14 C-9.52363988 14.62533375 -9.52363988 14.62533375 -12 16 C-12.89386164 18.54775306 -12.89386164 18.54775306 -13 21 C-7.86274018 21.48489837 -7.86274018 21.48489837 -3.5625 19 C-3.046875 18.34 -2.53125 17.68 -2 17 C-2.36197896 19.62434747 -2.82656057 20.82013689 -4.6875 22.75 C-7.69361331 24.37492611 -9.62848316 24.4304064 -13 24 C-14.9375 22.8125 -14.9375 22.8125 -16 21 C-15.73865785 17.602552 -14.64391844 14.95905318 -13 12 C-13.66 11.34 -14.32 10.68 -15 10 C-15.4375 7.125 -15.4375 7.125 -15 4 C-11.0659787 -0.98309364 -5.8756538 -0.9439575 0 0 Z " fill="#141D11" transform="translate(1176,435)"/>
<path d="M0 0 C1.98 1.65 3.96 3.3 6 5 C5.690625 5.556875 5.38125 6.11375 5.0625 6.6875 C3.94238179 9.12540433 3.43962636 11.36224186 3 14 C-1.91501022 13.8510603 -4.39648531 11.23650892 -7.6171875 7.85546875 C-9 6 -9 6 -9.4375 3.0625 C-9.293125 2.381875 -9.14875 1.70125 -9 1 C-7.515 1.99 -7.515 1.99 -6 3 C-3.38084878 2.84298574 -3.38084878 2.84298574 -1 2 C-0.67 1.34 -0.34 0.68 0 0 Z " fill="#9AE284" transform="translate(202,450)"/>
<path d="M0 0 C2.4375 0.75 2.4375 0.75 4.4375 2.75 C4.771228 5.88704316 4.96599028 7.91554166 3.25 10.625 C0.75713619 12.17229478 -0.68217335 12.25405716 -3.5625 11.75 C-5.4375 10.125 -5.4375 10.125 -6.5625 7.75 C-6.4375 4.625 -6.4375 4.625 -5.5625 1.75 C-2.5625 -0.25 -2.5625 -0.25 0 0 Z " fill="#689959" transform="translate(206.5625,432.25)"/>
<path d="M0 0 C0.8971875 0.309375 0.8971875 0.309375 1.8125 0.625 C1.4635612 3.48629813 0.90472286 4.5349344 -1.19140625 6.58203125 C-8.94798658 12.20703225 -8.94798658 12.20703225 -13.5 11.625 C-14.716875 11.295 -15.93375 10.965 -17.1875 10.625 C-21.33124204 9.56497297 -23.30187421 9.73769604 -27.1875 11.625 C-27.1875 10.965 -27.1875 10.305 -27.1875 9.625 C-23.38564825 7.03974081 -20.55826246 7.79606229 -16.1875 8.625 C-15.218125 8.934375 -14.24875 9.24375 -13.25 9.5625 C-8.96688116 9.64991059 -7.09956448 7.67615564 -3.921875 4.97265625 C-2.1875 3.625 -2.1875 3.625 -0.1875 3.625 C-0.5175 2.965 -0.8475 2.305 -1.1875 1.625 C-5.33420039 4.00129089 -5.33420039 4.00129089 -8.1875 7.625 C-11.0625 7.75 -11.0625 7.75 -14.1875 7.625 C-14.8475 6.965 -15.5075 6.305 -16.1875 5.625 C-14.2075 5.625 -12.2275 5.625 -10.1875 5.625 C-16.19664805 2.35915867 -20.51227353 2.51022375 -27.1875 3.625 C-26.1875 1.625 -26.1875 1.625 -23.1875 0.625 C-18.22794198 0.38883057 -15.58209461 0.4277027 -11.1875 2.625 C-7.1895967 2.29864055 -3.51960978 -0.60336168 0 0 Z " fill="#D5FAD5" transform="translate(1367.1875,448.375)"/>
<path d="M0 0 C1.67381019 0.29537827 3.33911955 0.63893903 5 1 C7.33177975 1.34403308 9.66487041 1.67949202 12 2 C11.67 2.66 11.34 3.32 11 4 C10.28714844 3.91621094 9.57429688 3.83242188 8.83984375 3.74609375 C7.88207031 3.64425781 6.92429687 3.54242188 5.9375 3.4375 C4.99777344 3.33308594 4.05804688 3.22867187 3.08984375 3.12109375 C-0.66741772 2.88096429 -0.66741772 2.88096429 -7 4 C-7.33 9.28 -7.66 14.56 -8 20 C-6.39125 19.855625 -4.7825 19.71125 -3.125 19.5625 C-2.22007812 19.48128906 -1.31515625 19.40007812 -0.3828125 19.31640625 C2.01110861 19.13010715 2.01110861 19.13010715 4 18 C5.99960012 17.960008 8.00047242 17.95653201 10 18 C5.53362009 20.23318995 2.96429512 21.11664144 -2.125 21.0625 C-3.22070312 21.05347656 -4.31640625 21.04445313 -5.4453125 21.03515625 C-6.28835938 21.02355469 -7.13140625 21.01195312 -8 21 C-7.65479552 22.96493574 -7.65479552 22.96493574 -7 25 C-5.0162233 26.28436734 -5.0162233 26.28436734 -3 27 C-5.375 27.125 -5.375 27.125 -8 27 C-10.49057251 24.50942749 -10.2565813 23.71527341 -10.265625 20.28125 C-10.26820313 19.34925781 -10.27078125 18.41726563 -10.2734375 17.45703125 C-10.26570313 16.48121094 -10.25796875 15.50539063 -10.25 14.5 C-10.25773437 13.52417969 -10.26546875 12.54835938 -10.2734375 11.54296875 C-10.27085937 10.61097656 -10.26828125 9.67898438 -10.265625 8.71875 C-10.26336914 7.86216797 -10.26111328 7.00558594 -10.25878906 6.12304688 C-10 4 -10 4 -8 2 C-5.67182036 1.63239269 -3.3381615 1.29758419 -1 1 C-0.67 0.67 -0.34 0.34 0 0 Z " fill="#1B2817" transform="translate(400,433)"/>
<path d="M0 0 C0.99 0.66 1.98 1.32 3 2 C3.25 4.5625 3.25 4.5625 3 7 C2 8 2 8 -1.875 8.25 C-4.517241 8.2073067 -5.7431951 8.14785737 -8.0625 6.8125 C-9 5 -9 5 -8.8125 2.375 C-7.22158947 -2.27535387 -4.11289592 -0.92330317 0 0 Z " fill="#5D884F" transform="translate(1185,453)"/>
<path d="M0 0 C0 1.65 0 3.3 0 5 C-6.27 5 -12.54 5 -19 5 C-19 3.68 -19 2.36 -19 1 C-18.15695312 0.93941406 -17.31390625 0.87882812 -16.4453125 0.81640625 C-15.34960938 0.73261719 -14.25390625 0.64882813 -13.125 0.5625 C-12.03445313 0.48128906 -10.94390625 0.40007812 -9.8203125 0.31640625 C-2.25 -0.53289474 -2.25 -0.53289474 0 0 Z " fill="#95DB80" transform="translate(411,453)"/>
<path d="M0 0 C2.75 -0.3125 2.75 -0.3125 6 0 C8.375 2.0625 8.375 2.0625 10 5 C10.25 8.8125 10.25 8.8125 10 12 C7.69 13.32 5.38 14.64 3 16 C3 13 3 13 4.5 11.3125 C4.995 10.879375 5.49 10.44625 6 10 C4.9007566 7.43509874 3.87156808 5.87156808 1.875 3.875 C1.25625 3.25625 0.6375 2.6375 0 2 C0 1.34 0 0.68 0 0 Z " fill="#9AE184" transform="translate(203,447)"/>
<path d="M0 0 C1.67542976 0.28604898 3.34385343 0.61781233 5 1 C5.09765625 7.15234375 5.09765625 7.15234375 5 9 C4.67 9.33 4.34 9.66 4 10 C3.76572222 12.01594582 3.58663876 14.038474 3.4375 16.0625 C3.35371094 17.16722656 3.26992188 18.27195312 3.18359375 19.41015625 C3.12300781 20.26480469 3.06242188 21.11945313 3 22 C0.97826068 18.96739103 0.70661562 17.91309963 0.4375 14.4375 C0.18539562 11.09342768 0.18539562 11.09342768 -1 8 C-1.125 4.4375 -1.125 4.4375 -1 1 C-0.67 0.67 -0.34 0.34 0 0 Z " fill="#3A5632" transform="translate(610,435)"/>
<path d="M0 0 C0.33 1.32 0.66 2.64 1 4 C1.78375 3.95875 2.5675 3.9175 3.375 3.875 C6 4 6 4 8 6 C7.625 8.125 7.625 8.125 7 10 C6.22914062 10.13277344 5.45828125 10.26554687 4.6640625 10.40234375 C3.66117188 10.57894531 2.65828125 10.75554687 1.625 10.9375 C0.62726563 11.11152344 -0.37046875 11.28554688 -1.3984375 11.46484375 C-3.96909656 11.87712062 -3.96909656 11.87712062 -6 13 C-6 11.68 -6 10.36 -6 9 C-4.7934375 8.319375 -4.7934375 8.319375 -3.5625 7.625 C-0.66192308 6.1964441 -0.66192308 6.1964441 -0.1875 2.8125 C-0.125625 1.884375 -0.06375 0.95625 0 0 Z " fill="#8ACB76" transform="translate(1181,440)"/>
<path d="M0 0 C2.375 0.8125 2.375 0.8125 3.375 2.8125 C0.405 2.3175 0.405 2.3175 -2.625 1.8125 C-2.295 3.7925 -1.965 5.7725 -1.625 7.8125 C-0.635 8.1425 0.355 8.4725 1.375 8.8125 C1.375 8.1525 1.375 7.4925 1.375 6.8125 C0.715 6.8125 0.055 6.8125 -0.625 6.8125 C-0.625 6.1525 -0.625 5.4925 -0.625 4.8125 C1.025 4.8125 2.675 4.8125 4.375 4.8125 C4.375 6.7925 4.375 8.7725 4.375 10.8125 C-2.375 10.9375 -2.375 10.9375 -4.625 9.8125 C-6.10482709 3.66552594 -6.10482709 3.66552594 -4.5 0.8125 C-2.625 -0.1875 -2.625 -0.1875 0 0 Z " fill="#273622" transform="translate(1528.625,444.1875)"/>
<path d="M0 0 C-1 3 -1 3 -3 4 C-3.46522293 8.79308342 -3.46522293 8.79308342 -1.5 12.9375 C-1.005 13.288125 -0.51 13.63875 0 14 C-0.33 14.33 -0.66 14.66 -1 15 C-2.98 15 -4.96 15 -7 15 C-7 10.38 -7 5.76 -7 1 C-2 0 -2 0 0 0 Z " fill="#87C673" transform="translate(600,443)"/>
<path d="M0 0 C0 0.99 0 1.98 0 3 C-1.98 3.33 -3.96 3.66 -6 4 C-6 9.94 -6 15.88 -6 22 C-7.32 22.33 -8.64 22.66 -10 23 C-11.83832664 19.89782379 -12.47446226 17.60591321 -12 14 C-11.01 13.34 -10.02 12.68 -9 12 C-9 14.97 -9 17.94 -9 21 C-8.34 21 -7.68 21 -7 21 C-7 15.06 -7 9.12 -7 3 C-4.69 2.01 -2.38 1.02 0 0 Z " fill="#10180E" transform="translate(1007,444)"/>
<path d="M0 0 C0.38133299 1.9914056 0.71325582 3.99279077 1 6 C0 7 0 7 -1.84765625 7.09765625 C-3.8984375 7.06510417 -5.94921875 7.03255208 -8 7 C-8.33 5.02 -8.66 3.04 -9 1 C-6.04335481 -0.4783226 -3.25770263 -0.06032783 0 0 Z " fill="#96DC80" transform="translate(1175,436)"/>
<path d="M0 0 C1.65 0 3.3 0 5 0 C6.31626692 3.61973402 7 6.09567131 7 10 C6.34 10 5.68 10 5 10 C5 9.01 5 8.02 5 7 C3.35 7 1.7 7 0 7 C0 7.99 0 8.98 0 10 C-0.66 10 -1.32 10 -2 10 C-1.34 6.7 -0.68 3.4 0 0 Z " fill="#1F2C1B" transform="translate(1515,445)"/>
<path d="M0 0 C3 2 3 2 3.625 3.98828125 C3.810625 5.13876953 3.810625 5.13876953 4 6.3125 C4.72490771 10.10151338 5.76822506 12.79788813 8 16 C8.33 16.66 8.66 17.32 9 18 C8.34 18 7.68 18 7 18 C6.67 18.66 6.34 19.32 6 20 C5.18071114 18.75443908 4.36984814 17.50333365 3.5625 16.25 C3.11003906 15.55390625 2.65757813 14.8578125 2.19140625 14.140625 C-0.39335243 9.496534 -0.08650904 5.19054257 0 0 Z " fill="#1C2919" transform="translate(1506,446)"/>
<path d="M0 0 C0.66 0.33 1.32 0.66 2 1 C1.360625 1.495 0.72125 1.99 0.0625 2.5 C-2.12446612 5.15086802 -2.26426979 5.76022066 -2.5 9 C-2.74736562 12.0776885 -2.94526071 12.92260997 -4.8125 15.5625 C-7 17 -7 17 -9.125 16.9375 C-11 16 -11 16 -13 13 C-12.21625 13.20625 -11.4325 13.4125 -10.625 13.625 C-9.75875 13.74875 -8.8925 13.8725 -8 14 C-5.71271266 12.16116119 -5.71271266 12.16116119 -5.875 9.375 C-5.91625 8.59125 -5.9575 7.8075 -6 7 C-7.32 6.34 -8.64 5.68 -10 5 C-8.906875 4.731875 -7.81375 4.46375 -6.6875 4.1875 C-3.38307337 3.12336261 -2.05039578 2.65345336 0 0 Z " fill="#0D130B" transform="translate(810,440)"/>
<path d="M0 0 C5.04239768 0.17387578 7.8878628 0.38987246 11.5 4.0625 C12.325 5.031875 13.15 6.00125 14 7 C12.25 10.875 12.25 10.875 10 12 C10.2475 11.2575 10.495 10.515 10.75 9.75 C10.8325 8.8425 10.915 7.935 11 7 C9.16641665 4.66545339 9.16641665 4.66545339 7 3 C6.5875 3.515625 6.175 4.03125 5.75 4.5625 C5.1725 5.036875 4.595 5.51125 4 6 C1.8125 5.6875 1.8125 5.6875 0 5 C0 3.35 0 1.7 0 0 Z " fill="#4A6C3F" transform="translate(196,448)"/>
<path d="M0 0 C0.33 1.32 0.66 2.64 1 4 C-3.75 5.125 -3.75 5.125 -6 4 C-5.67 4.66 -5.34 5.32 -5 6 C-0.51315799 5.66132538 -0.51315799 5.66132538 2.875 2.9375 C3.24625 2.298125 3.6175 1.65875 4 1 C3.25 5.75 3.25 5.75 1 8 C-2.625 8.125 -2.625 8.125 -6 8 C-6.6875 5.6875 -6.6875 5.6875 -7 3 C-4.87164172 -0.24854684 -4.06968429 0 0 0 Z " fill="#89C875" transform="translate(1169,449)"/>
<path d="M0 0 C1.67542976 0.28604898 3.34385343 0.61781233 5 1 C5 2.98 5 4.96 5 7 C2.625 7.625 2.625 7.625 0 8 C-0.66 7.34 -1.32 6.68 -2 6 C-1.44444444 1.44444444 -1.44444444 1.44444444 0 0 Z " fill="#172214" transform="translate(994,435)"/>
<path d="M0 0 C2.31 0 4.62 0 7 0 C7 0.66 7 1.32 7 2 C5.35 2 3.7 2 2 2 C2 2.99 2 3.98 2 5 C3.32 5.33 4.64 5.66 6 6 C4.68 6 3.36 6 2 6 C2 6.99 2 7.98 2 9 C3.65 9 5.3 9 7 9 C7 9.66 7 10.32 7 11 C4.69 11 2.38 11 0 11 C0 7.37 0 3.74 0 0 Z " fill="#1F2C1B" transform="translate(1535,444)"/>
<path d="M0 0 C-1.57076535 3.84659015 -4.0323684 6.20270385 -7 9.0625 C-9.68210288 11.65493955 -11.92789175 13.89183762 -14 17 C-14.66723633 15.20214844 -14.66723633 15.20214844 -15 13 C-13.9519043 11.35253906 -13.9519043 11.35253906 -12.32421875 9.765625 C-11.45313477 8.90517578 -11.45313477 8.90517578 -10.56445312 8.02734375 C-9.94505859 7.44082031 -9.32566406 6.85429687 -8.6875 6.25 C-8.07970703 5.64800781 -7.47191406 5.04601562 -6.84570312 4.42578125 C-2.29447456 0 -2.29447456 0 0 0 Z " fill="#1F2E1A" transform="translate(800,445)"/>
<path d="M0 0 C1.051875 -0.00386719 1.051875 -0.00386719 2.125 -0.0078125 C4 0.125 4 0.125 6 1.125 C5.67 2.115 5.34 3.105 5 4.125 C1.7 4.125 -1.6 4.125 -5 4.125 C-5.33 3.135 -5.66 2.145 -6 1.125 C-3.75487738 0.00243869 -2.48543351 -0.00913762 0 0 Z " fill="#9CE485" transform="translate(594,437.875)"/>
<path d="M0 0 C0.36923077 4.55384615 0.36923077 4.55384615 -1.5 6.8125 C-1.995 7.204375 -2.49 7.59625 -3 8 C-3.99 7.67 -4.98 7.34 -6 7 C-6 6.34 -6 5.68 -6 5 C-6.66 4.67 -7.32 4.34 -8 4 C-4.5 0 -4.5 0 0 0 Z " fill="#9EE887" transform="translate(805,447)"/>
<path d="M0 0 C0.66 0 1.32 0 2 0 C1.67 1.65 1.34 3.3 1 5 C1.66 5 2.32 5 3 5 C3 3.35 3 1.7 3 0 C3.99 0.33 4.98 0.66 6 1 C6.042721 2.66611905 6.04063832 4.33382885 6 6 C5 7 5 7 2.5625 7.1875 C0 7 0 7 -2 5 C-1.46428571 1.46428571 -1.46428571 1.46428571 0 0 Z " fill="#93D77E" transform="translate(599,447)"/>
<path d="M0 0 C0.33 0.99 0.66 1.98 1 3 C-0.52513703 4.20865603 -2.07095969 5.39123953 -3.625 6.5625 C-4.48351563 7.22378906 -5.34203125 7.88507813 -6.2265625 8.56640625 C-9.64068973 10.33117342 -11.35571635 9.97786497 -15 9 C-13 7 -13 7 -9.875 6.875 C-8.92625 6.91625 -7.9775 6.9575 -7 7 C-6.6596875 6.1028125 -6.6596875 6.1028125 -6.3125 5.1875 C-4.66188867 2.43648112 -2.8027919 1.47515363 0 0 Z " fill="#4BED4B" transform="translate(1366,449)"/>
<path d="M0 0 C0 1.98 0 3.96 0 6 C-2.375 6.125 -2.375 6.125 -5 6 C-5.66 5.34 -6.32 4.68 -7 4 C-7 3.01 -7 2.02 -7 1 C-4.53721199 -0.231394 -2.7204945 -0.07159196 0 0 Z " fill="#53EE53" transform="translate(1355,439)"/>
<path d="M0 0 C0.7425 0.350625 1.485 0.70125 2.25 1.0625 C5.21122875 2.0720098 6.12062561 1.87980884 9 1 C8.06725891 2.12894876 7.12859878 3.25300876 6.1875 4.375 C5.66542969 5.00148438 5.14335938 5.62796875 4.60546875 6.2734375 C3 8 3 8 0 10 C0 7 0 7 2 4 C1.34 2.68 0.68 1.36 0 0 Z " fill="#1E2C1A" transform="translate(793,456)"/>
<path d="M0 0 C1.98 0 3.96 0 6 0 C6 0.66 6 1.32 6 2 C6.66 2 7.32 2 8 2 C8 3.65 8 5.3 8 7 C7.01 7 6.02 7 5 7 C5 6.34 5 5.68 5 5 C3.35 5 1.7 5 0 5 C0 3.35 0 1.7 0 0 Z " fill="#7BB56A" transform="translate(1537,448)"/>
<path d="M0 0 C1.65 0 3.3 0 5 0 C5.38218767 1.65614657 5.71395102 3.32457024 6 5 C5 6 5 6 2.4375 6.0625 C1.2309375 6.0315625 1.2309375 6.0315625 0 6 C0 4.02 0 2.04 0 0 Z " fill="#3EEC3E" transform="translate(1357,439)"/>
<path d="M0 0 C-3.75 3 -3.75 3 -6 3 C-6 5.97 -6 8.94 -6 12 C-6.33 12 -6.66 12 -7 12 C-7.33 10.02 -7.66 8.04 -8 6 C-8.99 6.495 -8.99 6.495 -10 7 C-10 5.68 -10 4.36 -10 3 C-3.375 -1.125 -3.375 -1.125 0 0 Z " fill="#293B23" transform="translate(1181,446)"/>
<path d="M0 0 C1.0828125 0.37125 1.0828125 0.37125 2.1875 0.75 C2.1875 1.41 2.1875 2.07 2.1875 2.75 C-0.7825 2.255 -0.7825 2.255 -3.8125 1.75 C-3.4825 3.4 -3.1525 5.05 -2.8125 6.75 C-3.8025 6.42 -4.7925 6.09 -5.8125 5.75 C-6.4725 7.07 -7.1325 8.39 -7.8125 9.75 C-8.125 7 -8.125 7 -7.8125 3.75 C-5.19378596 0.83200436 -3.97850732 -0.3536451 0 0 Z " fill="#151E12" transform="translate(199.8125,446.25)"/>
<path d="M0 0 C2.31 0 4.62 0 7 0 C7 0.99 7 1.98 7 3 C5.35 3 3.7 3 2 3 C2 3.66 2 4.32 2 5 C2.66 5 3.32 5 4 5 C4 5.66 4 6.32 4 7 C2.68 6.67 1.36 6.34 0 6 C0 4.02 0 2.04 0 0 Z " fill="#8ACB76" transform="translate(1526,446)"/>
<path d="M0 0 C1.67542976 0.28604898 3.34385343 0.61781233 5 1 C5.33 2.32 5.66 3.64 6 5 C4.02 5 2.04 5 0 5 C-0.5625 3.0625 -0.5625 3.0625 -1 1 C-0.67 0.67 -0.34 0.34 0 0 Z " fill="#324A2B" transform="translate(1183,444)"/>
<path d="M0 0 C2.31 0.33 4.62 0.66 7 1 C7.33 2.32 7.66 3.64 8 5 C3.71 4.34 -0.58 3.68 -5 3 C-5 2.67 -5 2.34 -5 2 C-3.35 2 -1.7 2 0 2 C0 1.34 0 0.68 0 0 Z " fill="#212F1D" transform="translate(1529,430)"/>
<path d="M0 0 C1.67381019 0.29537827 3.33911955 0.63893903 5 1 C7.33177975 1.34403308 9.66487041 1.67949202 12 2 C11.67 2.66 11.34 3.32 11 4 C9.948125 3.87431641 9.948125 3.87431641 8.875 3.74609375 C3.00040763 3.11553288 -2.1738496 3.01065371 -8 4 C-8 3.34 -8 2.68 -8 2 C-6.865625 1.855625 -5.73125 1.71125 -4.5625 1.5625 C-1.19222799 1.38828522 -1.19222799 1.38828522 0 0 Z " fill="#10180E" transform="translate(400,433)"/>
<path d="M0 0 C1.65 0 3.3 0 5 0 C5.33 0.66 5.66 1.32 6 2 C5.67 2.99 5.34 3.98 5 5 C2.03 4.505 2.03 4.505 -1 4 C-0.67 2.68 -0.34 1.36 0 0 Z " fill="#9BE384" transform="translate(1180,453)"/>
<path d="M0 0 C0.66 1.32 1.32 2.64 2 4 C3.3050581 5.68889872 4.63360658 7.3603279 6 9 C5.67 9.33 5.34 9.66 5 10 C3.35 10 1.7 10 0 10 C0 6.7 0 3.4 0 0 Z " fill="#9DE686" transform="translate(594,448)"/>
<path d="M0 0 C0.66 0.33 1.32 0.66 2 1 C1.17812739 5.38332057 0.09845718 9.67940177 -1 14 C-1.33 14 -1.66 14 -2 14 C-2.05437607 12.41705218 -2.09296271 10.83355744 -2.125 9.25 C-2.14820313 8.36828125 -2.17140625 7.4865625 -2.1953125 6.578125 C-1.99139502 3.8864142 -1.36551721 2.30095026 0 0 Z " fill="#0C110B" transform="translate(1509,439)"/>
<path d="M0 0 C0.33 0.66 0.66 1.32 1 2 C-0.98 2.66 -2.96 3.32 -5 4 C-5 3.67 -5 3.34 -5 3 C-7.64 2.67 -10.28 2.34 -13 2 C-13 1.67 -13 1.34 -13 1 C-11.20994059 0.63779734 -9.41787943 0.28547531 -7.625 -0.0625 C-6.12839844 -0.35833984 -6.12839844 -0.35833984 -4.6015625 -0.66015625 C-2 -1 -2 -1 0 0 Z " fill="#2A3D25" transform="translate(1537,467)"/>
<path d="M0 0 C1.65 0 3.3 0 5 0 C4.67 1.98 4.34 3.96 4 6 C3.01 6 2.02 6 1 6 C0.67 4.02 0.34 2.04 0 0 Z " fill="#3B5733" transform="translate(1515,445)"/>
<path d="M0 0 C-0.804375 0.45375 -1.60875 0.9075 -2.4375 1.375 C-5.08856572 2.74725665 -5.08856572 2.74725665 -6 5 C-6.66 4.67 -7.32 4.34 -8 4 C-8.625 1.9375 -8.625 1.9375 -9 0 C-3.375 -1.125 -3.375 -1.125 0 0 Z " fill="#22321D" transform="translate(602,458)"/>
<path d="M0 0 C0.33 0.99 0.66 1.98 1 3 C-1.25 4.125 -1.25 4.125 -4 5 C-6.3125 4.125 -6.3125 4.125 -8 3 C-5.29120665 1.64560332 -2.99066732 1.93498549 0 2 C0 1.34 0 0.68 0 0 Z " fill="#5CEF5C" transform="translate(1359,454)"/>
<path d="M0 0 C0.66 0 1.32 0 2 0 C2.36923077 5.41538462 2.36923077 5.41538462 0.5 8.375 C0.005 8.91125 -0.49 9.4475 -1 10 C-1.02689216 8.52093108 -1.04634621 7.04172517 -1.0625 5.5625 C-1.07410156 4.73878906 -1.08570313 3.91507812 -1.09765625 3.06640625 C-1 1 -1 1 0 0 Z " fill="#050704" transform="translate(995,455)"/>
<path d="M0 0 C1.65 0 3.3 0 5 0 C5 1.98 5 3.96 5 6 C4.01 5.67 3.02 5.34 2 5 C2.66 5 3.32 5 4 5 C4 4.34 4 3.68 4 3 C2.68 2.67 1.36 2.34 0 2 C0 1.34 0 0.68 0 0 Z " fill="#476040" transform="translate(1528,449)"/>
<path d="M0 0 C0.33 0 0.66 0 1 0 C1.25 6.625 1.25 6.625 -1 10 C-1.9765625 3.9453125 -1.9765625 3.9453125 -2 2 C-1.34 1.34 -0.68 0.68 0 0 Z " fill="#4C6F41" transform="translate(997,456)"/>
<path d="M0 0 C1.98 0.495 1.98 0.495 4 1 C3.67 1.99 3.34 2.98 3 4 C1.68 4 0.36 4 -1 4 C-0.67 2.68 -0.34 1.36 0 0 Z " fill="#9AE284" transform="translate(1166,450)"/>
<path d="M0 0 C1.98 0.495 1.98 0.495 4 1 C4 1.99 4 2.98 4 4 C2.35 3.67 0.7 3.34 -1 3 C-0.67 2.01 -0.34 1.02 0 0 Z " fill="#93D77E" transform="translate(994,437)"/>
</svg>
