<?xml version="1.0" encoding="UTF-8"?>
<svg version="1.1" xmlns="http://www.w3.org/2000/svg" width="1920" height="1080">
<path d="M0 0 C633.6 0 1267.2 0 1920 0 C1920 356.4 1920 712.8 1920 1080 C1286.4 1080 652.8 1080 0 1080 C0 723.6 0 367.2 0 0 Z " fill="#FEFEFE" transform="translate(0,0)"/>
<path d="M0 0 C11.07414138 6.79008668 18.51837035 16.39437436 22.08984375 28.89453125 C22.08984375 31.86453125 22.08984375 34.83453125 22.08984375 37.89453125 C63.00984375 37.89453125 103.92984375 37.89453125 146.08984375 37.89453125 C146.08984375 34.92453125 146.08984375 31.95453125 146.08984375 28.89453125 C149.10936116 17.87195662 155.74357375 8.44967967 165.08984375 1.89453125 C176.54773088 -4.1797185 188.06150987 -6.13069249 200.81640625 -3.26953125 C212.24773268 0.79554665 221.38711652 8.10926728 227.08984375 18.89453125 C229.68107327 25.42258424 231.08984375 30.8338337 231.08984375 37.89453125 C272.00984375 37.89453125 312.92984375 37.89453125 355.08984375 37.89453125 C355.08984375 34.59453125 355.08984375 31.29453125 355.08984375 27.89453125 C357.33536902 17.79587063 364.22988242 8.35525001 372.91455078 2.70800781 C384.26987951 -3.79494093 396.29536615 -6.3553862 409.21875 -3.38671875 C411.63925126 -2.44730668 413.83462339 -1.38875645 416.08984375 -0.10546875 C416.78078125 0.25675781 417.47171875 0.61898438 418.18359375 0.9921875 C428.20707043 6.67858292 435.02991537 15.34732746 438.90234375 26.1640625 C440.02801953 30.25245439 440.08984375 33.57723804 440.08984375 37.89453125 C480.67984375 37.89453125 521.26984375 37.89453125 563.08984375 37.89453125 C563.41984375 34.59453125 563.74984375 31.29453125 564.08984375 27.89453125 C568.28259841 16.37533679 577.18860019 8.0863698 588.08984375 2.89453125 C600.24799874 -1.77490509 611.09474098 -0.90040634 623.08984375 3.89453125 C625.94412856 5.35154942 628.51226274 6.99688768 631.08984375 8.89453125 C631.93546875 9.45140625 632.78109375 10.00828125 633.65234375 10.58203125 C639.99907859 16.60329251 644.79926983 24.42936675 647.08984375 32.89453125 C647.08984375 34.54453125 647.08984375 36.19453125 647.08984375 37.89453125 C687.67984375 37.89453125 728.26984375 37.89453125 770.08984375 37.89453125 C770.08984375 34.92453125 770.08984375 31.95453125 770.08984375 28.89453125 C773.10936116 17.87195662 779.74357375 8.44967967 789.08984375 1.89453125 C800.42037157 -4.11220062 811.67966705 -5.88332404 824.3359375 -3.4921875 C835.98195999 0.34474589 845.09330064 8.29828684 851.08984375 18.89453125 C854.26002593 25.99825393 855.08984375 30.95599059 855.08984375 38.89453125 C889.07984375 38.89453125 923.06984375 38.89453125 958.08984375 38.89453125 C958.41984375 35.59453125 958.74984375 32.29453125 959.08984375 28.89453125 C961.48597406 20.02884909 965.21305585 13.10041302 972.08984375 6.89453125 C972.97671875 6.06953125 973.86359375 5.24453125 974.77734375 4.39453125 C984.58008828 -3.6723106 995.40625725 -5.0198724 1007.65429688 -4.36621094 C1019.32715718 -3.11655027 1028.73265207 4.30893893 1035.9296875 13.15625 C1041.82132719 21.41030756 1043.08984375 27.68813975 1043.08984375 37.89453125 C1077.40984375 37.89453125 1111.72984375 37.89453125 1147.08984375 37.89453125 C1147.08984375 34.92453125 1147.08984375 31.95453125 1147.08984375 28.89453125 C1150.10936116 17.87195662 1156.74357375 8.44967967 1166.08984375 1.89453125 C1177.54773088 -4.1797185 1189.06150987 -6.13069249 1201.81640625 -3.26953125 C1214.22998346 1.14484346 1223.22421165 9.25303885 1229.1484375 20.9921875 C1231.25626695 26.06509762 1231.45780984 30.20622608 1232.08984375 35.89453125 C1259.47984375 35.89453125 1286.86984375 35.89453125 1315.08984375 35.89453125 C1315.08984375 32.92453125 1315.08984375 29.95453125 1315.08984375 26.89453125 C1318.09585181 15.43633583 1326.71999864 5.63942558 1336.65234375 -0.41796875 C1343.11737768 -3.59171268 1348.94716275 -4.44784293 1356.02734375 -4.41796875 C1356.78724609 -4.43408203 1357.54714844 -4.45019531 1358.33007812 -4.46679688 C1368.48059372 -4.47546512 1377.86988681 0.13917781 1385.328125 6.93359375 C1395.23530009 17.49378415 1397.66227071 27.77107479 1397.4296875 41.78515625 C1396.97970145 51.97986099 1392.21856964 60.71065081 1385.08984375 67.89453125 C1374.83640248 76.36476534 1365.31653302 79.55586571 1352.08984375 78.89453125 C1340.80600179 77.80954645 1331.79561737 73.25811481 1324.08984375 64.89453125 C1317.77394707 56.4650471 1315.08984375 50.49344123 1315.08984375 39.89453125 C1287.69984375 39.89453125 1260.30984375 39.89453125 1232.08984375 39.89453125 C1231.75984375 42.86453125 1231.42984375 45.83453125 1231.08984375 48.89453125 C1228.37933006 60.3950724 1221.58688821 69.09186513 1211.6953125 75.421875 C1200.8152008 81.57150335 1188.75541716 83.07539939 1176.58203125 80.01171875 C1166.35642333 76.06269881 1156.64787034 68.96237268 1151.6484375 59.03125 C1149.19664032 53.42215275 1147.97418929 49.08495003 1147.08984375 42.89453125 C1112.76984375 42.89453125 1078.44984375 42.89453125 1043.08984375 42.89453125 C1042.75984375 45.53453125 1042.42984375 48.17453125 1042.08984375 50.89453125 C1038.69537011 61.89610735 1030.89657468 70.82128275 1021.1328125 76.6640625 C1010.60450662 81.89757427 999.40337611 82.74885074 987.9375 80.19140625 C975.96236663 75.8368123 966.27219842 65.90653397 960.921875 54.56640625 C960.08984375 51.89453125 960.08984375 51.89453125 959.08984375 42.89453125 C924.43984375 42.89453125 889.78984375 42.89453125 854.08984375 42.89453125 C854.08984375 45.20453125 854.08984375 47.51453125 854.08984375 49.89453125 C850.08905571 62.98466722 841.45472925 71.85419478 829.63671875 78.21484375 C820.41452516 82.2601618 809.23415034 82.48649602 799.546875 79.9765625 C787.92329371 75.42436146 778.11970533 67.31813445 772.8671875 55.84375 C771.10254189 51.41883462 770.08984375 47.66297775 770.08984375 42.89453125 C729.49984375 42.89453125 688.90984375 42.89453125 647.08984375 42.89453125 C647.08984375 45.53453125 647.08984375 48.17453125 647.08984375 50.89453125 C644.94272215 61.81377467 639.1980362 71.16633101 630.27734375 77.83203125 C618.17012069 85.42872023 604.90375462 87.1287011 590.89453125 84.234375 C580.39342164 80.43224911 570.54696605 71.53987251 565.77734375 61.45703125 C563.29587583 55.29063672 562.08984375 49.53933757 562.08984375 42.89453125 C521.49984375 42.89453125 480.90984375 42.89453125 439.08984375 42.89453125 C438.75984375 45.86453125 438.42984375 48.83453125 438.08984375 51.89453125 C434.44354696 62.75269179 427.02993016 71.63067637 416.83984375 76.89453125 C415.2769494 77.60779847 413.69195907 78.27435758 412.08984375 78.89453125 C411.17976563 79.25675781 410.2696875 79.61898437 409.33203125 79.9921875 C399.33413388 82.77473484 387.90318582 81.93985969 378.6328125 77.375 C366.92905392 70.56129109 358.62304967 61.14405344 355.08984375 47.89453125 C355.08984375 46.24453125 355.08984375 44.59453125 355.08984375 42.89453125 C313.83984375 42.89453125 272.58984375 42.89453125 230.08984375 42.89453125 C229.75984375 45.86453125 229.42984375 48.83453125 229.08984375 51.89453125 C226.33863998 62.09016876 219.51112611 69.78028778 210.6953125 75.421875 C199.8152008 81.57150335 187.75541716 83.07539939 175.58203125 80.01171875 C165.35642333 76.06269881 155.64787034 68.96237268 150.6484375 59.03125 C148.19664032 53.42215275 146.97418929 49.08495003 146.08984375 42.89453125 C105.16984375 42.89453125 64.24984375 42.89453125 22.08984375 42.89453125 C21.09984375 47.84453125 21.09984375 47.84453125 20.08984375 52.89453125 C15.31047599 65.60498607 7.51850251 73.0693738 -4.68310547 78.71484375 C-9.87805232 80.88316939 -14.5579106 81.44011966 -20.16015625 81.39453125 C-20.99281006 81.38808594 -21.82546387 81.38164062 -22.68334961 81.375 C-34.47110205 81.02779753 -43.56234985 76.11212923 -51.91015625 67.89453125 C-60.1438515 58.66520682 -63.7495131 47.46959021 -63.2890625 35.15625 C-61.83692775 22.65591476 -56.74790517 12.77710897 -47.22265625 4.58203125 C-33.05850689 -5.87145024 -15.90886237 -7.92658603 0 0 Z " fill="#268D26" transform="translate(170.91015625,413.10546875)"/>
<path d="M0 0 C11.07414138 6.79008668 18.51837035 16.39437436 22.08984375 28.89453125 C22.08984375 31.86453125 22.08984375 34.83453125 22.08984375 37.89453125 C63.00984375 37.89453125 103.92984375 37.89453125 146.08984375 37.89453125 C146.08984375 34.92453125 146.08984375 31.95453125 146.08984375 28.89453125 C149.10936116 17.87195662 155.74357375 8.44967967 165.08984375 1.89453125 C176.54773088 -4.1797185 188.06150987 -6.13069249 200.81640625 -3.26953125 C212.24773268 0.79554665 221.38711652 8.10926728 227.08984375 18.89453125 C229.68107327 25.42258424 231.08984375 30.8338337 231.08984375 37.89453125 C272.00984375 37.89453125 312.92984375 37.89453125 355.08984375 37.89453125 C355.08984375 34.59453125 355.08984375 31.29453125 355.08984375 27.89453125 C357.33536902 17.79587063 364.22988242 8.35525001 372.91455078 2.70800781 C384.26987951 -3.79494093 396.29536615 -6.3553862 409.21875 -3.38671875 C411.63925126 -2.44730668 413.83462339 -1.38875645 416.08984375 -0.10546875 C416.78078125 0.25675781 417.47171875 0.61898438 418.18359375 0.9921875 C427.34104953 6.1872826 434.38013797 14.01410573 438.08984375 23.89453125 C441.11296393 37.04376638 440.48411459 48.95562677 433.98046875 61 C428.47738689 69.42517285 421.45204949 75.27045161 412.08984375 78.89453125 C411.17976563 79.25675781 410.2696875 79.61898437 409.33203125 79.9921875 C399.33413388 82.77473484 387.90318582 81.93985969 378.6328125 77.375 C366.92905392 70.56129109 358.62304967 61.14405344 355.08984375 47.89453125 C355.08984375 46.24453125 355.08984375 44.59453125 355.08984375 42.89453125 C313.83984375 42.89453125 272.58984375 42.89453125 230.08984375 42.89453125 C229.75984375 45.86453125 229.42984375 48.83453125 229.08984375 51.89453125 C226.33863998 62.09016876 219.51112611 69.78028778 210.6953125 75.421875 C199.8152008 81.57150335 187.75541716 83.07539939 175.58203125 80.01171875 C165.35642333 76.06269881 155.64787034 68.96237268 150.6484375 59.03125 C148.19664032 53.42215275 146.97418929 49.08495003 146.08984375 42.89453125 C105.16984375 42.89453125 64.24984375 42.89453125 22.08984375 42.89453125 C21.09984375 47.84453125 21.09984375 47.84453125 20.08984375 52.89453125 C15.31047599 65.60498607 7.51850251 73.0693738 -4.68310547 78.71484375 C-9.87805232 80.88316939 -14.5579106 81.44011966 -20.16015625 81.39453125 C-20.99281006 81.38808594 -21.82546387 81.38164062 -22.68334961 81.375 C-34.47110205 81.02779753 -43.56234985 76.11212923 -51.91015625 67.89453125 C-60.1438515 58.66520682 -63.7495131 47.46959021 -63.2890625 35.15625 C-61.83692775 22.65591476 -56.74790517 12.77710897 -47.22265625 4.58203125 C-33.05850689 -5.87145024 -15.90886237 -7.92658603 0 0 Z " fill="#258D25" transform="translate(170.91015625,413.10546875)"/>
<path d="M0 0 C11.07414138 6.79008668 18.51837035 16.39437436 22.08984375 28.89453125 C22.08984375 31.86453125 22.08984375 34.83453125 22.08984375 37.89453125 C63.00984375 37.89453125 103.92984375 37.89453125 146.08984375 37.89453125 C146.08984375 39.54453125 146.08984375 41.19453125 146.08984375 42.89453125 C105.16984375 42.89453125 64.24984375 42.89453125 22.08984375 42.89453125 C21.09984375 47.84453125 21.09984375 47.84453125 20.08984375 52.89453125 C15.31047599 65.60498607 7.51850251 73.0693738 -4.68310547 78.71484375 C-9.87805232 80.88316939 -14.5579106 81.44011966 -20.16015625 81.39453125 C-20.99281006 81.38808594 -21.82546387 81.38164062 -22.68334961 81.375 C-34.47110205 81.02779753 -43.56234985 76.11212923 -51.91015625 67.89453125 C-60.1438515 58.66520682 -63.7495131 47.46959021 -63.2890625 35.15625 C-61.83692775 22.65591476 -56.74790517 12.77710897 -47.22265625 4.58203125 C-33.05850689 -5.87145024 -15.90886237 -7.92658603 0 0 Z " fill="#258D25" transform="translate(170.91015625,413.10546875)"/>
<path d="M0 0 C6.65030071 3.80732847 12.61630901 9.95307707 14.72265625 17.515625 C16.1441558 28.31902161 15.76132106 37.13726255 9.671875 46.296875 C4.36482077 53.1999382 -2.8137262 57.33453027 -11.390625 58.765625 C-21.20086484 59.24258694 -28.95007344 56.552297 -36.34375 50.06640625 C-43.8945672 42.13048362 -45.44507667 35.2813338 -45.4206543 24.4831543 C-45.2069427 18.3207974 -43.76696396 14.08017965 -39.92578125 9.1875 C-39.24515625 8.135625 -38.56453125 7.08375 -37.86328125 6 C-28.33485147 -4.53142239 -12.37319431 -5.89004952 0 0 Z " fill="#99E384" transform="translate(1541.92578125,423.8125)"/>
<path d="M0 0 C6.49317288 5.49512641 10.20744573 12.48202778 11.4140625 20.8828125 C11.87474048 30.16911078 8.93418665 38.53801501 3.3125 45.9375 C-1.3875944 50.94359013 -8.98762122 54.66100401 -15.8203125 55.23828125 C-26.41000365 55.47611119 -33.37779665 53.29008572 -41.20703125 46.0703125 C-47.58697148 38.70349698 -49.49647802 30.27747049 -49.3984375 20.77734375 C-48.52516318 12.49836074 -44.58845169 6.11156409 -38.625 0.4375 C-26.86946134 -8.9396378 -12.31165547 -8.56144838 0 0 Z " fill="#9EE988" transform="translate(1191,427)"/>
<path d="M0 0 C7.38963493 4.2015634 12.73309819 9.94302535 15.90234375 17.88671875 C18.19817336 26.97494367 17.36482884 36.42335605 12.5625 44.5 C7.47780564 52.12704154 1.43986346 56.22929802 -7.4375 58.5 C-17.03157704 60.00449941 -24.44331574 57.93364103 -32.4375 52.5 C-37.58507991 48.14993247 -39.99178927 42.6581742 -42.4375 36.5 C-42.7675 35.84 -43.0975 35.18 -43.4375 34.5 C-44.37589963 23.91608287 -42.9678037 15.56132043 -36.25 7.1875 C-26.78999788 -2.90589319 -12.63900494 -5.8886273 0 0 Z " fill="#3CEB3C" transform="translate(581.4375,423.5)"/>
<path d="M0 0 C7.43868645 3.9405681 13.59970522 9.72118953 17.125 17.4375 C19.58152038 26.93289607 19.08706851 36.89982331 14.125 45.4375 C8.87471859 52.93604548 2.91671226 56.87460233 -5.875 59.4375 C-14.77934662 60.51099356 -21.35482198 59.28603583 -28.875 54.4375 C-29.7825 53.880625 -30.69 53.32375 -31.625 52.75 C-37.75298966 46.45178841 -41.84970098 38.42128653 -42.1875 29.625 C-41.96267663 20.79076424 -38.67540719 13.10233073 -32.875 6.4375 C-23.48060997 -1.31659971 -11.79923753 -4.78958597 0 0 Z " fill="#9EE988" transform="translate(994.875,422.5625)"/>
<path d="M0 0 C1.47982716 0.8815472 2.94222051 1.79388451 4.375 2.75 C5.73625 3.5853125 5.73625 3.5853125 7.125 4.4375 C13.40238603 10.88925787 17.24063932 19.00660046 17.75 28 C17.5083565 36.86529582 13.59240287 45.47555674 7.375 51.75 C-0.86454971 58.20980697 -9.30814855 59.72960489 -19.625 58.75 C-27.21773177 56.8170942 -33.80784268 51.88835517 -38.19921875 45.4375 C-43.23676705 36.66148463 -44.32353694 26.96975293 -41.6875 17.0625 C-38.48383789 8.93358165 -31.45222641 2.00291806 -23.4921875 -1.46875 C-15.62378456 -3.612729 -7.40509431 -3.55886622 0 0 Z " fill="#9FEA88" transform="translate(163.625,423.25)"/>
<path d="M0 0 C8.46143941 4.48236103 15.07222429 11.27917287 18.125 20.4375 C18.96340282 31.66012056 18.79697564 40.33376352 11.515625 49.453125 C6.43500006 54.99986232 -0.29372203 59.0204786 -7.87890625 59.7109375 C-16.22337543 59.9490892 -21.87211738 59.0302127 -28.875 54.4375 C-29.7825 53.880625 -30.69 53.32375 -31.625 52.75 C-39.42168159 44.73674392 -41.18900111 36.72166952 -41.26660156 25.94433594 C-41.15657131 19.66724439 -39.77755874 15.43232008 -35.875 10.4375 C-35.0396875 9.1071875 -35.0396875 9.1071875 -34.1875 7.75 C-25.26475888 -1.17274112 -11.99751583 -4.90807466 0 0 Z " fill="#9EE887" transform="translate(370.875,422.5625)"/>
<path d="M0 0 C7.49719374 4.54685004 12.94563479 11.18421075 15.8125 19.46484375 C17.89983084 28.14031256 16.57192357 36.20012709 12.4375 44.0625 C7.34047235 51.42612623 1.89435764 55.24354745 -6.5625 58.0625 C-23.64429338 59.22155383 -23.64429338 59.22155383 -30.5625 54.0625 C-31.614375 53.32 -32.66625 52.5775 -33.75 51.8125 C-40.8999543 44.82143357 -43.57176326 37.30969258 -44.0625 27.375 C-43.92981411 19.06886334 -41.33591007 12.42523052 -35.88671875 6.125 C-34.19472272 4.56914159 -32.48711404 3.31515828 -30.5625 2.0625 C-29.758125 1.44761719 -29.758125 1.44761719 -28.9375 0.8203125 C-21.21404824 -4.17924332 -8.2407315 -3.67958244 0 0 Z " fill="#9EE988" transform="translate(789.5625,427.9375)"/>
<path d="M0 0 C6.53551397 4.67668119 11.43708311 10.31124933 14 18 C14.83547623 29.29947359 14.03639617 38.35439546 6.6875 47.375 C0.49337482 53.93971386 -6.81602836 57.03336184 -15.8125 57.375 C-24.68280008 57.18860309 -30.77430267 53.90409033 -37.20703125 47.93359375 C-44.73883157 39.81106399 -45.53939659 31.93836213 -45.3515625 21.22265625 C-45.07105128 15.87762111 -43.2793116 12.18231045 -40 8 C-39.401875 7.0925 -38.80375 6.185 -38.1875 5.25 C-28.23657909 -4.98523294 -12.24332419 -7.74344571 0 0 Z " fill="#99E283" transform="translate(1376,425)"/>
<path d="M0 0 C0.6909375 0.39316406 1.381875 0.78632813 2.09375 1.19140625 C2.7846875 1.55363281 3.475625 1.91585938 4.1875 2.2890625 C13.34495578 7.4841576 20.38404422 15.31098073 24.09375 25.19140625 C27.11687018 38.34064138 26.48802084 50.25250177 19.984375 62.296875 C14.48129314 70.72204785 7.45595574 76.56732661 -1.90625 80.19140625 C-3.27136719 80.73474609 -3.27136719 80.73474609 -4.6640625 81.2890625 C-14.66195987 84.07160984 -26.09290793 83.23673469 -35.36328125 78.671875 C-45.02918732 73.04456563 -52.68538216 65.71356969 -56.90625 55.19140625 C-57.26203125 54.32 -57.6178125 53.44859375 -57.984375 52.55078125 C-60.75417943 42.45742613 -60.44025836 29.30029288 -55.6953125 19.9296875 C-43.96929616 1.98222581 -21.06375696 -10.3515381 0 0 Z M-39.90625 19.19140625 C-46.2397795 27.59131275 -47.90971625 35.75535727 -46.90625 46.19140625 C-46.01375562 49.51797621 -44.69199164 52.25609344 -42.90625 55.19140625 C-42.49375 55.89007813 -42.08125 56.58875 -41.65625 57.30859375 C-37.37692678 63.75189291 -31.20627645 67.7580641 -23.90625 70.19140625 C-14.68624485 71.12003986 -6.88271404 70.07542143 1.09375 65.19140625 C8.23926052 59.25045806 12.30972347 52.04409549 13.5390625 42.8671875 C14.03226049 33.12116639 11.64366253 25.46625244 5.23046875 18.03125 C-1.34417244 11.82552656 -7.87148398 8.99256512 -16.90625 8.69140625 C-26.34741723 8.99628786 -33.49445017 12.21997301 -39.90625 19.19140625 Z " fill="#248C24" transform="translate(584.90625,411.80859375)"/>
<path d="M0 0 C9.7616222 5.99765915 18.32691874 14.83224134 21.6171875 26.0625 C23.62537171 38.11160527 23.11588424 50.80587611 16.546875 61.3828125 C14.84629456 63.70213959 13.05480885 65.79977374 11.08984375 67.8984375 C10.51621094 68.52492188 9.94257812 69.15140625 9.3515625 69.796875 C0.98951074 77.99777373 -9.1759037 81.45932365 -20.66015625 81.5234375 C-33.25303746 81.26651591 -41.54186727 76.83252496 -50.66015625 68.3359375 C-58.97206356 59.33137125 -62.08532666 50.78656212 -62.16015625 38.7109375 C-62.18078125 37.89818359 -62.20140625 37.08542969 -62.22265625 36.24804688 C-62.28975799 25.70468542 -58.52230811 16.98363058 -51.47265625 9.2109375 C-50.62703125 8.4478125 -49.78140625 7.6846875 -48.91015625 6.8984375 C-48.02328125 6.0734375 -47.13640625 5.2484375 -46.22265625 4.3984375 C-33.18534673 -6.3301818 -14.84153235 -7.37747115 0 0 Z M-43.91015625 18.8984375 C-49.65338907 27.13979291 -51.38746504 34.97137012 -49.91015625 44.8984375 C-47.5678186 53.60001639 -43.60958168 60.476683 -35.7890625 65.171875 C-27.87487675 69.26692157 -19.859577 70.33450458 -11.078125 68.21484375 C-1.0710318 64.51022092 3.43000423 59.16200012 7.92578125 49.60546875 C11.11022789 42.20002739 11.29073792 34.26548552 8.52734375 26.6484375 C4.57176071 18.10766305 -1.03576888 12.89204749 -9.58984375 8.96875 C-22.61541403 4.76991911 -35.10585949 8.69135971 -43.91015625 18.8984375 Z " fill="#258C24" transform="translate(1191.91015625,413.1015625)"/>
<path d="M0 0 C2.66768298 1.37668436 3.90964687 2.70570998 6 5 C6.875 7.8125 6.875 7.8125 7 10 C7.78375 9.95875 8.5675 9.9175 9.375 9.875 C12 10 12 10 14 12 C13.63318342 14.93453261 13.13562754 15.86437246 11 18 C11.66 18.556875 12.32 19.11375 13 19.6875 C15 22 15 22 15.4375 24.5625 C15 27 15 27 14 28.8125 C10.79653932 30.71455478 7.56560199 30.63944519 4 30 C0.55687286 27.8755173 -0.71617547 26.85147359 -2 23 C-2.70125 23.495 -3.4025 23.99 -4.125 24.5 C-7.43925206 26.22917499 -9.31277109 26.4809429 -13 26 C-14.9375 24.875 -14.9375 24.875 -16 23 C-15.75921963 19.14751405 -15.15973378 17.23960066 -13 14 C-13.66 13.01 -14.32 12.02 -15 11 C-15.4375 8.0625 -15.4375 8.0625 -15 5 C-10.44834746 0.56812779 -6.34876628 -1.04831206 0 0 Z " fill="#8BCB77" transform="translate(1172,436)"/>
<path d="M0 0 C1.82148536 0.20173754 3.63410066 0.48652795 5.4375 0.8125 C6.42621094 0.98394531 7.41492188 1.15539062 8.43359375 1.33203125 C11 2 11 2 13 4 C13.24291992 6.41430664 13.24291992 6.41430664 13.23046875 9.41015625 C13.22853516 10.48201172 13.22660156 11.55386719 13.22460938 12.65820312 C13.20624023 14.34333008 13.20624023 14.34333008 13.1875 16.0625 C13.18685547 17.18978516 13.18621094 18.31707031 13.18554688 19.47851562 C13.14013317 27.85986683 13.14013317 27.85986683 12 29 C10.00041636 29.04080783 7.99954746 29.04254356 6 29 C6 29.66 6 30.32 6 31 C4.68 31 3.36 31 2 31 C1.505 32.485 1.505 32.485 1 34 C1 33.01 1 32.02 1 31 C-0.65 31 -2.3 31 -4 31 C-4 30.34 -4 29.68 -4 29 C-4.804375 29.020625 -5.60875 29.04125 -6.4375 29.0625 C-9 29 -9 29 -10 28 C-10.09959621 26.15840977 -10.13080411 24.31303033 -10.1328125 22.46875 C-10.13410156 21.34855469 -10.13539063 20.22835938 -10.13671875 19.07421875 C-10.13285156 17.89472656 -10.12898438 16.71523438 -10.125 15.5 C-10.12886719 14.32050781 -10.13273437 13.14101563 -10.13671875 11.92578125 C-10.13542969 10.80558594 -10.13414062 9.68539063 -10.1328125 8.53125 C-10.13168457 7.49548828 -10.13055664 6.45972656 -10.12939453 5.39257812 C-10 3 -10 3 -9 2 C-6.9427083 1.68076508 -4.88386479 1.48838648 -2.8125 1.28125 C-0.9832467 1.18001957 -0.9832467 1.18001957 0 0 Z " fill="#9CE586" transform="translate(358,434)"/>
<path d="M0 0 C40.92 0 81.84 0 124 0 C124 1.65 124 3.3 124 5 C83.08 5 42.16 5 0 5 C0 3.35 0 1.7 0 0 Z " fill="#4FED4F" transform="translate(402,451)"/>
<path d="M0 0 C40.92 0 81.84 0 124 0 C124 1.65 124 3.3 124 5 C83.08 5 42.16 5 0 5 C0 3.35 0 1.7 0 0 Z " fill="#4FED4F" transform="translate(193,451)"/>
<path d="M0 0 C0.33 0 0.66 0 1 0 C1 1.98 1 3.96 1 6 C41.26 6 81.52 6 123 6 C123 7.65 123 9.3 123 11 C82.74 11 42.48 11 1 11 C-0.28317892 7.15046324 -0.06643637 4.05261865 0 0 Z " fill="#4FED4F" transform="translate(610,445)"/>
<path d="M0 0 C40.59 0 81.18 0 123 0 C123 1.65 123 3.3 123 5 C82.41 5 41.82 5 0 5 C0 3.35 0 1.7 0 0 Z " fill="#4FED4F" transform="translate(818,451)"/>
<path d="M0 0 C2.125 0.375 2.125 0.375 4 1 C4.02689216 2.47906892 4.04634621 3.95827483 4.0625 5.4375 C4.07410156 6.26121094 4.08570313 7.08492188 4.09765625 7.93359375 C4 10 4 10 3 11 C2.75344883 14.23255976 2.61578909 17.46427492 2.4765625 20.703125 C1.96823229 24.21977009 1.09861618 26.16250673 -1 29 C-5.21131066 31.5267864 -9.22984972 31.37858336 -14 31 C-16.0625 29.625 -16.0625 29.625 -18 28 C-20.32108669 27.29187186 -22.65377147 26.61975848 -25 26 C-27.31153053 23.68846947 -26.28032078 18.22707644 -26.3125 15.125 C-26.35600586 13.73861328 -26.35600586 13.73861328 -26.40039062 12.32421875 C-26.40876953 11.43605469 -26.41714844 10.54789062 -26.42578125 9.6328125 C-26.44036377 8.81699707 -26.45494629 8.00118164 -26.4699707 7.16064453 C-26 5 -26 5 -24.21948242 3.23388672 C-20.88295347 1.37899536 -17.67907716 1.48274361 -14 2 C-11 3.0625 -11 3.0625 -9 5 C-8.6875 8.6875 -8.6875 8.6875 -9 12 C-7.68 12.33 -6.36 12.66 -5 13 C-4.1875 15.6875 -4.1875 15.6875 -4 19 C-7.06093376 22.89573387 -10.85075669 25.39466118 -15 28 C-13.60427948 28.02736707 -12.20839779 28.04655989 -10.8125 28.0625 C-9.64654297 28.07990234 -9.64654297 28.07990234 -8.45703125 28.09765625 C-5.87887289 27.99518573 -3.51344269 27.56697553 -1 27 C-0.97315321 24.35409986 -0.95323643 21.70846904 -0.9375 19.0625 C-0.92912109 18.30775391 -0.92074219 17.55300781 -0.91210938 16.77539062 C-0.90347559 14.85005687 -0.94775667 12.92464419 -1 11 C-1.33 10.67 -1.66 10.34 -2 10 C-2.27314815 4.26388889 -2.27314815 4.26388889 -2 2 C-1.34 1.34 -0.68 0.68 0 0 Z " fill="#F1FDF1" transform="translate(579,436)"/>
<path d="M0 0 C34.32 0 68.64 0 104 0 C104 1.65 104 3.3 104 5 C69.68 5 35.36 5 0 5 C0 3.35 0 1.7 0 0 Z " fill="#4FED4F" transform="translate(1214,451)"/>
<path d="M0 0 C0.33 0 0.66 0 1 0 C1 3.3 1 6.6 1 10 C-33.32 10 -67.64 10 -103 10 C-103 8.68 -103 7.36 -103 6 C-69.01 6 -35.02 6 0 6 C0 4.02 0 2.04 0 0 Z " fill="#3CEA3C" transform="translate(1129,446)"/>
<path d="M0 0 C3.375 0.375 3.375 0.375 6.25 2.3125 C8.60489531 5.70631971 9.57596178 8.05430549 9.8359375 12.15234375 C9.22629595 15.09205599 8.14340618 16.02188493 5.8125 17.875 C-0.56382058 21.79803952 -0.56382058 21.79803952 -4.625 21.375 C-8.70565464 18.60598435 -11.89312177 15.47281734 -14.625 11.375 C-15.0787248 7.82082242 -15.08880307 6.06142854 -13.0625 3.0625 C-8.99665807 0.24768635 -4.79720165 0.49626224 0 0 Z " fill="#22321D" transform="translate(153.625,447.625)"/>
<path d="M0 0 C0.495 1.485 0.495 1.485 1 3 C0.360625 3.495 -0.27875 3.99 -0.9375 4.5 C-3.36308835 6.9353316 -3.36308835 6.9353316 -3.1953125 10.6875 C-3.76137347 16.17460924 -7.03885885 18.89887656 -10.9375 22.5 C-11.90719727 23.44746094 -11.90719727 23.44746094 -12.89648438 24.4140625 C-17.67598417 29 -17.67598417 29 -20 29 C-19.34 30.32 -18.68 31.64 -18 33 C-20.66666667 31.66666667 -23.33333333 30.33333333 -26 29 C-25.67 30.32 -25.34 31.64 -25 33 C-28.24271506 32.4409112 -29.93057424 31.5867822 -32 29 C-32 28.34 -32 27.68 -32 27 C-30.68 27.33 -29.36 27.66 -28 28 C-28.62759865 25.07120629 -29.58622659 22.63904371 -31 20 C-29.515 20.99 -29.515 20.99 -28 22 C-27.5875 21.5153125 -27.175 21.030625 -26.75 20.53125 C-24.85621373 18.33310522 -22.93100342 16.16550858 -21 14 C-20.35160156 13.24847656 -19.70320312 12.49695313 -19.03515625 11.72265625 C-13.46915759 5.62761217 -13.46915759 5.62761217 -8.8125 5.3125 C-4.82940095 5.36035904 -4.82940095 5.36035904 -2 2.4375 C-1.34 1.633125 -0.68 0.82875 0 0 Z " fill="#1A2616" transform="translate(789,441)"/>
<path d="M0 0 C2.74609375 1.4921875 2.74609375 1.4921875 5 3 C7.69254991 3.70670728 7.69254991 3.70670728 10 4 C10 6.31 10 8.62 10 11 C5.25 10.125 5.25 10.125 3 9 C3 8.01 3 7.02 3 6 C-2.36688164 3.57374248 -7.18415809 3.3072306 -13 4 C-18.00230198 6.45567552 -21.49851535 9.9970307 -24 15 C-24.56088092 20.99711135 -24.45741843 25.87348302 -21 31 C-17.70950291 34.70180922 -15.61903002 36.74190496 -10.58203125 37.23828125 C-4.31807713 37.40614462 1.04781324 37.19121243 6 33 C8.98600846 28.8106747 10.53174525 23.89418249 12 19 C12.66 19 13.32 19 14 19 C13.80301392 26.73618062 11.91703942 32.10188347 6.3828125 37.609375 C1.16918991 41.59231414 -4.25431364 41.73658939 -10.65234375 41.4765625 C-16.43507014 40.65335058 -19.95552805 38.59411642 -23.5546875 34.02734375 C-27.30766339 28.3554734 -29.00009636 22.87125031 -28 16 C-25.92876466 9.45287561 -22.69462132 4.52985517 -16.73828125 0.99609375 C-11.33082699 -0.97095452 -5.63730126 -0.8782752 0 0 Z " fill="#131B10" transform="translate(1534,430)"/>
<path d="M0 0 C1.63954889 0.2366579 3.27861465 0.47733087 4.91455078 0.73779297 C8.58158357 1.19885516 12.24753834 1.10360497 15.9375 1.0625 C16.71673828 1.05798828 17.49597656 1.05347656 18.29882812 1.04882812 C20.19925268 1.03716908 22.09963706 1.01923877 24 1 C23.8125 2.875 23.8125 2.875 23 5 C21.35 5.66 19.7 6.32 18 7 C17.67 13.27 17.34 19.54 17 26 C15.02 25.67 13.04 25.34 11 25 C9.32656552 25.29749946 7.65694085 25.62127066 6 26 C5 25 5 25 4.88647461 23.14233398 C4.89432983 21.95619507 4.89432983 21.95619507 4.90234375 20.74609375 C4.90556641 19.89208984 4.90878906 19.03808594 4.91210938 18.15820312 C4.92048828 17.26037109 4.92886719 16.36253906 4.9375 15.4375 C4.94201172 14.53580078 4.94652344 13.63410156 4.95117188 12.70507812 C4.96299775 10.46998686 4.9794778 8.23502563 5 6 C3.35 6 1.7 6 0 6 C-0.38218767 4.34385343 -0.71395102 2.67542976 -1 1 C-0.67 0.67 -0.34 0.34 0 0 Z " fill="#24351F" transform="translate(972,444)"/>
<path d="M0 0 C27.39 0 54.78 0 83 0 C83 1.32 83 2.64 83 4 C55.61 4 28.22 4 0 4 C0 2.68 0 1.36 0 0 Z " fill="#49E949" transform="translate(1403,449)"/>
<path d="M0 0 C1.82148536 0.20173754 3.63410066 0.48652795 5.4375 0.8125 C6.42621094 0.98394531 7.41492188 1.15539062 8.43359375 1.33203125 C11 2 11 2 13 4 C13.24291992 6.41430664 13.24291992 6.41430664 13.23046875 9.41015625 C13.22853516 10.48201172 13.22660156 11.55386719 13.22460938 12.65820312 C13.20624023 14.34333008 13.20624023 14.34333008 13.1875 16.0625 C13.18685547 17.18978516 13.18621094 18.31707031 13.18554688 19.47851562 C13.14013317 27.85986683 13.14013317 27.85986683 12 29 C10.00041636 29.04080783 7.99954746 29.04254356 6 29 C6 29.66 6 30.32 6 31 C4.68 31 3.36 31 2 31 C1.505 32.485 1.505 32.485 1 34 C1 33.01 1 32.02 1 31 C-0.65 31 -2.3 31 -4 31 C-4 30.34 -4 29.68 -4 29 C-4.804375 29.020625 -5.60875 29.04125 -6.4375 29.0625 C-9 29 -9 29 -10 28 C-10.09959621 26.15840977 -10.13080411 24.31303033 -10.1328125 22.46875 C-10.13410156 21.34855469 -10.13539063 20.22835938 -10.13671875 19.07421875 C-10.13285156 17.89472656 -10.12898438 16.71523438 -10.125 15.5 C-10.12886719 14.32050781 -10.13273437 13.14101563 -10.13671875 11.92578125 C-10.13542969 10.80558594 -10.13414062 9.68539063 -10.1328125 8.53125 C-10.13168457 7.49548828 -10.13055664 6.45972656 -10.12939453 5.39257812 C-10 3 -10 3 -9 2 C-6.9427083 1.68076508 -4.88386479 1.48838648 -2.8125 1.28125 C-0.9832467 1.18001957 -0.9832467 1.18001957 0 0 Z M0 2 C-0.33 2.33 -0.66 2.66 -1 3 C-4.5 3.5 -4.5 3.5 -8 4 C-9.44388571 5.21428988 -9.44388571 5.21428988 -9.09765625 8.81640625 C-9.09098089 10.39846682 -9.07901875 11.98051159 -9.0625 13.5625 C-9.05798828 14.36880859 -9.05347656 15.17511719 -9.04882812 16.00585938 C-9.03700518 18.00393756 -9.01906914 20.00197783 -9 22 C-7.41705218 22.05437607 -5.83355744 22.09296271 -4.25 22.125 C-3.36828125 22.14820313 -2.4865625 22.17140625 -1.578125 22.1953125 C0.98231212 22.16992795 0.98231212 22.16992795 2.953125 20.9921875 C5 20 5 20 11 20 C11 14.72 11 9.44 11 4 C9.205625 3.649375 7.41125 3.29875 5.5625 2.9375 C4.04849609 2.64166016 4.04849609 2.64166016 2.50390625 2.33984375 C1.67761719 2.22769531 0.85132813 2.11554688 0 2 Z " fill="#10170D" transform="translate(358,434)"/>
<path d="M0 0 C0.33 0 0.66 0 1 0 C1 2.31 1 4.62 1 7 C2.32 7.33 3.64 7.66 5 8 C5.8125 10.6875 5.8125 10.6875 6 14 C3.22382312 17.51104723 0.07142558 20.1208805 -4 22 C-5.32 21.67 -6.64 21.34 -8 21 C-8 15.72 -8 10.44 -8 5 C-4.535 4.505 -4.535 4.505 -1 4 C-0.67 2.68 -0.34 1.36 0 0 Z " fill="#DFFBDF" transform="translate(569,441)"/>
<path d="M0 0 C2.125 1.8125 2.125 1.8125 3.1875 4.25 C3.125 6.8125 3.125 6.8125 1.8125 9.125 C-2.18959082 11.63794075 -6.26544927 11.63246816 -10.875 10.8125 C-13.15234375 9.47265625 -13.15234375 9.47265625 -14.875 7.8125 C-15.4375 4.8125 -15.4375 4.8125 -14.875 1.8125 C-10.45900789 -2.20203828 -5.35839223 -2.21324896 0 0 Z " fill="#98DF82" transform="translate(1173.875,439.1875)"/>
<path d="M0 0 C1.04027344 -0.00773437 2.08054687 -0.01546875 3.15234375 -0.0234375 C6.34212499 0.41328423 7.71252307 1.23453908 10.0625 3.375 C9.6875 6.3125 9.6875 6.3125 9.0625 9.375 C6.09208551 10.86020725 3.36485553 10.5455822 0.0625 10.5625 C-1.8246875 10.58376953 -1.8246875 10.58376953 -3.75 10.60546875 C-6.9375 10.375 -6.9375 10.375 -8.9375 8.375 C-9.290288 5.6232536 -9.4080351 4.04559255 -7.7890625 1.73828125 C-5.1679551 -0.19160584 -3.22323172 -0.0239053 0 0 Z " fill="#202F1B" transform="translate(1360.9375,438.625)"/>
<path d="M0 0 C0.36923077 5.53846154 0.36923077 5.53846154 -1.5 7.875 C-1.995 8.24625 -2.49 8.6175 -3 9 C-4.32 8.34 -5.64 7.68 -7 7 C-6.67 8.65 -6.34 10.3 -6 12 C-7.32 12 -8.64 12 -10 12 C-10 13.32 -10 14.64 -10 16 C-11.1875 17.8125 -11.1875 17.8125 -13 19 C-15.6875 18.6875 -15.6875 18.6875 -18 18 C-18.87890625 15.92578125 -18.87890625 15.92578125 -19 13 C-17.33020523 10.37962221 -15.16912339 8.33301574 -12.9375 6.1875 C-12.07608398 5.2912793 -12.07608398 5.2912793 -11.19726562 4.37695312 C-7.54204938 0.77118738 -5.38271864 -0.81109459 0 0 Z " fill="#98DF82" transform="translate(783,449)"/>
<path d="M0 0 C0.78375 0.165 1.5675 0.33 2.375 0.5 C8.54787308 1.35143077 14.93002268 1.61866062 21 0 C21 0.66 21 1.32 21 2 C19.02 2.66 17.04 3.32 15 4 C14.67 10.27 14.34 16.54 14 23 C13.67 23 13.34 23 13 23 C12.67 19.37 12.34 15.74 12 12 C11.01 12.33 10.02 12.66 9 13 C8.67 16.3 8.34 19.6 8 23 C7.34 23 6.68 23 6 23 C6 16.4 6 9.8 6 3 C3.03 2.505 3.03 2.505 0 2 C0 1.34 0 0.68 0 0 Z " fill="#9BE485" transform="translate(973,446)"/>
<path d="M0 0 C0.391875 0.66 0.78375 1.32 1.1875 2 C2.85416667 4.29166667 2.85416667 4.29166667 5.6875 4.25 C6.8321875 4.12625 6.8321875 4.12625 8 4 C8.33 2.68 8.66 1.36 9 0 C10.98 1.98 12.96 3.96 15 6 C14.566875 6.8353125 14.566875 6.8353125 14.125 7.6875 C12.9586747 10.08494645 11.9660119 12.51596939 11 15 C5.6093195 14.16036805 2.12388532 10.25561548 -1 6 C-1 2.5 -1 2.5 0 0 Z " fill="#99E183" transform="translate(141,452)"/>
<path d="M0 0 C2.125 0.375 2.125 0.375 4 1 C4.02689216 2.47906892 4.04634621 3.95827483 4.0625 5.4375 C4.07410156 6.26121094 4.08570313 7.08492188 4.09765625 7.93359375 C4 10 4 10 3 11 C2.75344883 14.23255976 2.61578909 17.46427492 2.4765625 20.703125 C1.96823229 24.21977009 1.09861618 26.16250673 -1 29 C-5.19850763 31.51910458 -9.24908677 31.16104791 -14 31 C-10.99559979 28.99706653 -9.29006055 28.50728374 -5.8125 27.875 C-4.91144531 27.70742188 -4.01039063 27.53984375 -3.08203125 27.3671875 C-2.39496094 27.24601562 -1.70789063 27.12484375 -1 27 C-0.97315321 24.35409986 -0.95323643 21.70846904 -0.9375 19.0625 C-0.92912109 18.30775391 -0.92074219 17.55300781 -0.91210938 16.77539062 C-0.90347559 14.85005687 -0.94775667 12.92464419 -1 11 C-1.33 10.67 -1.66 10.34 -2 10 C-2.27314815 4.26388889 -2.27314815 4.26388889 -2 2 C-1.34 1.34 -0.68 0.68 0 0 Z " fill="#D7FBD7" transform="translate(579,436)"/>
<path d="M0 0 C0.268125 0.61875 0.53625 1.2375 0.8125 1.875 C1.95556848 4.2995233 1.95556848 4.2995233 5 6 C7.0492094 6.45139459 7.0492094 6.45139459 9.1875 6.625 C10.445625 6.74875 11.70375 6.8725 13 7 C13 7.33 13 7.66 13 8 C11.35 8.33 9.7 8.66 8 9 C7.67 10.65 7.34 12.3 7 14 C5.35 14 3.7 14 2 14 C2 14.66 2 15.32 2 16 C6.96309296 14.37418243 6.96309296 14.37418243 10.4375 10.8125 C10.623125 10.214375 10.80875 9.61625 11 9 C11.33 10.32 11.66 11.64 12 13 C5.38461538 19 5.38461538 19 1 19 C-0.875 17.9375 -0.875 17.9375 -2 16 C-1.75921963 12.14751405 -1.15973378 10.23960066 1 7 C0.649375 6.401875 0.29875 5.80375 -0.0625 5.1875 C-1 3 -1 3 0 0 Z " fill="#44643A" transform="translate(1158,443)"/>
<path d="M0 0 C2.85574601 1.33788101 3.86056686 2.48616606 6 5 C6.75 8.5625 6.75 8.5625 6 12 C4.02678947 13.3726682 2.02456848 14.70427617 0 16 C-0.69356423 18.32548007 -1.36149212 20.65880445 -2 23 C-5.30047266 25.76526088 -7.74435742 26.36476936 -12 26 C-11.443125 25.7525 -10.88625 25.505 -10.3125 25.25 C-7.55839521 23.76129471 -5.30825486 22.11590028 -3 20 C-3 19.01 -3 18.02 -3 17 C-3.37125 17.804375 -3.7425 18.60875 -4.125 19.4375 C-6 22 -6 22 -9.1875 22.8125 C-10.115625 22.874375 -11.04375 22.93625 -12 23 C-12 22.34 -12 21.68 -12 21 C-10.35 20.67 -8.7 20.34 -7 20 C-7 18.35 -7 16.7 -7 15 C-5.741875 14.731875 -4.48375 14.46375 -3.1875 14.1875 C-0.75474083 13.56637 0.93218641 13.0431541 3.0625 11.6875 C4.21531663 9.94819375 4.21531663 9.94819375 3.9375 7.4375 C3.21363295 4.94855534 3.21363295 4.94855534 1.375 3.6875 C-2.61239152 2.53325509 -6.32861224 2.50310094 -10.3125 3.6875 C-12.58498124 5.45498541 -13.14673232 7.29798569 -14 10 C-14.33 10 -14.66 10 -15 10 C-15.3125 7.75 -15.3125 7.75 -15 5 C-10.36241121 0.60649483 -6.40223817 -1.0314717 0 0 Z " fill="#182314" transform="translate(1172,436)"/>
<path d="M0 0 C1 1 1 1 1 7 C-5.27 7 -11.54 7 -18 7 C-18.33 5.35 -18.66 3.7 -19 2 C-18.15695312 1.93941406 -17.31390625 1.87882812 -16.4453125 1.81640625 C-15.34960938 1.73261719 -14.25390625 1.64882813 -13.125 1.5625 C-12.03445313 1.48128906 -10.94390625 1.40007812 -9.8203125 1.31640625 C-6.24132411 0.91488539 -3.72337904 -0.19094251 0 0 Z " fill="#8BCB77" transform="translate(368,455)"/>
<path d="M0 0 C1 1 1 1 1.25 4.375 C1 8 1 8 -0.1875 9.9375 C-2.66049093 11.38718434 -4.17884512 11.42317323 -7 11 C-8.8125 9.875 -8.8125 9.875 -10 8 C-10.39310741 4.85514075 -10.47555213 2.86718329 -8.9375 0.0625 C-5.84787273 -1.63181173 -3.32782582 -0.73951685 0 0 Z " fill="#669657" transform="translate(158,435)"/>
<path d="M0 0 C3.92683725 0.37758051 5.42346736 1.65223399 8.25 4.3125 C7.375 8.1875 7.375 8.1875 6.25 9.3125 C-0.94389313 9.77662214 -0.94389313 9.77662214 -3.8125 8.125 C-5.1445522 5.54969907 -4.60352401 4.01532604 -3.75 1.3125 C-2.75 0.3125 -2.75 0.3125 0 0 Z " fill="#87C774" transform="translate(1177.75,454.6875)"/>
<path d="M0 0 C0.33 0 0.66 0 1 0 C1 5.94 1 11.88 1 18 C4.63 18 8.26 18 12 18 C12 18.33 12 18.66 12 19 C8.37 19 4.74 19 1 19 C1.33 20.32 1.66 21.64 2 23 C8.27 23 14.54 23 21 23 C21.33 21.02 21.66 19.04 22 17 C22.33 17 22.66 17 23 17 C23.04241723 19.33294775 23.04092937 21.66702567 23 24 C22 25 22 25 18.9375 25.0625 C17.968125 25.041875 16.99875 25.02125 16 25 C16 25.66 16 26.32 16 27 C14.68 27 13.36 27 12 27 C11.67 27.99 11.34 28.98 11 30 C11 29.01 11 28.02 11 27 C9.35 27 7.7 27 6 27 C6 26.34 6 25.68 6 25 C5.195625 25.020625 4.39125 25.04125 3.5625 25.0625 C1 25 1 25 0 24 C-0.08726223 22.21928754 -0.10699041 20.4351686 -0.09765625 18.65234375 C-0.09443359 17.57275391 -0.09121094 16.49316406 -0.08789062 15.38085938 C-0.07951172 14.24455078 -0.07113281 13.10824219 -0.0625 11.9375 C-0.05798828 10.79732422 -0.05347656 9.65714844 -0.04882812 8.48242188 C-0.03699747 5.65489649 -0.0205141 2.8274736 0 0 Z " fill="#020302" transform="translate(348,438)"/>
<path d="M0 0 C6.35470441 0.47960033 6.35470441 0.47960033 8.9375 2.5625 C10.47130372 6.08122619 10.84146919 9.2326884 10 13 C7.6875 15.5 7.6875 15.5 5 17 C4.01 17 3.02 17 2 17 C3.33333333 14.33333333 4.66666667 11.66666667 6 9 C3.69 6.69 1.38 4.38 -1 2 C-0.67 1.34 -0.34 0.68 0 0 Z " fill="#98DF82" transform="translate(151,449)"/>
<path d="M0 0 C2.8125 1.0625 2.8125 1.0625 5 3 C6.62874251 8.7005988 6.62874251 8.7005988 5.0625 11.9375 C1.76433554 13.63655442 -1.42865379 13.61024945 -5 13 C-8.0625 11.4375 -8.0625 11.4375 -10 9 C-10 5.375 -10 5.375 -9 2 C-5.4913604 -0.33909307 -4.12910567 -0.41291057 0 0 Z M-8 4 C-7.67028521 7.29714793 -7.3773161 8.6226839 -5 11 C-3.08993694 11.3176246 -3.08993694 11.3176246 -1 11.25 C-0.29875 11.25515625 0.4025 11.2603125 1.125 11.265625 C3.2435669 11.15705515 3.2435669 11.15705515 5 9 C4.82537038 6.29324094 4.19904177 5.20641369 2.3125 3.25 C-1.50964034 1.18397819 -4.85126934 0.85126934 -8 4 Z " fill="#151F12" transform="translate(1181,453)"/>
<path d="M0 0 C2.31 0.33 4.62 0.66 7 1 C7.33 2.65 7.66 4.3 8 6 C5.6875 6.6875 5.6875 6.6875 3 7 C1.1875 5.5625 1.1875 5.5625 0 4 C0.15404113 9.08335725 3.02068432 11.35754718 6.50390625 14.64453125 C6.99761719 15.09183594 7.49132812 15.53914063 8 16 C7.34 16.66 6.68 17.32 6 18 C4.85111717 16.87811441 3.70598863 15.75238316 2.5625 14.625 C1.60537109 13.68527344 1.60537109 13.68527344 0.62890625 12.7265625 C-1.59965049 10.36439925 -1.9777325 9.34885751 -2.1875 6.0625 C-2 3 -2 3 0 0 Z " fill="#182314" transform="translate(141,450)"/>
<path d="M0 0 C0.33 0 0.66 0 1 0 C1.93359375 2.5390625 1.93359375 2.5390625 2 6 C0.06279816 8.84697149 -2.40349344 11.0608167 -4.9375 13.375 C-5.60974609 14.01566406 -6.28199219 14.65632813 -6.97460938 15.31640625 C-8.63512508 16.89448501 -10.30967306 18.45399634 -12 20 C-13.32 19.34 -14.64 18.68 -16 18 C-14.35 17.01 -12.7 16.02 -11 15 C-11.33 13.02 -11.66 11.04 -12 9 C-9.525 9.99 -9.525 9.99 -7 11 C-7.33 9.02 -7.66 7.04 -8 5 C-5.525 5.99 -5.525 5.99 -3 7 C-0.64046906 4.64046906 -0.50858587 3.22104383 0 0 Z " fill="#1A2616" transform="translate(783,450)"/>
<path d="M0 0 C0.66 0 1.32 0 2 0 C2.66 1.65 3.32 3.3 4 5 C7.03304199 5.22890883 9.97504361 5.36600896 13 5 C14.98239527 3.13875077 14.98239527 3.13875077 16 1 C16.66 1 17.32 1 18 1 C17.50002998 4.69977816 16.99832368 6.69818956 14 9 C11.66015625 9.3984375 11.66015625 9.3984375 9.0625 9.375 C7.78052734 9.38660156 7.78052734 9.38660156 6.47265625 9.3984375 C3.51487064 8.9218275 2.12424153 8.09494164 0 6 C-0.25 2.8125 -0.25 2.8125 0 0 Z " fill="#98E082" transform="translate(1159,441)"/>
<path d="M0 0 C2.375 0.8125 2.375 0.8125 3.375 2.8125 C0.405 2.3175 0.405 2.3175 -2.625 1.8125 C-2.295 3.7925 -1.965 5.7725 -1.625 7.8125 C-0.635 8.1425 0.355 8.4725 1.375 8.8125 C1.375 8.1525 1.375 7.4925 1.375 6.8125 C0.715 6.8125 0.055 6.8125 -0.625 6.8125 C-0.625 6.1525 -0.625 5.4925 -0.625 4.8125 C1.025 4.8125 2.675 4.8125 4.375 4.8125 C4.375 6.7925 4.375 8.7725 4.375 10.8125 C-2.375 10.9375 -2.375 10.9375 -4.625 9.8125 C-6.10482709 3.66552594 -6.10482709 3.66552594 -4.5 0.8125 C-2.625 -0.1875 -2.625 -0.1875 0 0 Z " fill="#273622" transform="translate(1528.625,444.1875)"/>
<path d="M0 0 C1.485 0.99 1.485 0.99 3 2 C3.99 1.67 4.98 1.34 6 1 C6.2475 1.763125 6.495 2.52625 6.75 3.3125 C8.1362594 6.29295772 9.42242461 7.08760536 12 9 C12.75 11.1875 12.75 11.1875 13 13 C10.33333333 11.66666667 7.66666667 10.33333333 5 9 C5.33 10.32 5.66 11.64 6 13 C2.75728494 12.4409112 1.06942576 11.5867822 -1 9 C-1 8.34 -1 7.68 -1 7 C0.32 7.33 1.64 7.66 3 8 C2.37240135 5.07120629 1.41377341 2.63904371 0 0 Z " fill="#090E08" transform="translate(758,461)"/>
<path d="M0 0 C0.33 0 0.66 0 1 0 C1 6.27 1 12.54 1 19 C1.66 19 2.32 19 3 19 C3 15.7 3 12.4 3 9 C4.32 8.67 5.64 8.34 7 8 C7.08090971 9.62418745 7.13914995 11.24951745 7.1875 12.875 C7.22230469 13.77992188 7.25710938 14.68484375 7.29296875 15.6171875 C7.19628906 16.40351563 7.09960938 17.18984375 7 18 C4 20 4 20 0 20 C0 13.4 0 6.8 0 0 Z " fill="#141E11" transform="translate(978,450)"/>
<path d="M0 0 C-1 3 -1 3 -4 5 C-3.67495741 9.82194643 -3.67495741 9.82194643 -1.4375 13.9375 C-0.963125 14.288125 -0.48875 14.63875 0 15 C-0.33 15.33 -0.66 15.66 -1 16 C-2.98 16 -4.96 16 -7 16 C-7 11.05 -7 6.1 -7 1 C-2 0 -2 0 0 0 Z " fill="#44EC44" transform="translate(568,445)"/>
<path d="M0 0 C1.32 0.33 2.64 0.66 4 1 C4 3.97 4 6.94 4 10 C2.34385343 10.38218767 0.67542976 10.71395102 -1 11 C-2.89488952 9.10511048 -2.18019112 6.42860854 -2.23046875 3.91015625 C-2 2 -2 2 0 0 Z " fill="#B2F7B2" transform="translate(579,436)"/>
<path d="M0 0 C-0.99 0.66 -1.98 1.32 -3 2 C-3.28875 3.134375 -3.5775 4.26875 -3.875 5.4375 C-5 9 -5 9 -7.3125 10.9375 C-10.10889189 12.04305028 -12.0243606 12.25505481 -15 12 C-14.443125 11.7525 -13.88625 11.505 -13.3125 11.25 C-10.55839521 9.76129471 -8.30825486 8.11590028 -6 6 C-6 5.01 -6 4.02 -6 3 C-6.37125 3.804375 -6.7425 4.60875 -7.125 5.4375 C-9 8 -9 8 -12.1875 8.8125 C-13.115625 8.874375 -14.04375 8.93625 -15 9 C-15 8.34 -15 7.68 -15 7 C-13.35 6.67 -11.7 6.34 -10 6 C-10 4.35 -10 2.7 -10 1 C-8.71073008 0.63720544 -7.41846728 0.28503302 -6.125 -0.0625 C-5.40570312 -0.25972656 -4.68640625 -0.45695312 -3.9453125 -0.66015625 C-2 -1 -2 -1 0 0 Z " fill="#0E150C" transform="translate(1175,450)"/>
<path d="M0 0 C1.65 0 3.3 0 5 0 C6.31626692 3.61973402 7 6.09567131 7 10 C6.34 10 5.68 10 5 10 C5 9.01 5 8.02 5 7 C3.35 7 1.7 7 0 7 C0 7.99 0 8.98 0 10 C-0.66 10 -1.32 10 -2 10 C-1.34 6.7 -0.68 3.4 0 0 Z " fill="#1F2C1B" transform="translate(1515,445)"/>
<path d="M0 0 C2.00720923 0.28674418 4.0085944 0.61866701 6 1 C6.04254356 2.99954746 6.04080783 5.00041636 6 7 C5 8 5 8 2.5625 8.1875 C0 8 0 8 -2 6 C-1.44444444 1.44444444 -1.44444444 1.44444444 0 0 Z " fill="#192515" transform="translate(981,437)"/>
<path d="M0 0 C1.62490954 -0.02698189 3.24994633 -0.04638757 4.875 -0.0625 C5.77992188 -0.07410156 6.68484375 -0.08570313 7.6171875 -0.09765625 C10 0 10 0 12 1 C11 4 11 4 9 5 C2.52941176 5.35294118 2.52941176 5.35294118 -1 3 C-0.67 2.01 -0.34 1.02 0 0 Z " fill="#50ED50" transform="translate(556,440)"/>
<path d="M0 0 C3 2 3 2 3.625 3.98828125 C3.810625 5.13876953 3.810625 5.13876953 4 6.3125 C4.72490771 10.10151338 5.76822506 12.79788813 8 16 C8.33 16.66 8.66 17.32 9 18 C8.34 18 7.68 18 7 18 C6.67 18.66 6.34 19.32 6 20 C5.18071114 18.75443908 4.36984814 17.50333365 3.5625 16.25 C3.11003906 15.55390625 2.65757813 14.8578125 2.19140625 14.140625 C-0.39335243 9.496534 -0.08650904 5.19054257 0 0 Z " fill="#1C2919" transform="translate(1506,446)"/>
<path d="M0 0 C2.625 0.375 2.625 0.375 5 1 C5.625 3.375 5.625 3.375 6 6 C5.34 6.66 4.68 7.32 4 8 C1.375 7.625 1.375 7.625 -1 7 C-1.625 4.625 -1.625 4.625 -2 2 C-1.34 1.34 -0.68 0.68 0 0 Z " fill="#40EC40" transform="translate(567,449)"/>
<path d="M0 0 C2.33944736 0.28730055 4.6739143 0.61936779 7 1 C4.8614515 3.1385485 3.86724686 3.42655063 1 4 C3.97 4.495 3.97 4.495 7 5 C6.67 11.6 6.34 18.2 6 25 C5.67 25 5.34 25 5 25 C5 18.73 5 12.46 5 6 C3.35 6 1.7 6 0 6 C-0.38218767 4.34385343 -0.71395102 2.67542976 -1 1 C-0.67 0.67 -0.34 0.34 0 0 Z " fill="#364F2E" transform="translate(972,444)"/>
<path d="M0 0 C2.31 0 4.62 0 7 0 C7 0.66 7 1.32 7 2 C5.35 2 3.7 2 2 2 C2 2.99 2 3.98 2 5 C3.32 5.33 4.64 5.66 6 6 C4.68 6 3.36 6 2 6 C2 6.99 2 7.98 2 9 C3.65 9 5.3 9 7 9 C7 9.66 7 10.32 7 11 C4.69 11 2.38 11 0 11 C0 7.37 0 3.74 0 0 Z " fill="#1F2C1B" transform="translate(1535,444)"/>
<path d="M0 0 C1.99954746 -0.04254356 4.00041636 -0.04080783 6 0 C7 1 7 1 7.0625 3.5625 C7.041875 4.366875 7.02125 5.17125 7 6 C4.69 6.33 2.38 6.66 0 7 C0 4.69 0 2.38 0 0 Z " fill="#9AE284" transform="translate(1362,441)"/>
<path d="M0 0 C1.98 0 3.96 0 6 0 C6 2.31 6 4.62 6 7 C3.625 7.125 3.625 7.125 1 7 C0.34 6.34 -0.32 5.68 -1 5 C-0.625 2.375 -0.625 2.375 0 0 Z " fill="#86C573" transform="translate(1354,441)"/>
<path d="M0 0 C0.33 0 0.66 0 1 0 C1.19617816 2.54126172 1.38217248 5.08260459 1.5625 7.625 C1.61857422 8.33785156 1.67464844 9.05070312 1.73242188 9.78515625 C2.02495798 14.03668104 1.89547939 17.79456347 1 22 C0.67 22 0.34 22 0 22 C-0.33 20.35 -0.66 18.7 -1 17 C-4.96 17.495 -4.96 17.495 -9 18 C-9.33 17.34 -9.66 16.68 -10 16 C-6.53785351 13.94835763 -5.40610765 14 -1 14 C-0.67 9.38 -0.34 4.76 0 0 Z " fill="#30472A" transform="translate(369,439)"/>
<path d="M0 0 C-0.3125 1.9375 -0.3125 1.9375 -1 4 C-1.99 4.33 -2.98 4.66 -4 5 C-4.66 4.34 -5.32 3.68 -6 3 C-4.68 3 -3.36 3 -2 3 C-2 2.34 -2 1.68 -2 1 C-2.61875 1.33 -3.2375 1.66 -3.875 2 C-8.19683954 3.38298865 -12.49300835 3.54243439 -17 3 C-17.66 2.34 -18.32 1.68 -19 1 C-12.63849395 0.34513908 -6.39628979 -0.12068471 0 0 Z " fill="#1B2817" transform="translate(996,445)"/>
<path d="M0 0 C0.66 0.99 1.32 1.98 2 3 C3.96361864 3.57748803 3.96361864 3.57748803 6.125 3.6875 C7.40375 3.790625 8.6825 3.89375 10 4 C10 2.68 10 1.36 10 0 C10.66 0 11.32 0 12 0 C11.125 4.875 11.125 4.875 10 6 C8.00390625 6.16796875 8.00390625 6.16796875 5.5625 6.1875 C4.35787109 6.20876953 4.35787109 6.20876953 3.12890625 6.23046875 C1 6 1 6 -1 4 C-0.625 1.875 -0.625 1.875 0 0 Z " fill="#253620" transform="translate(1162,441)"/>
<path d="M0 0 C2.31 0.33 4.62 0.66 7 1 C7 4 7 4 6 6 C3.03 5.505 3.03 5.505 0 5 C0 3.35 0 1.7 0 0 Z " fill="#98E083" transform="translate(1176,455)"/>
<path d="M0 0 C1.98 0 3.96 0 6 0 C6 0.66 6 1.32 6 2 C6.66 2 7.32 2 8 2 C8 3.65 8 5.3 8 7 C7.01 7 6.02 7 5 7 C5 6.34 5 5.68 5 5 C3.35 5 1.7 5 0 5 C0 3.35 0 1.7 0 0 Z " fill="#7BB56A" transform="translate(1537,448)"/>
<path d="M0 0 C0.33 0.99 0.66 1.98 1 3 C0.360625 3.515625 -0.27875 4.03125 -0.9375 4.5625 C-3.55791681 7.65935623 -3.69389817 10.02067623 -4 14 C-4.33 14 -4.66 14 -5 14 C-5.2475 13.05125 -5.495 12.1025 -5.75 11.125 C-6.6857077 7.91306809 -6.6857077 7.91306809 -9.125 6.625 C-9.74375 6.41875 -10.3625 6.2125 -11 6 C-9.9275 5.7525 -8.855 5.505 -7.75 5.25 C-4.00350563 4.00116854 -2.47926118 2.97511342 0 0 Z " fill="#0E150C" transform="translate(789,441)"/>
<path d="M0 0 C1.98 0 3.96 0 6 0 C6.5625 1.9375 6.5625 1.9375 7 4 C6 5 6 5 3.4375 5.0625 C2.2309375 5.0315625 2.2309375 5.0315625 1 5 C0.67 3.35 0.34 1.7 0 0 Z " fill="#2D4327" transform="translate(1179,447)"/>
<path d="M0 0 C0 0.66 0 1.32 0 2 C-1.96875 3.7265625 -1.96875 3.7265625 -4.5 5.625 C-5.3353125 6.25664062 -6.170625 6.88828125 -7.03125 7.5390625 C-7.6809375 8.02117187 -8.330625 8.50328125 -9 9 C-9.99 8.34 -10.98 7.68 -12 7 C-11.01 7 -10.02 7 -9 7 C-9 6.01 -9 5.02 -9 4 C-3.85714286 0 -3.85714286 0 0 0 Z " fill="#8ACA76" transform="translate(1374,452)"/>
<path d="M0 0 C2.31 0 4.62 0 7 0 C7 0.99 7 1.98 7 3 C5.35 3 3.7 3 2 3 C2 3.66 2 4.32 2 5 C2.66 5 3.32 5 4 5 C4 5.66 4 6.32 4 7 C2.68 6.67 1.36 6.34 0 6 C0 4.02 0 2.04 0 0 Z " fill="#8ACB76" transform="translate(1526,446)"/>
<path d="M0 0 C2.31 0.33 4.62 0.66 7 1 C7.33 2.32 7.66 3.64 8 5 C3.71 4.34 -0.58 3.68 -5 3 C-5 2.67 -5 2.34 -5 2 C-3.35 2 -1.7 2 0 2 C0 1.34 0 0.68 0 0 Z " fill="#212F1D" transform="translate(1529,430)"/>
<path d="M0 0 C0 0.33 0 0.66 0 1 C-1.65 1.33 -3.3 1.66 -5 2 C-4.34 3.32 -3.68 4.64 -3 6 C-4.32 6 -5.64 6 -7 6 C-7.33 5.01 -7.66 4.02 -8 3 C-9.65 2.67 -11.3 2.34 -13 2 C-13 1.67 -13 1.34 -13 1 C-8.61414671 0.29826347 -4.44209357 -0.10834375 0 0 Z " fill="#121A0F" transform="translate(156,448)"/>
<path d="M0 0 C0.78375 0.04125 1.5675 0.0825 2.375 0.125 C2.045 1.775 1.715 3.425 1.375 5.125 C0.055 5.125 -1.265 5.125 -2.625 5.125 C-2.625 4.465 -2.625 3.805 -2.625 3.125 C-3.285 2.795 -3.945 2.465 -4.625 2.125 C-2.625 0.125 -2.625 0.125 0 0 Z " fill="#98DF82" transform="translate(1163.625,451.875)"/>
<path d="M0 0 C0.33 0.99 0.66 1.98 1 3 C3.97 3.495 3.97 3.495 7 4 C7.33 3.01 7.66 2.02 8 1 C8.5625 2.9375 8.5625 2.9375 9 5 C8.67 5.33 8.34 5.66 8 6 C4.5625 5.8125 4.5625 5.8125 1 5 C-0.4375 2.9375 -0.4375 2.9375 -1 1 C-0.67 0.67 -0.34 0.34 0 0 Z " fill="#1C2918" transform="translate(1175,457)"/>
<path d="M0 0 C3.21043882 1.38188453 5.04936365 2.92421903 7.25 5.625 C8.03117188 6.57246094 8.03117188 6.57246094 8.828125 7.5390625 C9.40820312 8.26222656 9.40820312 8.26222656 10 9 C7 9 7 9 5.17578125 7.28515625 C4.56089844 6.55167969 3.94601563 5.81820313 3.3125 5.0625 C2.68988281 4.33160156 2.06726563 3.60070312 1.42578125 2.84765625 C0 1 0 1 0 0 Z " fill="#395330" transform="translate(139,458)"/>
<path d="M0 0 C0.66 0.33 1.32 0.66 2 1 C1.17812739 5.38332057 0.09845718 9.67940177 -1 14 C-1.33 14 -1.66 14 -2 14 C-2.05437607 12.41705218 -2.09296271 10.83355744 -2.125 9.25 C-2.14820313 8.36828125 -2.17140625 7.4865625 -2.1953125 6.578125 C-1.99139502 3.8864142 -1.36551721 2.30095026 0 0 Z " fill="#0C110B" transform="translate(1509,439)"/>
<path d="M0 0 C0.33 0.66 0.66 1.32 1 2 C-0.98 2.66 -2.96 3.32 -5 4 C-5 3.67 -5 3.34 -5 3 C-7.64 2.67 -10.28 2.34 -13 2 C-13 1.67 -13 1.34 -13 1 C-11.20994059 0.63779734 -9.41787943 0.28547531 -7.625 -0.0625 C-6.12839844 -0.35833984 -6.12839844 -0.35833984 -4.6015625 -0.66015625 C-2 -1 -2 -1 0 0 Z " fill="#2A3D25" transform="translate(1537,467)"/>
<path d="M0 0 C1.65 0 3.3 0 5 0 C4.67 1.98 4.34 3.96 4 6 C3.01 6 2.02 6 1 6 C0.67 4.02 0.34 2.04 0 0 Z " fill="#3B5733" transform="translate(1515,445)"/>
<path d="M0 0 C0.804375 1.2065625 0.804375 1.2065625 1.625 2.4375 C4.43105369 5.46508424 5.96825194 5.72510809 10 6 C8.3125 7.125 8.3125 7.125 6 8 C2.88847767 7.25916135 1.45082448 6.6557447 -0.375 4 C-1 2 -1 2 0 0 Z " fill="#2B3F25" transform="translate(1172,458)"/>
<path d="M0 0 C1.32 0.33 2.64 0.66 4 1 C3.67 2.65 3.34 4.3 3 6 C0.525 5.01 0.525 5.01 -2 4 C-1.34 2.68 -0.68 1.36 0 0 Z " fill="#81F281" transform="translate(567,449)"/>
<path d="M0 0 C0 0.99 0 1.98 0 3 C-2.64 3.33 -5.28 3.66 -8 4 C-8 3.01 -8 2.02 -8 1 C-5.36 0.67 -2.72 0.34 0 0 Z " fill="#192616" transform="translate(357,435)"/>
<path d="M0 0 C0.226875 0.5775 0.45375 1.155 0.6875 1.75 C2.33038023 4.5663661 4.39533227 6.08077114 7 8 C5.68 8.33 4.36 8.66 3 9 C0.90250005 6.64031256 0.03094296 5.45383006 -0.1875 2.25 C-0.125625 1.5075 -0.06375 0.765 0 0 Z " fill="#D6FAD6" transform="translate(563,450)"/>
<path d="M0 0 C1.65 0 3.3 0 5 0 C4.67 1.32 4.34 2.64 4 4 C2.68 3.67 1.36 3.34 0 3 C0 2.01 0 1.02 0 0 Z " fill="#95DB80" transform="translate(143,451)"/>
<path d="M0 0 C1.65 0 3.3 0 5 0 C5 1.98 5 3.96 5 6 C4.01 5.67 3.02 5.34 2 5 C2.66 5 3.32 5 4 5 C4 4.34 4 3.68 4 3 C2.68 2.67 1.36 2.34 0 2 C0 1.34 0 0.68 0 0 Z " fill="#476040" transform="translate(1528,449)"/>
<path d="M0 0 C0.391875 0.639375 0.78375 1.27875 1.1875 1.9375 C3.38472296 4.43778819 4.75791433 4.64950425 8 5 C8 5.33 8 5.66 8 6 C4.625 6.125 4.625 6.125 1 6 C0.34 5.34 -0.32 4.68 -1 4 C-0.625 1.875 -0.625 1.875 0 0 Z " fill="#151F12" transform="translate(1162,441)"/>
<path d="M0 0 C2.475 0.495 2.475 0.495 5 1 C4.67 1.99 4.34 2.98 4 4 C2.68 4 1.36 4 0 4 C0 2.68 0 1.36 0 0 Z " fill="#95DB80" transform="translate(981,439)"/>
</svg>
