<?xml version="1.0" encoding="UTF-8"?>
<svg version="1.1" xmlns="http://www.w3.org/2000/svg" width="1920" height="1080">
<path d="M0 0 C633.6 0 1267.2 0 1920 0 C1920 356.4 1920 712.8 1920 1080 C1286.4 1080 652.8 1080 0 1080 C0 723.6 0 367.2 0 0 Z " fill="#FEFEFE" transform="translate(0,0)"/>
<path d="M0 0 C8.14460723 5.88296423 13.22613564 13.04829346 16.61328125 22.45703125 C17.10828125 27.90203125 17.10828125 27.90203125 17.61328125 33.45703125 C55.56328125 33.45703125 93.51328125 33.45703125 132.61328125 33.45703125 C132.61328125 30.48703125 132.61328125 27.51703125 132.61328125 24.45703125 C135.20550068 13.12210903 143.22373751 4.76241829 152.61328125 -1.54296875 C162.12448899 -6.92667124 174.18063227 -7.06997337 184.76953125 -4.89453125 C195.14884732 -1.05155663 203.11640278 6.60203933 208.08984375 16.3515625 C210.99502439 22.80301113 211.61328125 25.9635687 211.61328125 33.45703125 C249.56328125 33.45703125 287.51328125 33.45703125 326.61328125 33.45703125 C326.61328125 30.48703125 326.61328125 27.51703125 326.61328125 24.45703125 C329.17452348 13.2575621 337.16587366 4.5247506 346.61328125 -1.54296875 C355.85637959 -7.2753857 368.34443628 -7.07468296 378.74609375 -4.8828125 C390.57482499 -0.59999602 398.45970046 8.58642744 403.8515625 19.59765625 C405.8918675 24.57809308 405.61328125 27.58085122 405.61328125 33.45703125 C443.23328125 33.45703125 480.85328125 33.45703125 519.61328125 33.45703125 C519.94328125 30.81703125 520.27328125 28.17703125 520.61328125 25.45703125 C525.35222495 13.83349834 532.61522173 6.3113354 543.61328125 0.45703125 C548.57578299 -1.62916012 553.05859582 -1.92908968 558.36328125 -1.91796875 C559.16024414 -1.91635742 559.95720703 -1.91474609 560.77832031 -1.91308594 C569.75403421 -1.72662508 576.43200973 1.07107761 583.61328125 6.45703125 C584.60328125 7.15828125 585.59328125 7.85953125 586.61328125 8.58203125 C592.74745655 13.81459548 596.26920612 21.90390027 598.61328125 29.45703125 C598.61328125 30.77703125 598.61328125 32.09703125 598.61328125 33.45703125 C636.23328125 33.45703125 673.85328125 33.45703125 712.61328125 33.45703125 C712.61328125 30.48703125 712.61328125 27.51703125 712.61328125 24.45703125 C715.17452348 13.2575621 723.16587366 4.5247506 732.61328125 -1.54296875 C741.85637959 -7.2753857 754.34443628 -7.07468296 764.74609375 -4.8828125 C775.23027575 -1.08681557 784.11497612 7.20167062 788.93359375 17.1953125 C791.31902365 23.22561256 791.61328125 26.57116731 791.61328125 33.45703125 C823.29328125 33.45703125 854.97328125 33.45703125 887.61328125 33.45703125 C887.94328125 29.82703125 888.27328125 26.19703125 888.61328125 22.45703125 C892.87631108 10.18172711 900.28731043 2.4858837 911.61328125 -3.54296875 C920.88938859 -7.46245073 933.83275305 -7.1288474 943.17578125 -3.60546875 C954.21777889 1.89236504 961.02344998 10.46149796 965.98828125 21.51953125 C966.61328125 24.45703125 966.61328125 24.45703125 966.61328125 33.45703125 C998.62328125 33.45703125 1030.63328125 33.45703125 1063.61328125 33.45703125 C1063.61328125 30.15703125 1063.61328125 26.85703125 1063.61328125 23.45703125 C1066.24814701 13.64636086 1073.57546155 4.08866799 1082.25 -1.12890625 C1092.26126701 -6.18569221 1103.02845067 -7.21405585 1114.03515625 -4.7890625 C1125.92133259 -0.60263299 1134.29019046 7.34520389 1139.78125 18.58984375 C1143.27074096 26.42072018 1142.76224205 37.48018548 1140.859375 45.72265625 C1139.92828077 48.1033364 1138.90567423 50.2541896 1137.61328125 52.45703125 C1136.97390625 53.55015625 1136.33453125 54.64328125 1135.67578125 55.76953125 C1129.33886657 64.0267231 1121.05178234 70.55070924 1110.61328125 72.45703125 C1095.23250525 73.33113 1084.65561264 70.78381048 1072.92578125 60.39453125 C1066.88962783 54.07631459 1063.61328125 46.07289603 1063.61328125 37.45703125 C1031.60328125 37.45703125 999.59328125 37.45703125 966.61328125 37.45703125 C966.28328125 40.09703125 965.95328125 42.73703125 965.61328125 45.45703125 C962.16715856 55.76463038 954.91405834 64.10738113 945.30078125 69.01953125 C935.31679395 73.62652147 922.46065587 74.41052122 911.98046875 70.6171875 C901.61052814 65.53488987 894.69318075 58.08179013 889.67578125 47.76953125 C888.61328125 44.45703125 888.61328125 44.45703125 888.61328125 37.45703125 C856.60328125 37.45703125 824.59328125 37.45703125 791.61328125 37.45703125 C790.95328125 40.75703125 790.29328125 44.05703125 789.61328125 47.45703125 C785.60528884 57.6946748 778.39067769 64.7942433 768.61328125 69.45703125 C767.98808594 69.81023437 767.36289062 70.1634375 766.71875 70.52734375 C757.96092308 74.39443615 745.12574107 73.86959706 736.23828125 70.51953125 C724.61784098 64.84333248 718.04669575 56.36081697 713.61328125 44.45703125 C713.28328125 42.14703125 712.95328125 39.83703125 712.61328125 37.45703125 C674.99328125 37.45703125 637.37328125 37.45703125 598.61328125 37.45703125 C598.28328125 40.75703125 597.95328125 44.05703125 597.61328125 47.45703125 C594.8822499 58.16091218 587.9444802 66.72184771 578.61328125 72.45703125 C569.10061882 77.57460281 556.67915252 78.14133777 546.25390625 75.65625 C536.39195198 71.93885532 528.25288052 65.23807728 523.57421875 55.71484375 C520.76644701 49.11772153 519.61328125 44.83504955 519.61328125 37.45703125 C481.99328125 37.45703125 444.37328125 37.45703125 405.61328125 37.45703125 C405.28328125 39.43703125 404.95328125 41.41703125 404.61328125 43.45703125 C401.43683397 54.19888791 395.16748875 62.58478119 385.61328125 68.45703125 C376.10061882 73.57460281 363.67915252 74.14133777 353.25390625 71.65625 C343.33657583 67.91798167 335.28549856 61.21636919 330.57421875 51.66015625 C326.61328125 42.57898247 326.61328125 42.57898247 326.61328125 37.45703125 C288.66328125 37.45703125 250.71328125 37.45703125 211.61328125 37.45703125 C210.12828125 43.39703125 210.12828125 43.39703125 208.61328125 49.45703125 C202.78075564 60.98644234 195.1721982 67.4002752 183.11328125 71.70703125 C171.92092971 74.10853975 160.49507107 73.48422221 150.61328125 67.45703125 C141.40296006 60.66232025 135.21072196 52.69149027 132.61328125 41.45703125 C132.61328125 40.13703125 132.61328125 38.81703125 132.61328125 37.45703125 C94.66328125 37.45703125 56.71328125 37.45703125 17.61328125 37.45703125 C17.28328125 39.43703125 16.95328125 41.41703125 16.61328125 43.45703125 C13.9247604 52.87444893 8.10215986 62.10666551 -0.30859375 67.4296875 C-11.05912393 72.7443293 -23.02729104 74.49543801 -34.71875 71.64453125 C-45.01767242 67.83697071 -53.60575299 60.38822434 -58.38671875 50.45703125 C-58.70382813 49.82925781 -59.0209375 49.20148438 -59.34765625 48.5546875 C-63.18305253 39.38844227 -62.89887401 27.25840036 -59.44921875 18.01953125 C-55.03380726 8.95239048 -47.57784851 0.82392436 -38.38671875 -3.54296875 C-25.50385319 -7.46325313 -11.48517155 -7.42494723 0 0 Z " fill="#258D25" transform="translate(252.38671875,415.54296875)"/>
<path d="M0 0 C8.14460723 5.88296423 13.22613564 13.04829346 16.61328125 22.45703125 C17.10828125 27.90203125 17.10828125 27.90203125 17.61328125 33.45703125 C55.56328125 33.45703125 93.51328125 33.45703125 132.61328125 33.45703125 C132.61328125 30.48703125 132.61328125 27.51703125 132.61328125 24.45703125 C135.20550068 13.12210903 143.22373751 4.76241829 152.61328125 -1.54296875 C162.12448899 -6.92667124 174.18063227 -7.06997337 184.76953125 -4.89453125 C196.35722359 -0.60415149 204.29150636 8.15138462 209.48828125 19.08203125 C213.35175392 29.00953059 212.61551187 38.84654811 208.875 48.703125 C204.12888775 59.06228641 197.19409006 66.16695672 186.61328125 70.45703125 C177.1729761 73.8285688 165.65998425 74.04962669 156.23828125 70.51953125 C145.44545815 65.32135523 137.79242271 56.91292379 133.80078125 45.70703125 C132.80116212 42.63637802 132.61328125 40.81235891 132.61328125 37.45703125 C94.66328125 37.45703125 56.71328125 37.45703125 17.61328125 37.45703125 C17.28328125 39.43703125 16.95328125 41.41703125 16.61328125 43.45703125 C13.9247604 52.87444893 8.10215986 62.10666551 -0.30859375 67.4296875 C-11.05912393 72.7443293 -23.02729104 74.49543801 -34.71875 71.64453125 C-45.01767242 67.83697071 -53.60575299 60.38822434 -58.38671875 50.45703125 C-58.70382813 49.82925781 -59.0209375 49.20148438 -59.34765625 48.5546875 C-63.18305253 39.38844227 -62.89887401 27.25840036 -59.44921875 18.01953125 C-55.03380726 8.95239048 -47.57784851 0.82392436 -38.38671875 -3.54296875 C-25.50385319 -7.46325313 -11.48517155 -7.42494723 0 0 Z " fill="#258D25" transform="translate(252.38671875,415.54296875)"/>
<path d="M0 0 C0.75990234 -0.01611328 1.51980469 -0.03222656 2.30273438 -0.04882812 C12.45324997 -0.05749637 21.84254306 4.55714656 29.30078125 11.3515625 C39.20795634 21.9117529 41.63492696 32.18904354 41.40234375 46.203125 C40.9523577 56.39782974 36.19122589 65.12861956 29.0625 72.3125 C18.80905873 80.78273409 9.28918927 83.97383446 -3.9375 83.3125 C-15.22134196 82.2275152 -24.23172638 77.67608356 -31.9375 69.3125 C-38.25339668 60.88301585 -40.9375 54.91140998 -40.9375 44.3125 C-70.9675 44.3125 -100.9975 44.3125 -131.9375 44.3125 C-131.9375 42.9925 -131.9375 41.6725 -131.9375 40.3125 C-101.9075 40.3125 -71.8775 40.3125 -40.9375 40.3125 C-40.9375 37.3425 -40.9375 34.3725 -40.9375 31.3125 C-37.93149194 19.85430458 -29.30734511 10.05739433 -19.375 4 C-12.90996607 0.82625607 -7.080181 -0.02987418 0 0 Z " fill="#99E384" transform="translate(1526.9375,408.6875)"/>
<path d="M0 0 C0.75990234 -0.01611328 1.51980469 -0.03222656 2.30273438 -0.04882812 C12.45324997 -0.05749637 21.84254306 4.55714656 29.30078125 11.3515625 C39.20795634 21.9117529 41.63492696 32.18904354 41.40234375 46.203125 C40.9523577 56.39782974 36.19122589 65.12861956 29.0625 72.3125 C18.80905873 80.78273409 9.28918927 83.97383446 -3.9375 83.3125 C-15.22134196 82.2275152 -24.23172638 77.67608356 -31.9375 69.3125 C-38.25339668 60.88301585 -40.9375 54.91140998 -40.9375 44.3125 C-70.9675 44.3125 -100.9975 44.3125 -131.9375 44.3125 C-131.9375 42.9925 -131.9375 41.6725 -131.9375 40.3125 C-101.9075 40.3125 -71.8775 40.3125 -40.9375 40.3125 C-40.9375 37.3425 -40.9375 34.3725 -40.9375 31.3125 C-37.93149194 19.85430458 -29.30734511 10.05739433 -19.375 4 C-12.90996607 0.82625607 -7.080181 -0.02987418 0 0 Z M-24 22.8125 C-25.57266223 24.96101434 -25.57266223 24.96101434 -26.9375 27.3125 C-27.48535156 28.22257812 -28.03320312 29.13265625 -28.59765625 30.0703125 C-30.26270335 34.09943522 -30.39682807 37.37628709 -30.3125 41.6875 C-30.30017334 42.44554932 -30.28784668 43.20359863 -30.27514648 43.98461914 C-29.98372844 53.65990727 -27.28783332 58.95351639 -20.51171875 66.03515625 C-13.38941104 72.33607491 -5.84851826 74.24342135 3.56640625 73.8515625 C12.74502575 72.43631167 19.77110877 67.77689771 25.50390625 60.578125 C30.87007378 52.77768098 30.83831037 44.56177163 30.0625 35.3125 C27.68020539 26.49800995 23.07053362 20.37739094 15.40625 15.50390625 C1.97563101 8.67667493 -14.36051505 10.91910625 -24 22.8125 Z " fill="#2A8F28" transform="translate(1526.9375,408.6875)"/>
<path d="M0 0 C6.45234439 3.86231882 11.52912288 9.95306959 13.80078125 17.1796875 C15.41059229 25.45441714 14.74098571 33.16458348 10.21875 40.328125 C5.36431626 47.22264988 0.12652597 50.69219968 -7.78125 53.328125 C-16.522117 54.18627464 -23.5802261 53.61215278 -30.78125 48.328125 C-37.12392844 42.63486756 -41.16766005 36.9980068 -42.08984375 28.4765625 C-42.46871421 19.40663319 -40.24179948 13.15579526 -34.65625 6.078125 C-25.30555331 -3.82727404 -12.31741029 -5.67880604 0 0 Z " fill="#99E283" transform="translate(1368.78125,423.671875)"/>
<path d="M0 0 C7.18302333 4.60229638 12.50553988 10.27339435 14.57421875 18.796875 C15.95801955 27.67861688 14.38989013 35.13149737 9.20703125 42.50390625 C3.98486401 48.99283683 -1.98944366 52.69108693 -10.375 53.625 C-20.55597534 53.81924981 -26.31971752 51.77545059 -33.85546875 45.06640625 C-40.13060188 38.28050647 -41.80865849 30.51094891 -41.48828125 21.43359375 C-40.18025375 12.09381847 -34.61274743 5.48141845 -27.30859375 -0.0625 C-19.33656862 -4.95132738 -8.08570807 -4.30537702 0 0 Z " fill="#9EE987" transform="translate(1193.04296875,423.74609375)"/>
<path d="M0 0 C7.0688772 3.98273188 12.10623424 9.77681358 14.5625 17.5625 C15.58189022 26.5997864 15.43073992 34.40926991 10.40234375 42.2890625 C7.53832396 45.82804237 4.48716437 48.28665912 0.5625 50.5625 C-0.984375 51.490625 -0.984375 51.490625 -2.5625 52.4375 C-9.13669679 54.91408098 -16.95435312 54.71916764 -23.54296875 52.53125 C-30.94150608 48.85749353 -35.91007845 43.60038054 -39.6015625 36.2421875 C-41.64380312 29.69556568 -41.48680903 20.61115856 -39.3125 14.0625 C-31.29046191 -0.91197109 -15.98249299 -7.1321875 0 0 Z " fill="#9EE988" transform="translate(824.4375,427.4375)"/>
<path d="M0 0 C7.0688772 3.98273188 12.10623424 9.77681358 14.5625 17.5625 C15.58189022 26.5997864 15.43073992 34.40926991 10.40234375 42.2890625 C7.53832396 45.82804237 4.48716437 48.28665912 0.5625 50.5625 C-0.984375 51.490625 -0.984375 51.490625 -2.5625 52.4375 C-9.13669679 54.91408098 -16.95435312 54.71916764 -23.54296875 52.53125 C-30.93463643 48.86090467 -35.89589451 43.61136496 -39.59375 36.265625 C-41.93148568 28.77621253 -41.67806895 19.07604047 -38.375 11.9375 C-35.75008762 7.54298378 -32.67051885 4.40822696 -28.4375 1.5625 C-27.86515625 1.15 -27.2928125 0.7375 -26.703125 0.3125 C-18.58748423 -4.68174048 -8.40523494 -3.78604685 0 0 Z " fill="#9EE988" transform="translate(1017.4375,423.4375)"/>
<path d="M0 0 C7.0688772 3.98273188 12.10623424 9.77681358 14.5625 17.5625 C15.58166468 26.59778685 15.43506645 34.41489612 10.3984375 42.2890625 C4.97922877 48.99965715 -1.93455145 52.85497804 -10.4453125 53.94921875 C-18.78712226 54.39293204 -24.82205016 52.72191781 -31.4375 47.5625 C-37.97870247 40.95058182 -40.70875444 34.6613679 -40.875 25.3125 C-40.75051794 17.38454886 -39.14612032 11.7121941 -33.828125 5.76171875 C-32.11360867 4.17697086 -30.37390143 2.86428247 -28.4375 1.5625 C-27.86515625 1.15 -27.2928125 0.7375 -26.703125 0.3125 C-18.58748423 -4.68174048 -8.40523494 -3.78604685 0 0 Z " fill="#9EE887" transform="translate(631.4375,423.4375)"/>
<path d="M0 0 C6.82155685 3.99038783 12.52562592 10.04057635 15.0546875 17.67578125 C16.73220189 27.03905033 15.80612796 34.9078627 10.4375 42.8125 C6.28162018 47.86694842 0.65602012 51.73965996 -5.5625 53.8125 C-14.60818811 54.63590464 -22.09527407 54.31957913 -29.5625 48.8125 C-35.73126139 43.33305096 -39.15552787 37.70762962 -39.83984375 29.4765625 C-40.10112229 19.6733918 -39.01312147 12.73839771 -32.3125 5.41796875 C-23.42919164 -2.73167352 -11.16083594 -5.36190763 0 0 Z " fill="#3CEB3C" transform="translate(242.5625,423.1875)"/>
<path d="M0 0 C2.46007096 1.20962765 4.7369305 2.51980743 7.02734375 4.0234375 C7.95546875 4.6009375 8.88359375 5.1784375 9.83984375 5.7734375 C16.61136901 12.73843491 18.39300596 20.4284586 18.3125 29.84765625 C17.70723613 36.5884717 14.97801155 43.33333117 10.02734375 48.0234375 C0.87269284 54.17681076 -5.87577902 55.89885782 -16.97265625 55.0234375 C-20.06287482 54.16230971 -22.38373941 52.89676609 -24.97265625 51.0234375 C-25.59785156 50.58773437 -26.22304688 50.15203125 -26.8671875 49.703125 C-32.33784834 45.48783686 -34.82284176 40.47288096 -36.97265625 34.0234375 C-37.62280103 24.18374625 -37.46059675 16.28276015 -31.34765625 8.3359375 C-27.84502723 4.49008604 -23.60918277 2.26751634 -18.97265625 0.0234375 C-13.63791821 -2.64393152 -5.50568659 -1.80870125 0 0 Z " fill="#9EE988" transform="translate(433.97265625,421.9765625)"/>
<path d="M0 0 C2.77330079 1.60125105 5.40383502 3.21303251 7.96875 5.13671875 C8.95875 5.83796875 9.94875 6.53921875 10.96875 7.26171875 C15.07974426 10.76847239 17.49059526 15.40702519 19.96875 20.13671875 C20.48501953 21.09384766 20.48501953 21.09384766 21.01171875 22.0703125 C24.85102395 30.45189429 24.01324689 41.24149268 21.00390625 49.765625 C16.09606851 61.00735144 9.40094783 67.77520441 -1.5390625 73.19140625 C-10.81998074 76.71175455 -23.10775358 76.70422194 -32.40625 73.19921875 C-41.85551413 68.63528846 -48.8759284 61.76490296 -53.03125 52.13671875 C-53.34835937 51.46382813 -53.66546875 50.7909375 -53.9921875 50.09765625 C-57.20109086 42.23731499 -57.65858512 31.88462875 -54.90625 23.82421875 C-54.32237304 22.57499363 -53.69348353 21.34623206 -53.03125 20.13671875 C-52.41056641 18.92242187 -52.41056641 18.92242187 -51.77734375 17.68359375 C-41.91374744 -0.26976411 -19.06928388 -9.30607176 0 0 Z M-39.8828125 19.31640625 C-44.80980856 27.12586259 -44.92372716 35.08303382 -44.03125 44.13671875 C-43.14629876 47.22453249 -41.90716172 49.54646979 -40.03125 52.13671875 C-39.350625 53.16796875 -38.67 54.19921875 -37.96875 55.26171875 C-33.34132494 60.36590881 -27.38427456 63.559937 -20.625 64.72265625 C-11.96145136 65.12516625 -5.09441314 63.21101556 1.96875 58.13671875 C4.43309788 55.67725077 6.27796011 53.17232832 7.96875 50.13671875 C8.505 49.22664063 9.04125 48.3165625 9.59375 47.37890625 C11.19744224 43.59747284 11.46599316 40.30226833 11.40625 36.26171875 C11.39940186 35.55354004 11.39255371 34.84536133 11.38549805 34.11572266 C11.21334504 28.51784845 10.27282513 24.61533221 6.96875 20.13671875 C6.30875 19.10546875 5.64875 18.07421875 4.96875 17.01171875 C0.17577179 11.70884924 -6.59163814 8.71126416 -13.5390625 7.55078125 C-24.19126344 7.05914121 -33.37485277 10.62658719 -39.8828125 19.31640625 Z " fill="#268D25" transform="translate(828.03125,416.86328125)"/>
<path d="M0 0 C7.97003487 5.75686816 13.51540197 13.10061701 16.61328125 22.45703125 C17.14372429 25.95734831 17.18780391 29.35952336 17.11328125 32.89453125 C17.09297852 34.2853894 17.09297852 34.2853894 17.07226562 35.7043457 C16.69233105 48.22782884 11.8754525 56.28256738 2.99609375 65.0546875 C-5.37684311 71.86550927 -17.061487 73.40456238 -27.5234375 72.89453125 C-38.34921705 71.66855824 -46.13905324 66.3841654 -53.38671875 58.45703125 C-55.41067017 55.91249617 -56.97773243 53.38382804 -58.38671875 50.45703125 C-58.70382813 49.82925781 -59.0209375 49.20148438 -59.34765625 48.5546875 C-63.18305253 39.38844227 -62.89887401 27.25840036 -59.44921875 18.01953125 C-55.03380726 8.95239048 -47.57784851 0.82392436 -38.38671875 -3.54296875 C-25.50385319 -7.46325313 -11.48517155 -7.42494723 0 0 Z M-37.38671875 9.45703125 C-38.01191406 9.90433594 -38.63710937 10.35164063 -39.28125 10.8125 C-44.5059101 14.91523309 -48.13980763 19.79899642 -49.38671875 26.45703125 C-50.04551112 36.74432752 -49.77687091 44.44174937 -43.32421875 52.64453125 C-37.30678354 59.00044719 -31.1346738 61.72109499 -22.38671875 62.08203125 C-14.31168199 61.77449449 -8.74743279 59.22028501 -2.57421875 54.14453125 C4.44741995 45.51794656 6.54248085 38.64561268 5.61328125 27.45703125 C3.4569972 19.1558963 -0.1344108 13.70845152 -7.44921875 9.20703125 C-16.64520114 3.84155581 -28.47937754 2.99170268 -37.38671875 9.45703125 Z " fill="#248D24" transform="translate(252.38671875,415.54296875)"/>
<path d="M0 0 C10.85654559 5.62144976 18.3470538 14.59194265 22.1953125 26.13671875 C23.10891952 36.07802329 23.36584832 46.32370925 18.1953125 55.13671875 C17.23625 56.77640625 17.23625 56.77640625 16.2578125 58.44921875 C9.92089782 66.7064106 1.63381359 73.23039674 -8.8046875 75.13671875 C-24.1854635 76.0108175 -34.76235611 73.46349798 -46.4921875 63.07421875 C-52.54724628 56.69452978 -56.53492408 47.52803662 -56.90625 38.73046875 C-56.35891826 24.75245827 -52.6950531 15.03907282 -42.5078125 5.33984375 C-30.73486458 -4.25544907 -13.89205736 -6.05387821 0 0 Z M-40.17578125 19.82421875 C-45.0575987 26.75476055 -45.77794577 33.76448571 -44.8046875 42.13671875 C-42.77986051 49.81418776 -37.96825072 56.11666937 -31.5859375 60.74609375 C-24.08526603 65.08089739 -16.35729663 65.45140336 -8 63.47265625 C-1.1472279 61.07731038 4.01096898 57.19906493 7.4765625 50.75390625 C8.45980861 48.56969525 9.34704093 46.37597328 10.1953125 44.13671875 C10.6903125 43.14671875 10.6903125 43.14671875 11.1953125 42.13671875 C12.03286041 31.66736985 10.82099018 24.99288463 4.1328125 16.88671875 C-2.21524128 10.24221801 -8.19489476 8.0126008 -17.3046875 7.57421875 C-27.32757953 7.95110776 -33.92062303 12.14111532 -40.17578125 19.82421875 Z " fill="#258C24" transform="translate(1371.8046875,412.86328125)"/>
<path d="M0 0 C1.84241041 0.22738609 3.67562004 0.53175326 5.5 0.875 C7.00046875 1.14957031 7.00046875 1.14957031 8.53125 1.4296875 C11 2 11 2 12 3 C12.08713831 4.70772358 12.10700007 6.41898649 12.09765625 8.12890625 C12.09443359 9.16337891 12.09121094 10.19785156 12.08789062 11.26367188 C12.07951172 12.35228516 12.07113281 13.44089844 12.0625 14.5625 C12.05798828 15.65498047 12.05347656 16.74746094 12.04882812 17.87304688 C12.03699826 20.58208495 12.02051543 23.29101599 12 26 C8.38026598 27.31626692 5.90432869 28 2 28 C2 28.99 2 29.98 2 31 C1.34 31 0.68 31 0 31 C0 30.34 0 29.68 0 29 C-0.99 29 -1.98 29 -3 29 C-3 28.34 -3 27.68 -3 27 C-3.78375 27.04125 -4.5675 27.0825 -5.375 27.125 C-8 27 -8 27 -10 25 C-10.25878906 22.87695312 -10.25878906 22.87695312 -10.265625 20.28125 C-10.26820313 19.34925781 -10.27078125 18.41726563 -10.2734375 17.45703125 C-10.26570313 16.48121094 -10.25796875 15.50539063 -10.25 14.5 C-10.25773437 13.52417969 -10.26546875 12.54835938 -10.2734375 11.54296875 C-10.27085937 10.61097656 -10.26828125 9.67898438 -10.265625 8.71875 C-10.26336914 7.86216797 -10.26111328 7.00558594 -10.25878906 6.12304688 C-10 4 -10 4 -8 2 C-5.67182036 1.63239269 -3.3381615 1.29758419 -1 1 C-0.67 0.67 -0.34 0.34 0 0 Z " fill="#9CE586" transform="translate(423,433)"/>
<path d="M0 0 C3 1.0625 3 1.0625 5 3 C5.8125 6.6875 5.8125 6.6875 6 10 C6.78375 9.79375 7.5675 9.5875 8.375 9.375 C9.674375 9.189375 9.674375 9.189375 11 9 C11.66 9.66 12.32 10.32 13 11 C12.8125 13.0625 12.8125 13.0625 12 15 C11.01 15.33 10.02 15.66 9 16 C9.825 16.556875 10.65 17.11375 11.5 17.6875 C14 20 14 20 14.4375 22.625 C14 25 14 25 12 27 C8.96295432 27.50421994 6.04197406 27.45467228 3 27 C0.49839182 25.12379387 -0.61945652 23.76108697 -2 21 C-2.721875 21.495 -3.44375 21.99 -4.1875 22.5 C-7.198557 24.10589707 -8.65585985 24.52802213 -12 24 C-13.875 22.8125 -13.875 22.8125 -15 21 C-14.80250247 17.14879822 -13.46742938 14.89654753 -11 12 C-11.66 12 -12.32 12 -13 12 C-14.43735246 9.12529507 -14.38172649 7.18105412 -14 4 C-10.13141364 -0.74213811 -5.6950643 -0.82537164 0 0 Z " fill="#37502F" transform="translate(1180,435)"/>
<path d="M0 0 C0.33 0 0.66 0 1 0 C1 1.98 1 3.96 1 6 C38.95 6 76.9 6 116 6 C116 7.32 116 8.64 116 10 C78.05 10 40.1 10 1 10 C0.67 11.32 0.34 12.64 0 14 C0 9.38 0 4.76 0 0 Z " fill="#3CE93C" transform="translate(269,443)"/>
<path d="M0 0 C37.95 0 75.9 0 115 0 C115 1.32 115 2.64 115 4 C77.05 4 39.1 4 0 4 C0 2.68 0 1.36 0 0 Z " fill="#3BEB3B" transform="translate(464,449)"/>
<path d="M0 0 C37.62 0 75.24 0 114 0 C114 1.32 114 2.64 114 4 C76.38 4 38.76 4 0 4 C0 2.68 0 1.36 0 0 Z " fill="#3BEB3B" transform="translate(851,449)"/>
<path d="M0 0 C37.62 0 75.24 0 114 0 C114 1.32 114 2.64 114 4 C76.38 4 38.76 4 0 4 C0 2.68 0 1.36 0 0 Z " fill="#3BEB3B" transform="translate(658,449)"/>
<path d="M0 0 C0.33 0 0.66 0 1 0 C1.09765625 6.15234375 1.09765625 6.15234375 1 8 C0.67 8.33 0.34 8.66 0 9 C-0.24571387 12.55830081 -0.38439137 16.11571564 -0.5234375 19.6796875 C-1 23 -1 23 -2.3515625 24.8828125 C-6.48292724 27.68274216 -11.21701068 27.67911146 -16 27 C-24.19124424 23.80875576 -24.19124424 23.80875576 -27 21 C-27.15327434 18.00820277 -27.23165249 15.05543676 -27.25 12.0625 C-27.270625 11.22525391 -27.29125 10.38800781 -27.3125 9.52539062 C-27.31765625 8.72423828 -27.3228125 7.92308594 -27.328125 7.09765625 C-27.3374707 6.36039307 -27.34681641 5.62312988 -27.35644531 4.86352539 C-27.23881836 4.24856201 -27.12119141 3.63359863 -27 3 C-23.76085771 0.84057181 -22.75140267 0.72767022 -19 0.75 C-18.13375 0.74484375 -17.2675 0.7396875 -16.375 0.734375 C-14 1 -14 1 -11 3 C-10.855625 3.94875 -10.71125 4.8975 -10.5625 5.875 C-10.29231124 9.11717289 -10.29231124 9.11717289 -7.875 11.0625 C-6 13 -6 13 -5.875 15.4375 C-7.46565402 19.06065637 -9.8252979 20.71421449 -13 23 C-13.99 23.33 -14.98 23.66 -16 24 C-14.39667209 24.08121924 -12.79215974 24.13929134 -11.1875 24.1875 C-10.29417969 24.22230469 -9.40085937 24.25710938 -8.48046875 24.29296875 C-6.00025632 24.17874603 -6.00025632 24.17874603 -4.19140625 22.87109375 C-2.47125021 20.16960279 -2.67358357 18.04628198 -2.75 14.875 C-2.76546875 13.79992187 -2.7809375 12.72484375 -2.796875 11.6171875 C-2.70887239 9.07437051 -2.70887239 9.07437051 -4 8 C-4.04080783 6.00041636 -4.04254356 3.99954746 -4 2 C-3.67 2 -3.34 2 -3 2 C-3 3.65 -3 5.3 -3 7 C-2.01 7 -1.02 7 0 7 C0 4.69 0 2.38 0 0 Z " fill="#24341E" transform="translate(631,436)"/>
<path d="M0 0 C31.68 0 63.36 0 96 0 C96 1.32 96 2.64 96 4 C64.32 4 32.64 4 0 4 C0 2.68 0 1.36 0 0 Z " fill="#3BEB3B" transform="translate(1219,449)"/>
<path d="M0 0 C31.68 0 63.36 0 96 0 C96 1.32 96 2.64 96 4 C64.32 4 32.64 4 0 4 C0 2.68 0 1.36 0 0 Z " fill="#3BEB3B" transform="translate(1044,449)"/>
<path d="M0 0 C30.03 0 60.06 0 91 0 C91 1.32 91 2.64 91 4 C60.97 4 30.94 4 0 4 C0 2.68 0 1.36 0 0 Z " fill="#49E949" transform="translate(1395,449)"/>
<path d="M0 0 C2.74609375 1.4921875 2.74609375 1.4921875 5 3 C7.69254991 3.70670728 7.69254991 3.70670728 10 4 C10 6.31 10 8.62 10 11 C5.25 10.125 5.25 10.125 3 9 C3 8.01 3 7.02 3 6 C-2.36688164 3.57374248 -7.18415809 3.3072306 -13 4 C-18.00230198 6.45567552 -21.49851535 9.9970307 -24 15 C-24.56088092 20.99711135 -24.45741843 25.87348302 -21 31 C-17.70950291 34.70180922 -15.61903002 36.74190496 -10.58203125 37.23828125 C-4.31807713 37.40614462 1.04781324 37.19121243 6 33 C8.98600846 28.8106747 10.53174525 23.89418249 12 19 C12.66 19 13.32 19 14 19 C13.80301392 26.73618062 11.91703942 32.10188347 6.3828125 37.609375 C1.16918991 41.59231414 -4.25431364 41.73658939 -10.65234375 41.4765625 C-16.43507014 40.65335058 -19.95552805 38.59411642 -23.5546875 34.02734375 C-27.30766339 28.3554734 -29.00009636 22.87125031 -28 16 C-25.92876466 9.45287561 -22.69462132 4.52985517 -16.73828125 0.99609375 C-11.33082699 -0.97095452 -5.63730126 -0.8782752 0 0 Z " fill="#131B10" transform="translate(1534,430)"/>
<path d="M0 0 C2.5 0.125 2.5 0.125 3.5 1.125 C3.54063832 2.79117115 3.542721 4.45888095 3.5 6.125 C6.14 6.455 8.78 6.785 11.5 7.125 C11.17 8.445 10.84 9.765 10.5 11.125 C8.85 11.455 7.2 11.785 5.5 12.125 C5.5 18.065 5.5 24.005 5.5 30.125 C4.18 30.455 2.86 30.785 1.5 31.125 C0.84 30.465 0.18 29.805 -0.5 29.125 C-2.15 29.455 -3.8 29.785 -5.5 30.125 C-5.5 24.185 -5.5 18.245 -5.5 12.125 C-7.15 11.795 -8.8 11.465 -10.5 11.125 C-10.83 9.805 -11.16 8.485 -11.5 7.125 C-8.86 6.795 -6.22 6.465 -3.5 6.125 C-3.520625 5.320625 -3.54125 4.51625 -3.5625 3.6875 C-3.47911354 0.26865518 -3.40649644 0.17032482 0 0 Z " fill="#151F12" transform="translate(1004.5,435.875)"/>
<path d="M0 0 C0.66 0 1.32 0 2 0 C0.84826645 2.46800047 -0.04783565 4.04783565 -2 6 C-2.07089844 7.05832031 -2.14179687 8.11664063 -2.21484375 9.20703125 C-3.27358754 14.32165922 -5.76085678 16.31048711 -9.5625 19.6875 C-10.78087744 20.78595338 -11.990961 21.8936961 -13.19140625 23.01171875 C-13.72967041 23.49084717 -14.26793457 23.96997559 -14.82250977 24.46362305 C-16.40553453 26.20652042 -16.40553453 26.20652042 -16 30 C-18.49361571 28.79618552 -20.68143083 27.54571278 -23 26 C-23 27.32 -23 28.64 -23 30 C-25.62187494 28.95125002 -26.79371361 28.35068687 -28.25 25.875 C-28.4975 25.25625 -28.745 24.6375 -29 24 C-27.35 24.33 -25.7 24.66 -24 25 C-24.66 24.21625 -25.32 23.4325 -26 22.625 C-28 20 -28 20 -28 18 C-27.29617188 17.95875 -26.59234375 17.9175 -25.8671875 17.875 C-21.29539623 16.47979394 -18.7042765 12.79896588 -15.63671875 9.3046875 C-11.94110215 5.33069978 -9.5707367 4.43365016 -4 4 C-1.70710528 2.04190477 -1.70710528 2.04190477 0 0 Z " fill="#0D140B" transform="translate(823,440)"/>
<path d="M0 0 C1.84241041 0.22738609 3.67562004 0.53175326 5.5 0.875 C7.00046875 1.14957031 7.00046875 1.14957031 8.53125 1.4296875 C11 2 11 2 12 3 C12.08713831 4.70772358 12.10700007 6.41898649 12.09765625 8.12890625 C12.09443359 9.16337891 12.09121094 10.19785156 12.08789062 11.26367188 C12.07951172 12.35228516 12.07113281 13.44089844 12.0625 14.5625 C12.05798828 15.65498047 12.05347656 16.74746094 12.04882812 17.87304688 C12.03699826 20.58208495 12.02051543 23.29101599 12 26 C8.38026598 27.31626692 5.90432869 28 2 28 C2 28.99 2 29.98 2 31 C1.34 31 0.68 31 0 31 C0 30.34 0 29.68 0 29 C-0.99 29 -1.98 29 -3 29 C-3 28.34 -3 27.68 -3 27 C-3.78375 27.04125 -4.5675 27.0825 -5.375 27.125 C-8 27 -8 27 -10 25 C-10.25878906 22.87695312 -10.25878906 22.87695312 -10.265625 20.28125 C-10.26820313 19.34925781 -10.27078125 18.41726563 -10.2734375 17.45703125 C-10.26570313 16.48121094 -10.25796875 15.50539063 -10.25 14.5 C-10.25773437 13.52417969 -10.26546875 12.54835938 -10.2734375 11.54296875 C-10.27085937 10.61097656 -10.26828125 9.67898438 -10.265625 8.71875 C-10.26336914 7.86216797 -10.26111328 7.00558594 -10.25878906 6.12304688 C-10 4 -10 4 -8 2 C-5.67182036 1.63239269 -3.3381615 1.29758419 -1 1 C-0.67 0.67 -0.34 0.34 0 0 Z M0 2 C-0.33 2.33 -0.66 2.66 -1 3 C-3.31 3.33 -5.62 3.66 -8 4 C-8 9.28 -8 14.56 -8 20 C-1.30574587 20.21594368 4.46296317 19.47313506 11 18 C11 13.38 11 8.76 11 4 C9.9275 3.855625 8.855 3.71125 7.75 3.5625 C4 3 4 3 1.625 2.375 C1.08875 2.25125 0.5525 2.1275 0 2 Z " fill="#1A2717" transform="translate(423,433)"/>
<path d="M0 0 C2.69241303 2.40955251 4.86503103 5.09280821 7 8 C5.79618552 10.49361571 4.54571278 12.68143083 3 15 C6.07956297 13.47648077 6.07956297 13.47648077 9 11 C9.97350778 7.3634269 9.97350778 7.3634269 10 4 C10.33 4 10.66 4 11 4 C11.42558158 7.10066581 11.5832923 9.91319653 11 13 C8.35217857 16.36158198 5.10692174 17.69383016 1.0625 18.8125 C-3.94293208 17.48452822 -6.91382398 14.04194212 -10 10 C-11.25 6.75 -11.25 6.75 -11 4 C-8.15774837 -0.50023174 -5.06582567 -1.03033743 0 0 Z " fill="#DAFBDA" transform="translate(230,447)"/>
<path d="M0 0 C0.86625 -0.00515625 1.7325 -0.0103125 2.625 -0.015625 C5 0.25 5 0.25 8 2.25 C8.1875 5.875 8.1875 5.875 8 9.25 C7.67 8.26 7.34 7.27 7 6.25 C6.01 6.745 6.01 6.745 5 7.25 C3.02 7.25 1.04 7.25 -1 7.25 C-1 12.2 -1 17.15 -1 22.25 C-2.65 22.25 -4.3 22.25 -6 22.25 C-8.77074229 19.47925771 -8.28860048 17.55617575 -8.32226562 13.7734375 C-8.31904297 12.94070313 -8.31582031 12.10796875 -8.3125 11.25 C-8.32861328 10.41726563 -8.34472656 9.58453125 -8.36132812 8.7265625 C-8.36197266 7.92992187 -8.36261719 7.13328125 -8.36328125 6.3125 C-8.36626221 5.58160156 -8.36924316 4.85070312 -8.37231445 4.09765625 C-7.50596006 -0.20173392 -3.58801711 -0.02135724 0 0 Z " fill="#090D07" transform="translate(612,436.75)"/>
<path d="M0 0 C2.5625 1.1875 2.5625 1.1875 4 3 C4.5 5.5 4.5 5.5 4 8 C2.19252626 10.27898863 0.72557499 10.89083092 -2.12890625 11.3203125 C-6.01431136 11.51234241 -8.30146787 11.44905637 -11.625 9.3125 C-13 7 -13 7 -12.9375 4.375 C-10.69172274 -1.31430238 -5.17012531 -0.59727079 0 0 Z " fill="#6DA15E" transform="translate(1180,437)"/>
<path d="M0 0 C1.04414062 0.17789062 1.04414062 0.17789062 2.109375 0.359375 C2.359375 3.171875 2.359375 3.171875 2.109375 6.359375 C0.234375 8.234375 0.234375 8.234375 -1.890625 9.359375 C-2.550625 9.359375 -3.210625 9.359375 -3.890625 9.359375 C-3.890625 10.349375 -3.890625 11.339375 -3.890625 12.359375 C-4.880625 12.359375 -5.870625 12.359375 -6.890625 12.359375 C-6.890625 13.349375 -6.890625 14.339375 -6.890625 15.359375 C-9.390625 17.546875 -9.390625 17.546875 -11.890625 19.359375 C-13.210625 18.369375 -14.530625 17.379375 -15.890625 16.359375 C-15.03062515 11.78831565 -12.34186923 9.29537521 -9.140625 6.109375 C-8.6146875 5.55507813 -8.08875 5.00078125 -7.546875 4.4296875 C-5.06783411 1.93837413 -3.55217394 0.44162163 0 0 Z " fill="#8ACA76" transform="translate(815.890625,445.640625)"/>
<path d="M0 0 C6.6 0 13.2 0 20 0 C20 0.66 20 1.32 20 2 C18.02 2.33 16.04 2.66 14 3 C14 8.94 14 14.88 14 21 C13.67 21 13.34 21 13 21 C12.67 17.7 12.34 14.4 12 11 C11.01 11 10.02 11 9 11 C9.04125 12.093125 9.0825 13.18625 9.125 14.3125 C9 18 9 18 7 21 C7 15.06 7 9.12 7 3 C4.69 2.34 2.38 1.68 0 1 C0 0.67 0 0.34 0 0 Z " fill="#95DB80" transform="translate(994,444)"/>
<path d="M0 0 C0.4125 0.515625 0.825 1.03125 1.25 1.5625 C2.89081865 3.25326429 2.89081865 3.25326429 5.0625 2.8125 C7.18712526 2.06529664 7.18712526 2.06529664 9 0 C10.65 1.65 12.3 3.3 14 5 C13.690625 5.556875 13.38125 6.11375 13.0625 6.6875 C11.94238179 9.12540433 11.43962636 11.36224186 11 14 C5.97387433 13.14377948 2.957419 10.00840261 0 6 C-0.4375 2.5625 -0.4375 2.5625 0 0 Z " fill="#41EC41" transform="translate(221,450)"/>
<path d="M0 0 C1.875 1.125 1.875 1.125 3 3 C2.875 6.0625 2.875 6.0625 2 9 C-1 11 -1 11 -4.125 10.75 C-5.548125 10.37875 -5.548125 10.37875 -7 10 C-8.39431504 7.21136993 -8.25660094 5.07921132 -8 2 C-4.76746204 -0.15502531 -3.74849077 -0.46856135 0 0 Z " fill="#82F282" transform="translate(236,433)"/>
<path d="M0 0 C1.79244141 0.01740234 1.79244141 0.01740234 3.62109375 0.03515625 C5.41740234 0.04869141 5.41740234 0.04869141 7.25 0.0625 C8.17683594 0.07410156 9.10367187 0.08570313 10.05859375 0.09765625 C10.05859375 0.42765625 10.05859375 0.75765625 10.05859375 1.09765625 C8.40859375 1.09765625 6.75859375 1.09765625 5.05859375 1.09765625 C5.05859375 3.40765625 5.05859375 5.71765625 5.05859375 8.09765625 C7.03859375 7.76765625 9.01859375 7.43765625 11.05859375 7.09765625 C10.72859375 7.75765625 10.39859375 8.41765625 10.05859375 9.09765625 C8.12178214 9.17873208 6.18400035 9.236881 4.24609375 9.28515625 C3.16714844 9.31996094 2.08820313 9.35476563 0.9765625 9.390625 C-1.94140625 9.09765625 -1.94140625 9.09765625 -3.84375 7.75 C-4.94140625 6.09765625 -4.94140625 6.09765625 -4.69140625 3.47265625 C-3.63286631 0.12061309 -3.63286631 0.12061309 0 0 Z " fill="#1B2717" transform="translate(1351.94140625,437.90234375)"/>
<path d="M0 0 C0.7734375 0.2165625 0.7734375 0.2165625 1.5625 0.4375 C4.17904334 1.0868822 4.17904334 1.0868822 7.625 1.4375 C11 2 11 2 13 4 C13.125 6.625 13.125 6.625 13 9 C10.15916359 10.42041821 8.14522722 10.31452272 5 10 C1.86842368 7.79943285 1.11501777 6.49841035 0.25 2.75 C0.1675 1.8425 0.085 0.935 0 0 Z " fill="#58824C" transform="translate(1179,451)"/>
<path d="M0 0 C6.49398992 -0.36758434 6.49398992 -0.36758434 8.69921875 1.234375 C10.75956131 4.03099614 10.5286189 6.46127756 10.4296875 9.8359375 C10 12 10 12 7.625 14.5625 C5 16 5 16 3 16 C3.33 15.4225 3.66 14.845 4 14.25 C5.27075898 11.80116138 5.27075898 11.80116138 5 8 C3.3540349 6.31288577 1.68762851 4.6454378 0 3 C0 2.01 0 1.02 0 0 Z " fill="#5DEF5D" transform="translate(230,446)"/>
<path d="M0 0 C0.33 1.65 0.66 3.3 1 5 C-5.27 5 -11.54 5 -18 5 C-18 3.68 -18 2.36 -18 1 C-17.24074219 0.93941406 -16.48148437 0.87882812 -15.69921875 0.81640625 C-14.70535156 0.73261719 -13.71148437 0.64882813 -12.6875 0.5625 C-11.70136719 0.48128906 -10.71523438 0.40007812 -9.69921875 0.31640625 C-1.91911765 -0.59558824 -1.91911765 -0.59558824 0 0 Z " fill="#94D97F" transform="translate(433,453)"/>
<path d="M0 0 C2.375 0.8125 2.375 0.8125 3.375 2.8125 C0.405 2.3175 0.405 2.3175 -2.625 1.8125 C-2.295 3.7925 -1.965 5.7725 -1.625 7.8125 C-0.635 8.1425 0.355 8.4725 1.375 8.8125 C1.375 8.1525 1.375 7.4925 1.375 6.8125 C0.715 6.8125 0.055 6.8125 -0.625 6.8125 C-0.625 6.1525 -0.625 5.4925 -0.625 4.8125 C1.025 4.8125 2.675 4.8125 4.375 4.8125 C4.375 6.7925 4.375 8.7725 4.375 10.8125 C-2.375 10.9375 -2.375 10.9375 -4.625 9.8125 C-6.10482709 3.66552594 -6.10482709 3.66552594 -4.5 0.8125 C-2.625 -0.1875 -2.625 -0.1875 0 0 Z " fill="#273622" transform="translate(1528.625,444.1875)"/>
<path d="M0 0 C0.25 2.3125 0.25 2.3125 0 5 C-2.04424538 6.97610386 -3.1176825 8 -6 8 C-6 8.99 -6 9.98 -6 11 C-9 11 -9 11 -10.6875 9.5 C-11.120625 9.005 -11.55375 8.51 -12 8 C-10.76284282 6.6547417 -9.50975423 5.32412124 -8.25 4 C-7.20585938 2.88625 -7.20585938 2.88625 -6.140625 1.75 C-4 0 -4 0 0 0 Z " fill="#9DE686" transform="translate(818,447)"/>
<path d="M0 0 C0.33 0 0.66 0 1 0 C1.90234375 2.5703125 1.90234375 2.5703125 2 6 C0.22426181 8.67848777 -2.06589329 10.72474325 -4.4375 12.875 C-5.06205078 13.46796875 -5.68660156 14.0609375 -6.33007812 14.671875 C-7.87145074 16.13088419 -9.4337968 17.56767849 -11 19 C-11.66 18.34 -12.32 17.68 -13 17 C-12.484375 16.608125 -11.96875 16.21625 -11.4375 15.8125 C-10.7259375 14.9153125 -10.7259375 14.9153125 -10 14 C-10.23043864 11.34533951 -10.23043864 11.34533951 -11 9 C-9.68 9.66 -8.36 10.32 -7 11 C-6.7763932 8.0745356 -6.7763932 8.0745356 -8 6 C-6.824375 6.309375 -6.824375 6.309375 -5.625 6.625 C-4.75875 6.74875 -3.8925 6.8725 -3 7 C-0.64046906 4.64046906 -0.50858587 3.22104383 0 0 Z " fill="#1D2B19" transform="translate(818,447)"/>
<path d="M0 0 C3.51449145 0.01678897 4.38059167 0.07296179 7.25 2.3125 C7.724375 2.9725 8.19875 3.6325 8.6875 4.3125 C7.6975 3.9825 6.7075 3.6525 5.6875 3.3125 C5.3575 4.3025 5.0275 5.2925 4.6875 6.3125 C2.0475 6.3125 -0.5925 6.3125 -3.3125 6.3125 C-3.6425 5.6525 -3.9725 4.9925 -4.3125 4.3125 C-3.9825 3.6525 -3.6525 2.9925 -3.3125 2.3125 C-3.9725 1.9825 -4.6325 1.6525 -5.3125 1.3125 C-3.74308802 -0.25691198 -2.17115006 0.0675153 0 0 Z " fill="#9CE485" transform="translate(1175.3125,436.6875)"/>
<path d="M0 0 C6.27 0 12.54 0 19 0 C18.67 0.66 18.34 1.32 18 2 C15.93359375 2.4140625 15.93359375 2.4140625 13.4375 2.625 C12.61121094 2.69976562 11.78492188 2.77453125 10.93359375 2.8515625 C9.97646484 2.92503906 9.97646484 2.92503906 9 3 C9 3.99 9 4.98 9 6 C8.34 6 7.68 6 7 6 C7 5.34 7 4.68 7 4 C6.01 4 5.02 4 4 4 C4 3.34 4 2.68 4 2 C2.35 2 0.7 2 -1 2 C-0.67 1.34 -0.34 0.68 0 0 Z " fill="#283B22" transform="translate(416,458)"/>
<path d="M0 0 C2.5 0.125 2.5 0.125 3.5 1.125 C3.479375 1.929375 3.45875 2.73375 3.4375 3.5625 C3.20941092 6.29418103 3.20941092 6.29418103 5.5 8.125 C1.87 8.125 -1.76 8.125 -5.5 8.125 C-4.84 7.465 -4.18 6.805 -3.5 6.125 C-3.45936168 4.45882885 -3.457279 2.79111905 -3.5 1.125 C-2.5 0.125 -2.5 0.125 0 0 Z " fill="#4E7243" transform="translate(1004.5,435.875)"/>
<path d="M0 0 C1.65 0 3.3 0 5 0 C6.31626692 3.61973402 7 6.09567131 7 10 C6.34 10 5.68 10 5 10 C5 9.01 5 8.02 5 7 C3.35 7 1.7 7 0 7 C0 7.99 0 8.98 0 10 C-0.66 10 -1.32 10 -2 10 C-1.34 6.7 -0.68 3.4 0 0 Z " fill="#1F2C1B" transform="translate(1515,445)"/>
<path d="M0 0 C3 2 3 2 3.625 3.98828125 C3.810625 5.13876953 3.810625 5.13876953 4 6.3125 C4.72490771 10.10151338 5.76822506 12.79788813 8 16 C8.33 16.66 8.66 17.32 9 18 C8.34 18 7.68 18 7 18 C6.67 18.66 6.34 19.32 6 20 C5.18071114 18.75443908 4.36984814 17.50333365 3.5625 16.25 C3.11003906 15.55390625 2.65757813 14.8578125 2.19140625 14.140625 C-0.39335243 9.496534 -0.08650904 5.19054257 0 0 Z " fill="#1C2919" transform="translate(1506,446)"/>
<path d="M0 0 C4.33420402 0.36118367 5.8748258 1.08881984 8.75 4.3125 C9.1875 6.9375 9.1875 6.9375 8.75 9.3125 C6.35713116 11.70536884 5.65552906 11.63300616 2.375 11.6875 C-0.94148331 11.61261167 -2.03692523 11.45454985 -4.875 9.5625 C-6.25 7.3125 -6.25 7.3125 -6 5.0625 C-5.62875 4.19625 -5.62875 4.19625 -5.25 3.3125 C-4.5384375 4.5190625 -4.5384375 4.5190625 -3.8125 5.75 C-2.48099846 8.16003488 -2.48099846 8.16003488 -1.25 9.3125 C1.42058851 9.45365161 4.07432238 9.35497107 6.75 9.3125 C6.09 7.3325 5.43 5.3525 4.75 3.3125 C3.63625 3.168125 2.5225 3.02375 1.375 2.875 C-2.25 2.3125 -2.25 2.3125 -4.25 1.3125 C-3.25 0.3125 -3.25 0.3125 0 0 Z " fill="#131D10" transform="translate(1185.25,450.6875)"/>
<path d="M0 0 C1.98 0 3.96 0 6 0 C5.505 0.556875 5.01 1.11375 4.5 1.6875 C2.7006763 4.46145738 2.51278971 5.75193139 3 9 C4.39957197 11.28484306 4.39957197 11.28484306 6 13 C5.67 13.33 5.34 13.66 5 14 C3.35 14 1.7 14 0 14 C0 9.38 0 4.76 0 0 Z " fill="#97DD81" transform="translate(612,444)"/>
<path d="M0 0 C2.31 0 4.62 0 7 0 C7.33 1.65 7.66 3.3 8 5 C4.91190305 6.76462683 3.76687864 7 0 7 C0 4.69 0 2.38 0 0 Z " fill="#7FBA6D" transform="translate(1357,439)"/>
<path d="M0 0 C4.84455959 2.37823834 4.84455959 2.37823834 7 4 C7.9375 6.75 7.9375 6.75 8 9 C5.50638429 7.79618552 3.31856917 6.54571278 1 5 C1 6.32 1 7.64 1 9 C-1.62187494 7.95125002 -2.79371361 7.35068687 -4.25 4.875 C-4.4975 4.25625 -4.745 3.6375 -5 3 C-2.525 3.495 -2.525 3.495 0 4 C0 2.68 0 1.36 0 0 Z " fill="#151F12" transform="translate(799,461)"/>
<path d="M0 0 C0.33 0.99 0.66 1.98 1 3 C0.34 3.66 -0.32 4.32 -1 5 C-3.625 4.625 -3.625 4.625 -6 4 C-5.67 4.66 -5.34 5.32 -5 6 C-3.02 5.67 -1.04 5.34 1 5 C1.33 3.68 1.66 2.36 2 1 C2.66 1 3.32 1 4 1 C3.6875 3.375 3.6875 3.375 3 6 C-0.4352048 8.29013653 -1.985331 8.17842973 -6 8 C-6.6875 5.6875 -6.6875 5.6875 -7 3 C-4.87164172 -0.24854684 -4.06968429 0 0 0 Z " fill="#8DCF79" transform="translate(1174,449)"/>
<path d="M0 0 C0.66 0.33 1.32 0.66 2 1 C2 1.99 2 2.98 2 4 C-1.04983996 5.52491998 -3.6423369 5.23562548 -7 5 C-8.9375 3.5 -8.9375 3.5 -10 2 C-6.33134759 -0.44576827 -4.32799657 -0.23607254 0 0 Z " fill="#8ED07A" transform="translate(616,438)"/>
<path d="M0 0 C2.31 0 4.62 0 7 0 C7 0.66 7 1.32 7 2 C5.35 2 3.7 2 2 2 C2 2.99 2 3.98 2 5 C3.32 5.33 4.64 5.66 6 6 C4.68 6 3.36 6 2 6 C2 6.99 2 7.98 2 9 C3.65 9 5.3 9 7 9 C7 9.66 7 10.32 7 11 C4.69 11 2.38 11 0 11 C0 7.37 0 3.74 0 0 Z " fill="#1F2C1B" transform="translate(1535,444)"/>
<path d="M0 0 C1.67542976 0.28604898 3.34385343 0.61781233 5 1 C5.38218767 2.65614657 5.71395102 4.32457024 6 6 C5 7 5 7 2.5625 7.1875 C0 7 0 7 -2 5 C-1.46428571 1.46428571 -1.46428571 1.46428571 0 0 Z " fill="#81BD6E" transform="translate(617,447)"/>
<path d="M0 0 C4.28706385 -0.25218023 7.93897316 -0.39788506 12 1.125 C14 3 14 3 15.0625 5.875 C14.98262827 9.8685865 13.82274497 11.25790489 11 14 C10.34 14 9.68 14 9 14 C9 13.34 9 12.68 9 12 C9.99 11.34 10.98 10.68 12 10 C12.5 7.5 12.5 7.5 12 5 C9.14521674 3.09681116 7.58058692 2.5380901 4.3125 1.875 C3.50425781 1.70742188 2.69601562 1.53984375 1.86328125 1.3671875 C1.24839844 1.24601562 0.63351562 1.12484375 0 1 C0 0.67 0 0.34 0 0 Z " fill="#21311D" transform="translate(1171,435)"/>
<path d="M0 0 C0.66 0.66 1.32 1.32 2 2 C0.28526178 3.37239118 -1.44742008 4.72238561 -3.1875 6.0625 C-4.15042969 6.81660156 -5.11335938 7.57070313 -6.10546875 8.34765625 C-9 10 -9 10 -11.86328125 9.74609375 C-12.56839844 9.49988281 -13.27351563 9.25367188 -14 9 C-12 7 -12 7 -9.375 6.875 C-8.59125 6.91625 -7.8075 6.9575 -7 7 C-6.773125 6.401875 -6.54625 5.80375 -6.3125 5.1875 C-4.66188867 2.43648112 -2.8027919 1.47515363 0 0 Z " fill="#90D37B" transform="translate(1366,449)"/>
<path d="M0 0 C0.78375 0.04125 1.5675 0.0825 2.375 0.125 C2.375 2.105 2.375 4.085 2.375 6.125 C0.395 6.125 -1.585 6.125 -3.625 6.125 C-4.25 4.25 -4.25 4.25 -4.625 2.125 C-2.625 0.125 -2.625 0.125 0 0 Z " fill="#81BE6F" transform="translate(1352.625,438.875)"/>
<path d="M0 0 C0.33 0 0.66 0 1 0 C1.33 6.27 1.66 12.54 2 19 C0.68 19.33 -0.64 19.66 -2 20 C-3.15941038 16.52176885 -2.70820884 14.54104422 -2 11 C-1.67 11 -1.34 11 -1 11 C-0.67 7.37 -0.34 3.74 0 0 Z " fill="#344C2C" transform="translate(1008,447)"/>
<path d="M0 0 C1.98 0 3.96 0 6 0 C6 0.66 6 1.32 6 2 C6.66 2 7.32 2 8 2 C8 3.65 8 5.3 8 7 C7.01 7 6.02 7 5 7 C5 6.34 5 5.68 5 5 C3.35 5 1.7 5 0 5 C0 3.35 0 1.7 0 0 Z " fill="#7BB56A" transform="translate(1537,448)"/>
<path d="M0 0 C2.125 0.375 2.125 0.375 4 1 C4.33 2.32 4.66 3.64 5 5 C3.35 5.33 1.7 5.66 0 6 C-0.66 4.68 -1.32 3.36 -2 2 C-1.34 1.34 -0.68 0.68 0 0 Z " fill="#354E2D" transform="translate(1188,444)"/>
<path d="M0 0 C0.33 0 0.66 0 1 0 C1.09765625 6.15234375 1.09765625 6.15234375 1 8 C0.67 8.33 0.34 8.66 0 9 C-0.23427778 11.01594582 -0.41336124 13.038474 -0.5625 15.0625 C-0.64628906 16.16722656 -0.73007812 17.27195312 -0.81640625 18.41015625 C-0.87699219 19.26480469 -0.93757812 20.11945313 -1 21 C-1.33 21 -1.66 21 -2 21 C-2.09087891 19.71802734 -2.09087891 19.71802734 -2.18359375 18.41015625 C-2.26738281 17.30542969 -2.35117187 16.20070313 -2.4375 15.0625 C-2.51871094 13.96035156 -2.59992187 12.85820312 -2.68359375 11.72265625 C-2.70418084 9.08890097 -2.70418084 9.08890097 -4 8 C-4.04080783 6.00041636 -4.04254356 3.99954746 -4 2 C-3.67 2 -3.34 2 -3 2 C-3 3.65 -3 5.3 -3 7 C-2.01 7 -1.02 7 0 7 C0 4.69 0 2.38 0 0 Z " fill="#060A05" transform="translate(631,436)"/>
<path d="M0 0 C2.31 0 4.62 0 7 0 C7 0.99 7 1.98 7 3 C5.35 3 3.7 3 2 3 C2 3.66 2 4.32 2 5 C2.66 5 3.32 5 4 5 C4 5.66 4 6.32 4 7 C2.68 6.67 1.36 6.34 0 6 C0 4.02 0 2.04 0 0 Z " fill="#8ACB76" transform="translate(1526,446)"/>
<path d="M0 0 C2.31 0.33 4.62 0.66 7 1 C7.33 2.32 7.66 3.64 8 5 C3.71 4.34 -0.58 3.68 -5 3 C-5 2.67 -5 2.34 -5 2 C-3.35 2 -1.7 2 0 2 C0 1.34 0 0.68 0 0 Z " fill="#212F1D" transform="translate(1529,430)"/>
<path d="M0 0 C1.98 0 3.96 0 6 0 C6 3 6 3 5 5 C3.35 4.67 1.7 4.34 0 4 C0 2.68 0 1.36 0 0 Z " fill="#97DE81" transform="translate(1184,453)"/>
<path d="M0 0 C2.97 0 5.94 0 9 0 C9 0.66 9 1.32 9 2 C7.68 2 6.36 2 5 2 C5 2.99 5 3.98 5 5 C4.34 5 3.68 5 3 5 C3 4.34 3 3.68 3 3 C2.01 3 1.02 3 0 3 C0 2.01 0 1.02 0 0 Z " fill="#10180E" transform="translate(420,459)"/>
<path d="M0 0 C0.66 0.33 1.32 0.66 2 1 C1.17812739 5.38332057 0.09845718 9.67940177 -1 14 C-1.33 14 -1.66 14 -2 14 C-2.05437607 12.41705218 -2.09296271 10.83355744 -2.125 9.25 C-2.14820313 8.36828125 -2.17140625 7.4865625 -2.1953125 6.578125 C-1.99139502 3.8864142 -1.36551721 2.30095026 0 0 Z " fill="#0C110B" transform="translate(1509,439)"/>
<path d="M0 0 C0.99 0 1.98 0 3 0 C3 2.64 3 5.28 3 8 C2.01 8 1.02 8 0 8 C-0.38063221 5.6739143 -0.71269945 3.33944736 -1 1 C-0.67 0.67 -0.34 0.34 0 0 Z " fill="#639255" transform="translate(628,435)"/>
<path d="M0 0 C0.33 0.66 0.66 1.32 1 2 C-0.98 2.66 -2.96 3.32 -5 4 C-5 3.67 -5 3.34 -5 3 C-7.64 2.67 -10.28 2.34 -13 2 C-13 1.67 -13 1.34 -13 1 C-11.20994059 0.63779734 -9.41787943 0.28547531 -7.625 -0.0625 C-6.12839844 -0.35833984 -6.12839844 -0.35833984 -4.6015625 -0.66015625 C-2 -1 -2 -1 0 0 Z " fill="#2A3D25" transform="translate(1537,467)"/>
<path d="M0 0 C1.65 0 3.3 0 5 0 C4.67 1.98 4.34 3.96 4 6 C3.01 6 2.02 6 1 6 C0.67 4.02 0.34 2.04 0 0 Z " fill="#3B5733" transform="translate(1515,445)"/>
<path d="M0 0 C0.66 0 1.32 0 2 0 C1.67 0.99 1.34 1.98 1 3 C-0.98 3.33 -2.96 3.66 -5 4 C-5.33 3.01 -5.66 2.02 -6 1 C-4.7934375 1.0309375 -4.7934375 1.0309375 -3.5625 1.0625 C-1.06645115 1.29633621 -1.06645115 1.29633621 0 0 Z " fill="#20301C" transform="translate(1174,452)"/>
<path d="M0 0 C1.65 0 3.3 0 5 0 C5 1.98 5 3.96 5 6 C4.01 5.67 3.02 5.34 2 5 C2.66 5 3.32 5 4 5 C4 4.34 4 3.68 4 3 C2.68 2.67 1.36 2.34 0 2 C0 1.34 0 0.68 0 0 Z " fill="#476040" transform="translate(1528,449)"/>
<path d="M0 0 C0.33 0.99 0.66 1.98 1 3 C-1.3125 4.125 -1.3125 4.125 -4 5 C-4.99 4.34 -5.98 3.68 -7 3 C-3.535 2.505 -3.535 2.505 0 2 C0 1.34 0 0.68 0 0 Z " fill="#82BE6F" transform="translate(1359,454)"/>
<path d="M0 0 C1.98 0.495 1.98 0.495 4 1 C4 1.99 4 2.98 4 4 C2.35 3.67 0.7 3.34 -1 3 C-0.67 2.01 -0.34 1.02 0 0 Z " fill="#56EE56" transform="translate(224,448)"/>
</svg>
